<svg class="plot-d6a7b5" fill="currentColor" font-family="system-ui, sans-serif" font-size="10" text-anchor="middle" width="500" height="220" viewBox="0 0 500 220" style="background: white; font-family: Helvetica Neue, Helvetica, Arial, sans-serif;" xmlns="http://www.w3.org/2000/svg" xmlns:xlink="http://www.w3.org/1999/xlink" version="1.1"><style>:where(.plot-d6a7b5) {
  --plot-background: white;
  display: block;
  height: auto;
  height: intrinsic;
  max-width: 100%;
}
:where(.plot-d6a7b5 text),
:where(.plot-d6a7b5 tspan) {
  white-space: pre;
}</style><g aria-label="x-grid" aria-hidden="true"><g stroke="currentColor" stroke-opacity="0.1" transform="translate(0,0)"><line x1="115" x2="115" y1="20" y2="100"></line><line x1="188" x2="188" y1="20" y2="100"></line><line x1="261" x2="261" y1="20" y2="100"></line><line x1="334" x2="334" y1="20" y2="100"></line><line x1="407" x2="407" y1="20" y2="100"></line><line x1="480" x2="480" y1="20" y2="100"></line></g><g stroke="currentColor" stroke-opacity="0.1" transform="translate(0,89)"><line x1="115" x2="115" y1="20" y2="100"></line><line x1="188" x2="188" y1="20" y2="100"></line><line x1="261" x2="261" y1="20" y2="100"></line><line x1="334" x2="334" y1="20" y2="100"></line><line x1="407" x2="407" y1="20" y2="100"></line><line x1="480" x2="480" y1="20" y2="100"></line></g></g><g aria-label="x-axis tick" aria-hidden="true"><g fill="none" stroke="currentColor" transform="translate(0,89)"><path transform="translate(115,100)" d="M0,0L0,6"></path><path transform="translate(188,100)" d="M0,0L0,6"></path><path transform="translate(261,100)" d="M0,0L0,6"></path><path transform="translate(334,100)" d="M0,0L0,6"></path><path transform="translate(407,100)" d="M0,0L0,6"></path><path transform="translate(480,100)" d="M0,0L0,6"></path></g></g><g aria-label="x-axis tick label" transform="translate(0,9)"><g font-variant="tabular-nums" transform="translate(0,89)"><text y="0.71em" transform="translate(115,100)">0</text><text y="0.71em" transform="translate(188,100)">20</text><text y="0.71em" transform="translate(261,100)">40</text><text y="0.71em" transform="translate(334,100)">60</text><text y="0.71em" transform="translate(407,100)">80</text><text y="0.71em" transform="translate(480,100)">100</text></g></g><g aria-label="x-axis label" text-anchor="end" transform="translate(17,27)"><text transform="translate(480,189)">Time taken to merge all events, in milliseconds. (Less is better) →</text></g><g aria-label="x-grid" aria-hidden="true"><g stroke="currentColor" stroke-width="0.5" stroke-opacity="0.15" transform="translate(0,0)"><line x1="115" x2="115" y1="20" y2="100"></line><line x1="151.5" x2="151.5" y1="20" y2="100"></line><line x1="188" x2="188" y1="20" y2="100"></line><line x1="224.5" x2="224.5" y1="20" y2="100"></line><line x1="261" x2="261" y1="20" y2="100"></line><line x1="297.5" x2="297.5" y1="20" y2="100"></line><line x1="334" x2="334" y1="20" y2="100"></line><line x1="370.5" x2="370.5" y1="20" y2="100"></line><line x1="407" x2="407" y1="20" y2="100"></line><line x1="443.5" x2="443.5" y1="20" y2="100"></line><line x1="480" x2="480" y1="20" y2="100"></line></g><g stroke="currentColor" stroke-width="0.5" stroke-opacity="0.15" transform="translate(0,89)"><line x1="115" x2="115" y1="20" y2="100"></line><line x1="151.5" x2="151.5" y1="20" y2="100"></line><line x1="188" x2="188" y1="20" y2="100"></line><line x1="224.5" x2="224.5" y1="20" y2="100"></line><line x1="261" x2="261" y1="20" y2="100"></line><line x1="297.5" x2="297.5" y1="20" y2="100"></line><line x1="334" x2="334" y1="20" y2="100"></line><line x1="370.5" x2="370.5" y1="20" y2="100"></line><line x1="407" x2="407" y1="20" y2="100"></line><line x1="443.5" x2="443.5" y1="20" y2="100"></line><line x1="480" x2="480" y1="20" y2="100"></line></g></g><g aria-label="y-axis tick" aria-hidden="true" transform="translate(0,5)"><g fill="none" stroke="currentColor" transform="translate(0,0)"><path transform="translate(115,22)" d="M0,0L-6,0"></path><path transform="translate(115,33)" d="M0,0L-6,0"></path><path transform="translate(115,44)" d="M0,0L-6,0"></path><path transform="translate(115,55)" d="M0,0L-6,0"></path><path transform="translate(115,66)" d="M0,0L-6,0"></path><path transform="translate(115,77)" d="M0,0L-6,0"></path><path transform="translate(115,88)" d="M0,0L-6,0"></path></g><g fill="none" stroke="currentColor" transform="translate(0,89)"><path transform="translate(115,22)" d="M0,0L-6,0"></path><path transform="translate(115,33)" d="M0,0L-6,0"></path><path transform="translate(115,44)" d="M0,0L-6,0"></path><path transform="translate(115,55)" d="M0,0L-6,0"></path><path transform="translate(115,66)" d="M0,0L-6,0"></path><path transform="translate(115,77)" d="M0,0L-6,0"></path><path transform="translate(115,88)" d="M0,0L-6,0"></path></g></g><g aria-label="y-axis tick label" transform="translate(-9,5)"><g text-anchor="end" font-size="8" transform="translate(0,0)"><text y="0.32em" transform="translate(115,22)">S1</text><text y="0.32em" transform="translate(115,33)">S2</text><text y="0.32em" transform="translate(115,44)">S3</text><text y="0.32em" transform="translate(115,55)">C1</text><text y="0.32em" transform="translate(115,66)">C2</text><text y="0.32em" transform="translate(115,77)">A1</text><text y="0.32em" transform="translate(115,88)">A2</text></g><g text-anchor="end" font-size="8" transform="translate(0,89)"><text y="0.32em" transform="translate(115,22)">S1</text><text y="0.32em" transform="translate(115,33)">S2</text><text y="0.32em" transform="translate(115,44)">S3</text><text y="0.32em" transform="translate(115,55)">C1</text><text y="0.32em" transform="translate(115,66)">C2</text><text y="0.32em" transform="translate(115,77)">A1</text><text y="0.32em" transform="translate(115,88)">A2</text></g></g><g aria-label="bar"><g transform="translate(0,0)"><rect x="115" width="6.384066313793113" y="22" height="10" fill="#1b9e77"></rect><rect x="115" width="9.838366123947367" y="33" height="10" fill="#1b9e77"></rect><rect x="115" width="11.884801365406247" y="44" height="10" fill="#1b9e77"></rect><rect x="115" width="228.20667944449997" y="55" height="10" fill="#d95f02"></rect><rect x="115" width="313.76672393650006" y="66" height="10" fill="#d95f02"></rect><rect x="115" width="30.677186134500005" y="77" height="10" fill="#7570b3"></rect><rect x="115" width="83.40355892583332" y="88" height="10" fill="#7570b3"></rect></g><g transform="translate(0,89)"><rect x="115" width="34.90783354866667" y="22" height="10" fill="#1b9e77"></rect><rect x="115" width="61.59620168066664" y="33" height="10" fill="#1b9e77"></rect><rect x="115" width="84.18066890400002" y="44" height="10" fill="#1b9e77"></rect><rect x="115" width="254.75746692200005" y="55" height="10" fill="#d95f02"></rect><rect x="115" width="349.73312572799995" y="66" height="10" fill="#d95f02"></rect><rect x="115" width="84.58945528950002" y="77" height="10" fill="#7570b3"></rect><rect x="115" width="85.9608872243333" y="88" height="10" fill="#7570b3"></rect></g></g><g aria-label="fy-axis tick label" transform="translate(-26,0)"><g text-anchor="end" font-size="15px" transform="translate(0,0)"><text y="0.384em" transform="translate(115,60)">Opt enabled</text></g><g text-anchor="end" font-size="15px" transform="translate(0,89)"><text y="0.384em" transform="translate(115,60)">Opt disabled</text></g></g><g aria-label="tick"><g stroke="currentColor" transform="translate(0,0)"><line x1="121.38406631379311" x2="121.38406631379311" y1="22" y2="32"></line><line x1="124.83836612394737" x2="124.83836612394737" y1="33" y2="43"></line><line x1="126.88480136540625" x2="126.88480136540625" y1="44" y2="54"></line><line x1="343.20667944449997" x2="343.20667944449997" y1="55" y2="65"></line><line x1="428.76672393650006" x2="428.76672393650006" y1="66" y2="76"></line><line x1="145.6771861345" x2="145.6771861345" y1="77" y2="87"></line><line x1="198.40355892583332" x2="198.40355892583332" y1="88" y2="98"></line></g><g stroke="currentColor" transform="translate(0,89)"><line x1="149.90783354866667" x2="149.90783354866667" y1="22" y2="32"></line><line x1="176.59620168066664" x2="176.59620168066664" y1="33" y2="43"></line><line x1="199.18066890400002" x2="199.18066890400002" y1="44" y2="54"></line><line x1="369.75746692200005" x2="369.75746692200005" y1="55" y2="65"></line><line x1="464.73312572799995" x2="464.73312572799995" y1="66" y2="76"></line><line x1="199.58945528950002" x2="199.58945528950002" y1="77" y2="87"></line><line x1="200.9608872243333" x2="200.9608872243333" y1="88" y2="98"></line></g></g><g aria-label="text" transform="translate(6,5)"><g fill="black" text-anchor="start" font-size="9" transform="translate(0,0)"><text y="0.32em" transform="translate(121.38406631379311,22)">1.7 ms</text><text y="0.32em" transform="translate(124.83836612394737,33)">2.7 ms</text><text y="0.32em" transform="translate(126.88480136540625,44)">3.3 ms</text><text y="0.32em" transform="translate(343.20667944449997,55)">62.5 ms</text><text y="0.32em" transform="translate(428.76672393650006,66)">86 ms</text><text y="0.32em" transform="translate(145.6771861345,77)">8.4 ms</text><text y="0.32em" transform="translate(198.40355892583332,88)">22.9 ms</text></g><g fill="black" text-anchor="start" font-size="9" transform="translate(0,89)"><text y="0.32em" transform="translate(149.90783354866667,22)">9.6 ms</text><text y="0.32em" transform="translate(176.59620168066664,33)">16.9 ms</text><text y="0.32em" transform="translate(199.18066890400002,44)">23.1 ms</text><text y="0.32em" transform="translate(369.75746692200005,55)">69.8 ms</text><text y="0.32em" transform="translate(464.73312572799995,66)">95.8 ms</text><text y="0.32em" transform="translate(199.58945528950002,77)">23.2 ms</text><text y="0.32em" transform="translate(200.9608872243333,88)">23.6 ms</text></g></g><g aria-label="rule"><g stroke="currentColor" stroke-width="1.5" transform="translate(0,0)"><line x1="115" x2="115" y1="20" y2="100"></line></g><g stroke="currentColor" stroke-width="1.5" transform="translate(0,89)"><line x1="115" x2="115" y1="20" y2="100"></line></g></g></svg>