<svg class="plot-d6a7b5" fill="currentColor" font-family="system-ui, sans-serif" font-size="10" text-anchor="middle" width="500" height="200" viewBox="0 0 500 200" style="background: white; font-family: Helvetica Neue, Helvetica, Arial, sans-serif;" xmlns="http://www.w3.org/2000/svg" xmlns:xlink="http://www.w3.org/1999/xlink" version="1.1"><style>:where(.plot-d6a7b5) {
  --plot-background: white;
  display: block;
  height: auto;
  height: intrinsic;
  max-width: 100%;
}
:where(.plot-d6a7b5 text),
:where(.plot-d6a7b5 tspan) {
  white-space: pre;
}</style><g aria-label="x-grid" aria-hidden="true"><g stroke="currentColor" stroke-opacity="0.1" transform="translate(0,1)"><line x1="115" x2="115" y1="20" y2="90"></line><line x1="184.52380952380952" x2="184.52380952380952" y1="20" y2="90"></line><line x1="254.04761904761904" x2="254.04761904761904" y1="20" y2="90"></line><line x1="323.57142857142856" x2="323.57142857142856" y1="20" y2="90"></line><line x1="393.0952380952381" x2="393.0952380952381" y1="20" y2="90"></line><line x1="462.6190476190476" x2="462.6190476190476" y1="20" y2="90"></line></g><g stroke="currentColor" stroke-opacity="0.1" transform="translate(0,79)"><line x1="115" x2="115" y1="20" y2="90"></line><line x1="184.52380952380952" x2="184.52380952380952" y1="20" y2="90"></line><line x1="254.04761904761904" x2="254.04761904761904" y1="20" y2="90"></line><line x1="323.57142857142856" x2="323.57142857142856" y1="20" y2="90"></line><line x1="393.0952380952381" x2="393.0952380952381" y1="20" y2="90"></line><line x1="462.6190476190476" x2="462.6190476190476" y1="20" y2="90"></line></g></g><g aria-label="x-axis tick" aria-hidden="true"><g fill="none" stroke="currentColor" transform="translate(0,79)"><path transform="translate(115,90)" d="M0,0L0,6"></path><path transform="translate(184.52380952380952,90)" d="M0,0L0,6"></path><path transform="translate(254.04761904761904,90)" d="M0,0L0,6"></path><path transform="translate(323.57142857142856,90)" d="M0,0L0,6"></path><path transform="translate(393.0952380952381,90)" d="M0,0L0,6"></path><path transform="translate(462.6190476190476,90)" d="M0,0L0,6"></path></g></g><g aria-label="x-axis tick label" transform="translate(0,9)"><g font-variant="tabular-nums" transform="translate(0,79)"><text y="0.71em" transform="translate(115,90)">0</text><text y="0.71em" transform="translate(184.52380952380952,90)">20</text><text y="0.71em" transform="translate(254.04761904761904,90)">40</text><text y="0.71em" transform="translate(323.57142857142856,90)">60</text><text y="0.71em" transform="translate(393.0952380952381,90)">80</text><text y="0.71em" transform="translate(462.6190476190476,90)">100</text></g></g><g aria-label="x-axis label" text-anchor="end" transform="translate(17,27)"><text transform="translate(480,169)">Time taken to merge all events, in milliseconds. (Less is better) →</text></g><g aria-label="x-grid" aria-hidden="true"><g stroke="currentColor" stroke-width="0.5" stroke-opacity="0.15" transform="translate(0,1)"><line x1="115" x2="115" y1="20" y2="90"></line><line x1="149.76190476190476" x2="149.76190476190476" y1="20" y2="90"></line><line x1="184.52380952380952" x2="184.52380952380952" y1="20" y2="90"></line><line x1="219.28571428571428" x2="219.28571428571428" y1="20" y2="90"></line><line x1="254.04761904761904" x2="254.04761904761904" y1="20" y2="90"></line><line x1="288.8095238095238" x2="288.8095238095238" y1="20" y2="90"></line><line x1="323.57142857142856" x2="323.57142857142856" y1="20" y2="90"></line><line x1="358.3333333333333" x2="358.3333333333333" y1="20" y2="90"></line><line x1="393.0952380952381" x2="393.0952380952381" y1="20" y2="90"></line><line x1="427.85714285714283" x2="427.85714285714283" y1="20" y2="90"></line><line x1="462.6190476190476" x2="462.6190476190476" y1="20" y2="90"></line></g><g stroke="currentColor" stroke-width="0.5" stroke-opacity="0.15" transform="translate(0,79)"><line x1="115" x2="115" y1="20" y2="90"></line><line x1="149.76190476190476" x2="149.76190476190476" y1="20" y2="90"></line><line x1="184.52380952380952" x2="184.52380952380952" y1="20" y2="90"></line><line x1="219.28571428571428" x2="219.28571428571428" y1="20" y2="90"></line><line x1="254.04761904761904" x2="254.04761904761904" y1="20" y2="90"></line><line x1="288.8095238095238" x2="288.8095238095238" y1="20" y2="90"></line><line x1="323.57142857142856" x2="323.57142857142856" y1="20" y2="90"></line><line x1="358.3333333333333" x2="358.3333333333333" y1="20" y2="90"></line><line x1="393.0952380952381" x2="393.0952380952381" y1="20" y2="90"></line><line x1="427.85714285714283" x2="427.85714285714283" y1="20" y2="90"></line><line x1="462.6190476190476" x2="462.6190476190476" y1="20" y2="90"></line></g></g><g aria-label="y-axis tick" aria-hidden="true" transform="translate(0,4)"><g fill="none" stroke="currentColor" stroke-opacity="0.4" transform="translate(0,1)"><path transform="translate(115,24)" d="M0,0L-6,0"></path><path transform="translate(115,33)" d="M0,0L-6,0"></path><path transform="translate(115,42)" d="M0,0L-6,0"></path><path transform="translate(115,51)" d="M0,0L-6,0"></path><path transform="translate(115,60)" d="M0,0L-6,0"></path><path transform="translate(115,69)" d="M0,0L-6,0"></path><path transform="translate(115,78)" d="M0,0L-6,0"></path></g><g fill="none" stroke="currentColor" stroke-opacity="0.4" transform="translate(0,79)"><path transform="translate(115,24)" d="M0,0L-6,0"></path><path transform="translate(115,33)" d="M0,0L-6,0"></path><path transform="translate(115,42)" d="M0,0L-6,0"></path><path transform="translate(115,51)" d="M0,0L-6,0"></path><path transform="translate(115,60)" d="M0,0L-6,0"></path><path transform="translate(115,69)" d="M0,0L-6,0"></path><path transform="translate(115,78)" d="M0,0L-6,0"></path></g></g><g aria-label="y-axis tick label" transform="translate(-9,4)"><g fill-opacity="0.4" text-anchor="end" font-size="8" font-weight="700" transform="translate(0,1)"><text y="0.32em" transform="translate(115,24)">S1</text><text y="0.32em" transform="translate(115,33)">S2</text><text y="0.32em" transform="translate(115,42)">S3</text><text y="0.32em" transform="translate(115,51)">C1</text><text y="0.32em" transform="translate(115,60)">C2</text><text y="0.32em" transform="translate(115,69)">A1</text><text y="0.32em" transform="translate(115,78)">A2</text></g><g fill-opacity="0.4" text-anchor="end" font-size="8" font-weight="700" transform="translate(0,79)"><text y="0.32em" transform="translate(115,24)">S1</text><text y="0.32em" transform="translate(115,33)">S2</text><text y="0.32em" transform="translate(115,42)">S3</text><text y="0.32em" transform="translate(115,51)">C1</text><text y="0.32em" transform="translate(115,60)">C2</text><text y="0.32em" transform="translate(115,69)">A1</text><text y="0.32em" transform="translate(115,78)">A2</text></g></g><g aria-label="bar"><g transform="translate(0,1)"><rect x="115" width="6.335878227741318" y="24" height="8" fill="#1b9e77"></rect><rect x="115" width="9.252580008796997" y="33" height="8" fill="#1b9e77"></rect><rect x="115" width="11.610683764672615" y="42" height="8" fill="#1b9e77"></rect><rect x="115" width="193.08013270761904" y="51" height="8" fill="#d95f02"></rect><rect x="115" width="287.57351008904766" y="60" height="8" fill="#d95f02"></rect><rect x="115" width="30.523734254523788" y="69" height="8" fill="#7570b3"></rect><rect x="115" width="81.05017877587301" y="78" height="8" fill="#7570b3"></rect></g><g transform="translate(0,79)"><rect x="115" width="33.415275772301584" y="24" height="8" fill="#1b9e77"></rect><rect x="115" width="58.67142037301585" y="33" height="8" fill="#1b9e77"></rect><rect x="115" width="77.70257683793648" y="42" height="8" fill="#1b9e77"></rect><rect x="115" width="244.01897891571434" y="51" height="8" fill="#d95f02"></rect><rect x="115" width="328.83228244285715" y="60" height="8" fill="#d95f02"></rect><rect x="115" width="80.70104910333333" y="69" height="8" fill="#7570b3"></rect><rect x="115" width="82.80642715571423" y="78" height="8" fill="#7570b3"></rect></g></g><g aria-label="fy-axis tick label" transform="translate(-26,0)"><g text-anchor="end" font-size="15px" transform="translate(0,1)"><text y="0.384em" transform="translate(115,55)">Opt enabled</text></g><g text-anchor="end" font-size="15px" transform="translate(0,79)"><text y="0.384em" transform="translate(115,55)">Opt disabled</text></g></g><g aria-label="tick"><g stroke="currentColor" transform="translate(0,1)"><line x1="121.33587822774132" x2="121.33587822774132" y1="24" y2="32"></line><line x1="124.252580008797" x2="124.252580008797" y1="33" y2="41"></line><line x1="126.61068376467261" x2="126.61068376467261" y1="42" y2="50"></line><line x1="308.08013270761904" x2="308.08013270761904" y1="51" y2="59"></line><line x1="402.57351008904766" x2="402.57351008904766" y1="60" y2="68"></line><line x1="145.5237342545238" x2="145.5237342545238" y1="69" y2="77"></line><line x1="196.050178775873" x2="196.050178775873" y1="78" y2="86"></line></g><g stroke="currentColor" transform="translate(0,79)"><line x1="148.41527577230158" x2="148.41527577230158" y1="24" y2="32"></line><line x1="173.67142037301585" x2="173.67142037301585" y1="33" y2="41"></line><line x1="192.70257683793648" x2="192.70257683793648" y1="42" y2="50"></line><line x1="359.01897891571434" x2="359.01897891571434" y1="51" y2="59"></line><line x1="443.83228244285715" x2="443.83228244285715" y1="60" y2="68"></line><line x1="195.70104910333333" x2="195.70104910333333" y1="69" y2="77"></line><line x1="197.80642715571423" x2="197.80642715571423" y1="78" y2="86"></line></g></g><g aria-label="text" transform="translate(6,4)"><g fill="black" text-anchor="start" font-size="9" transform="translate(0,1)"><text y="0.32em" transform="translate(121.33587822774132,24)">1.8 ms</text><text y="0.32em" transform="translate(124.252580008797,33)">2.7 ms</text><text y="0.32em" transform="translate(126.61068376467261,42)">3.3 ms</text><text y="0.32em" transform="translate(308.08013270761904,51)">55.5 ms</text><text y="0.32em" transform="translate(402.57351008904766,60)">82.7 ms</text><text y="0.32em" transform="translate(145.5237342545238,69)">8.8 ms</text><text y="0.32em" transform="translate(196.050178775873,78)">23.3 ms</text></g><g fill="black" text-anchor="start" font-size="9" transform="translate(0,79)"><text y="0.32em" transform="translate(148.41527577230158,24)">9.6 ms</text><text y="0.32em" transform="translate(173.67142037301585,33)">16.9 ms</text><text y="0.32em" transform="translate(192.70257683793648,42)">22.4 ms</text><text y="0.32em" transform="translate(359.01897891571434,51)">70.2 ms</text><text y="0.32em" transform="translate(443.83228244285715,60)">94.6 ms</text><text y="0.32em" transform="translate(195.70104910333333,69)">23.2 ms</text><text y="0.32em" transform="translate(197.80642715571423,78)">23.8 ms</text></g></g><g aria-label="rule"><g stroke="currentColor" stroke-width="1.5" transform="translate(0,1)"><line x1="115" x2="115" y1="20" y2="90"></line></g><g stroke="currentColor" stroke-width="1.5" transform="translate(0,79)"><line x1="115" x2="115" y1="20" y2="90"></line></g></g></svg>