<svg class="plot-d6a7b5" fill="currentColor" font-family="system-ui, sans-serif" font-size="10" text-anchor="middle" width="500" height="220" viewBox="0 0 500 220" style="background: white; font-family: Helvetica Neue, Helvetica, Arial, sans-serif;" xmlns="http://www.w3.org/2000/svg" xmlns:xlink="http://www.w3.org/1999/xlink" version="1.1"><style>:where(.plot-d6a7b5) {
  --plot-background: white;
  display: block;
  height: auto;
  height: intrinsic;
  max-width: 100%;
}
:where(.plot-d6a7b5 text),
:where(.plot-d6a7b5 tspan) {
  white-space: pre;
}</style><g aria-label="x-grid" aria-hidden="true"><g stroke="currentColor" stroke-opacity="0.1" transform="translate(0,0)"><line x1="115" x2="115" y1="20" y2="100"></line><line x1="188" x2="188" y1="20" y2="100"></line><line x1="261" x2="261" y1="20" y2="100"></line><line x1="334" x2="334" y1="20" y2="100"></line><line x1="407" x2="407" y1="20" y2="100"></line><line x1="480" x2="480" y1="20" y2="100"></line></g><g stroke="currentColor" stroke-opacity="0.1" transform="translate(0,89)"><line x1="115" x2="115" y1="20" y2="100"></line><line x1="188" x2="188" y1="20" y2="100"></line><line x1="261" x2="261" y1="20" y2="100"></line><line x1="334" x2="334" y1="20" y2="100"></line><line x1="407" x2="407" y1="20" y2="100"></line><line x1="480" x2="480" y1="20" y2="100"></line></g></g><g aria-label="x-axis tick" aria-hidden="true"><g fill="none" stroke="currentColor" transform="translate(0,89)"><path transform="translate(115,100)" d="M0,0L0,6"></path><path transform="translate(188,100)" d="M0,0L0,6"></path><path transform="translate(261,100)" d="M0,0L0,6"></path><path transform="translate(334,100)" d="M0,0L0,6"></path><path transform="translate(407,100)" d="M0,0L0,6"></path><path transform="translate(480,100)" d="M0,0L0,6"></path></g></g><g aria-label="x-axis tick label" transform="translate(0,9)"><g font-variant="tabular-nums" transform="translate(0,89)"><text y="0.71em" transform="translate(115,100)">0</text><text y="0.71em" transform="translate(188,100)">20</text><text y="0.71em" transform="translate(261,100)">40</text><text y="0.71em" transform="translate(334,100)">60</text><text y="0.71em" transform="translate(407,100)">80</text><text y="0.71em" transform="translate(480,100)">100</text></g></g><g aria-label="x-axis label" text-anchor="end" transform="translate(17,27)"><text transform="translate(480,189)">Time taken to transform all events, in milliseconds. (Less is better) →</text></g><g aria-label="x-grid" aria-hidden="true"><g stroke="currentColor" stroke-width="0.5" stroke-opacity="0.15" transform="translate(0,0)"><line x1="115" x2="115" y1="20" y2="100"></line><line x1="151.5" x2="151.5" y1="20" y2="100"></line><line x1="188" x2="188" y1="20" y2="100"></line><line x1="224.5" x2="224.5" y1="20" y2="100"></line><line x1="261" x2="261" y1="20" y2="100"></line><line x1="297.5" x2="297.5" y1="20" y2="100"></line><line x1="334" x2="334" y1="20" y2="100"></line><line x1="370.5" x2="370.5" y1="20" y2="100"></line><line x1="407" x2="407" y1="20" y2="100"></line><line x1="443.5" x2="443.5" y1="20" y2="100"></line><line x1="480" x2="480" y1="20" y2="100"></line></g><g stroke="currentColor" stroke-width="0.5" stroke-opacity="0.15" transform="translate(0,89)"><line x1="115" x2="115" y1="20" y2="100"></line><line x1="151.5" x2="151.5" y1="20" y2="100"></line><line x1="188" x2="188" y1="20" y2="100"></line><line x1="224.5" x2="224.5" y1="20" y2="100"></line><line x1="261" x2="261" y1="20" y2="100"></line><line x1="297.5" x2="297.5" y1="20" y2="100"></line><line x1="334" x2="334" y1="20" y2="100"></line><line x1="370.5" x2="370.5" y1="20" y2="100"></line><line x1="407" x2="407" y1="20" y2="100"></line><line x1="443.5" x2="443.5" y1="20" y2="100"></line><line x1="480" x2="480" y1="20" y2="100"></line></g></g><g aria-label="y-axis tick" aria-hidden="true" transform="translate(0,5)"><g fill="none" stroke="currentColor" transform="translate(0,0)"><path transform="translate(115,22)" d="M0,0L-6,0"></path><path transform="translate(115,33)" d="M0,0L-6,0"></path><path transform="translate(115,44)" d="M0,0L-6,0"></path><path transform="translate(115,55)" d="M0,0L-6,0"></path><path transform="translate(115,66)" d="M0,0L-6,0"></path><path transform="translate(115,77)" d="M0,0L-6,0"></path><path transform="translate(115,88)" d="M0,0L-6,0"></path></g><g fill="none" stroke="currentColor" transform="translate(0,89)"><path transform="translate(115,22)" d="M0,0L-6,0"></path><path transform="translate(115,33)" d="M0,0L-6,0"></path><path transform="translate(115,44)" d="M0,0L-6,0"></path><path transform="translate(115,55)" d="M0,0L-6,0"></path><path transform="translate(115,66)" d="M0,0L-6,0"></path><path transform="translate(115,77)" d="M0,0L-6,0"></path><path transform="translate(115,88)" d="M0,0L-6,0"></path></g></g><g aria-label="y-axis tick label" transform="translate(-9,5)"><g text-anchor="end" font-size="8" transform="translate(0,0)"><text y="0.32em" transform="translate(115,22)">S1</text><text y="0.32em" transform="translate(115,33)">S2</text><text y="0.32em" transform="translate(115,44)">S3</text><text y="0.32em" transform="translate(115,55)">C1</text><text y="0.32em" transform="translate(115,66)">C2</text><text y="0.32em" transform="translate(115,77)">A1</text><text y="0.32em" transform="translate(115,88)">A2</text></g><g text-anchor="end" font-size="8" transform="translate(0,89)"><text y="0.32em" transform="translate(115,22)">S1</text><text y="0.32em" transform="translate(115,33)">S2</text><text y="0.32em" transform="translate(115,44)">S3</text><text y="0.32em" transform="translate(115,55)">C1</text><text y="0.32em" transform="translate(115,66)">C2</text><text y="0.32em" transform="translate(115,77)">A1</text><text y="0.32em" transform="translate(115,88)">A2</text></g></g><g aria-label="bar"><g transform="translate(0,0)"><rect x="115" width="2.0763529421897573" y="22" height="10" fill="#1b9e77"></rect><rect x="115" width="3.8570227075535968" y="33" height="10" fill="#1b9e77"></rect><rect x="115" width="3.650052700358742" y="44" height="10" fill="#1b9e77"></rect><rect x="115" width="217.4217961735" y="55" height="10" fill="#d95f02"></rect><rect x="115" width="295.359086094" y="66" height="10" fill="#d95f02"></rect><rect x="115" width="22.541978708888877" y="77" height="10" fill="#7570b3"></rect><rect x="115" width="78.70721520216662" y="88" height="10" fill="#7570b3"></rect></g><g transform="translate(0,89)"><rect x="115" width="29.90849344914284" y="22" height="10" fill="#1b9e77"></rect><rect x="115" width="54.670529115750014" y="33" height="10" fill="#1b9e77"></rect><rect x="115" width="51.00152485237501" y="44" height="10" fill="#1b9e77"></rect><rect x="115" width="263.49032161649995" y="55" height="10" fill="#d95f02"></rect><rect x="115" width="350.31646128200003" y="66" height="10" fill="#d95f02"></rect><rect x="115" width="75.9767145395" y="77" height="10" fill="#7570b3"></rect><rect x="115" width="79.21669687516669" y="88" height="10" fill="#7570b3"></rect></g></g><g aria-label="fy-axis tick label" transform="translate(-26,0)"><g text-anchor="end" font-size="15px" transform="translate(0,0)"><text y="0.384em" transform="translate(115,60)">Opt enabled</text></g><g text-anchor="end" font-size="15px" transform="translate(0,89)"><text y="0.384em" transform="translate(115,60)">Opt disabled</text></g></g><g aria-label="tick"><g stroke="currentColor" transform="translate(0,0)"><line x1="117.07635294218976" x2="117.07635294218976" y1="22" y2="32"></line><line x1="118.8570227075536" x2="118.8570227075536" y1="33" y2="43"></line><line x1="118.65005270035874" x2="118.65005270035874" y1="44" y2="54"></line><line x1="332.4217961735" x2="332.4217961735" y1="55" y2="65"></line><line x1="410.359086094" x2="410.359086094" y1="66" y2="76"></line><line x1="137.54197870888888" x2="137.54197870888888" y1="77" y2="87"></line><line x1="193.70721520216662" x2="193.70721520216662" y1="88" y2="98"></line></g><g stroke="currentColor" transform="translate(0,89)"><line x1="144.90849344914284" x2="144.90849344914284" y1="22" y2="32"></line><line x1="169.67052911575" x2="169.67052911575" y1="33" y2="43"></line><line x1="166.001524852375" x2="166.001524852375" y1="44" y2="54"></line><line x1="378.49032161649995" x2="378.49032161649995" y1="55" y2="65"></line><line x1="465.31646128200003" x2="465.31646128200003" y1="66" y2="76"></line><line x1="190.9767145395" x2="190.9767145395" y1="77" y2="87"></line><line x1="194.2166968751667" x2="194.2166968751667" y1="88" y2="98"></line></g></g><g aria-label="text" transform="translate(6,5)"><g fill="black" text-anchor="start" font-size="9" transform="translate(0,0)"><text y="0.32em" transform="translate(117.07635294218976,22)">0.57 ms</text><text y="0.32em" transform="translate(118.8570227075536,33)">1.1 ms</text><text y="0.32em" transform="translate(118.65005270035874,44)">1 ms</text><text y="0.32em" transform="translate(332.4217961735,55)">59.6 ms</text><text y="0.32em" transform="translate(410.359086094,66)">80.9 ms</text><text y="0.32em" transform="translate(137.54197870888888,77)">6.2 ms</text><text y="0.32em" transform="translate(193.70721520216662,88)">21.6 ms</text></g><g fill="black" text-anchor="start" font-size="9" transform="translate(0,89)"><text y="0.32em" transform="translate(144.90849344914284,22)">8.2 ms</text><text y="0.32em" transform="translate(169.67052911575,33)">15 ms</text><text y="0.32em" transform="translate(166.001524852375,44)">14 ms</text><text y="0.32em" transform="translate(378.49032161649995,55)">72.2 ms</text><text y="0.32em" transform="translate(465.31646128200003,66)">96 ms</text><text y="0.32em" transform="translate(190.9767145395,77)">20.8 ms</text><text y="0.32em" transform="translate(194.2166968751667,88)">21.7 ms</text></g></g><g aria-label="rule"><g stroke="currentColor" stroke-width="1.5" transform="translate(0,0)"><line x1="115" x2="115" y1="20" y2="100"></line></g><g stroke="currentColor" stroke-width="1.5" transform="translate(0,89)"><line x1="115" x2="115" y1="20" y2="100"></line></g></g></svg>