<svg class="plot-d6a7b5" fill="currentColor" font-family="system-ui, sans-serif" font-size="10" text-anchor="middle" width="500" height="200" viewBox="0 0 500 200" style="background: white; font-family: Helvetica Neue, Helvetica, Arial, sans-serif;" xmlns="http://www.w3.org/2000/svg" xmlns:xlink="http://www.w3.org/1999/xlink" version="1.1"><style>:where(.plot-d6a7b5) {
  --plot-background: white;
  display: block;
  height: auto;
  height: intrinsic;
  max-width: 100%;
}
:where(.plot-d6a7b5 text),
:where(.plot-d6a7b5 tspan) {
  white-space: pre;
}</style><g aria-label="y-grid" aria-hidden="true" stroke="currentColor" stroke-opacity="0.1"><line x1="40" x2="480" y1="170" y2="170"></line><line x1="40" x2="480" y1="128.9153656532457" y2="128.9153656532457"></line><line x1="40" x2="480" y1="87.83073130649137" y2="87.83073130649137"></line><line x1="40" x2="480" y1="46.74609695973706" y2="46.74609695973706"></line></g><g aria-label="y-axis tick" aria-hidden="true" fill="none" stroke="currentColor"><path transform="translate(40,170)" d="M0,0L-6,0"></path><path transform="translate(40,128.9153656532457)" d="M0,0L-6,0"></path><path transform="translate(40,87.83073130649137)" d="M0,0L-6,0"></path><path transform="translate(40,46.74609695973706)" d="M0,0L-6,0"></path></g><g aria-label="y-axis tick label" text-anchor="end" font-variant="tabular-nums" transform="translate(-9,0)"><text y="0.32em" transform="translate(40,170)">0</text><text y="0.32em" transform="translate(40,128.9153656532457)">1,000</text><text y="0.32em" transform="translate(40,87.83073130649137)">2,000</text><text y="0.32em" transform="translate(40,46.74609695973706)">3,000</text></g><g aria-label="y-axis label" text-anchor="start" transform="translate(-37,-17)"><text y="0.71em" transform="translate(40,20)">↑ Feathertail state size (smaller is better)</text></g><g aria-label="x-grid" aria-hidden="true" stroke="currentColor" stroke-opacity="0.1"><line x1="40" x2="40" y1="20" y2="170"></line><line x1="124.61538461538461" x2="124.61538461538461" y1="20" y2="170"></line><line x1="209.23076923076923" x2="209.23076923076923" y1="20" y2="170"></line><line x1="293.8461538461538" x2="293.8461538461538" y1="20" y2="170"></line><line x1="378.46153846153845" x2="378.46153846153845" y1="20" y2="170"></line><line x1="463.0769230769231" x2="463.0769230769231" y1="20" y2="170"></line></g><g aria-label="x-axis tick" aria-hidden="true" fill="none" stroke="currentColor"><path transform="translate(40,170)" d="M0,0L0,6"></path><path transform="translate(124.61538461538461,170)" d="M0,0L0,6"></path><path transform="translate(209.23076923076923,170)" d="M0,0L0,6"></path><path transform="translate(293.8461538461538,170)" d="M0,0L0,6"></path><path transform="translate(378.46153846153845,170)" d="M0,0L0,6"></path><path transform="translate(463.0769230769231,170)" d="M0,0L0,6"></path></g><g aria-label="x-axis tick label" font-variant="tabular-nums" transform="translate(0,9)"><text y="0.71em" transform="translate(40,170)">0</text><text y="0.71em" transform="translate(124.61538461538461,170)">5,000</text><text y="0.71em" transform="translate(209.23076923076923,170)">10,000</text><text y="0.71em" transform="translate(293.8461538461538,170)">15,000</text><text y="0.71em" transform="translate(378.46153846153845,170)">20,000</text><text y="0.71em" transform="translate(463.0769230769231,170)">25,000</text></g><g aria-label="x-axis label" text-anchor="end" transform="translate(17,27)"><text transform="translate(480,170)">Events processed, in thousands →</text></g><g aria-label="rule" stroke="currentColor"><line x1="40" x2="480" y1="170" y2="170"></line></g><g aria-label="line" fill="none" stroke-width="1.5" stroke-linejoin="round" stroke-linecap="round"><path stroke="#d95f02" d="M40,169.959L44.4,169.877L48.8,168.192L53.2,169.712L57.6,169.877L62,168.85L66.4,167.083L70.8,169.014L75.2,168.357L79.6,169.959L84,168.726L88.4,168.603L92.8,166.96L97.2,169.877L101.6,168.192L106,168.192L110.4,169.26L114.8,167.329L119.2,168.767L123.6,169.877L128,169.959L132.4,169.877L136.8,169.959L141.2,168.521L145.6,169.877L150,169.877L154.4,169.877L158.8,169.959L163.2,169.877L167.6,168.726L172,169.384L176.4,169.877L180.8,169.877L185.2,169.877L189.6,169.466L194,169.877L198.4,168.767L202.8,169.219L207.2,169.877L211.6,169.959L216,169.137L220.4,169.219L224.8,167.658L229.2,167.987L233.6,169.096L238,169.959L242.4,169.712L246.8,169.959L251.2,169.877L255.6,169.055L260,169.959L264.4,169.753L268.8,169.959L273.2,169.877L277.6,169.877L282,169.877L286.4,169.877L290.8,169.877L295.2,169.302L299.6,169.959L304,169.63L308.4,169.055L312.8,169.959L317.2,169.877L321.6,169.096L326,169.63L330.4,169.753L334.8,169.507L339.2,169.055L343.6,169.178L348,167.247L352.4,169.877L356.8,168.726L361.2,169.877L365.6,168.439L370,169.671L374.4,169.466L378.8,169.671L383.2,169.589L387.6,169.589L392,169.959L396.4,167.288L400.8,169.959L405.2,169.877L409.6,169.959L414,169.959L418.4,169.877L422.8,169.877L427.2,169.959L431.6,169.959L436,169.959L440.4,169.671L444.8,169.959L449.2,169.877L453.6,169.959L458,169.877L462.4,169.959L466.8,169.507L471.2,169.959L475.6,169.959L480,169.959"></path><path stroke="#1b9e77" d="M40,169.918L44.4,168.767L48.8,167.165L53.2,165.645L57.6,164.084L62,163.098L66.4,161.372L70.8,159.934L75.2,158.373L79.6,156.689L84,155.538L88.4,153.977L92.8,152.334L97.2,150.731L101.6,149.17L106,145.514L110.4,142.72L114.8,140.748L119.2,138.94L123.6,137.132L128,135.653L132.4,134.585L136.8,133.353L141.2,131.915L145.6,131.339L150,130.312L154.4,128.505L158.8,126.82L163.2,124.437L167.6,123.369L172,122.177L176.4,121.52L180.8,120.411L185.2,119.137L189.6,117.781L194,117.001L198.4,115.933L202.8,114.207L207.2,113.385L211.6,112.646L216,110.222L220.4,106.73L224.8,102.621L229.2,99.252L233.6,96.746L238,95.349L242.4,94.281L246.8,92.884L251.2,91.734L255.6,90.583L260,89.638L264.4,89.187L268.8,86.187L273.2,84.585L277.6,82.038L282,79.491L286.4,78.299L290.8,77.765L295.2,76.491L299.6,74.725L304,73.657L308.4,71.89L312.8,70.123L317.2,69.26L321.6,67.823L326,66.261L330.4,64.454L334.8,63.057L339.2,61.701L343.6,60.222L348,58.332L352.4,57.223L356.8,56.113L361.2,54.799L365.6,53.443L370,52.868L374.4,51.142L378.8,49.54L383.2,48.348L387.6,46.787L392,45.226L396.4,41.611L400.8,39.762L405.2,39.31L409.6,38.036L414,36.023L418.4,34.215L422.8,33.517L427.2,31.709L431.6,30.394L436,29.737L440.4,28.956L444.8,27.888L449.2,27.354L453.6,26.409L458,24.971L462.4,24.026L466.8,22.876L471.2,21.89L475.6,20.452L480,20"></path></g><g aria-label="tip" fill="var(--plot-background)" stroke="currentColor" text-anchor="start" transform="translate(0,-3)"><g transform="translate(260,90)"><path filter="drop-shadow(0 3px 4px rgba(0,0,0,0.2))" d="M0,0l-12,-12h-76v-27h88z"></path><text fill="currentColor" fill-opacity="1" stroke="none" y="-1.29em" transform="translate(-80,-20)"><tspan x="0" dy="1em">​Without clearing</tspan></text></g></g><g aria-label="tip" fill="var(--plot-background)" stroke="currentColor" text-anchor="start" transform="translate(0,-3)"><g transform="translate(392,170)"><path filter="drop-shadow(0 3px 4px rgba(0,0,0,0.2))" d="M0,0l6,-6h31v-27h-74v27h31z"></path><text fill="currentColor" fill-opacity="1" stroke="none" y="-1.29em" transform="translate(-29,-14)"><tspan x="0" dy="1em">​With clearing</tspan></text></g></g></svg>