<svg class="plot-d6a7b5" fill="currentColor" font-family="system-ui, sans-serif" font-size="10" text-anchor="middle" width="500" height="300" viewBox="0 0 500 300" style="background: white; font-family: Helvetica Neue, Helvetica, Arial, sans-serif;" xmlns="http://www.w3.org/2000/svg" xmlns:xlink="http://www.w3.org/1999/xlink" version="1.1"><style>:where(.plot-d6a7b5) {
  --plot-background: white;
  display: block;
  height: auto;
  height: intrinsic;
  max-width: 100%;
}
:where(.plot-d6a7b5 text),
:where(.plot-d6a7b5 tspan) {
  white-space: pre;
}</style><g aria-label="x-grid" aria-hidden="true"><g stroke="currentColor" stroke-opacity="0.1" transform="translate(0,0)"><line x1="110" x2="110" y1="20" y2="97"></line><line x1="202.5" x2="202.5" y1="20" y2="97"></line><line x1="295" x2="295" y1="20" y2="97"></line><line x1="387.5" x2="387.5" y1="20" y2="97"></line><line x1="480" x2="480" y1="20" y2="97"></line></g><g stroke="currentColor" stroke-opacity="0.1" transform="translate(0,86)"><line x1="110" x2="110" y1="20" y2="97"></line><line x1="202.5" x2="202.5" y1="20" y2="97"></line><line x1="295" x2="295" y1="20" y2="97"></line><line x1="387.5" x2="387.5" y1="20" y2="97"></line><line x1="480" x2="480" y1="20" y2="97"></line></g><g stroke="currentColor" stroke-opacity="0.1" transform="translate(0,172)"><line x1="110" x2="110" y1="20" y2="97"></line><line x1="202.5" x2="202.5" y1="20" y2="97"></line><line x1="295" x2="295" y1="20" y2="97"></line><line x1="387.5" x2="387.5" y1="20" y2="97"></line><line x1="480" x2="480" y1="20" y2="97"></line></g></g><g aria-label="x-axis tick" aria-hidden="true"><g fill="none" stroke="currentColor" transform="translate(0,172)"><path transform="translate(110,97)" d="M0,0L0,6"></path><path transform="translate(202.5,97)" d="M0,0L0,6"></path><path transform="translate(295,97)" d="M0,0L0,6"></path><path transform="translate(387.5,97)" d="M0,0L0,6"></path><path transform="translate(480,97)" d="M0,0L0,6"></path></g></g><g aria-label="x-axis tick label" transform="translate(0,9)"><g font-variant="tabular-nums" transform="translate(0,172)"><text y="0.71em" transform="translate(110,97)">0 B</text><text y="0.71em" transform="translate(202.5,97)">500 KiB</text><text y="0.71em" transform="translate(295,97)">1 MiB</text><text y="0.71em" transform="translate(387.5,97)">1.5 MiB</text><text y="0.71em" transform="translate(480,97)">2 MiB</text></g></g><g aria-label="x-axis label" text-anchor="end" transform="translate(17,27)"><text transform="translate(480,269)">Encoded size (lower is better) →</text></g><g aria-label="x-grid" aria-hidden="true"><g stroke="currentColor" stroke-width="0.5" stroke-opacity="0.15" transform="translate(0,0)"><line x1="110" x2="110" y1="20" y2="97"></line><line x1="147" x2="147" y1="20" y2="97"></line><line x1="184" x2="184" y1="20" y2="97"></line><line x1="221" x2="221" y1="20" y2="97"></line><line x1="258" x2="258" y1="20" y2="97"></line><line x1="295" x2="295" y1="20" y2="97"></line><line x1="332" x2="332" y1="20" y2="97"></line><line x1="369" x2="369" y1="20" y2="97"></line><line x1="406" x2="406" y1="20" y2="97"></line><line x1="443" x2="443" y1="20" y2="97"></line><line x1="480" x2="480" y1="20" y2="97"></line></g><g stroke="currentColor" stroke-width="0.5" stroke-opacity="0.15" transform="translate(0,86)"><line x1="110" x2="110" y1="20" y2="97"></line><line x1="147" x2="147" y1="20" y2="97"></line><line x1="184" x2="184" y1="20" y2="97"></line><line x1="221" x2="221" y1="20" y2="97"></line><line x1="258" x2="258" y1="20" y2="97"></line><line x1="295" x2="295" y1="20" y2="97"></line><line x1="332" x2="332" y1="20" y2="97"></line><line x1="369" x2="369" y1="20" y2="97"></line><line x1="406" x2="406" y1="20" y2="97"></line><line x1="443" x2="443" y1="20" y2="97"></line><line x1="480" x2="480" y1="20" y2="97"></line></g><g stroke="currentColor" stroke-width="0.5" stroke-opacity="0.15" transform="translate(0,172)"><line x1="110" x2="110" y1="20" y2="97"></line><line x1="147" x2="147" y1="20" y2="97"></line><line x1="184" x2="184" y1="20" y2="97"></line><line x1="221" x2="221" y1="20" y2="97"></line><line x1="258" x2="258" y1="20" y2="97"></line><line x1="295" x2="295" y1="20" y2="97"></line><line x1="332" x2="332" y1="20" y2="97"></line><line x1="369" x2="369" y1="20" y2="97"></line><line x1="406" x2="406" y1="20" y2="97"></line><line x1="443" x2="443" y1="20" y2="97"></line><line x1="480" x2="480" y1="20" y2="97"></line></g></g><g aria-label="y-axis tick" aria-hidden="true" transform="translate(0,4.5)"><g fill="none" stroke="currentColor" stroke-opacity="0.4" transform="translate(0,0)"><path transform="translate(110,24)" d="M0,0L-6,0"></path><path transform="translate(110,34)" d="M0,0L-6,0"></path><path transform="translate(110,44)" d="M0,0L-6,0"></path><path transform="translate(110,54)" d="M0,0L-6,0"></path><path transform="translate(110,64)" d="M0,0L-6,0"></path><path transform="translate(110,74)" d="M0,0L-6,0"></path><path transform="translate(110,84)" d="M0,0L-6,0"></path></g><g fill="none" stroke="currentColor" stroke-opacity="0.4" transform="translate(0,86)"><path transform="translate(110,24)" d="M0,0L-6,0"></path><path transform="translate(110,34)" d="M0,0L-6,0"></path><path transform="translate(110,44)" d="M0,0L-6,0"></path><path transform="translate(110,54)" d="M0,0L-6,0"></path><path transform="translate(110,64)" d="M0,0L-6,0"></path><path transform="translate(110,74)" d="M0,0L-6,0"></path><path transform="translate(110,84)" d="M0,0L-6,0"></path></g><g fill="none" stroke="currentColor" stroke-opacity="0.4" transform="translate(0,172)"><path transform="translate(110,24)" d="M0,0L-6,0"></path><path transform="translate(110,34)" d="M0,0L-6,0"></path><path transform="translate(110,44)" d="M0,0L-6,0"></path><path transform="translate(110,54)" d="M0,0L-6,0"></path><path transform="translate(110,64)" d="M0,0L-6,0"></path><path transform="translate(110,74)" d="M0,0L-6,0"></path><path transform="translate(110,84)" d="M0,0L-6,0"></path></g></g><g aria-label="y-axis tick label" transform="translate(-9,4.5)"><g fill-opacity="0.4" text-anchor="end" font-size="8" font-weight="700" transform="translate(0,0)"><text y="0.32em" transform="translate(110,24)">S1</text><text y="0.32em" transform="translate(110,34)">S2</text><text y="0.32em" transform="translate(110,44)">S3</text><text y="0.32em" transform="translate(110,54)">C1</text><text y="0.32em" transform="translate(110,64)">C2</text><text y="0.32em" transform="translate(110,74)">A1</text><text y="0.32em" transform="translate(110,84)">A2</text></g><g fill-opacity="0.4" text-anchor="end" font-size="8" font-weight="700" transform="translate(0,86)"><text y="0.32em" transform="translate(110,24)">S1</text><text y="0.32em" transform="translate(110,34)">S2</text><text y="0.32em" transform="translate(110,44)">S3</text><text y="0.32em" transform="translate(110,54)">C1</text><text y="0.32em" transform="translate(110,64)">C2</text><text y="0.32em" transform="translate(110,74)">A1</text><text y="0.32em" transform="translate(110,84)">A2</text></g><g fill-opacity="0.4" text-anchor="end" font-size="8" font-weight="700" transform="translate(0,172)"><text y="0.32em" transform="translate(110,24)">S1</text><text y="0.32em" transform="translate(110,34)">S2</text><text y="0.32em" transform="translate(110,44)">S3</text><text y="0.32em" transform="translate(110,54)">C1</text><text y="0.32em" transform="translate(110,64)">C2</text><text y="0.32em" transform="translate(110,74)">A1</text><text y="0.32em" transform="translate(110,84)">A2</text></g></g><g aria-label="bar"><g transform="translate(0,0)"><rect x="110" width="101.18482499999999" y="24" height="9" fill="#1b9e77" fill-opacity="0.5"></rect><rect x="110" width="117.935835" y="34" height="9" fill="#1b9e77" fill-opacity="0.5"></rect><rect x="110" width="227.78161999999998" y="44" height="9" fill="#1b9e77" fill-opacity="0.5"></rect><rect x="110" width="109.70499999999998" y="54" height="9" fill="#d95f02" fill-opacity="0.5"></rect><rect x="110" width="105.158625" y="64" height="9" fill="#d95f02" fill-opacity="0.5"></rect><rect x="110" width="90.421895" y="74" height="9" fill="#7570b3" fill-opacity="0.5"></rect><rect x="110" width="84.87393" y="84" height="9" fill="#7570b3" fill-opacity="0.5"></rect><rect x="211.184825" width="11.773400000000038" y="24" height="9" fill="#1b9e77" fill-opacity="1"></rect><rect x="227.935835" width="21.297570000000007" y="34" height="9" fill="#1b9e77" fill-opacity="1"></rect><rect x="337.78162" width="26.902885000000026" y="44" height="9" fill="#1b9e77" fill-opacity="1"></rect><rect x="219.70499999999998" width="82.63617000000005" y="54" height="9" fill="#d95f02" fill-opacity="1"></rect><rect x="215.158625" width="121.45545999999999" y="64" height="9" fill="#d95f02" fill-opacity="1"></rect><rect x="200.421895" width="20.904629999999997" y="74" height="9" fill="#7570b3" fill-opacity="1"></rect><rect x="194.87393" width="18.969899999999996" y="84" height="9" fill="#7570b3" fill-opacity="1"></rect></g><g transform="translate(0,86)"><rect x="110" width="101.18482499999999" y="24" height="9" fill="#1b9e77" fill-opacity="0.5"></rect><rect x="110" width="117.935835" y="34" height="9" fill="#1b9e77" fill-opacity="0.5"></rect><rect x="110" width="227.78161999999998" y="44" height="9" fill="#1b9e77" fill-opacity="0.5"></rect><rect x="110" width="109.70499999999998" y="54" height="9" fill="#d95f02" fill-opacity="0.5"></rect><rect x="110" width="105.158625" y="64" height="9" fill="#d95f02" fill-opacity="0.5"></rect><rect x="110" width="90.421895" y="74" height="9" fill="#7570b3" fill-opacity="0.5"></rect><rect x="110" width="84.87393" y="84" height="9" fill="#7570b3" fill-opacity="0.5"></rect><rect x="211.184825" width="58.192859999999996" y="24" height="9" fill="#1b9e77" fill-opacity="0.5"></rect><rect x="227.935835" width="31.50679500000001" y="34" height="9" fill="#1b9e77" fill-opacity="0.5"></rect><rect x="337.78162" width="22.629755000000046" y="44" height="9" fill="#1b9e77" fill-opacity="0.5"></rect><rect x="219.70499999999998" width="98.79925000000003" y="54" height="9" fill="#d95f02" fill-opacity="0.5"></rect><rect x="215.158625" width="97.80949999999999" y="64" height="9" fill="#d95f02" fill-opacity="0.5"></rect><rect x="200.421895" width="7.056269999999984" y="74" height="9" fill="#7570b3" fill-opacity="0.5"></rect><rect x="194.87393" width="42.06012000000001" y="84" height="9" fill="#7570b3" fill-opacity="0.5"></rect><rect x="269.377685" width="11.773399999999981" y="24" height="9" fill="#1b9e77" fill-opacity="1"></rect><rect x="259.44263" width="21.297570000000007" y="34" height="9" fill="#1b9e77" fill-opacity="1"></rect><rect x="360.411375" width="26.902885000000026" y="44" height="9" fill="#1b9e77" fill-opacity="1"></rect><rect x="318.50425" width="82.63616999999999" y="54" height="9" fill="#d95f02" fill-opacity="1"></rect><rect x="312.968125" width="121.45545999999996" y="64" height="9" fill="#d95f02" fill-opacity="1"></rect><rect x="207.478165" width="20.904629999999997" y="74" height="9" fill="#7570b3" fill-opacity="1"></rect><rect x="236.93405" width="18.969899999999996" y="84" height="9" fill="#7570b3" fill-opacity="1"></rect></g><g transform="translate(0,172)"><rect x="110" width="101.18482499999999" y="24" height="9" fill="#1b9e77" fill-opacity="0.5"></rect><rect x="110" width="117.935835" y="34" height="9" fill="#1b9e77" fill-opacity="0.5"></rect><rect x="110" width="227.78161999999998" y="44" height="9" fill="#1b9e77" fill-opacity="0.5"></rect><rect x="110" width="109.70499999999998" y="54" height="9" fill="#d95f02" fill-opacity="0.5"></rect><rect x="110" width="105.158625" y="64" height="9" fill="#d95f02" fill-opacity="0.5"></rect><rect x="110" width="90.421895" y="74" height="9" fill="#7570b3" fill-opacity="0.5"></rect><rect x="110" width="84.87393" y="84" height="9" fill="#7570b3" fill-opacity="0.5"></rect><rect x="211.184825" width="61.219645000000014" y="24" height="9" fill="#1b9e77" fill-opacity="1"></rect><rect x="227.935835" width="99.07675" y="34" height="9" fill="#1b9e77" fill-opacity="1"></rect><rect x="337.78162" width="124.69407000000001" y="44" height="9" fill="#1b9e77" fill-opacity="1"></rect><rect x="219.70499999999998" width="181.17863999999997" y="54" height="9" fill="#d95f02" fill-opacity="1"></rect><rect x="215.158625" width="215.284685" y="64" height="9" fill="#d95f02" fill-opacity="1"></rect><rect x="200.421895" width="177.01909999999998" y="74" height="9" fill="#7570b3" fill-opacity="1"></rect><rect x="194.87393" width="121.12393999999998" y="84" height="9" fill="#7570b3" fill-opacity="1"></rect></g></g><g aria-label="fy-axis tick label" transform="translate(-61,0)"><g font-size="15px" transform="translate(0,0)"><text transform="translate(110,58.5)">Eg-walker</text></g><g font-size="15px" transform="translate(0,86)"><text transform="translate(110,58.5)">Eg-walker</text></g><g font-size="15px" transform="translate(0,172)"><text transform="translate(110,58.5)">Automerge</text></g></g><g aria-label="fy-axis tick label" transform="translate(-61,6)"><g fill-opacity="0.7" font-size="12" transform="translate(0,86)"><text transform="translate(110,58.5)"><tspan x="0" y="0.781em">+ cached</tspan><tspan x="0" dy="1.1em">final doc</tspan></text></g></g><g aria-label="tick"><g stroke="currentColor" transform="translate(0,0)"><line x1="222.95822500000003" x2="222.95822500000003" y1="24" y2="33"></line><line x1="249.233405" x2="249.233405" y1="34" y2="43"></line><line x1="364.684505" x2="364.684505" y1="44" y2="53"></line><line x1="302.34117000000003" x2="302.34117000000003" y1="54" y2="63"></line><line x1="336.614085" x2="336.614085" y1="64" y2="73"></line><line x1="221.326525" x2="221.326525" y1="74" y2="83"></line><line x1="213.84383" x2="213.84383" y1="84" y2="93"></line></g><g stroke="currentColor" transform="translate(0,86)"><line x1="281.15108499999997" x2="281.15108499999997" y1="24" y2="33"></line><line x1="280.7402" x2="280.7402" y1="34" y2="43"></line><line x1="387.31426000000005" x2="387.31426000000005" y1="44" y2="53"></line><line x1="401.14042" x2="401.14042" y1="54" y2="63"></line><line x1="434.42358499999995" x2="434.42358499999995" y1="64" y2="73"></line><line x1="228.382795" x2="228.382795" y1="74" y2="83"></line><line x1="255.90395" x2="255.90395" y1="84" y2="93"></line></g><g stroke="currentColor" transform="translate(0,172)"><line x1="272.40447" x2="272.40447" y1="24" y2="33"></line><line x1="327.012585" x2="327.012585" y1="34" y2="43"></line><line x1="462.47569" x2="462.47569" y1="44" y2="53"></line><line x1="400.88363999999996" x2="400.88363999999996" y1="54" y2="63"></line><line x1="430.44331" x2="430.44331" y1="64" y2="73"></line><line x1="377.440995" x2="377.440995" y1="74" y2="83"></line><line x1="315.99787" x2="315.99787" y1="84" y2="93"></line></g></g><g aria-label="text" transform="translate(6,4.5)"><g fill="black" text-anchor="start" font-size="9" transform="translate(0,0)"><text y="0.32em" transform="translate(222.95822500000003,24)">611 KiB</text><text y="0.32em" transform="translate(249.233405,34)">753 KiB</text><text y="0.32em" transform="translate(364.684505,44)">1.4 MiB</text><text y="0.32em" transform="translate(302.34117000000003,54)">1 MiB</text><text y="0.32em" transform="translate(336.614085,64)">1.2 MiB</text><text y="0.32em" transform="translate(221.326525,74)">602 KiB</text><text y="0.32em" transform="translate(213.84383,84)">561 KiB</text></g><g fill="black" text-anchor="start" font-size="9" transform="translate(0,86)"><text y="0.32em" transform="translate(281.15108499999997,24)">925 KiB</text><text y="0.32em" transform="translate(280.7402,34)">923 KiB</text><text y="0.32em" transform="translate(387.31426000000005,44)">1.5 MiB</text><text y="0.32em" transform="translate(401.14042,54)">1.6 MiB</text><text y="0.32em" transform="translate(434.42358499999995,64)">1.8 MiB</text><text y="0.32em" transform="translate(228.382795,74)">640 KiB</text><text y="0.32em" transform="translate(255.90395,84)">789 KiB</text></g><g fill="black" text-anchor="start" font-size="9" transform="translate(0,172)"><text y="0.32em" transform="translate(272.40447,24)">878 KiB</text><text y="0.32em" transform="translate(327.012585,34)">1.2 MiB</text><text y="0.32em" transform="translate(462.47569,44)">1.9 MiB</text><text y="0.32em" transform="translate(400.88363999999996,54)">1.6 MiB</text><text y="0.32em" transform="translate(430.44331,64)">1.7 MiB</text><text y="0.32em" transform="translate(377.440995,74)">1.4 MiB</text><text y="0.32em" transform="translate(315.99787,84)">1.1 MiB</text></g></g><g aria-label="rule"><g stroke="currentColor" stroke-width="1.5" transform="translate(0,0)"><line x1="110" x2="110" y1="20" y2="97"></line></g><g stroke="currentColor" stroke-width="1.5" transform="translate(0,86)"><line x1="110" x2="110" y1="20" y2="97"></line></g><g stroke="currentColor" stroke-width="1.5" transform="translate(0,172)"><line x1="110" x2="110" y1="20" y2="97"></line></g></g></svg>