<svg class="plot-d6a7b5" fill="currentColor" font-family="system-ui, sans-serif" font-size="10" text-anchor="middle" width="500" height="300" viewBox="0 0 500 300" style="background: white; font-family: Helvetica Neue, Helvetica, Arial, sans-serif;" xmlns="http://www.w3.org/2000/svg" xmlns:xlink="http://www.w3.org/1999/xlink" version="1.1"><style>:where(.plot-d6a7b5) {
  --plot-background: white;
  display: block;
  height: auto;
  height: intrinsic;
  max-width: 100%;
}
:where(.plot-d6a7b5 text),
:where(.plot-d6a7b5 tspan) {
  white-space: pre;
}</style><g aria-label="x-grid" aria-hidden="true"><g stroke="currentColor" stroke-opacity="0.1" transform="translate(0,0)"><line x1="110" x2="110" y1="20" y2="97"></line><line x1="196.04651162790697" x2="196.04651162790697" y1="20" y2="97"></line><line x1="282.09302325581393" x2="282.09302325581393" y1="20" y2="97"></line><line x1="368.13953488372096" x2="368.13953488372096" y1="20" y2="97"></line><line x1="454.1860465116279" x2="454.1860465116279" y1="20" y2="97"></line></g><g stroke="currentColor" stroke-opacity="0.1" transform="translate(0,86)"><line x1="110" x2="110" y1="20" y2="97"></line><line x1="196.04651162790697" x2="196.04651162790697" y1="20" y2="97"></line><line x1="282.09302325581393" x2="282.09302325581393" y1="20" y2="97"></line><line x1="368.13953488372096" x2="368.13953488372096" y1="20" y2="97"></line><line x1="454.1860465116279" x2="454.1860465116279" y1="20" y2="97"></line></g><g stroke="currentColor" stroke-opacity="0.1" transform="translate(0,172)"><line x1="110" x2="110" y1="20" y2="97"></line><line x1="196.04651162790697" x2="196.04651162790697" y1="20" y2="97"></line><line x1="282.09302325581393" x2="282.09302325581393" y1="20" y2="97"></line><line x1="368.13953488372096" x2="368.13953488372096" y1="20" y2="97"></line><line x1="454.1860465116279" x2="454.1860465116279" y1="20" y2="97"></line></g></g><g aria-label="x-axis tick" aria-hidden="true"><g fill="none" stroke="currentColor" transform="translate(0,172)"><path transform="translate(110,97)" d="M0,0L0,6"></path><path transform="translate(196.04651162790697,97)" d="M0,0L0,6"></path><path transform="translate(282.09302325581393,97)" d="M0,0L0,6"></path><path transform="translate(368.13953488372096,97)" d="M0,0L0,6"></path><path transform="translate(454.1860465116279,97)" d="M0,0L0,6"></path></g></g><g aria-label="x-axis tick label" transform="translate(0,9)"><g font-variant="tabular-nums" transform="translate(0,172)"><text y="0.71em" transform="translate(110,97)">0 B</text><text y="0.71em" transform="translate(196.04651162790697,97)">1 MiB</text><text y="0.71em" transform="translate(282.09302325581393,97)">2 MiB</text><text y="0.71em" transform="translate(368.13953488372096,97)">3 MiB</text><text y="0.71em" transform="translate(454.1860465116279,97)">4 MiB</text></g></g><g aria-label="x-axis label" text-anchor="end" transform="translate(17,27)"><text transform="translate(480,269)">Encoded size (lower is better) →</text></g><g aria-label="x-grid" aria-hidden="true"><g stroke="currentColor" stroke-width="0.5" stroke-opacity="0.15" transform="translate(0,0)"><line x1="110" x2="110" y1="20" y2="97"></line><line x1="153.02325581395348" x2="153.02325581395348" y1="20" y2="97"></line><line x1="196.04651162790697" x2="196.04651162790697" y1="20" y2="97"></line><line x1="239.06976744186048" x2="239.06976744186048" y1="20" y2="97"></line><line x1="282.09302325581393" x2="282.09302325581393" y1="20" y2="97"></line><line x1="325.1162790697675" x2="325.1162790697675" y1="20" y2="97"></line><line x1="368.13953488372096" x2="368.13953488372096" y1="20" y2="97"></line><line x1="411.16279069767444" x2="411.16279069767444" y1="20" y2="97"></line><line x1="454.1860465116279" x2="454.1860465116279" y1="20" y2="97"></line></g><g stroke="currentColor" stroke-width="0.5" stroke-opacity="0.15" transform="translate(0,86)"><line x1="110" x2="110" y1="20" y2="97"></line><line x1="153.02325581395348" x2="153.02325581395348" y1="20" y2="97"></line><line x1="196.04651162790697" x2="196.04651162790697" y1="20" y2="97"></line><line x1="239.06976744186048" x2="239.06976744186048" y1="20" y2="97"></line><line x1="282.09302325581393" x2="282.09302325581393" y1="20" y2="97"></line><line x1="325.1162790697675" x2="325.1162790697675" y1="20" y2="97"></line><line x1="368.13953488372096" x2="368.13953488372096" y1="20" y2="97"></line><line x1="411.16279069767444" x2="411.16279069767444" y1="20" y2="97"></line><line x1="454.1860465116279" x2="454.1860465116279" y1="20" y2="97"></line></g><g stroke="currentColor" stroke-width="0.5" stroke-opacity="0.15" transform="translate(0,172)"><line x1="110" x2="110" y1="20" y2="97"></line><line x1="153.02325581395348" x2="153.02325581395348" y1="20" y2="97"></line><line x1="196.04651162790697" x2="196.04651162790697" y1="20" y2="97"></line><line x1="239.06976744186048" x2="239.06976744186048" y1="20" y2="97"></line><line x1="282.09302325581393" x2="282.09302325581393" y1="20" y2="97"></line><line x1="325.1162790697675" x2="325.1162790697675" y1="20" y2="97"></line><line x1="368.13953488372096" x2="368.13953488372096" y1="20" y2="97"></line><line x1="411.16279069767444" x2="411.16279069767444" y1="20" y2="97"></line><line x1="454.1860465116279" x2="454.1860465116279" y1="20" y2="97"></line></g></g><g aria-label="y-axis tick" aria-hidden="true" transform="translate(0,4.5)"><g fill="none" stroke="currentColor" stroke-opacity="0.4" transform="translate(0,0)"><path transform="translate(110,24)" d="M0,0L-6,0"></path><path transform="translate(110,34)" d="M0,0L-6,0"></path><path transform="translate(110,44)" d="M0,0L-6,0"></path><path transform="translate(110,54)" d="M0,0L-6,0"></path><path transform="translate(110,64)" d="M0,0L-6,0"></path><path transform="translate(110,74)" d="M0,0L-6,0"></path><path transform="translate(110,84)" d="M0,0L-6,0"></path></g><g fill="none" stroke="currentColor" stroke-opacity="0.4" transform="translate(0,86)"><path transform="translate(110,24)" d="M0,0L-6,0"></path><path transform="translate(110,34)" d="M0,0L-6,0"></path><path transform="translate(110,44)" d="M0,0L-6,0"></path><path transform="translate(110,54)" d="M0,0L-6,0"></path><path transform="translate(110,64)" d="M0,0L-6,0"></path><path transform="translate(110,74)" d="M0,0L-6,0"></path><path transform="translate(110,84)" d="M0,0L-6,0"></path></g><g fill="none" stroke="currentColor" stroke-opacity="0.4" transform="translate(0,172)"><path transform="translate(110,24)" d="M0,0L-6,0"></path><path transform="translate(110,34)" d="M0,0L-6,0"></path><path transform="translate(110,44)" d="M0,0L-6,0"></path><path transform="translate(110,54)" d="M0,0L-6,0"></path><path transform="translate(110,64)" d="M0,0L-6,0"></path><path transform="translate(110,74)" d="M0,0L-6,0"></path><path transform="translate(110,84)" d="M0,0L-6,0"></path></g></g><g aria-label="y-axis tick label" transform="translate(-9,4.5)"><g fill-opacity="0.4" text-anchor="end" font-size="8" font-weight="700" transform="translate(0,0)"><text y="0.32em" transform="translate(110,24)">S1</text><text y="0.32em" transform="translate(110,34)">S2</text><text y="0.32em" transform="translate(110,44)">S3</text><text y="0.32em" transform="translate(110,54)">C1</text><text y="0.32em" transform="translate(110,64)">C2</text><text y="0.32em" transform="translate(110,74)">A1</text><text y="0.32em" transform="translate(110,84)">A2</text></g><g fill-opacity="0.4" text-anchor="end" font-size="8" font-weight="700" transform="translate(0,86)"><text y="0.32em" transform="translate(110,24)">S1</text><text y="0.32em" transform="translate(110,34)">S2</text><text y="0.32em" transform="translate(110,44)">S3</text><text y="0.32em" transform="translate(110,54)">C1</text><text y="0.32em" transform="translate(110,64)">C2</text><text y="0.32em" transform="translate(110,74)">A1</text><text y="0.32em" transform="translate(110,84)">A2</text></g><g fill-opacity="0.4" text-anchor="end" font-size="8" font-weight="700" transform="translate(0,172)"><text y="0.32em" transform="translate(110,24)">S1</text><text y="0.32em" transform="translate(110,34)">S2</text><text y="0.32em" transform="translate(110,44)">S3</text><text y="0.32em" transform="translate(110,54)">C1</text><text y="0.32em" transform="translate(110,64)">C2</text><text y="0.32em" transform="translate(110,74)">A1</text><text y="0.32em" transform="translate(110,84)">A2</text></g></g><g aria-label="bar"><g transform="translate(0,0)"><rect x="110" width="47.06270930232557" y="24" height="9" fill="#1b9e77" fill-opacity="0.5"></rect><rect x="110" width="54.85387674418604" y="34" height="9" fill="#1b9e77" fill-opacity="0.5"></rect><rect x="110" width="105.9449395348837" y="44" height="9" fill="#1b9e77" fill-opacity="0.5"></rect><rect x="110" width="51.02558139534881" y="54" height="9" fill="#d95f02" fill-opacity="0.5"></rect><rect x="110" width="48.910988372093016" y="64" height="9" fill="#d95f02" fill-opacity="0.5"></rect><rect x="110" width="42.056695348837195" y="74" height="9" fill="#7570b3" fill-opacity="0.5"></rect><rect x="110" width="39.47624651162792" y="84" height="9" fill="#7570b3" fill-opacity="0.5"></rect><rect x="157.06270930232557" width="5.475999999999999" y="24" height="9" fill="#1b9e77" fill-opacity="1"></rect><rect x="164.85387674418604" width="9.905846511627914" y="34" height="9" fill="#1b9e77" fill-opacity="1"></rect><rect x="215.9449395348837" width="12.51296976744186" y="44" height="9" fill="#1b9e77" fill-opacity="1"></rect><rect x="161.0255813953488" width="38.43542790697677" y="54" height="9" fill="#d95f02" fill-opacity="1"></rect><rect x="158.91098837209302" width="56.490911627906996" y="64" height="9" fill="#d95f02" fill-opacity="1"></rect><rect x="152.0566953488372" width="9.723083720930248" y="74" height="9" fill="#7570b3" fill-opacity="1"></rect><rect x="149.47624651162792" width="8.82320930232558" y="84" height="9" fill="#7570b3" fill-opacity="1"></rect></g><g transform="translate(0,86)"><rect x="110" width="47.06270930232557" y="24" height="9" fill="#1b9e77" fill-opacity="0.5"></rect><rect x="110" width="54.85387674418604" y="34" height="9" fill="#1b9e77" fill-opacity="0.5"></rect><rect x="110" width="105.9449395348837" y="44" height="9" fill="#1b9e77" fill-opacity="0.5"></rect><rect x="110" width="51.02558139534881" y="54" height="9" fill="#d95f02" fill-opacity="0.5"></rect><rect x="110" width="48.910988372093016" y="64" height="9" fill="#d95f02" fill-opacity="0.5"></rect><rect x="110" width="42.056695348837195" y="74" height="9" fill="#7570b3" fill-opacity="0.5"></rect><rect x="110" width="39.47624651162792" y="84" height="9" fill="#7570b3" fill-opacity="0.5"></rect><rect x="157.06270930232557" width="27.06644651162793" y="24" height="9" fill="#1b9e77" fill-opacity="0.5"></rect><rect x="164.85387674418604" width="14.65432325581395" y="34" height="9" fill="#1b9e77" fill-opacity="0.5"></rect><rect x="215.9449395348837" width="10.525467441860485" y="44" height="9" fill="#1b9e77" fill-opacity="0.5"></rect><rect x="161.0255813953488" width="45.953139534883746" y="54" height="9" fill="#d95f02" fill-opacity="0.5"></rect><rect x="158.91098837209302" width="45.49279069767442" y="64" height="9" fill="#d95f02" fill-opacity="0.5"></rect><rect x="152.0566953488372" width="3.2819860465116335" y="74" height="9" fill="#7570b3" fill-opacity="0.5"></rect><rect x="149.47624651162792" width="19.562846511627896" y="84" height="9" fill="#7570b3" fill-opacity="0.5"></rect><rect x="184.1291558139535" width="5.475999999999999" y="24" height="9" fill="#1b9e77" fill-opacity="1"></rect><rect x="179.5082" width="9.905846511627914" y="34" height="9" fill="#1b9e77" fill-opacity="1"></rect><rect x="226.4704069767442" width="12.51296976744186" y="44" height="9" fill="#1b9e77" fill-opacity="1"></rect><rect x="206.97872093023256" width="38.43542790697674" y="54" height="9" fill="#d95f02" fill-opacity="1"></rect><rect x="204.40377906976744" width="56.49091162790694" y="64" height="9" fill="#d95f02" fill-opacity="1"></rect><rect x="155.33868139534883" width="9.723083720930248" y="74" height="9" fill="#7570b3" fill-opacity="1"></rect><rect x="169.03909302325582" width="8.82320930232558" y="84" height="9" fill="#7570b3" fill-opacity="1"></rect></g><g transform="translate(0,172)"><rect x="110" width="47.06270930232557" y="24" height="9" fill="#1b9e77" fill-opacity="0.5"></rect><rect x="110" width="54.85387674418604" y="34" height="9" fill="#1b9e77" fill-opacity="0.5"></rect><rect x="110" width="105.9449395348837" y="44" height="9" fill="#1b9e77" fill-opacity="0.5"></rect><rect x="110" width="51.02558139534881" y="54" height="9" fill="#d95f02" fill-opacity="0.5"></rect><rect x="110" width="48.910988372093016" y="64" height="9" fill="#d95f02" fill-opacity="0.5"></rect><rect x="110" width="42.056695348837195" y="74" height="9" fill="#7570b3" fill-opacity="0.5"></rect><rect x="110" width="39.47624651162792" y="84" height="9" fill="#7570b3" fill-opacity="0.5"></rect><rect x="157.06270930232557" width="28.477093023255833" y="24" height="9" fill="#1b9e77" fill-opacity="1"></rect><rect x="164.85387674418604" width="46.0713674418605" y="34" height="9" fill="#1b9e77" fill-opacity="1"></rect><rect x="215.9449395348837" width="57.99620930232561" y="44" height="9" fill="#1b9e77" fill-opacity="1"></rect><rect x="161.0255813953488" width="84.54009534883721" y="54" height="9" fill="#d95f02" fill-opacity="1"></rect><rect x="158.91098837209302" width="100.21733953488376" y="64" height="9" fill="#d95f02" fill-opacity="1"></rect><rect x="152.0566953488372" width="82.33446511627909" y="74" height="9" fill="#7570b3" fill-opacity="1"></rect><rect x="149.47624651162792" width="56.33671627906975" y="84" height="9" fill="#7570b3" fill-opacity="1"></rect></g></g><g aria-label="fy-axis tick label" transform="translate(-61,0)"><g font-size="15px" transform="translate(0,0)"><text transform="translate(110,58.5)">Eg-walker</text></g><g font-size="15px" transform="translate(0,86)"><text transform="translate(110,58.5)">Eg-walker</text></g><g font-size="15px" transform="translate(0,172)"><text transform="translate(110,58.5)">Automerge</text></g></g><g aria-label="fy-axis tick label" transform="translate(-61,6)"><g fill-opacity="0.7" font-size="12" transform="translate(0,86)"><text transform="translate(110,58.5)"><tspan x="0" y="0.781em">+ cached</tspan><tspan x="0" dy="1.1em">final doc</tspan></text></g></g><g aria-label="tick"><g stroke="currentColor" transform="translate(0,0)"><line x1="162.53870930232557" x2="162.53870930232557" y1="24" y2="33"></line><line x1="174.75972325581395" x2="174.75972325581395" y1="34" y2="43"></line><line x1="228.45790930232556" x2="228.45790930232556" y1="44" y2="53"></line><line x1="199.46100930232558" x2="199.46100930232558" y1="54" y2="63"></line><line x1="215.4019" x2="215.4019" y1="64" y2="73"></line><line x1="161.77977906976744" x2="161.77977906976744" y1="74" y2="83"></line><line x1="158.2994558139535" x2="158.2994558139535" y1="84" y2="93"></line></g><g stroke="currentColor" transform="translate(0,86)"><line x1="189.6051558139535" x2="189.6051558139535" y1="24" y2="33"></line><line x1="189.4140465116279" x2="189.4140465116279" y1="34" y2="43"></line><line x1="238.98337674418605" x2="238.98337674418605" y1="44" y2="53"></line><line x1="245.4141488372093" x2="245.4141488372093" y1="54" y2="63"></line><line x1="260.8946906976744" x2="260.8946906976744" y1="64" y2="73"></line><line x1="165.06176511627908" x2="165.06176511627908" y1="74" y2="83"></line><line x1="177.8623023255814" x2="177.8623023255814" y1="84" y2="93"></line></g><g stroke="currentColor" transform="translate(0,172)"><line x1="185.5398023255814" x2="185.5398023255814" y1="24" y2="33"></line><line x1="210.92524418604654" x2="210.92524418604654" y1="34" y2="43"></line><line x1="273.9411488372093" x2="273.9411488372093" y1="44" y2="53"></line><line x1="245.56567674418602" x2="245.56567674418602" y1="54" y2="63"></line><line x1="259.1283279069768" x2="259.1283279069768" y1="64" y2="73"></line><line x1="234.3911604651163" x2="234.3911604651163" y1="74" y2="83"></line><line x1="205.81296279069767" x2="205.81296279069767" y1="84" y2="93"></line></g></g><g aria-label="text" transform="translate(6,4.5)"><g fill="black" text-anchor="start" font-size="9" transform="translate(0,0)"><text y="0.32em" transform="translate(162.53870930232557,24)">611 KiB</text><text y="0.32em" transform="translate(174.75972325581395,34)">753 KiB</text><text y="0.32em" transform="translate(228.45790930232556,44)">1.4 MiB</text><text y="0.32em" transform="translate(199.46100930232558,54)">1 MiB</text><text y="0.32em" transform="translate(215.4019,64)">1.2 MiB</text><text y="0.32em" transform="translate(161.77977906976744,74)">602 KiB</text><text y="0.32em" transform="translate(158.2994558139535,84)">561 KiB</text></g><g fill="black" text-anchor="start" font-size="9" transform="translate(0,86)"><text y="0.32em" transform="translate(189.6051558139535,24)">925 KiB</text><text y="0.32em" transform="translate(189.4140465116279,34)">923 KiB</text><text y="0.32em" transform="translate(238.98337674418605,44)">1.5 MiB</text><text y="0.32em" transform="translate(245.4141488372093,54)">1.6 MiB</text><text y="0.32em" transform="translate(260.8946906976744,64)">1.8 MiB</text><text y="0.32em" transform="translate(165.06176511627908,74)">640 KiB</text><text y="0.32em" transform="translate(177.8623023255814,84)">789 KiB</text></g><g fill="black" text-anchor="start" font-size="9" transform="translate(0,172)"><text y="0.32em" transform="translate(185.5398023255814,24)">878 KiB</text><text y="0.32em" transform="translate(210.92524418604654,34)">1.2 MiB</text><text y="0.32em" transform="translate(273.9411488372093,44)">1.9 MiB</text><text y="0.32em" transform="translate(245.56567674418602,54)">1.6 MiB</text><text y="0.32em" transform="translate(259.1283279069768,64)">1.7 MiB</text><text y="0.32em" transform="translate(234.3911604651163,74)">1.4 MiB</text><text y="0.32em" transform="translate(205.81296279069767,84)">1.1 MiB</text></g></g><g aria-label="rule"><g stroke="currentColor" stroke-width="1.5" transform="translate(0,0)"><line x1="110" x2="110" y1="20" y2="97"></line></g><g stroke="currentColor" stroke-width="1.5" transform="translate(0,86)"><line x1="110" x2="110" y1="20" y2="97"></line></g><g stroke="currentColor" stroke-width="1.5" transform="translate(0,172)"><line x1="110" x2="110" y1="20" y2="97"></line></g></g></svg>