<svg class="plot-d6a7b5" fill="currentColor" font-family="system-ui, sans-serif" font-size="10" text-anchor="middle" width="500" height="300" viewBox="0 0 500 300" style="background: white; font-family: Helvetica Neue, Helvetica, Arial, sans-serif;" xmlns="http://www.w3.org/2000/svg" xmlns:xlink="http://www.w3.org/1999/xlink" version="1.1"><style>:where(.plot-d6a7b5) {
  --plot-background: white;
  display: block;
  height: auto;
  height: intrinsic;
  max-width: 100%;
}
:where(.plot-d6a7b5 text),
:where(.plot-d6a7b5 tspan) {
  white-space: pre;
}</style><g aria-label="x-grid" aria-hidden="true"><g stroke="currentColor" stroke-opacity="0.1" transform="translate(0,1)"><line x1="110" x2="110" y1="20" y2="138"></line><line x1="171.66666666666669" x2="171.66666666666669" y1="20" y2="138"></line><line x1="233.33333333333334" x2="233.33333333333334" y1="20" y2="138"></line><line x1="295" x2="295" y1="20" y2="138"></line><line x1="356.6666666666667" x2="356.6666666666667" y1="20" y2="138"></line><line x1="418.3333333333333" x2="418.3333333333333" y1="20" y2="138"></line><line x1="480" x2="480" y1="20" y2="138"></line></g><g stroke="currentColor" stroke-opacity="0.1" transform="translate(0,132)"><line x1="110" x2="110" y1="20" y2="138"></line><line x1="171.66666666666669" x2="171.66666666666669" y1="20" y2="138"></line><line x1="233.33333333333334" x2="233.33333333333334" y1="20" y2="138"></line><line x1="295" x2="295" y1="20" y2="138"></line><line x1="356.6666666666667" x2="356.6666666666667" y1="20" y2="138"></line><line x1="418.3333333333333" x2="418.3333333333333" y1="20" y2="138"></line><line x1="480" x2="480" y1="20" y2="138"></line></g></g><g aria-label="x-axis tick" aria-hidden="true"><g fill="none" stroke="currentColor" transform="translate(0,132)"><path transform="translate(110,138)" d="M0,0L0,6"></path><path transform="translate(171.66666666666669,138)" d="M0,0L0,6"></path><path transform="translate(233.33333333333334,138)" d="M0,0L0,6"></path><path transform="translate(295,138)" d="M0,0L0,6"></path><path transform="translate(356.6666666666667,138)" d="M0,0L0,6"></path><path transform="translate(418.3333333333333,138)" d="M0,0L0,6"></path><path transform="translate(480,138)" d="M0,0L0,6"></path></g></g><g aria-label="x-axis tick label" transform="translate(0,9)"><g font-variant="tabular-nums" transform="translate(0,132)"><text y="0.71em" transform="translate(110,138)">0 B</text><text y="0.71em" transform="translate(171.66666666666669,138)">500 KiB</text><text y="0.71em" transform="translate(233.33333333333334,138)">1 MiB</text><text y="0.71em" transform="translate(295,138)">1.5 MiB</text><text y="0.71em" transform="translate(356.6666666666667,138)">2 MiB</text><text y="0.71em" transform="translate(418.3333333333333,138)">2.5 MiB</text><text y="0.71em" transform="translate(480,138)">3 MiB</text></g></g><g aria-label="x-axis label" text-anchor="end" transform="translate(17,27)"><text transform="translate(480,270)">Encoded size (lower is better) →</text></g><g aria-label="x-grid" aria-hidden="true"><g stroke="currentColor" stroke-width="0.5" stroke-opacity="0.15" transform="translate(0,1)"><line x1="110" x2="110" y1="20" y2="138"></line><line x1="171.66666666666669" x2="171.66666666666669" y1="20" y2="138"></line><line x1="233.33333333333334" x2="233.33333333333334" y1="20" y2="138"></line><line x1="295" x2="295" y1="20" y2="138"></line><line x1="356.6666666666667" x2="356.6666666666667" y1="20" y2="138"></line><line x1="418.3333333333333" x2="418.3333333333333" y1="20" y2="138"></line><line x1="480" x2="480" y1="20" y2="138"></line></g><g stroke="currentColor" stroke-width="0.5" stroke-opacity="0.15" transform="translate(0,132)"><line x1="110" x2="110" y1="20" y2="138"></line><line x1="171.66666666666669" x2="171.66666666666669" y1="20" y2="138"></line><line x1="233.33333333333334" x2="233.33333333333334" y1="20" y2="138"></line><line x1="295" x2="295" y1="20" y2="138"></line><line x1="356.6666666666667" x2="356.6666666666667" y1="20" y2="138"></line><line x1="418.3333333333333" x2="418.3333333333333" y1="20" y2="138"></line><line x1="480" x2="480" y1="20" y2="138"></line></g></g><g aria-label="y-axis tick" aria-hidden="true" transform="translate(0,7)"><g fill="none" stroke="currentColor" transform="translate(0,1)"><path transform="translate(110,24)" d="M0,0L-6,0"></path><path transform="translate(110,40)" d="M0,0L-6,0"></path><path transform="translate(110,56)" d="M0,0L-6,0"></path><path transform="translate(110,72)" d="M0,0L-6,0"></path><path transform="translate(110,88)" d="M0,0L-6,0"></path><path transform="translate(110,104)" d="M0,0L-6,0"></path><path transform="translate(110,120)" d="M0,0L-6,0"></path></g><g fill="none" stroke="currentColor" transform="translate(0,132)"><path transform="translate(110,24)" d="M0,0L-6,0"></path><path transform="translate(110,40)" d="M0,0L-6,0"></path><path transform="translate(110,56)" d="M0,0L-6,0"></path><path transform="translate(110,72)" d="M0,0L-6,0"></path><path transform="translate(110,88)" d="M0,0L-6,0"></path><path transform="translate(110,104)" d="M0,0L-6,0"></path><path transform="translate(110,120)" d="M0,0L-6,0"></path></g></g><g aria-label="y-axis tick label" transform="translate(-9,7)"><g text-anchor="end" font-size="8" transform="translate(0,1)"><text y="0.32em" transform="translate(110,24)">S1</text><text y="0.32em" transform="translate(110,40)">S2</text><text y="0.32em" transform="translate(110,56)">S3</text><text y="0.32em" transform="translate(110,72)">C1</text><text y="0.32em" transform="translate(110,88)">C2</text><text y="0.32em" transform="translate(110,104)">A1</text><text y="0.32em" transform="translate(110,120)">A2</text></g><g text-anchor="end" font-size="8" transform="translate(0,132)"><text y="0.32em" transform="translate(110,24)">S1</text><text y="0.32em" transform="translate(110,40)">S2</text><text y="0.32em" transform="translate(110,56)">S3</text><text y="0.32em" transform="translate(110,72)">C1</text><text y="0.32em" transform="translate(110,88)">C2</text><text y="0.32em" transform="translate(110,104)">A1</text><text y="0.32em" transform="translate(110,120)">A2</text></g></g><g aria-label="bar"><g transform="translate(0,1)"><rect x="110" width="38.79524000000001" y="24" height="14" fill="#1b9e77" fill-opacity="0.6"></rect><rect x="110" width="21.00452999999999" y="40" height="14" fill="#1b9e77" fill-opacity="0.6"></rect><rect x="110" width="10.661180000000002" y="56" height="14" fill="#1b9e77" fill-opacity="0.6"></rect><rect x="110" width="65.86616666666666" y="72" height="14" fill="#d95f02" fill-opacity="0.6"></rect><rect x="110" width="65.20633333333333" y="88" height="14" fill="#d95f02" fill-opacity="0.6"></rect><rect x="110" width="4.704180000000008" y="104" height="14" fill="#7570b3" fill-opacity="0.6"></rect><rect x="110" width="28.040080000000017" y="120" height="14" fill="#7570b3" fill-opacity="0.6"></rect><rect x="148.79524" width="7.848933333333321" y="24" height="14" fill="#1b9e77" fill-opacity="1"></rect><rect x="131.00453" width="14.198380000000014" y="40" height="14" fill="#1b9e77" fill-opacity="1"></rect><rect x="120.66118" width="16.55256666666665" y="56" height="14" fill="#1b9e77" fill-opacity="1"></rect><rect x="175.86616666666666" width="55.090780000000024" y="72" height="14" fill="#d95f02" fill-opacity="1"></rect><rect x="175.20633333333333" width="80.97030666666669" y="88" height="14" fill="#d95f02" fill-opacity="1"></rect><rect x="114.70418000000001" width="13.936419999999998" y="104" height="14" fill="#7570b3" fill-opacity="1"></rect><rect x="138.04008000000002" width="12.646600000000007" y="120" height="14" fill="#7570b3" fill-opacity="1"></rect></g><g transform="translate(0,132)"><rect x="110" width="38.79524000000001" y="24" height="14" fill="#1b9e77" fill-opacity="0.6"></rect><rect x="110" width="21.00452999999999" y="40" height="14" fill="#1b9e77" fill-opacity="0.6"></rect><rect x="110" width="10.661180000000002" y="56" height="14" fill="#1b9e77" fill-opacity="0.6"></rect><rect x="110" width="65.86616666666666" y="72" height="14" fill="#d95f02" fill-opacity="0.6"></rect><rect x="110" width="65.20633333333333" y="88" height="14" fill="#d95f02" fill-opacity="0.6"></rect><rect x="110" width="4.704180000000008" y="104" height="14" fill="#7570b3" fill-opacity="0.6"></rect><rect x="110" width="28.040080000000017" y="120" height="14" fill="#7570b3" fill-opacity="0.6"></rect><rect x="148.79524" width="20.36973333333333" y="24" height="14" fill="#1b9e77" fill-opacity="1"></rect><rect x="131.00453" width="29.025390000000016" y="40" height="14" fill="#1b9e77" fill-opacity="1"></rect><rect x="120.66118" width="20.860846666666646" y="56" height="14" fill="#1b9e77" fill-opacity="1"></rect><rect x="175.86616666666666" width="226.03065666666666" y="72" height="14" fill="#d95f02" fill-opacity="1"></rect><rect x="175.20633333333333" width="274.49301" y="88" height="14" fill="#d95f02" fill-opacity="1"></rect><rect x="114.70418000000001" width="42.26546999999999" y="104" height="14" fill="#7570b3" fill-opacity="1"></rect><rect x="138.04008000000002" width="55.26887333333332" y="120" height="14" fill="#7570b3" fill-opacity="1"></rect></g></g><g aria-label="fy-axis tick label" transform="translate(-26,0)"><g text-anchor="end" font-size="15px" transform="translate(0,1)"><text y="0.384em" transform="translate(110,79)">Feathertail</text></g><g text-anchor="end" font-size="15px" transform="translate(0,132)"><text y="0.384em" transform="translate(110,79)">Yjs</text></g></g><g aria-label="tick"><g stroke="currentColor" transform="translate(0,1)"><line x1="156.64417333333333" x2="156.64417333333333" y1="24" y2="38"></line><line x1="145.20291" x2="145.20291" y1="40" y2="54"></line><line x1="137.21374666666665" x2="137.21374666666665" y1="56" y2="70"></line><line x1="230.95694666666668" x2="230.95694666666668" y1="72" y2="86"></line><line x1="256.17664" x2="256.17664" y1="88" y2="102"></line><line x1="128.6406" x2="128.6406" y1="104" y2="118"></line><line x1="150.68668000000002" x2="150.68668000000002" y1="120" y2="134"></line></g><g stroke="currentColor" transform="translate(0,132)"><line x1="169.16497333333334" x2="169.16497333333334" y1="24" y2="38"></line><line x1="160.02992" x2="160.02992" y1="40" y2="54"></line><line x1="141.52202666666665" x2="141.52202666666665" y1="56" y2="70"></line><line x1="401.8968233333333" x2="401.8968233333333" y1="72" y2="86"></line><line x1="449.69934333333333" x2="449.69934333333333" y1="88" y2="102"></line><line x1="156.96965" x2="156.96965" y1="104" y2="118"></line><line x1="193.30895333333333" x2="193.30895333333333" y1="120" y2="134"></line></g></g><g aria-label="text" transform="translate(6,7)"><g fill="black" text-anchor="start" font-size="9" transform="translate(0,1)"><text y="0.32em" transform="translate(156.64417333333333,24)">378 KiB</text><text y="0.32em" transform="translate(145.20291,40)">285 KiB</text><text y="0.32em" transform="translate(137.21374666666665,56)">221 KiB</text><text y="0.32em" transform="translate(230.95694666666668,72)">981 KiB</text><text y="0.32em" transform="translate(256.17664,88)">1.2 MiB</text><text y="0.32em" transform="translate(128.6406,104)">151 KiB</text><text y="0.32em" transform="translate(150.68668000000002,120)">330 KiB</text></g><g fill="black" text-anchor="start" font-size="9" transform="translate(0,132)"><text y="0.32em" transform="translate(169.16497333333334,24)">480 KiB</text><text y="0.32em" transform="translate(160.02992,40)">406 KiB</text><text y="0.32em" transform="translate(141.52202666666665,56)">256 KiB</text><text y="0.32em" transform="translate(401.8968233333333,72)">2.4 MiB</text><text y="0.32em" transform="translate(449.69934333333333,88)">2.8 MiB</text><text y="0.32em" transform="translate(156.96965,104)">381 KiB</text><text y="0.32em" transform="translate(193.30895333333333,120)">675 KiB</text></g></g><g aria-label="rule"><g stroke="currentColor" stroke-width="1.5" transform="translate(0,1)"><line x1="110" x2="110" y1="20" y2="138"></line></g><g stroke="currentColor" stroke-width="1.5" transform="translate(0,132)"><line x1="110" x2="110" y1="20" y2="138"></line></g></g></svg>