<svg class="plot-d6a7b5" fill="currentColor" font-family="system-ui, sans-serif" font-size="10" text-anchor="middle" width="500" height="300" viewBox="0 0 500 300" style="background: white; font-family: Helvetica Neue, Helvetica, Arial, sans-serif;" xmlns="http://www.w3.org/2000/svg" xmlns:xlink="http://www.w3.org/1999/xlink" version="1.1"><style>:where(.plot-d6a7b5) {
  --plot-background: white;
  display: block;
  height: auto;
  height: intrinsic;
  max-width: 100%;
}
:where(.plot-d6a7b5 text),
:where(.plot-d6a7b5 tspan) {
  white-space: pre;
}</style><g aria-label="x-grid" aria-hidden="true"><g stroke="currentColor" stroke-opacity="0.1" transform="translate(0,1)"><line x1="110" x2="110" y1="20" y2="138"></line><line x1="196.04651162790697" x2="196.04651162790697" y1="20" y2="138"></line><line x1="282.09302325581393" x2="282.09302325581393" y1="20" y2="138"></line><line x1="368.13953488372096" x2="368.13953488372096" y1="20" y2="138"></line><line x1="454.1860465116279" x2="454.1860465116279" y1="20" y2="138"></line></g><g stroke="currentColor" stroke-opacity="0.1" transform="translate(0,132)"><line x1="110" x2="110" y1="20" y2="138"></line><line x1="196.04651162790697" x2="196.04651162790697" y1="20" y2="138"></line><line x1="282.09302325581393" x2="282.09302325581393" y1="20" y2="138"></line><line x1="368.13953488372096" x2="368.13953488372096" y1="20" y2="138"></line><line x1="454.1860465116279" x2="454.1860465116279" y1="20" y2="138"></line></g></g><g aria-label="x-axis tick" aria-hidden="true"><g fill="none" stroke="currentColor" transform="translate(0,132)"><path transform="translate(110,138)" d="M0,0L0,6"></path><path transform="translate(196.04651162790697,138)" d="M0,0L0,6"></path><path transform="translate(282.09302325581393,138)" d="M0,0L0,6"></path><path transform="translate(368.13953488372096,138)" d="M0,0L0,6"></path><path transform="translate(454.1860465116279,138)" d="M0,0L0,6"></path></g></g><g aria-label="x-axis tick label" transform="translate(0,9)"><g font-variant="tabular-nums" transform="translate(0,132)"><text y="0.71em" transform="translate(110,138)">0 B</text><text y="0.71em" transform="translate(196.04651162790697,138)">1 MiB</text><text y="0.71em" transform="translate(282.09302325581393,138)">2 MiB</text><text y="0.71em" transform="translate(368.13953488372096,138)">3 MiB</text><text y="0.71em" transform="translate(454.1860465116279,138)">4 MiB</text></g></g><g aria-label="x-axis label" text-anchor="end" transform="translate(17,27)"><text transform="translate(480,270)">Encoded size (lower is better) →</text></g><g aria-label="x-grid" aria-hidden="true"><g stroke="currentColor" stroke-width="0.5" stroke-opacity="0.15" transform="translate(0,1)"><line x1="110" x2="110" y1="20" y2="138"></line><line x1="153.02325581395348" x2="153.02325581395348" y1="20" y2="138"></line><line x1="196.04651162790697" x2="196.04651162790697" y1="20" y2="138"></line><line x1="239.06976744186048" x2="239.06976744186048" y1="20" y2="138"></line><line x1="282.09302325581393" x2="282.09302325581393" y1="20" y2="138"></line><line x1="325.1162790697675" x2="325.1162790697675" y1="20" y2="138"></line><line x1="368.13953488372096" x2="368.13953488372096" y1="20" y2="138"></line><line x1="411.16279069767444" x2="411.16279069767444" y1="20" y2="138"></line><line x1="454.1860465116279" x2="454.1860465116279" y1="20" y2="138"></line></g><g stroke="currentColor" stroke-width="0.5" stroke-opacity="0.15" transform="translate(0,132)"><line x1="110" x2="110" y1="20" y2="138"></line><line x1="153.02325581395348" x2="153.02325581395348" y1="20" y2="138"></line><line x1="196.04651162790697" x2="196.04651162790697" y1="20" y2="138"></line><line x1="239.06976744186048" x2="239.06976744186048" y1="20" y2="138"></line><line x1="282.09302325581393" x2="282.09302325581393" y1="20" y2="138"></line><line x1="325.1162790697675" x2="325.1162790697675" y1="20" y2="138"></line><line x1="368.13953488372096" x2="368.13953488372096" y1="20" y2="138"></line><line x1="411.16279069767444" x2="411.16279069767444" y1="20" y2="138"></line><line x1="454.1860465116279" x2="454.1860465116279" y1="20" y2="138"></line></g></g><g aria-label="y-axis tick" aria-hidden="true" transform="translate(0,7)"><g fill="none" stroke="currentColor" transform="translate(0,1)"><path transform="translate(110,24)" d="M0,0L-6,0"></path><path transform="translate(110,40)" d="M0,0L-6,0"></path><path transform="translate(110,56)" d="M0,0L-6,0"></path><path transform="translate(110,72)" d="M0,0L-6,0"></path><path transform="translate(110,88)" d="M0,0L-6,0"></path><path transform="translate(110,104)" d="M0,0L-6,0"></path><path transform="translate(110,120)" d="M0,0L-6,0"></path></g><g fill="none" stroke="currentColor" transform="translate(0,132)"><path transform="translate(110,24)" d="M0,0L-6,0"></path><path transform="translate(110,40)" d="M0,0L-6,0"></path><path transform="translate(110,56)" d="M0,0L-6,0"></path><path transform="translate(110,72)" d="M0,0L-6,0"></path><path transform="translate(110,88)" d="M0,0L-6,0"></path><path transform="translate(110,104)" d="M0,0L-6,0"></path><path transform="translate(110,120)" d="M0,0L-6,0"></path></g></g><g aria-label="y-axis tick label" transform="translate(-9,7)"><g text-anchor="end" font-size="8" transform="translate(0,1)"><text y="0.32em" transform="translate(110,24)">S1</text><text y="0.32em" transform="translate(110,40)">S2</text><text y="0.32em" transform="translate(110,56)">S3</text><text y="0.32em" transform="translate(110,72)">C1</text><text y="0.32em" transform="translate(110,88)">C2</text><text y="0.32em" transform="translate(110,104)">A1</text><text y="0.32em" transform="translate(110,120)">A2</text></g><g text-anchor="end" font-size="8" transform="translate(0,132)"><text y="0.32em" transform="translate(110,24)">S1</text><text y="0.32em" transform="translate(110,40)">S2</text><text y="0.32em" transform="translate(110,56)">S3</text><text y="0.32em" transform="translate(110,72)">C1</text><text y="0.32em" transform="translate(110,88)">C2</text><text y="0.32em" transform="translate(110,104)">A1</text><text y="0.32em" transform="translate(110,120)">A2</text></g></g><g aria-label="bar"><g transform="translate(0,1)"><rect x="110" width="47.06270930232557" y="24" height="14" fill="#1b9e77" fill-opacity="0.6"></rect><rect x="110" width="54.85387674418604" y="40" height="14" fill="#1b9e77" fill-opacity="0.6"></rect><rect x="110" width="45.5661023255814" y="56" height="14" fill="#1b9e77" fill-opacity="0.6"></rect><rect x="110" width="51.02558139534881" y="72" height="14" fill="#d95f02" fill-opacity="0.6"></rect><rect x="110" width="48.910988372093016" y="88" height="14" fill="#d95f02" fill-opacity="0.6"></rect><rect x="110" width="42.056695348837195" y="104" height="14" fill="#7570b3" fill-opacity="0.6"></rect><rect x="110" width="39.47624651162792" y="120" height="14" fill="#7570b3" fill-opacity="0.6"></rect><rect x="157.06270930232557" width="5.475999999999999" y="24" height="14" fill="#1b9e77" fill-opacity="1"></rect><rect x="164.85387674418604" width="9.905846511627914" y="40" height="14" fill="#1b9e77" fill-opacity="1"></rect><rect x="155.5661023255814" width="8.86709302325582" y="56" height="14" fill="#1b9e77" fill-opacity="1"></rect><rect x="161.0255813953488" width="38.43542790697677" y="72" height="14" fill="#d95f02" fill-opacity="1"></rect><rect x="158.91098837209302" width="56.490911627906996" y="88" height="14" fill="#d95f02" fill-opacity="1"></rect><rect x="152.0566953488372" width="9.723083720930248" y="104" height="14" fill="#7570b3" fill-opacity="1"></rect><rect x="149.47624651162792" width="8.82320930232558" y="120" height="14" fill="#7570b3" fill-opacity="1"></rect></g><g transform="translate(0,132)"><rect x="110" width="47.06270930232557" y="24" height="14" fill="#1b9e77" fill-opacity="0.6"></rect><rect x="110" width="54.85387674418604" y="40" height="14" fill="#1b9e77" fill-opacity="0.6"></rect><rect x="110" width="45.5661023255814" y="56" height="14" fill="#1b9e77" fill-opacity="0.6"></rect><rect x="110" width="51.02558139534881" y="72" height="14" fill="#d95f02" fill-opacity="0.6"></rect><rect x="110" width="48.910988372093016" y="88" height="14" fill="#d95f02" fill-opacity="0.6"></rect><rect x="110" width="42.056695348837195" y="104" height="14" fill="#7570b3" fill-opacity="0.6"></rect><rect x="110" width="39.47624651162792" y="120" height="14" fill="#7570b3" fill-opacity="0.6"></rect><rect x="157.06270930232557" width="28.4767488372093" y="24" height="14" fill="#1b9e77" fill-opacity="1"></rect><rect x="164.85387674418604" width="46.07102325581394" y="40" height="14" fill="#1b9e77" fill-opacity="1"></rect><rect x="155.5661023255814" width="39.423155813953514" y="56" height="14" fill="#1b9e77" fill-opacity="1"></rect><rect x="161.0255813953488" width="220.58728837209304" y="72" height="14" fill="#d95f02" fill-opacity="1"></rect><rect x="158.91098837209302" width="281.39360465116283" y="88" height="14" fill="#d95f02" fill-opacity="1"></rect><rect x="152.0566953488372" width="71.8185488372093" y="104" height="14" fill="#7570b3" fill-opacity="1"></rect><rect x="149.47624651162792" width="58.64095581395347" y="120" height="14" fill="#7570b3" fill-opacity="1"></rect></g></g><g aria-label="fy-axis tick label" transform="translate(-26,0)"><g text-anchor="end" font-size="15px" transform="translate(0,1)"><text y="0.384em" transform="translate(110,79)">Feathertail</text></g><g text-anchor="end" font-size="15px" transform="translate(0,132)"><text y="0.384em" transform="translate(110,79)">Automerge</text></g></g><g aria-label="tick"><g stroke="currentColor" transform="translate(0,1)"><line x1="162.53870930232557" x2="162.53870930232557" y1="24" y2="38"></line><line x1="174.75972325581395" x2="174.75972325581395" y1="40" y2="54"></line><line x1="164.43319534883722" x2="164.43319534883722" y1="56" y2="70"></line><line x1="199.46100930232558" x2="199.46100930232558" y1="72" y2="86"></line><line x1="215.4019" x2="215.4019" y1="88" y2="102"></line><line x1="161.77977906976744" x2="161.77977906976744" y1="104" y2="118"></line><line x1="158.2994558139535" x2="158.2994558139535" y1="120" y2="134"></line></g><g stroke="currentColor" transform="translate(0,132)"><line x1="185.53945813953487" x2="185.53945813953487" y1="24" y2="38"></line><line x1="210.92489999999998" x2="210.92489999999998" y1="40" y2="54"></line><line x1="194.9892581395349" x2="194.9892581395349" y1="56" y2="70"></line><line x1="381.61286976744185" x2="381.61286976744185" y1="72" y2="86"></line><line x1="440.30459302325585" x2="440.30459302325585" y1="88" y2="102"></line><line x1="223.8752441860465" x2="223.8752441860465" y1="104" y2="118"></line><line x1="208.1172023255814" x2="208.1172023255814" y1="120" y2="134"></line></g></g><g aria-label="text" transform="translate(6,7)"><g fill="black" text-anchor="start" font-size="9" transform="translate(0,1)"><text y="0.32em" transform="translate(162.53870930232557,24)">611 KiB</text><text y="0.32em" transform="translate(174.75972325581395,40)">753 KiB</text><text y="0.32em" transform="translate(164.43319534883722,56)">633 KiB</text><text y="0.32em" transform="translate(199.46100930232558,72)">1 MiB</text><text y="0.32em" transform="translate(215.4019,88)">1.2 MiB</text><text y="0.32em" transform="translate(161.77977906976744,104)">602 KiB</text><text y="0.32em" transform="translate(158.2994558139535,120)">561 KiB</text></g><g fill="black" text-anchor="start" font-size="9" transform="translate(0,132)"><text y="0.32em" transform="translate(185.53945813953487,24)">878 KiB</text><text y="0.32em" transform="translate(210.92489999999998,40)">1.2 MiB</text><text y="0.32em" transform="translate(194.9892581395349,56)">988 KiB</text><text y="0.32em" transform="translate(381.61286976744185,72)">3.2 MiB</text><text y="0.32em" transform="translate(440.30459302325585,88)">3.8 MiB</text><text y="0.32em" transform="translate(223.8752441860465,104)">1.3 MiB</text><text y="0.32em" transform="translate(208.1172023255814,120)">1.1 MiB</text></g></g><g aria-label="rule"><g stroke="currentColor" stroke-width="1.5" transform="translate(0,1)"><line x1="110" x2="110" y1="20" y2="138"></line></g><g stroke="currentColor" stroke-width="1.5" transform="translate(0,132)"><line x1="110" x2="110" y1="20" y2="138"></line></g></g></svg>