<svg class="plot-d6a7b5" fill="currentColor" font-family="system-ui, sans-serif" font-size="10" text-anchor="middle" width="500" height="230" viewBox="0 0 500 230" style="background: white; font-family: Helvetica Neue, Helvetica, Arial, sans-serif;" xmlns="http://www.w3.org/2000/svg" xmlns:xlink="http://www.w3.org/1999/xlink" version="1.1"><style>:where(.plot-d6a7b5) {
  --plot-background: white;
  display: block;
  height: auto;
  height: intrinsic;
  max-width: 100%;
}
:where(.plot-d6a7b5 text),
:where(.plot-d6a7b5 tspan) {
  white-space: pre;
}</style><g aria-label="x-grid" aria-hidden="true"><g stroke="currentColor" stroke-opacity="0.1" transform="translate(0,1)"><line x1="120" x2="120" y1="20" y2="105"></line><line x1="180" x2="180" y1="20" y2="105"></line><line x1="240" x2="240" y1="20" y2="105"></line><line x1="300" x2="300" y1="20" y2="105"></line><line x1="360" x2="360" y1="20" y2="105"></line><line x1="420" x2="420" y1="20" y2="105"></line><line x1="480" x2="480" y1="20" y2="105"></line></g><g stroke="currentColor" stroke-opacity="0.1" transform="translate(0,95)"><line x1="120" x2="120" y1="20" y2="105"></line><line x1="180" x2="180" y1="20" y2="105"></line><line x1="240" x2="240" y1="20" y2="105"></line><line x1="300" x2="300" y1="20" y2="105"></line><line x1="360" x2="360" y1="20" y2="105"></line><line x1="420" x2="420" y1="20" y2="105"></line><line x1="480" x2="480" y1="20" y2="105"></line></g></g><g aria-label="x-axis tick" aria-hidden="true"><g fill="none" stroke="currentColor" transform="translate(0,95)"><path transform="translate(120,105)" d="M0,0L0,6"></path><path transform="translate(180,105)" d="M0,0L0,6"></path><path transform="translate(240,105)" d="M0,0L0,6"></path><path transform="translate(300,105)" d="M0,0L0,6"></path><path transform="translate(360,105)" d="M0,0L0,6"></path><path transform="translate(420,105)" d="M0,0L0,6"></path><path transform="translate(480,105)" d="M0,0L0,6"></path></g></g><g aria-label="x-axis tick label" transform="translate(0,9)"><g font-variant="tabular-nums" transform="translate(0,95)"><text y="0.71em" transform="translate(120,105)">0 B</text><text y="0.71em" transform="translate(180,105)">500 KiB</text><text y="0.71em" transform="translate(240,105)">1 MiB</text><text y="0.71em" transform="translate(300,105)">1.5 MiB</text><text y="0.71em" transform="translate(360,105)">2 MiB</text><text y="0.71em" transform="translate(420,105)">2.5 MiB</text><text y="0.71em" transform="translate(480,105)">3 MiB</text></g></g><g aria-label="x-axis label" text-anchor="end" transform="translate(17,27)"><text transform="translate(480,200)">Encoded size (lower is better) →</text></g><g aria-label="x-grid" aria-hidden="true"><g stroke="currentColor" stroke-width="0.5" stroke-opacity="0.15" transform="translate(0,1)"><line x1="120" x2="120" y1="20" y2="105"></line><line x1="180" x2="180" y1="20" y2="105"></line><line x1="240" x2="240" y1="20" y2="105"></line><line x1="300" x2="300" y1="20" y2="105"></line><line x1="360" x2="360" y1="20" y2="105"></line><line x1="420" x2="420" y1="20" y2="105"></line><line x1="480" x2="480" y1="20" y2="105"></line></g><g stroke="currentColor" stroke-width="0.5" stroke-opacity="0.15" transform="translate(0,95)"><line x1="120" x2="120" y1="20" y2="105"></line><line x1="180" x2="180" y1="20" y2="105"></line><line x1="240" x2="240" y1="20" y2="105"></line><line x1="300" x2="300" y1="20" y2="105"></line><line x1="360" x2="360" y1="20" y2="105"></line><line x1="420" x2="420" y1="20" y2="105"></line><line x1="480" x2="480" y1="20" y2="105"></line></g></g><g aria-label="y-axis tick" aria-hidden="true" transform="translate(0,5)"><g fill="none" stroke="currentColor" stroke-opacity="0.4" transform="translate(0,1)"><path transform="translate(120,25)" d="M0,0L-6,0"></path><path transform="translate(120,36)" d="M0,0L-6,0"></path><path transform="translate(120,47)" d="M0,0L-6,0"></path><path transform="translate(120,58)" d="M0,0L-6,0"></path><path transform="translate(120,69)" d="M0,0L-6,0"></path><path transform="translate(120,80)" d="M0,0L-6,0"></path><path transform="translate(120,91)" d="M0,0L-6,0"></path></g><g fill="none" stroke="currentColor" stroke-opacity="0.4" transform="translate(0,95)"><path transform="translate(120,25)" d="M0,0L-6,0"></path><path transform="translate(120,36)" d="M0,0L-6,0"></path><path transform="translate(120,47)" d="M0,0L-6,0"></path><path transform="translate(120,58)" d="M0,0L-6,0"></path><path transform="translate(120,69)" d="M0,0L-6,0"></path><path transform="translate(120,80)" d="M0,0L-6,0"></path><path transform="translate(120,91)" d="M0,0L-6,0"></path></g></g><g aria-label="y-axis tick label" transform="translate(-9,5)"><g fill-opacity="0.4" text-anchor="end" font-size="8" font-weight="700" transform="translate(0,1)"><text y="0.32em" transform="translate(120,25)">S1</text><text y="0.32em" transform="translate(120,36)">S2</text><text y="0.32em" transform="translate(120,47)">S3</text><text y="0.32em" transform="translate(120,58)">C1</text><text y="0.32em" transform="translate(120,69)">C2</text><text y="0.32em" transform="translate(120,80)">A1</text><text y="0.32em" transform="translate(120,91)">A2</text></g><g fill-opacity="0.4" text-anchor="end" font-size="8" font-weight="700" transform="translate(0,95)"><text y="0.32em" transform="translate(120,25)">S1</text><text y="0.32em" transform="translate(120,36)">S2</text><text y="0.32em" transform="translate(120,47)">S3</text><text y="0.32em" transform="translate(120,58)">C1</text><text y="0.32em" transform="translate(120,69)">C2</text><text y="0.32em" transform="translate(120,80)">A1</text><text y="0.32em" transform="translate(120,91)">A2</text></g></g><g aria-label="bar"><g transform="translate(0,1)"><rect x="120" width="37.74672000000001" y="25" height="10" fill="#1b9e77" fill-opacity="0.5"></rect><rect x="120" width="20.43683999999999" y="36" height="10" fill="#1b9e77" fill-opacity="0.5"></rect><rect x="120" width="14.678760000000011" y="47" height="10" fill="#1b9e77" fill-opacity="0.5"></rect><rect x="120" width="64.08599999999998" y="58" height="10" fill="#d95f02" fill-opacity="0.5"></rect><rect x="120" width="63.44400000000002" y="69" height="10" fill="#d95f02" fill-opacity="0.5"></rect><rect x="120" width="4.577040000000011" y="80" height="10" fill="#7570b3" fill-opacity="0.5"></rect><rect x="120" width="27.28224" y="91" height="10" fill="#7570b3" fill-opacity="0.5"></rect><rect x="157.74672" width="7.636799999999994" y="25" height="10" fill="#1b9e77" fill-opacity="1"></rect><rect x="140.43684" width="13.814640000000026" y="36" height="10" fill="#1b9e77" fill-opacity="1"></rect><rect x="134.67876" width="17.450519999999983" y="47" height="10" fill="#1b9e77" fill-opacity="1"></rect><rect x="184.08599999999998" width="53.60184000000001" y="58" height="10" fill="#d95f02" fill-opacity="1"></rect><rect x="183.44400000000002" width="78.78191999999996" y="69" height="10" fill="#d95f02" fill-opacity="1"></rect><rect x="124.57704000000001" width="13.559759999999983" y="80" height="10" fill="#7570b3" fill-opacity="1"></rect><rect x="147.28224" width="12.3048" y="91" height="10" fill="#7570b3" fill-opacity="1"></rect></g><g transform="translate(0,95)"><rect x="120" width="37.74672000000001" y="25" height="10" fill="#1b9e77" fill-opacity="0.5"></rect><rect x="120" width="20.43683999999999" y="36" height="10" fill="#1b9e77" fill-opacity="0.5"></rect><rect x="120" width="14.678760000000011" y="47" height="10" fill="#1b9e77" fill-opacity="0.5"></rect><rect x="120" width="64.08599999999998" y="58" height="10" fill="#d95f02" fill-opacity="0.5"></rect><rect x="120" width="63.44400000000002" y="69" height="10" fill="#d95f02" fill-opacity="0.5"></rect><rect x="120" width="4.577040000000011" y="80" height="10" fill="#7570b3" fill-opacity="0.5"></rect><rect x="120" width="27.28224" y="91" height="10" fill="#7570b3" fill-opacity="0.5"></rect><rect x="157.74672" width="19.818240000000003" y="25" height="10" fill="#1b9e77" fill-opacity="1"></rect><rect x="140.43684" width="28.239960000000025" y="36" height="10" fill="#1b9e77" fill-opacity="1"></rect><rect x="134.67876" width="23.450639999999993" y="47" height="10" fill="#1b9e77" fill-opacity="1"></rect><rect x="184.08599999999998" width="37.35336000000004" y="58" height="10" fill="#d95f02" fill-opacity="1"></rect><rect x="183.44400000000002" width="23.644079999999974" y="69" height="10" fill="#d95f02" fill-opacity="1"></rect><rect x="124.57704000000001" width="32.433119999999974" y="80" height="10" fill="#7570b3" fill-opacity="1"></rect><rect x="147.28224" width="33.46260000000001" y="91" height="10" fill="#7570b3" fill-opacity="1"></rect></g></g><g aria-label="fy-axis tick label" transform="translate(-61,0)"><g font-size="15px" transform="translate(0,1)"><text transform="translate(120,62.5)">Eg-walker</text></g><g font-size="15px" transform="translate(0,95)"><text transform="translate(120,62.5)">Yjs</text></g></g><g aria-label="fy-axis tick label" transform="translate(-61,6)"><g fill-opacity="0.7" font-size="12" transform="translate(0,1)"><text transform="translate(120,62.5)"><tspan x="0" y="0.781em">final doc text</tspan><tspan x="0" dy="1.1em">only</tspan></text></g></g><g aria-label="tick"><g stroke="currentColor" transform="translate(0,1)"><line x1="165.38352" x2="165.38352" y1="25" y2="35"></line><line x1="154.25148000000002" x2="154.25148000000002" y1="36" y2="46"></line><line x1="152.12928" x2="152.12928" y1="47" y2="57"></line><line x1="237.68784" x2="237.68784" y1="58" y2="68"></line><line x1="262.22592" x2="262.22592" y1="69" y2="79"></line><line x1="138.1368" x2="138.1368" y1="80" y2="90"></line><line x1="159.58704" x2="159.58704" y1="91" y2="101"></line></g><g stroke="currentColor" transform="translate(0,95)"><line x1="177.56496" x2="177.56496" y1="25" y2="35"></line><line x1="168.67680000000001" x2="168.67680000000001" y1="36" y2="46"></line><line x1="158.1294" x2="158.1294" y1="47" y2="57"></line><line x1="221.43936000000002" x2="221.43936000000002" y1="58" y2="68"></line><line x1="207.08808" x2="207.08808" y1="69" y2="79"></line><line x1="157.01015999999998" x2="157.01015999999998" y1="80" y2="90"></line><line x1="180.74484" x2="180.74484" y1="91" y2="101"></line></g></g><g aria-label="text" transform="translate(6,5)"><g fill="black" text-anchor="start" font-size="9" transform="translate(0,1)"><text y="0.32em" transform="translate(165.38352,25)">378 KiB</text><text y="0.32em" transform="translate(154.25148000000002,36)">285 KiB</text><text y="0.32em" transform="translate(152.12928,47)">268 KiB</text><text y="0.32em" transform="translate(237.68784,58)">981 KiB</text><text y="0.32em" transform="translate(262.22592,69)">1.2 MiB</text><text y="0.32em" transform="translate(138.1368,80)">151 KiB</text><text y="0.32em" transform="translate(159.58704,91)">330 KiB</text></g><g fill="black" text-anchor="start" font-size="9" transform="translate(0,95)"><text y="0.32em" transform="translate(177.56496,25)">480 KiB</text><text y="0.32em" transform="translate(168.67680000000001,36)">406 KiB</text><text y="0.32em" transform="translate(158.1294,47)">318 KiB</text><text y="0.32em" transform="translate(221.43936000000002,58)">845 KiB</text><text y="0.32em" transform="translate(207.08808,69)">726 KiB</text><text y="0.32em" transform="translate(157.01015999999998,80)">308 KiB</text><text y="0.32em" transform="translate(180.74484,91)">506 KiB</text></g></g><g aria-label="rule"><g stroke="currentColor" stroke-width="1.5" transform="translate(0,1)"><line x1="120" x2="120" y1="20" y2="105"></line></g><g stroke="currentColor" stroke-width="1.5" transform="translate(0,95)"><line x1="120" x2="120" y1="20" y2="105"></line></g></g></svg>