<svg class="plot-d6a7b5" fill="currentColor" font-family="system-ui, sans-serif" font-size="10" text-anchor="middle" width="500" height="230" viewBox="0 0 500 230" style="background: white; font-family: Helvetica Neue, Helvetica, Arial, sans-serif;" xmlns="http://www.w3.org/2000/svg" xmlns:xlink="http://www.w3.org/1999/xlink" version="1.1"><style>:where(.plot-d6a7b5) {
  --plot-background: white;
  display: block;
  height: auto;
  height: intrinsic;
  max-width: 100%;
}
:where(.plot-d6a7b5 text),
:where(.plot-d6a7b5 tspan) {
  white-space: pre;
}</style><g aria-label="x-grid" aria-hidden="true"><g stroke="currentColor" stroke-opacity="0.1" transform="translate(0,1)"><line x1="120" x2="120" y1="20" y2="105"></line><line x1="175.3846153846154" x2="175.3846153846154" y1="20" y2="105"></line><line x1="230.76923076923077" x2="230.76923076923077" y1="20" y2="105"></line><line x1="286.1538461538462" x2="286.1538461538462" y1="20" y2="105"></line><line x1="341.53846153846155" x2="341.53846153846155" y1="20" y2="105"></line><line x1="396.9230769230769" x2="396.9230769230769" y1="20" y2="105"></line><line x1="452.3076923076923" x2="452.3076923076923" y1="20" y2="105"></line></g><g stroke="currentColor" stroke-opacity="0.1" transform="translate(0,95)"><line x1="120" x2="120" y1="20" y2="105"></line><line x1="175.3846153846154" x2="175.3846153846154" y1="20" y2="105"></line><line x1="230.76923076923077" x2="230.76923076923077" y1="20" y2="105"></line><line x1="286.1538461538462" x2="286.1538461538462" y1="20" y2="105"></line><line x1="341.53846153846155" x2="341.53846153846155" y1="20" y2="105"></line><line x1="396.9230769230769" x2="396.9230769230769" y1="20" y2="105"></line><line x1="452.3076923076923" x2="452.3076923076923" y1="20" y2="105"></line></g></g><g aria-label="x-axis tick" aria-hidden="true"><g fill="none" stroke="currentColor" transform="translate(0,95)"><path transform="translate(120,105)" d="M0,0L0,6"></path><path transform="translate(175.3846153846154,105)" d="M0,0L0,6"></path><path transform="translate(230.76923076923077,105)" d="M0,0L0,6"></path><path transform="translate(286.1538461538462,105)" d="M0,0L0,6"></path><path transform="translate(341.53846153846155,105)" d="M0,0L0,6"></path><path transform="translate(396.9230769230769,105)" d="M0,0L0,6"></path><path transform="translate(452.3076923076923,105)" d="M0,0L0,6"></path></g></g><g aria-label="x-axis tick label" transform="translate(0,9)"><g font-variant="tabular-nums" transform="translate(0,95)"><text y="0.71em" transform="translate(120,105)">0 B</text><text y="0.71em" transform="translate(175.3846153846154,105)">200 KiB</text><text y="0.71em" transform="translate(230.76923076923077,105)">400 KiB</text><text y="0.71em" transform="translate(286.1538461538462,105)">600 KiB</text><text y="0.71em" transform="translate(341.53846153846155,105)">800 KiB</text><text y="0.71em" transform="translate(396.9230769230769,105)">1 MiB</text><text y="0.71em" transform="translate(452.3076923076923,105)">1.2 MiB</text></g></g><g aria-label="x-axis label" text-anchor="end" transform="translate(17,27)"><text transform="translate(480,200)">Encoded size (lower is better) →</text></g><g aria-label="x-grid" aria-hidden="true"><g stroke="currentColor" stroke-width="0.5" stroke-opacity="0.15" transform="translate(0,1)"><line x1="120" x2="120" y1="20" y2="105"></line><line x1="175.3846153846154" x2="175.3846153846154" y1="20" y2="105"></line><line x1="230.76923076923077" x2="230.76923076923077" y1="20" y2="105"></line><line x1="286.1538461538462" x2="286.1538461538462" y1="20" y2="105"></line><line x1="341.53846153846155" x2="341.53846153846155" y1="20" y2="105"></line><line x1="396.9230769230769" x2="396.9230769230769" y1="20" y2="105"></line><line x1="452.3076923076923" x2="452.3076923076923" y1="20" y2="105"></line></g><g stroke="currentColor" stroke-width="0.5" stroke-opacity="0.15" transform="translate(0,95)"><line x1="120" x2="120" y1="20" y2="105"></line><line x1="175.3846153846154" x2="175.3846153846154" y1="20" y2="105"></line><line x1="230.76923076923077" x2="230.76923076923077" y1="20" y2="105"></line><line x1="286.1538461538462" x2="286.1538461538462" y1="20" y2="105"></line><line x1="341.53846153846155" x2="341.53846153846155" y1="20" y2="105"></line><line x1="396.9230769230769" x2="396.9230769230769" y1="20" y2="105"></line><line x1="452.3076923076923" x2="452.3076923076923" y1="20" y2="105"></line></g></g><g aria-label="y-axis tick" aria-hidden="true" transform="translate(0,5)"><g fill="none" stroke="currentColor" stroke-opacity="0.4" transform="translate(0,1)"><path transform="translate(120,25)" d="M0,0L-6,0"></path><path transform="translate(120,36)" d="M0,0L-6,0"></path><path transform="translate(120,47)" d="M0,0L-6,0"></path><path transform="translate(120,58)" d="M0,0L-6,0"></path><path transform="translate(120,69)" d="M0,0L-6,0"></path><path transform="translate(120,80)" d="M0,0L-6,0"></path><path transform="translate(120,91)" d="M0,0L-6,0"></path></g><g fill="none" stroke="currentColor" stroke-opacity="0.4" transform="translate(0,95)"><path transform="translate(120,25)" d="M0,0L-6,0"></path><path transform="translate(120,36)" d="M0,0L-6,0"></path><path transform="translate(120,47)" d="M0,0L-6,0"></path><path transform="translate(120,58)" d="M0,0L-6,0"></path><path transform="translate(120,69)" d="M0,0L-6,0"></path><path transform="translate(120,80)" d="M0,0L-6,0"></path><path transform="translate(120,91)" d="M0,0L-6,0"></path></g></g><g aria-label="y-axis tick label" transform="translate(-9,5)"><g fill-opacity="0.4" text-anchor="end" font-size="8" font-weight="700" transform="translate(0,1)"><text y="0.32em" transform="translate(120,25)">S1</text><text y="0.32em" transform="translate(120,36)">S2</text><text y="0.32em" transform="translate(120,47)">S3</text><text y="0.32em" transform="translate(120,58)">C1</text><text y="0.32em" transform="translate(120,69)">C2</text><text y="0.32em" transform="translate(120,80)">A1</text><text y="0.32em" transform="translate(120,91)">A2</text></g><g fill-opacity="0.4" text-anchor="end" font-size="8" font-weight="700" transform="translate(0,95)"><text y="0.32em" transform="translate(120,25)">S1</text><text y="0.32em" transform="translate(120,36)">S2</text><text y="0.32em" transform="translate(120,47)">S3</text><text y="0.32em" transform="translate(120,58)">C1</text><text y="0.32em" transform="translate(120,69)">C2</text><text y="0.32em" transform="translate(120,80)">A1</text><text y="0.32em" transform="translate(120,91)">A2</text></g></g><g aria-label="bar"><g transform="translate(0,1)"><rect x="120" width="87.10781538461538" y="25" height="10" fill="#1b9e77" fill-opacity="0.5"></rect><rect x="120" width="47.161938461538455" y="36" height="10" fill="#1b9e77" fill-opacity="0.5"></rect><rect x="120" width="33.87406153846155" y="47" height="10" fill="#1b9e77" fill-opacity="0.5"></rect><rect x="120" width="147.89076923076925" y="58" height="10" fill="#d95f02" fill-opacity="0.5"></rect><rect x="120" width="146.40923076923076" y="69" height="10" fill="#d95f02" fill-opacity="0.5"></rect><rect x="120" width="10.562399999999997" y="80" height="10" fill="#7570b3" fill-opacity="0.5"></rect><rect x="120" width="62.959015384615384" y="91" height="10" fill="#7570b3" fill-opacity="0.5"></rect><rect x="207.10781538461538" width="17.623384615384623" y="25" height="10" fill="#1b9e77" fill-opacity="1"></rect><rect x="167.16193846153845" width="31.879938461538472" y="36" height="10" fill="#1b9e77" fill-opacity="1"></rect><rect x="153.87406153846155" width="40.27043076923076" y="47" height="10" fill="#1b9e77" fill-opacity="1"></rect><rect x="267.89076923076925" width="123.69655384615385" y="58" height="10" fill="#d95f02" fill-opacity="1"></rect><rect x="266.40923076923076" width="181.8044307692308" y="69" height="10" fill="#d95f02" fill-opacity="1"></rect><rect x="130.5624" width="31.291753846153853" y="80" height="10" fill="#7570b3" fill-opacity="1"></rect><rect x="182.95901538461538" width="28.395692307692286" y="91" height="10" fill="#7570b3" fill-opacity="1"></rect></g><g transform="translate(0,95)"><rect x="120" width="87.10781538461538" y="25" height="10" fill="#1b9e77" fill-opacity="0.5"></rect><rect x="120" width="47.161938461538455" y="36" height="10" fill="#1b9e77" fill-opacity="0.5"></rect><rect x="120" width="33.87406153846155" y="47" height="10" fill="#1b9e77" fill-opacity="0.5"></rect><rect x="120" width="147.89076923076925" y="58" height="10" fill="#d95f02" fill-opacity="0.5"></rect><rect x="120" width="146.40923076923076" y="69" height="10" fill="#d95f02" fill-opacity="0.5"></rect><rect x="120" width="10.562399999999997" y="80" height="10" fill="#7570b3" fill-opacity="0.5"></rect><rect x="120" width="62.959015384615384" y="91" height="10" fill="#7570b3" fill-opacity="0.5"></rect><rect x="207.10781538461538" width="45.734399999999994" y="25" height="10" fill="#1b9e77" fill-opacity="1"></rect><rect x="167.16193846153845" width="65.16913846153847" y="36" height="10" fill="#1b9e77" fill-opacity="1"></rect><rect x="153.87406153846155" width="54.116861538461535" y="47" height="10" fill="#1b9e77" fill-opacity="1"></rect><rect x="267.89076923076925" width="86.20006153846151" y="58" height="10" fill="#d95f02" fill-opacity="1"></rect><rect x="266.40923076923076" width="54.56326153846152" y="69" height="10" fill="#d95f02" fill-opacity="1"></rect><rect x="130.5624" width="74.84566153846154" y="80" height="10" fill="#7570b3" fill-opacity="1"></rect><rect x="182.95901538461538" width="77.22138461538464" y="91" height="10" fill="#7570b3" fill-opacity="1"></rect></g></g><g aria-label="fy-axis tick label" transform="translate(-61,0)"><g font-size="15px" transform="translate(0,1)"><text transform="translate(120,62.5)">Eg-walker</text></g><g font-size="15px" transform="translate(0,95)"><text transform="translate(120,62.5)">Yjs</text></g></g><g aria-label="fy-axis tick label" transform="translate(-61,6)"><g fill-opacity="0.7" font-size="12" transform="translate(0,1)"><text transform="translate(120,62.5)"><tspan x="0" y="0.781em">final doc text</tspan><tspan x="0" dy="1.1em">only</tspan></text></g></g><g aria-label="tick"><g stroke="currentColor" transform="translate(0,1)"><line x1="224.7312" x2="224.7312" y1="25" y2="35"></line><line x1="199.04187692307693" x2="199.04187692307693" y1="36" y2="46"></line><line x1="194.1444923076923" x2="194.1444923076923" y1="47" y2="57"></line><line x1="391.5873230769231" x2="391.5873230769231" y1="58" y2="68"></line><line x1="448.21366153846157" x2="448.21366153846157" y1="69" y2="79"></line><line x1="161.85415384615385" x2="161.85415384615385" y1="80" y2="90"></line><line x1="211.35470769230767" x2="211.35470769230767" y1="91" y2="101"></line></g><g stroke="currentColor" transform="translate(0,95)"><line x1="252.84221538461537" x2="252.84221538461537" y1="25" y2="35"></line><line x1="232.33107692307692" x2="232.33107692307692" y1="36" y2="46"></line><line x1="207.99092307692308" x2="207.99092307692308" y1="47" y2="57"></line><line x1="354.09083076923076" x2="354.09083076923076" y1="58" y2="68"></line><line x1="320.9724923076923" x2="320.9724923076923" y1="69" y2="79"></line><line x1="205.40806153846154" x2="205.40806153846154" y1="80" y2="90"></line><line x1="260.1804" x2="260.1804" y1="91" y2="101"></line></g></g><g aria-label="text" transform="translate(6,5)"><g fill="black" text-anchor="start" font-size="9" transform="translate(0,1)"><text y="0.32em" transform="translate(224.7312,25)">378 KiB</text><text y="0.32em" transform="translate(199.04187692307693,36)">285 KiB</text><text y="0.32em" transform="translate(194.1444923076923,47)">268 KiB</text><text y="0.32em" transform="translate(391.5873230769231,58)">981 KiB</text><text y="0.32em" transform="translate(448.21366153846157,69)">1.2 MiB</text><text y="0.32em" transform="translate(161.85415384615385,80)">151 KiB</text><text y="0.32em" transform="translate(211.35470769230767,91)">330 KiB</text></g><g fill="black" text-anchor="start" font-size="9" transform="translate(0,95)"><text y="0.32em" transform="translate(252.84221538461537,25)">480 KiB</text><text y="0.32em" transform="translate(232.33107692307692,36)">406 KiB</text><text y="0.32em" transform="translate(207.99092307692308,47)">318 KiB</text><text y="0.32em" transform="translate(354.09083076923076,58)">845 KiB</text><text y="0.32em" transform="translate(320.9724923076923,69)">726 KiB</text><text y="0.32em" transform="translate(205.40806153846154,80)">308 KiB</text><text y="0.32em" transform="translate(260.1804,91)">506 KiB</text></g></g><g aria-label="rule"><g stroke="currentColor" stroke-width="1.5" transform="translate(0,1)"><line x1="120" x2="120" y1="20" y2="105"></line></g><g stroke="currentColor" stroke-width="1.5" transform="translate(0,95)"><line x1="120" x2="120" y1="20" y2="105"></line></g></g></svg>