<svg class="plot-d6a7b5" fill="currentColor" font-family="system-ui, sans-serif" font-size="10" text-anchor="middle" width="500" height="530" viewBox="0 0 500 530" style="background: white; font-family: Helvetica Neue, Helvetica, Arial, sans-serif;" xmlns="http://www.w3.org/2000/svg" xmlns:xlink="http://www.w3.org/1999/xlink" version="1.1"><style>:where(.plot-d6a7b5) {
  --plot-background: white;
  display: block;
  height: auto;
  height: intrinsic;
  max-width: 100%;
}
:where(.plot-d6a7b5 text),
:where(.plot-d6a7b5 tspan) {
  white-space: pre;
}</style><g aria-label="x-grid" aria-hidden="true"><g stroke="currentColor" stroke-opacity="0.1" transform="translate(0,2)"><line x1="124.19899041853417" x2="124.19899041853417" y1="20" y2="82"></line><line x1="191.31821250791984" x2="191.31821250791984" y1="20" y2="82"></line><line x1="258.43743459730547" x2="258.43743459730547" y1="20" y2="82"></line><line x1="325.55665668669116" x2="325.55665668669116" y1="20" y2="82"></line><line x1="392.67587877607684" x2="392.67587877607684" y1="20" y2="82"></line><line x1="459.7951008654625" x2="459.7951008654625" y1="20" y2="82"></line></g><g stroke="currentColor" stroke-opacity="0.1" transform="translate(0,71)"><line x1="124.19899041853417" x2="124.19899041853417" y1="20" y2="82"></line><line x1="191.31821250791984" x2="191.31821250791984" y1="20" y2="82"></line><line x1="258.43743459730547" x2="258.43743459730547" y1="20" y2="82"></line><line x1="325.55665668669116" x2="325.55665668669116" y1="20" y2="82"></line><line x1="392.67587877607684" x2="392.67587877607684" y1="20" y2="82"></line><line x1="459.7951008654625" x2="459.7951008654625" y1="20" y2="82"></line></g><g stroke="currentColor" stroke-opacity="0.1" transform="translate(0,140)"><line x1="124.19899041853417" x2="124.19899041853417" y1="20" y2="82"></line><line x1="191.31821250791984" x2="191.31821250791984" y1="20" y2="82"></line><line x1="258.43743459730547" x2="258.43743459730547" y1="20" y2="82"></line><line x1="325.55665668669116" x2="325.55665668669116" y1="20" y2="82"></line><line x1="392.67587877607684" x2="392.67587877607684" y1="20" y2="82"></line><line x1="459.7951008654625" x2="459.7951008654625" y1="20" y2="82"></line></g><g stroke="currentColor" stroke-opacity="0.1" transform="translate(0,209)"><line x1="124.19899041853417" x2="124.19899041853417" y1="20" y2="82"></line><line x1="191.31821250791984" x2="191.31821250791984" y1="20" y2="82"></line><line x1="258.43743459730547" x2="258.43743459730547" y1="20" y2="82"></line><line x1="325.55665668669116" x2="325.55665668669116" y1="20" y2="82"></line><line x1="392.67587877607684" x2="392.67587877607684" y1="20" y2="82"></line><line x1="459.7951008654625" x2="459.7951008654625" y1="20" y2="82"></line></g><g stroke="currentColor" stroke-opacity="0.1" transform="translate(0,278)"><line x1="124.19899041853417" x2="124.19899041853417" y1="20" y2="82"></line><line x1="191.31821250791984" x2="191.31821250791984" y1="20" y2="82"></line><line x1="258.43743459730547" x2="258.43743459730547" y1="20" y2="82"></line><line x1="325.55665668669116" x2="325.55665668669116" y1="20" y2="82"></line><line x1="392.67587877607684" x2="392.67587877607684" y1="20" y2="82"></line><line x1="459.7951008654625" x2="459.7951008654625" y1="20" y2="82"></line></g><g stroke="currentColor" stroke-opacity="0.1" transform="translate(0,347)"><line x1="124.19899041853417" x2="124.19899041853417" y1="20" y2="82"></line><line x1="191.31821250791984" x2="191.31821250791984" y1="20" y2="82"></line><line x1="258.43743459730547" x2="258.43743459730547" y1="20" y2="82"></line><line x1="325.55665668669116" x2="325.55665668669116" y1="20" y2="82"></line><line x1="392.67587877607684" x2="392.67587877607684" y1="20" y2="82"></line><line x1="459.7951008654625" x2="459.7951008654625" y1="20" y2="82"></line></g><g stroke="currentColor" stroke-opacity="0.1" transform="translate(0,416)"><line x1="124.19899041853417" x2="124.19899041853417" y1="20" y2="82"></line><line x1="191.31821250791984" x2="191.31821250791984" y1="20" y2="82"></line><line x1="258.43743459730547" x2="258.43743459730547" y1="20" y2="82"></line><line x1="325.55665668669116" x2="325.55665668669116" y1="20" y2="82"></line><line x1="392.67587877607684" x2="392.67587877607684" y1="20" y2="82"></line><line x1="459.7951008654625" x2="459.7951008654625" y1="20" y2="82"></line></g></g><g aria-label="x-axis tick" aria-hidden="true"><g fill="none" stroke="currentColor" transform="translate(0,416)"><path transform="translate(124.19899041853417,82)" d="M0,0L0,6"></path><path transform="translate(191.31821250791984,82)" d="M0,0L0,6"></path><path transform="translate(258.43743459730547,82)" d="M0,0L0,6"></path><path transform="translate(325.55665668669116,82)" d="M0,0L0,6"></path><path transform="translate(392.67587877607684,82)" d="M0,0L0,6"></path><path transform="translate(459.7951008654625,82)" d="M0,0L0,6"></path></g></g><g aria-label="x-axis tick label" transform="translate(0,9)"><g font-variant="tabular-nums" transform="translate(0,416)"><text y="0.71em" transform="translate(124.19899041853417,82)">100 KiB</text><text y="0.71em" transform="translate(191.31821250791984,82)">1 MiB</text><text y="0.71em" transform="translate(258.43743459730547,82)">10 MiB</text><text y="0.71em" transform="translate(325.55665668669116,82)">100 MiB</text><text y="0.71em" transform="translate(392.67587877607684,82)">1 GiB</text><text y="0.71em" transform="translate(459.7951008654625,82)">10 GiB</text></g></g><g aria-label="x-axis label" text-anchor="end" transform="translate(17,27)"><text transform="translate(480,498)">RAM used, log scale. (Less is better) →</text></g><g aria-label="x-grid" aria-hidden="true"><g stroke="currentColor" stroke-width="0.5" stroke-opacity="0.15" transform="translate(0,2)"><line x1="113.80209136416991" x2="113.80209136416991" y1="20" y2="82"></line><line x1="117.69446573276115" x2="117.69446573276115" y1="20" y2="82"></line><line x1="121.12778324733924" x2="121.12778324733924" y1="20" y2="82"></line><line x1="124.19899041853417" x2="124.19899041853417" y1="20" y2="82"></line><line x1="144.40388955307174" x2="144.40388955307174" y1="20" y2="82"></line><line x1="156.22299787762952" x2="156.22299787762952" y1="20" y2="82"></line><line x1="164.6087886876093" x2="164.6087886876093" y1="20" y2="82"></line><line x1="171.11331337338225" x2="171.11331337338225" y1="20" y2="82"></line><line x1="176.42789701216708" x2="176.42789701216708" y1="20" y2="82"></line><line x1="180.92131345355563" x2="180.92131345355563" y1="20" y2="82"></line><line x1="184.81368782214685" x2="184.81368782214685" y1="20" y2="82"></line><line x1="188.24700533672492" x2="188.24700533672492" y1="20" y2="82"></line><line x1="191.31821250791984" x2="191.31821250791984" y1="20" y2="82"></line><line x1="211.5231116424574" x2="211.5231116424574" y1="20" y2="82"></line><line x1="223.3422199670152" x2="223.3422199670152" y1="20" y2="82"></line><line x1="231.72801077699495" x2="231.72801077699495" y1="20" y2="82"></line><line x1="238.23253546276794" x2="238.23253546276794" y1="20" y2="82"></line><line x1="243.54711910155277" x2="243.54711910155277" y1="20" y2="82"></line><line x1="248.04053554294126" x2="248.04053554294126" y1="20" y2="82"></line><line x1="251.93290991153248" x2="251.93290991153248" y1="20" y2="82"></line><line x1="255.36622742611053" x2="255.36622742611053" y1="20" y2="82"></line><line x1="258.43743459730547" x2="258.43743459730547" y1="20" y2="82"></line><line x1="278.642333731843" x2="278.642333731843" y1="20" y2="82"></line><line x1="290.4614420564008" x2="290.4614420564008" y1="20" y2="82"></line><line x1="298.84723286638064" x2="298.84723286638064" y1="20" y2="82"></line><line x1="305.3517575521536" x2="305.3517575521536" y1="20" y2="82"></line><line x1="310.6663411909384" x2="310.6663411909384" y1="20" y2="82"></line><line x1="315.1597576323269" x2="315.1597576323269" y1="20" y2="82"></line><line x1="319.05213200091816" x2="319.05213200091816" y1="20" y2="82"></line><line x1="322.4854495154962" x2="322.4854495154962" y1="20" y2="82"></line><line x1="325.55665668669116" x2="325.55665668669116" y1="20" y2="82"></line><line x1="345.7615558212287" x2="345.7615558212287" y1="20" y2="82"></line><line x1="357.5806641457865" x2="357.5806641457865" y1="20" y2="82"></line><line x1="365.9664549557662" x2="365.9664549557662" y1="20" y2="82"></line><line x1="372.4709796415393" x2="372.4709796415393" y1="20" y2="82"></line><line x1="377.78556328032414" x2="377.78556328032414" y1="20" y2="82"></line><line x1="382.2789797217126" x2="382.2789797217126" y1="20" y2="82"></line><line x1="386.1713540903038" x2="386.1713540903038" y1="20" y2="82"></line><line x1="389.6046716048819" x2="389.6046716048819" y1="20" y2="82"></line><line x1="392.67587877607684" x2="392.67587877607684" y1="20" y2="82"></line><line x1="412.8807779106144" x2="412.8807779106144" y1="20" y2="82"></line><line x1="424.6998862351722" x2="424.6998862351722" y1="20" y2="82"></line><line x1="433.08567704515195" x2="433.08567704515195" y1="20" y2="82"></line><line x1="439.5902017309249" x2="439.5902017309249" y1="20" y2="82"></line><line x1="444.9047853697097" x2="444.9047853697097" y1="20" y2="82"></line><line x1="449.3982018110983" x2="449.3982018110983" y1="20" y2="82"></line><line x1="453.29057617968954" x2="453.29057617968954" y1="20" y2="82"></line><line x1="456.7238936942676" x2="456.7238936942676" y1="20" y2="82"></line><line x1="459.7951008654625" x2="459.7951008654625" y1="20" y2="82"></line><line x1="480" x2="480" y1="20" y2="82"></line></g><g stroke="currentColor" stroke-width="0.5" stroke-opacity="0.15" transform="translate(0,71)"><line x1="113.80209136416991" x2="113.80209136416991" y1="20" y2="82"></line><line x1="117.69446573276115" x2="117.69446573276115" y1="20" y2="82"></line><line x1="121.12778324733924" x2="121.12778324733924" y1="20" y2="82"></line><line x1="124.19899041853417" x2="124.19899041853417" y1="20" y2="82"></line><line x1="144.40388955307174" x2="144.40388955307174" y1="20" y2="82"></line><line x1="156.22299787762952" x2="156.22299787762952" y1="20" y2="82"></line><line x1="164.6087886876093" x2="164.6087886876093" y1="20" y2="82"></line><line x1="171.11331337338225" x2="171.11331337338225" y1="20" y2="82"></line><line x1="176.42789701216708" x2="176.42789701216708" y1="20" y2="82"></line><line x1="180.92131345355563" x2="180.92131345355563" y1="20" y2="82"></line><line x1="184.81368782214685" x2="184.81368782214685" y1="20" y2="82"></line><line x1="188.24700533672492" x2="188.24700533672492" y1="20" y2="82"></line><line x1="191.31821250791984" x2="191.31821250791984" y1="20" y2="82"></line><line x1="211.5231116424574" x2="211.5231116424574" y1="20" y2="82"></line><line x1="223.3422199670152" x2="223.3422199670152" y1="20" y2="82"></line><line x1="231.72801077699495" x2="231.72801077699495" y1="20" y2="82"></line><line x1="238.23253546276794" x2="238.23253546276794" y1="20" y2="82"></line><line x1="243.54711910155277" x2="243.54711910155277" y1="20" y2="82"></line><line x1="248.04053554294126" x2="248.04053554294126" y1="20" y2="82"></line><line x1="251.93290991153248" x2="251.93290991153248" y1="20" y2="82"></line><line x1="255.36622742611053" x2="255.36622742611053" y1="20" y2="82"></line><line x1="258.43743459730547" x2="258.43743459730547" y1="20" y2="82"></line><line x1="278.642333731843" x2="278.642333731843" y1="20" y2="82"></line><line x1="290.4614420564008" x2="290.4614420564008" y1="20" y2="82"></line><line x1="298.84723286638064" x2="298.84723286638064" y1="20" y2="82"></line><line x1="305.3517575521536" x2="305.3517575521536" y1="20" y2="82"></line><line x1="310.6663411909384" x2="310.6663411909384" y1="20" y2="82"></line><line x1="315.1597576323269" x2="315.1597576323269" y1="20" y2="82"></line><line x1="319.05213200091816" x2="319.05213200091816" y1="20" y2="82"></line><line x1="322.4854495154962" x2="322.4854495154962" y1="20" y2="82"></line><line x1="325.55665668669116" x2="325.55665668669116" y1="20" y2="82"></line><line x1="345.7615558212287" x2="345.7615558212287" y1="20" y2="82"></line><line x1="357.5806641457865" x2="357.5806641457865" y1="20" y2="82"></line><line x1="365.9664549557662" x2="365.9664549557662" y1="20" y2="82"></line><line x1="372.4709796415393" x2="372.4709796415393" y1="20" y2="82"></line><line x1="377.78556328032414" x2="377.78556328032414" y1="20" y2="82"></line><line x1="382.2789797217126" x2="382.2789797217126" y1="20" y2="82"></line><line x1="386.1713540903038" x2="386.1713540903038" y1="20" y2="82"></line><line x1="389.6046716048819" x2="389.6046716048819" y1="20" y2="82"></line><line x1="392.67587877607684" x2="392.67587877607684" y1="20" y2="82"></line><line x1="412.8807779106144" x2="412.8807779106144" y1="20" y2="82"></line><line x1="424.6998862351722" x2="424.6998862351722" y1="20" y2="82"></line><line x1="433.08567704515195" x2="433.08567704515195" y1="20" y2="82"></line><line x1="439.5902017309249" x2="439.5902017309249" y1="20" y2="82"></line><line x1="444.9047853697097" x2="444.9047853697097" y1="20" y2="82"></line><line x1="449.3982018110983" x2="449.3982018110983" y1="20" y2="82"></line><line x1="453.29057617968954" x2="453.29057617968954" y1="20" y2="82"></line><line x1="456.7238936942676" x2="456.7238936942676" y1="20" y2="82"></line><line x1="459.7951008654625" x2="459.7951008654625" y1="20" y2="82"></line><line x1="480" x2="480" y1="20" y2="82"></line></g><g stroke="currentColor" stroke-width="0.5" stroke-opacity="0.15" transform="translate(0,140)"><line x1="113.80209136416991" x2="113.80209136416991" y1="20" y2="82"></line><line x1="117.69446573276115" x2="117.69446573276115" y1="20" y2="82"></line><line x1="121.12778324733924" x2="121.12778324733924" y1="20" y2="82"></line><line x1="124.19899041853417" x2="124.19899041853417" y1="20" y2="82"></line><line x1="144.40388955307174" x2="144.40388955307174" y1="20" y2="82"></line><line x1="156.22299787762952" x2="156.22299787762952" y1="20" y2="82"></line><line x1="164.6087886876093" x2="164.6087886876093" y1="20" y2="82"></line><line x1="171.11331337338225" x2="171.11331337338225" y1="20" y2="82"></line><line x1="176.42789701216708" x2="176.42789701216708" y1="20" y2="82"></line><line x1="180.92131345355563" x2="180.92131345355563" y1="20" y2="82"></line><line x1="184.81368782214685" x2="184.81368782214685" y1="20" y2="82"></line><line x1="188.24700533672492" x2="188.24700533672492" y1="20" y2="82"></line><line x1="191.31821250791984" x2="191.31821250791984" y1="20" y2="82"></line><line x1="211.5231116424574" x2="211.5231116424574" y1="20" y2="82"></line><line x1="223.3422199670152" x2="223.3422199670152" y1="20" y2="82"></line><line x1="231.72801077699495" x2="231.72801077699495" y1="20" y2="82"></line><line x1="238.23253546276794" x2="238.23253546276794" y1="20" y2="82"></line><line x1="243.54711910155277" x2="243.54711910155277" y1="20" y2="82"></line><line x1="248.04053554294126" x2="248.04053554294126" y1="20" y2="82"></line><line x1="251.93290991153248" x2="251.93290991153248" y1="20" y2="82"></line><line x1="255.36622742611053" x2="255.36622742611053" y1="20" y2="82"></line><line x1="258.43743459730547" x2="258.43743459730547" y1="20" y2="82"></line><line x1="278.642333731843" x2="278.642333731843" y1="20" y2="82"></line><line x1="290.4614420564008" x2="290.4614420564008" y1="20" y2="82"></line><line x1="298.84723286638064" x2="298.84723286638064" y1="20" y2="82"></line><line x1="305.3517575521536" x2="305.3517575521536" y1="20" y2="82"></line><line x1="310.6663411909384" x2="310.6663411909384" y1="20" y2="82"></line><line x1="315.1597576323269" x2="315.1597576323269" y1="20" y2="82"></line><line x1="319.05213200091816" x2="319.05213200091816" y1="20" y2="82"></line><line x1="322.4854495154962" x2="322.4854495154962" y1="20" y2="82"></line><line x1="325.55665668669116" x2="325.55665668669116" y1="20" y2="82"></line><line x1="345.7615558212287" x2="345.7615558212287" y1="20" y2="82"></line><line x1="357.5806641457865" x2="357.5806641457865" y1="20" y2="82"></line><line x1="365.9664549557662" x2="365.9664549557662" y1="20" y2="82"></line><line x1="372.4709796415393" x2="372.4709796415393" y1="20" y2="82"></line><line x1="377.78556328032414" x2="377.78556328032414" y1="20" y2="82"></line><line x1="382.2789797217126" x2="382.2789797217126" y1="20" y2="82"></line><line x1="386.1713540903038" x2="386.1713540903038" y1="20" y2="82"></line><line x1="389.6046716048819" x2="389.6046716048819" y1="20" y2="82"></line><line x1="392.67587877607684" x2="392.67587877607684" y1="20" y2="82"></line><line x1="412.8807779106144" x2="412.8807779106144" y1="20" y2="82"></line><line x1="424.6998862351722" x2="424.6998862351722" y1="20" y2="82"></line><line x1="433.08567704515195" x2="433.08567704515195" y1="20" y2="82"></line><line x1="439.5902017309249" x2="439.5902017309249" y1="20" y2="82"></line><line x1="444.9047853697097" x2="444.9047853697097" y1="20" y2="82"></line><line x1="449.3982018110983" x2="449.3982018110983" y1="20" y2="82"></line><line x1="453.29057617968954" x2="453.29057617968954" y1="20" y2="82"></line><line x1="456.7238936942676" x2="456.7238936942676" y1="20" y2="82"></line><line x1="459.7951008654625" x2="459.7951008654625" y1="20" y2="82"></line><line x1="480" x2="480" y1="20" y2="82"></line></g><g stroke="currentColor" stroke-width="0.5" stroke-opacity="0.15" transform="translate(0,209)"><line x1="113.80209136416991" x2="113.80209136416991" y1="20" y2="82"></line><line x1="117.69446573276115" x2="117.69446573276115" y1="20" y2="82"></line><line x1="121.12778324733924" x2="121.12778324733924" y1="20" y2="82"></line><line x1="124.19899041853417" x2="124.19899041853417" y1="20" y2="82"></line><line x1="144.40388955307174" x2="144.40388955307174" y1="20" y2="82"></line><line x1="156.22299787762952" x2="156.22299787762952" y1="20" y2="82"></line><line x1="164.6087886876093" x2="164.6087886876093" y1="20" y2="82"></line><line x1="171.11331337338225" x2="171.11331337338225" y1="20" y2="82"></line><line x1="176.42789701216708" x2="176.42789701216708" y1="20" y2="82"></line><line x1="180.92131345355563" x2="180.92131345355563" y1="20" y2="82"></line><line x1="184.81368782214685" x2="184.81368782214685" y1="20" y2="82"></line><line x1="188.24700533672492" x2="188.24700533672492" y1="20" y2="82"></line><line x1="191.31821250791984" x2="191.31821250791984" y1="20" y2="82"></line><line x1="211.5231116424574" x2="211.5231116424574" y1="20" y2="82"></line><line x1="223.3422199670152" x2="223.3422199670152" y1="20" y2="82"></line><line x1="231.72801077699495" x2="231.72801077699495" y1="20" y2="82"></line><line x1="238.23253546276794" x2="238.23253546276794" y1="20" y2="82"></line><line x1="243.54711910155277" x2="243.54711910155277" y1="20" y2="82"></line><line x1="248.04053554294126" x2="248.04053554294126" y1="20" y2="82"></line><line x1="251.93290991153248" x2="251.93290991153248" y1="20" y2="82"></line><line x1="255.36622742611053" x2="255.36622742611053" y1="20" y2="82"></line><line x1="258.43743459730547" x2="258.43743459730547" y1="20" y2="82"></line><line x1="278.642333731843" x2="278.642333731843" y1="20" y2="82"></line><line x1="290.4614420564008" x2="290.4614420564008" y1="20" y2="82"></line><line x1="298.84723286638064" x2="298.84723286638064" y1="20" y2="82"></line><line x1="305.3517575521536" x2="305.3517575521536" y1="20" y2="82"></line><line x1="310.6663411909384" x2="310.6663411909384" y1="20" y2="82"></line><line x1="315.1597576323269" x2="315.1597576323269" y1="20" y2="82"></line><line x1="319.05213200091816" x2="319.05213200091816" y1="20" y2="82"></line><line x1="322.4854495154962" x2="322.4854495154962" y1="20" y2="82"></line><line x1="325.55665668669116" x2="325.55665668669116" y1="20" y2="82"></line><line x1="345.7615558212287" x2="345.7615558212287" y1="20" y2="82"></line><line x1="357.5806641457865" x2="357.5806641457865" y1="20" y2="82"></line><line x1="365.9664549557662" x2="365.9664549557662" y1="20" y2="82"></line><line x1="372.4709796415393" x2="372.4709796415393" y1="20" y2="82"></line><line x1="377.78556328032414" x2="377.78556328032414" y1="20" y2="82"></line><line x1="382.2789797217126" x2="382.2789797217126" y1="20" y2="82"></line><line x1="386.1713540903038" x2="386.1713540903038" y1="20" y2="82"></line><line x1="389.6046716048819" x2="389.6046716048819" y1="20" y2="82"></line><line x1="392.67587877607684" x2="392.67587877607684" y1="20" y2="82"></line><line x1="412.8807779106144" x2="412.8807779106144" y1="20" y2="82"></line><line x1="424.6998862351722" x2="424.6998862351722" y1="20" y2="82"></line><line x1="433.08567704515195" x2="433.08567704515195" y1="20" y2="82"></line><line x1="439.5902017309249" x2="439.5902017309249" y1="20" y2="82"></line><line x1="444.9047853697097" x2="444.9047853697097" y1="20" y2="82"></line><line x1="449.3982018110983" x2="449.3982018110983" y1="20" y2="82"></line><line x1="453.29057617968954" x2="453.29057617968954" y1="20" y2="82"></line><line x1="456.7238936942676" x2="456.7238936942676" y1="20" y2="82"></line><line x1="459.7951008654625" x2="459.7951008654625" y1="20" y2="82"></line><line x1="480" x2="480" y1="20" y2="82"></line></g><g stroke="currentColor" stroke-width="0.5" stroke-opacity="0.15" transform="translate(0,278)"><line x1="113.80209136416991" x2="113.80209136416991" y1="20" y2="82"></line><line x1="117.69446573276115" x2="117.69446573276115" y1="20" y2="82"></line><line x1="121.12778324733924" x2="121.12778324733924" y1="20" y2="82"></line><line x1="124.19899041853417" x2="124.19899041853417" y1="20" y2="82"></line><line x1="144.40388955307174" x2="144.40388955307174" y1="20" y2="82"></line><line x1="156.22299787762952" x2="156.22299787762952" y1="20" y2="82"></line><line x1="164.6087886876093" x2="164.6087886876093" y1="20" y2="82"></line><line x1="171.11331337338225" x2="171.11331337338225" y1="20" y2="82"></line><line x1="176.42789701216708" x2="176.42789701216708" y1="20" y2="82"></line><line x1="180.92131345355563" x2="180.92131345355563" y1="20" y2="82"></line><line x1="184.81368782214685" x2="184.81368782214685" y1="20" y2="82"></line><line x1="188.24700533672492" x2="188.24700533672492" y1="20" y2="82"></line><line x1="191.31821250791984" x2="191.31821250791984" y1="20" y2="82"></line><line x1="211.5231116424574" x2="211.5231116424574" y1="20" y2="82"></line><line x1="223.3422199670152" x2="223.3422199670152" y1="20" y2="82"></line><line x1="231.72801077699495" x2="231.72801077699495" y1="20" y2="82"></line><line x1="238.23253546276794" x2="238.23253546276794" y1="20" y2="82"></line><line x1="243.54711910155277" x2="243.54711910155277" y1="20" y2="82"></line><line x1="248.04053554294126" x2="248.04053554294126" y1="20" y2="82"></line><line x1="251.93290991153248" x2="251.93290991153248" y1="20" y2="82"></line><line x1="255.36622742611053" x2="255.36622742611053" y1="20" y2="82"></line><line x1="258.43743459730547" x2="258.43743459730547" y1="20" y2="82"></line><line x1="278.642333731843" x2="278.642333731843" y1="20" y2="82"></line><line x1="290.4614420564008" x2="290.4614420564008" y1="20" y2="82"></line><line x1="298.84723286638064" x2="298.84723286638064" y1="20" y2="82"></line><line x1="305.3517575521536" x2="305.3517575521536" y1="20" y2="82"></line><line x1="310.6663411909384" x2="310.6663411909384" y1="20" y2="82"></line><line x1="315.1597576323269" x2="315.1597576323269" y1="20" y2="82"></line><line x1="319.05213200091816" x2="319.05213200091816" y1="20" y2="82"></line><line x1="322.4854495154962" x2="322.4854495154962" y1="20" y2="82"></line><line x1="325.55665668669116" x2="325.55665668669116" y1="20" y2="82"></line><line x1="345.7615558212287" x2="345.7615558212287" y1="20" y2="82"></line><line x1="357.5806641457865" x2="357.5806641457865" y1="20" y2="82"></line><line x1="365.9664549557662" x2="365.9664549557662" y1="20" y2="82"></line><line x1="372.4709796415393" x2="372.4709796415393" y1="20" y2="82"></line><line x1="377.78556328032414" x2="377.78556328032414" y1="20" y2="82"></line><line x1="382.2789797217126" x2="382.2789797217126" y1="20" y2="82"></line><line x1="386.1713540903038" x2="386.1713540903038" y1="20" y2="82"></line><line x1="389.6046716048819" x2="389.6046716048819" y1="20" y2="82"></line><line x1="392.67587877607684" x2="392.67587877607684" y1="20" y2="82"></line><line x1="412.8807779106144" x2="412.8807779106144" y1="20" y2="82"></line><line x1="424.6998862351722" x2="424.6998862351722" y1="20" y2="82"></line><line x1="433.08567704515195" x2="433.08567704515195" y1="20" y2="82"></line><line x1="439.5902017309249" x2="439.5902017309249" y1="20" y2="82"></line><line x1="444.9047853697097" x2="444.9047853697097" y1="20" y2="82"></line><line x1="449.3982018110983" x2="449.3982018110983" y1="20" y2="82"></line><line x1="453.29057617968954" x2="453.29057617968954" y1="20" y2="82"></line><line x1="456.7238936942676" x2="456.7238936942676" y1="20" y2="82"></line><line x1="459.7951008654625" x2="459.7951008654625" y1="20" y2="82"></line><line x1="480" x2="480" y1="20" y2="82"></line></g><g stroke="currentColor" stroke-width="0.5" stroke-opacity="0.15" transform="translate(0,347)"><line x1="113.80209136416991" x2="113.80209136416991" y1="20" y2="82"></line><line x1="117.69446573276115" x2="117.69446573276115" y1="20" y2="82"></line><line x1="121.12778324733924" x2="121.12778324733924" y1="20" y2="82"></line><line x1="124.19899041853417" x2="124.19899041853417" y1="20" y2="82"></line><line x1="144.40388955307174" x2="144.40388955307174" y1="20" y2="82"></line><line x1="156.22299787762952" x2="156.22299787762952" y1="20" y2="82"></line><line x1="164.6087886876093" x2="164.6087886876093" y1="20" y2="82"></line><line x1="171.11331337338225" x2="171.11331337338225" y1="20" y2="82"></line><line x1="176.42789701216708" x2="176.42789701216708" y1="20" y2="82"></line><line x1="180.92131345355563" x2="180.92131345355563" y1="20" y2="82"></line><line x1="184.81368782214685" x2="184.81368782214685" y1="20" y2="82"></line><line x1="188.24700533672492" x2="188.24700533672492" y1="20" y2="82"></line><line x1="191.31821250791984" x2="191.31821250791984" y1="20" y2="82"></line><line x1="211.5231116424574" x2="211.5231116424574" y1="20" y2="82"></line><line x1="223.3422199670152" x2="223.3422199670152" y1="20" y2="82"></line><line x1="231.72801077699495" x2="231.72801077699495" y1="20" y2="82"></line><line x1="238.23253546276794" x2="238.23253546276794" y1="20" y2="82"></line><line x1="243.54711910155277" x2="243.54711910155277" y1="20" y2="82"></line><line x1="248.04053554294126" x2="248.04053554294126" y1="20" y2="82"></line><line x1="251.93290991153248" x2="251.93290991153248" y1="20" y2="82"></line><line x1="255.36622742611053" x2="255.36622742611053" y1="20" y2="82"></line><line x1="258.43743459730547" x2="258.43743459730547" y1="20" y2="82"></line><line x1="278.642333731843" x2="278.642333731843" y1="20" y2="82"></line><line x1="290.4614420564008" x2="290.4614420564008" y1="20" y2="82"></line><line x1="298.84723286638064" x2="298.84723286638064" y1="20" y2="82"></line><line x1="305.3517575521536" x2="305.3517575521536" y1="20" y2="82"></line><line x1="310.6663411909384" x2="310.6663411909384" y1="20" y2="82"></line><line x1="315.1597576323269" x2="315.1597576323269" y1="20" y2="82"></line><line x1="319.05213200091816" x2="319.05213200091816" y1="20" y2="82"></line><line x1="322.4854495154962" x2="322.4854495154962" y1="20" y2="82"></line><line x1="325.55665668669116" x2="325.55665668669116" y1="20" y2="82"></line><line x1="345.7615558212287" x2="345.7615558212287" y1="20" y2="82"></line><line x1="357.5806641457865" x2="357.5806641457865" y1="20" y2="82"></line><line x1="365.9664549557662" x2="365.9664549557662" y1="20" y2="82"></line><line x1="372.4709796415393" x2="372.4709796415393" y1="20" y2="82"></line><line x1="377.78556328032414" x2="377.78556328032414" y1="20" y2="82"></line><line x1="382.2789797217126" x2="382.2789797217126" y1="20" y2="82"></line><line x1="386.1713540903038" x2="386.1713540903038" y1="20" y2="82"></line><line x1="389.6046716048819" x2="389.6046716048819" y1="20" y2="82"></line><line x1="392.67587877607684" x2="392.67587877607684" y1="20" y2="82"></line><line x1="412.8807779106144" x2="412.8807779106144" y1="20" y2="82"></line><line x1="424.6998862351722" x2="424.6998862351722" y1="20" y2="82"></line><line x1="433.08567704515195" x2="433.08567704515195" y1="20" y2="82"></line><line x1="439.5902017309249" x2="439.5902017309249" y1="20" y2="82"></line><line x1="444.9047853697097" x2="444.9047853697097" y1="20" y2="82"></line><line x1="449.3982018110983" x2="449.3982018110983" y1="20" y2="82"></line><line x1="453.29057617968954" x2="453.29057617968954" y1="20" y2="82"></line><line x1="456.7238936942676" x2="456.7238936942676" y1="20" y2="82"></line><line x1="459.7951008654625" x2="459.7951008654625" y1="20" y2="82"></line><line x1="480" x2="480" y1="20" y2="82"></line></g><g stroke="currentColor" stroke-width="0.5" stroke-opacity="0.15" transform="translate(0,416)"><line x1="113.80209136416991" x2="113.80209136416991" y1="20" y2="82"></line><line x1="117.69446573276115" x2="117.69446573276115" y1="20" y2="82"></line><line x1="121.12778324733924" x2="121.12778324733924" y1="20" y2="82"></line><line x1="124.19899041853417" x2="124.19899041853417" y1="20" y2="82"></line><line x1="144.40388955307174" x2="144.40388955307174" y1="20" y2="82"></line><line x1="156.22299787762952" x2="156.22299787762952" y1="20" y2="82"></line><line x1="164.6087886876093" x2="164.6087886876093" y1="20" y2="82"></line><line x1="171.11331337338225" x2="171.11331337338225" y1="20" y2="82"></line><line x1="176.42789701216708" x2="176.42789701216708" y1="20" y2="82"></line><line x1="180.92131345355563" x2="180.92131345355563" y1="20" y2="82"></line><line x1="184.81368782214685" x2="184.81368782214685" y1="20" y2="82"></line><line x1="188.24700533672492" x2="188.24700533672492" y1="20" y2="82"></line><line x1="191.31821250791984" x2="191.31821250791984" y1="20" y2="82"></line><line x1="211.5231116424574" x2="211.5231116424574" y1="20" y2="82"></line><line x1="223.3422199670152" x2="223.3422199670152" y1="20" y2="82"></line><line x1="231.72801077699495" x2="231.72801077699495" y1="20" y2="82"></line><line x1="238.23253546276794" x2="238.23253546276794" y1="20" y2="82"></line><line x1="243.54711910155277" x2="243.54711910155277" y1="20" y2="82"></line><line x1="248.04053554294126" x2="248.04053554294126" y1="20" y2="82"></line><line x1="251.93290991153248" x2="251.93290991153248" y1="20" y2="82"></line><line x1="255.36622742611053" x2="255.36622742611053" y1="20" y2="82"></line><line x1="258.43743459730547" x2="258.43743459730547" y1="20" y2="82"></line><line x1="278.642333731843" x2="278.642333731843" y1="20" y2="82"></line><line x1="290.4614420564008" x2="290.4614420564008" y1="20" y2="82"></line><line x1="298.84723286638064" x2="298.84723286638064" y1="20" y2="82"></line><line x1="305.3517575521536" x2="305.3517575521536" y1="20" y2="82"></line><line x1="310.6663411909384" x2="310.6663411909384" y1="20" y2="82"></line><line x1="315.1597576323269" x2="315.1597576323269" y1="20" y2="82"></line><line x1="319.05213200091816" x2="319.05213200091816" y1="20" y2="82"></line><line x1="322.4854495154962" x2="322.4854495154962" y1="20" y2="82"></line><line x1="325.55665668669116" x2="325.55665668669116" y1="20" y2="82"></line><line x1="345.7615558212287" x2="345.7615558212287" y1="20" y2="82"></line><line x1="357.5806641457865" x2="357.5806641457865" y1="20" y2="82"></line><line x1="365.9664549557662" x2="365.9664549557662" y1="20" y2="82"></line><line x1="372.4709796415393" x2="372.4709796415393" y1="20" y2="82"></line><line x1="377.78556328032414" x2="377.78556328032414" y1="20" y2="82"></line><line x1="382.2789797217126" x2="382.2789797217126" y1="20" y2="82"></line><line x1="386.1713540903038" x2="386.1713540903038" y1="20" y2="82"></line><line x1="389.6046716048819" x2="389.6046716048819" y1="20" y2="82"></line><line x1="392.67587877607684" x2="392.67587877607684" y1="20" y2="82"></line><line x1="412.8807779106144" x2="412.8807779106144" y1="20" y2="82"></line><line x1="424.6998862351722" x2="424.6998862351722" y1="20" y2="82"></line><line x1="433.08567704515195" x2="433.08567704515195" y1="20" y2="82"></line><line x1="439.5902017309249" x2="439.5902017309249" y1="20" y2="82"></line><line x1="444.9047853697097" x2="444.9047853697097" y1="20" y2="82"></line><line x1="449.3982018110983" x2="449.3982018110983" y1="20" y2="82"></line><line x1="453.29057617968954" x2="453.29057617968954" y1="20" y2="82"></line><line x1="456.7238936942676" x2="456.7238936942676" y1="20" y2="82"></line><line x1="459.7951008654625" x2="459.7951008654625" y1="20" y2="82"></line><line x1="480" x2="480" y1="20" y2="82"></line></g></g><g aria-label="y-axis tick" aria-hidden="true" transform="translate(0,3.5)"><g fill="none" stroke="currentColor" stroke-opacity="0.4" transform="translate(0,2)"><path transform="translate(110,23)" d="M0,0L-6,0"></path><path transform="translate(110,31)" d="M0,0L-6,0"></path><path transform="translate(110,39)" d="M0,0L-6,0"></path><path transform="translate(110,47)" d="M0,0L-6,0"></path><path transform="translate(110,55)" d="M0,0L-6,0"></path><path transform="translate(110,63)" d="M0,0L-6,0"></path><path transform="translate(110,71)" d="M0,0L-6,0"></path></g><g fill="none" stroke="currentColor" stroke-opacity="0.4" transform="translate(0,71)"><path transform="translate(110,23)" d="M0,0L-6,0"></path><path transform="translate(110,31)" d="M0,0L-6,0"></path><path transform="translate(110,39)" d="M0,0L-6,0"></path><path transform="translate(110,47)" d="M0,0L-6,0"></path><path transform="translate(110,55)" d="M0,0L-6,0"></path><path transform="translate(110,63)" d="M0,0L-6,0"></path><path transform="translate(110,71)" d="M0,0L-6,0"></path></g><g fill="none" stroke="currentColor" stroke-opacity="0.4" transform="translate(0,140)"><path transform="translate(110,23)" d="M0,0L-6,0"></path><path transform="translate(110,31)" d="M0,0L-6,0"></path><path transform="translate(110,39)" d="M0,0L-6,0"></path><path transform="translate(110,47)" d="M0,0L-6,0"></path><path transform="translate(110,55)" d="M0,0L-6,0"></path><path transform="translate(110,63)" d="M0,0L-6,0"></path><path transform="translate(110,71)" d="M0,0L-6,0"></path></g><g fill="none" stroke="currentColor" stroke-opacity="0.4" transform="translate(0,209)"><path transform="translate(110,23)" d="M0,0L-6,0"></path><path transform="translate(110,31)" d="M0,0L-6,0"></path><path transform="translate(110,39)" d="M0,0L-6,0"></path><path transform="translate(110,47)" d="M0,0L-6,0"></path><path transform="translate(110,55)" d="M0,0L-6,0"></path><path transform="translate(110,63)" d="M0,0L-6,0"></path><path transform="translate(110,71)" d="M0,0L-6,0"></path></g><g fill="none" stroke="currentColor" stroke-opacity="0.4" transform="translate(0,278)"><path transform="translate(110,23)" d="M0,0L-6,0"></path><path transform="translate(110,31)" d="M0,0L-6,0"></path><path transform="translate(110,39)" d="M0,0L-6,0"></path><path transform="translate(110,47)" d="M0,0L-6,0"></path><path transform="translate(110,55)" d="M0,0L-6,0"></path><path transform="translate(110,63)" d="M0,0L-6,0"></path><path transform="translate(110,71)" d="M0,0L-6,0"></path></g><g fill="none" stroke="currentColor" stroke-opacity="0.4" transform="translate(0,347)"><path transform="translate(110,23)" d="M0,0L-6,0"></path><path transform="translate(110,31)" d="M0,0L-6,0"></path><path transform="translate(110,39)" d="M0,0L-6,0"></path><path transform="translate(110,47)" d="M0,0L-6,0"></path><path transform="translate(110,55)" d="M0,0L-6,0"></path><path transform="translate(110,63)" d="M0,0L-6,0"></path><path transform="translate(110,71)" d="M0,0L-6,0"></path></g><g fill="none" stroke="currentColor" stroke-opacity="0.4" transform="translate(0,416)"><path transform="translate(110,23)" d="M0,0L-6,0"></path><path transform="translate(110,31)" d="M0,0L-6,0"></path><path transform="translate(110,39)" d="M0,0L-6,0"></path><path transform="translate(110,47)" d="M0,0L-6,0"></path><path transform="translate(110,55)" d="M0,0L-6,0"></path><path transform="translate(110,63)" d="M0,0L-6,0"></path><path transform="translate(110,71)" d="M0,0L-6,0"></path></g></g><g aria-label="y-axis tick label" transform="translate(-9,3.5)"><g fill-opacity="0.4" text-anchor="end" font-size="8" font-weight="700" transform="translate(0,2)"><text y="0.32em" transform="translate(110,23)">S1</text><text y="0.32em" transform="translate(110,31)">S2</text><text y="0.32em" transform="translate(110,39)">S3</text><text y="0.32em" transform="translate(110,47)">C1</text><text y="0.32em" transform="translate(110,55)">C2</text><text y="0.32em" transform="translate(110,63)">A1</text><text y="0.32em" transform="translate(110,71)">A2</text></g><g fill-opacity="0.4" text-anchor="end" font-size="8" font-weight="700" transform="translate(0,71)"><text y="0.32em" transform="translate(110,23)">S1</text><text y="0.32em" transform="translate(110,31)">S2</text><text y="0.32em" transform="translate(110,39)">S3</text><text y="0.32em" transform="translate(110,47)">C1</text><text y="0.32em" transform="translate(110,55)">C2</text><text y="0.32em" transform="translate(110,63)">A1</text><text y="0.32em" transform="translate(110,71)">A2</text></g><g fill-opacity="0.4" text-anchor="end" font-size="8" font-weight="700" transform="translate(0,140)"><text y="0.32em" transform="translate(110,23)">S1</text><text y="0.32em" transform="translate(110,31)">S2</text><text y="0.32em" transform="translate(110,39)">S3</text><text y="0.32em" transform="translate(110,47)">C1</text><text y="0.32em" transform="translate(110,55)">C2</text><text y="0.32em" transform="translate(110,63)">A1</text><text y="0.32em" transform="translate(110,71)">A2</text></g><g fill-opacity="0.4" text-anchor="end" font-size="8" font-weight="700" transform="translate(0,209)"><text y="0.32em" transform="translate(110,23)">S1</text><text y="0.32em" transform="translate(110,31)">S2</text><text y="0.32em" transform="translate(110,39)">S3</text><text y="0.32em" transform="translate(110,47)">C1</text><text y="0.32em" transform="translate(110,55)">C2</text><text y="0.32em" transform="translate(110,63)">A1</text><text y="0.32em" transform="translate(110,71)">A2</text></g><g fill-opacity="0.4" text-anchor="end" font-size="8" font-weight="700" transform="translate(0,278)"><text y="0.32em" transform="translate(110,23)">S1</text><text y="0.32em" transform="translate(110,31)">S2</text><text y="0.32em" transform="translate(110,39)">S3</text><text y="0.32em" transform="translate(110,47)">C1</text><text y="0.32em" transform="translate(110,55)">C2</text><text y="0.32em" transform="translate(110,63)">A1</text><text y="0.32em" transform="translate(110,71)">A2</text></g><g fill-opacity="0.4" text-anchor="end" font-size="8" font-weight="700" transform="translate(0,347)"><text y="0.32em" transform="translate(110,23)">S1</text><text y="0.32em" transform="translate(110,31)">S2</text><text y="0.32em" transform="translate(110,39)">S3</text><text y="0.32em" transform="translate(110,47)">C1</text><text y="0.32em" transform="translate(110,55)">C2</text><text y="0.32em" transform="translate(110,63)">A1</text><text y="0.32em" transform="translate(110,71)">A2</text></g><g fill-opacity="0.4" text-anchor="end" font-size="8" font-weight="700" transform="translate(0,416)"><text y="0.32em" transform="translate(110,23)">S1</text><text y="0.32em" transform="translate(110,31)">S2</text><text y="0.32em" transform="translate(110,39)">S3</text><text y="0.32em" transform="translate(110,47)">C1</text><text y="0.32em" transform="translate(110,55)">C2</text><text y="0.32em" transform="translate(110,63)">A1</text><text y="0.32em" transform="translate(110,71)">A2</text></g></g><g aria-label="bar"><g transform="translate(0,2)"><rect x="110" width="126.52333800292814" y="23" height="7" fill="#1b9e77"></rect><rect x="110" width="139.85404537095633" y="31" height="7" fill="#1b9e77"></rect><rect x="110" width="160.0539001643706" y="39" height="7" fill="#1b9e77"></rect><rect x="110" width="204.5414189408283" y="47" height="7" fill="#d95f02"></rect><rect x="110" width="208.8653364559171" y="55" height="7" fill="#d95f02"></rect><rect x="110" width="140.684299615011" y="63" height="7" fill="#7570b3"></rect><rect x="110" width="141.98658300979503" y="71" height="7" fill="#7570b3"></rect></g><g transform="translate(0,71)"><rect x="110" width="66.30286936842958" y="23" height="7" fill="#1b9e77"></rect><rect x="110" width="48.43396799637529" y="31" height="7" fill="#1b9e77"></rect><rect x="110" width="38.83961620406771" y="39" height="7" fill="#1b9e77"></rect><rect x="110" width="81.72554506440525" y="47" height="7" fill="#d95f02"></rect><rect x="110" width="81.42458877083837" y="55" height="7" fill="#d95f02"></rect><rect x="110" width="4.990166782959221" y="63" height="7" fill="#7570b3"></rect><rect x="110" width="56.819758806355054" y="71" height="7" fill="#7570b3"></rect></g><g transform="translate(0,140)"><rect x="110" width="194.7897214476439" y="23" height="7" fill="#1b9e77"></rect><rect x="110" width="174.91324643176029" y="31" height="7" fill="#1b9e77"></rect><rect x="110" width="175.5116311050732" y="39" height="7" fill="#1b9e77"></rect><rect x="110" width="250.9712477473546" y="47" height="7" fill="#d95f02"></rect><rect x="110" width="251.03275472004765" y="55" height="7" fill="#d95f02"></rect><rect x="110" width="184.85863640638303" y="63" height="7" fill="#7570b3"></rect><rect x="110" width="338.3934535900186" y="71" height="7" fill="#7570b3"></rect></g><g transform="translate(0,209)"><rect x="110" width="66.30286936842958" y="23" height="7" fill="#1b9e77"></rect><rect x="110" width="48.43396799637529" y="31" height="7" fill="#1b9e77"></rect><rect x="110" width="38.83961620406771" y="39" height="7" fill="#1b9e77"></rect><rect x="110" width="81.72554506440525" y="47" height="7" fill="#d95f02"></rect><rect x="110" width="81.42458877083837" y="55" height="7" fill="#d95f02"></rect><rect x="110" width="4.990166782959221" y="63" height="7" fill="#7570b3"></rect><rect x="110" width="56.668594209418416" y="71" height="7" fill="#7570b3"></rect></g><g transform="translate(0,278)"><rect x="110" width="152.91732919406223" y="23" height="7" fill="#1b9e77"></rect><rect x="110" width="143.58081811069115" y="31" height="7" fill="#1b9e77"></rect><rect x="110" width="156.14734016253504" y="39" height="7" fill="#1b9e77"></rect><rect x="110" width="181.28507012410296" y="47" height="7" fill="#d95f02"></rect><rect x="110" width="184.13990317192207" y="55" height="7" fill="#d95f02"></rect><rect x="110" width="149.3468082161171" y="63" height="7" fill="#7570b3"></rect><rect x="110" width="135.77001174413112" y="71" height="7" fill="#7570b3"></rect></g><g transform="translate(0,347)"><rect x="110" width="167.8510788979604" y="23" height="7" fill="#1b9e77"></rect><rect x="110" width="175.9160452373747" y="31" height="7" fill="#1b9e77"></rect><rect x="110" width="180.71523286793808" y="39" height="7" fill="#1b9e77"></rect><rect x="110" width="177.39940582083676" y="47" height="7" fill="#d95f02"></rect><rect x="110" width="168.35961608182708" y="55" height="7" fill="#d95f02"></rect><rect x="110" width="180.65304226607452" y="63" height="7" fill="#7570b3"></rect><rect x="110" width="174.99216616315516" y="71" height="7" fill="#7570b3"></rect></g><g transform="translate(0,416)"><rect x="110" width="246.9438071238216" y="23" height="7" fill="#1b9e77"></rect><rect x="110" width="257.8010447215895" y="31" height="7" fill="#1b9e77"></rect><rect x="110" width="277.8681070141379" y="39" height="7" fill="#1b9e77"></rect><rect x="110" width="260.182785028357" y="47" height="7" fill="#d95f02"></rect><rect x="110" width="263.09909840772684" y="55" height="7" fill="#d95f02"></rect><rect x="110" width="241.18347195873577" y="63" height="7" fill="#7570b3"></rect><rect x="110" width="244.57939390572824" y="71" height="7" fill="#7570b3"></rect></g></g><g aria-label="fy-axis tick label" transform="translate(-26,2)"><g text-anchor="end" font-size="15px" transform="translate(0,2)"><text transform="translate(110,51)">Eg-walker</text></g><g text-anchor="end" font-size="15px" transform="translate(0,71)"><text transform="translate(110,51)">Eg-walker</text></g><g text-anchor="end" font-size="15px" transform="translate(0,140)"><text transform="translate(110,51)">OT</text></g><g text-anchor="end" font-size="15px" transform="translate(0,209)"><text transform="translate(110,51)">OT</text></g><g text-anchor="end" font-size="15px" transform="translate(0,278)"><text transform="translate(110,51)">Ref CRDT</text></g><g text-anchor="end" font-size="15px" transform="translate(0,347)"><text transform="translate(110,51)">Yjs</text></g><g text-anchor="end" font-size="15px" transform="translate(0,416)"><text transform="translate(110,51)">Automerge</text></g></g><g aria-label="fy-axis tick label" transform="translate(-26,7)"><g fill-opacity="0.7" text-anchor="end" font-size="12" transform="translate(0,2)"><text y="0.781em" transform="translate(110,51)">(peak)</text></g><g fill-opacity="0.7" text-anchor="end" font-size="12" transform="translate(0,71)"><text y="0.781em" transform="translate(110,51)">(steady)</text></g><g fill-opacity="0.7" text-anchor="end" font-size="12" transform="translate(0,140)"><text y="0.781em" transform="translate(110,51)">(peak)</text></g><g fill-opacity="0.7" text-anchor="end" font-size="12" transform="translate(0,209)"><text y="0.781em" transform="translate(110,51)">(steady)</text></g><g fill-opacity="0.7" text-anchor="end" font-size="12" transform="translate(0,278)"><text y="0.781em" transform="translate(110,51)"></text></g><g fill-opacity="0.7" text-anchor="end" font-size="12" transform="translate(0,347)"><text y="0.781em" transform="translate(110,51)"></text></g><g fill-opacity="0.7" text-anchor="end" font-size="12" transform="translate(0,416)"><text y="0.781em" transform="translate(110,51)"></text></g></g><g aria-label="rule"><g stroke="#800000" stroke-opacity="0.5" transform="translate(0,2)"><line x1="-129.38758244325578" x2="-129.38758244325578" y1="20" y2="82"></line></g><g stroke="#800000" stroke-opacity="0.5" transform="translate(0,71)"><line x1="-129.38758244325578" x2="-129.38758244325578" y1="20" y2="82"></line></g><g stroke="#800000" stroke-opacity="0.5" transform="translate(0,140)"><line x1="-129.38758244325578" x2="-129.38758244325578" y1="20" y2="82"></line></g><g stroke="#800000" stroke-opacity="0.5" transform="translate(0,209)"><line x1="-129.38758244325578" x2="-129.38758244325578" y1="20" y2="82"></line></g><g stroke="#800000" stroke-opacity="0.5" transform="translate(0,278)"><line x1="-129.38758244325578" x2="-129.38758244325578" y1="20" y2="82"></line></g><g stroke="#800000" stroke-opacity="0.5" transform="translate(0,347)"><line x1="-129.38758244325578" x2="-129.38758244325578" y1="20" y2="82"></line></g><g stroke="#800000" stroke-opacity="0.5" transform="translate(0,416)"><line x1="-129.38758244325578" x2="-129.38758244325578" y1="20" y2="82"></line></g></g><g aria-label="tick"><g stroke="currentColor" transform="translate(0,2)"><line x1="236.52333800292814" x2="236.52333800292814" y1="23" y2="30"></line><line x1="249.85404537095633" x2="249.85404537095633" y1="31" y2="38"></line><line x1="270.0539001643706" x2="270.0539001643706" y1="39" y2="46"></line><line x1="314.5414189408283" x2="314.5414189408283" y1="47" y2="54"></line><line x1="318.8653364559171" x2="318.8653364559171" y1="55" y2="62"></line><line x1="250.684299615011" x2="250.684299615011" y1="63" y2="70"></line><line x1="251.98658300979503" x2="251.98658300979503" y1="71" y2="78"></line></g><g stroke="currentColor" transform="translate(0,71)"><line x1="176.30286936842958" x2="176.30286936842958" y1="23" y2="30"></line><line x1="158.4339679963753" x2="158.4339679963753" y1="31" y2="38"></line><line x1="148.8396162040677" x2="148.8396162040677" y1="39" y2="46"></line><line x1="191.72554506440525" x2="191.72554506440525" y1="47" y2="54"></line><line x1="191.42458877083837" x2="191.42458877083837" y1="55" y2="62"></line><line x1="114.99016678295922" x2="114.99016678295922" y1="63" y2="70"></line><line x1="166.81975880635505" x2="166.81975880635505" y1="71" y2="78"></line></g><g stroke="currentColor" transform="translate(0,140)"><line x1="304.7897214476439" x2="304.7897214476439" y1="23" y2="30"></line><line x1="284.9132464317603" x2="284.9132464317603" y1="31" y2="38"></line><line x1="285.5116311050732" x2="285.5116311050732" y1="39" y2="46"></line><line x1="360.9712477473546" x2="360.9712477473546" y1="47" y2="54"></line><line x1="361.03275472004765" x2="361.03275472004765" y1="55" y2="62"></line><line x1="294.858636406383" x2="294.858636406383" y1="63" y2="70"></line><line x1="448.3934535900186" x2="448.3934535900186" y1="71" y2="78"></line></g><g stroke="currentColor" transform="translate(0,209)"><line x1="176.30286936842958" x2="176.30286936842958" y1="23" y2="30"></line><line x1="158.4339679963753" x2="158.4339679963753" y1="31" y2="38"></line><line x1="148.8396162040677" x2="148.8396162040677" y1="39" y2="46"></line><line x1="191.72554506440525" x2="191.72554506440525" y1="47" y2="54"></line><line x1="191.42458877083837" x2="191.42458877083837" y1="55" y2="62"></line><line x1="114.99016678295922" x2="114.99016678295922" y1="63" y2="70"></line><line x1="166.66859420941842" x2="166.66859420941842" y1="71" y2="78"></line></g><g stroke="currentColor" transform="translate(0,278)"><line x1="262.91732919406223" x2="262.91732919406223" y1="23" y2="30"></line><line x1="253.58081811069115" x2="253.58081811069115" y1="31" y2="38"></line><line x1="266.14734016253504" x2="266.14734016253504" y1="39" y2="46"></line><line x1="291.28507012410296" x2="291.28507012410296" y1="47" y2="54"></line><line x1="294.1399031719221" x2="294.1399031719221" y1="55" y2="62"></line><line x1="259.3468082161171" x2="259.3468082161171" y1="63" y2="70"></line><line x1="245.77001174413112" x2="245.77001174413112" y1="71" y2="78"></line></g><g stroke="currentColor" transform="translate(0,347)"><line x1="277.8510788979604" x2="277.8510788979604" y1="23" y2="30"></line><line x1="285.9160452373747" x2="285.9160452373747" y1="31" y2="38"></line><line x1="290.7152328679381" x2="290.7152328679381" y1="39" y2="46"></line><line x1="287.39940582083676" x2="287.39940582083676" y1="47" y2="54"></line><line x1="278.3596160818271" x2="278.3596160818271" y1="55" y2="62"></line><line x1="290.6530422660745" x2="290.6530422660745" y1="63" y2="70"></line><line x1="284.99216616315516" x2="284.99216616315516" y1="71" y2="78"></line></g><g stroke="currentColor" transform="translate(0,416)"><line x1="356.9438071238216" x2="356.9438071238216" y1="23" y2="30"></line><line x1="367.8010447215895" x2="367.8010447215895" y1="31" y2="38"></line><line x1="387.8681070141379" x2="387.8681070141379" y1="39" y2="46"></line><line x1="370.182785028357" x2="370.182785028357" y1="47" y2="54"></line><line x1="373.09909840772684" x2="373.09909840772684" y1="55" y2="62"></line><line x1="351.18347195873577" x2="351.18347195873577" y1="63" y2="70"></line><line x1="354.57939390572824" x2="354.57939390572824" y1="71" y2="78"></line></g></g><g aria-label="text" transform="translate(6,3.5)"><g fill="black" text-anchor="start" font-size="8.5" transform="translate(0,2)"><text y="0.32em" transform="translate(236.52333800292814,23)">4.7 MiB</text><text y="0.32em" transform="translate(249.85404537095633,31)">7.4 MiB</text><text y="0.32em" transform="translate(270.0539001643706,39)">14.9 MiB</text><text y="0.32em" transform="translate(314.5414189408283,47)">68.5 MiB</text><text y="0.32em" transform="translate(318.8653364559171,55)">79.5 MiB</text><text y="0.32em" transform="translate(250.684299615011,63)">7.7 MiB</text><text y="0.32em" transform="translate(251.98658300979503,71)">8 MiB</text></g><g fill="black" text-anchor="start" font-size="8.5" transform="translate(0,71)"><text y="0.32em" transform="translate(176.30286936842958,23)">597 KiB</text><text y="0.32em" transform="translate(158.4339679963753,31)">324 KiB</text><text y="0.32em" transform="translate(148.8396162040677,39)">233 KiB</text><text y="0.32em" transform="translate(191.72554506440525,47)">1 MiB</text><text y="0.32em" transform="translate(191.42458877083837,55)">1 MiB</text><text y="0.32em" transform="translate(114.99016678295922,63)">72.9 KiB</text><text y="0.32em" transform="translate(166.81975880635505,71)">432 KiB</text></g><g fill="black" text-anchor="start" font-size="8.5" transform="translate(0,140)"><text y="0.32em" transform="translate(304.7897214476439,23)">49 MiB</text><text y="0.32em" transform="translate(284.9132464317603,31)">24.8 MiB</text><text y="0.32em" transform="translate(285.5116311050732,39)">25.3 MiB</text><text y="0.32em" transform="translate(360.9712477473546,47)">337 MiB</text><text y="0.32em" transform="translate(361.03275472004765,55)">338 MiB</text><text y="0.32em" transform="translate(294.858636406383,63)">34.9 MiB</text><text y="0.32em" transform="translate(448.3934535900186,71)">6.8 GiB</text></g><g fill="black" text-anchor="start" font-size="8.5" transform="translate(0,209)"><text y="0.32em" transform="translate(176.30286936842958,23)">597 KiB</text><text y="0.32em" transform="translate(158.4339679963753,31)">324 KiB</text><text y="0.32em" transform="translate(148.8396162040677,39)">233 KiB</text><text y="0.32em" transform="translate(191.72554506440525,47)">1 MiB</text><text y="0.32em" transform="translate(191.42458877083837,55)">1 MiB</text><text y="0.32em" transform="translate(114.99016678295922,63)">72.9 KiB</text><text y="0.32em" transform="translate(166.66859420941842,71)">429 KiB</text></g><g fill="black" text-anchor="start" font-size="8.5" transform="translate(0,278)"><text y="0.32em" transform="translate(262.91732919406223,23)">11.7 MiB</text><text y="0.32em" transform="translate(253.58081811069115,31)">8.5 MiB</text><text y="0.32em" transform="translate(266.14734016253504,39)">13 MiB</text><text y="0.32em" transform="translate(291.28507012410296,47)">30.9 MiB</text><text y="0.32em" transform="translate(294.1399031719221,55)">34 MiB</text><text y="0.32em" transform="translate(259.3468082161171,63)">10.3 MiB</text><text y="0.32em" transform="translate(245.77001174413112,71)">6.5 MiB</text></g><g fill="black" text-anchor="start" font-size="8.5" transform="translate(0,347)"><text y="0.32em" transform="translate(277.8510788979604,23)">19.5 MiB</text><text y="0.32em" transform="translate(285.9160452373747,31)">25.7 MiB</text><text y="0.32em" transform="translate(290.7152328679381,39)">30.3 MiB</text><text y="0.32em" transform="translate(287.39940582083676,47)">27 MiB</text><text y="0.32em" transform="translate(278.3596160818271,55)">19.8 MiB</text><text y="0.32em" transform="translate(290.6530422660745,63)">30.2 MiB</text><text y="0.32em" transform="translate(284.99216616315516,71)">24.9 MiB</text></g><g fill="black" text-anchor="start" font-size="8.5" transform="translate(0,416)"><text y="0.32em" transform="translate(356.9438071238216,23)">294 MiB</text><text y="0.32em" transform="translate(367.8010447215895,31)">426 MiB</text><text y="0.32em" transform="translate(387.8681070141379,39)">848 MiB</text><text y="0.32em" transform="translate(370.182785028357,47)">462 MiB</text><text y="0.32em" transform="translate(373.09909840772684,55)">511 MiB</text><text y="0.32em" transform="translate(351.18347195873577,63)">241 MiB</text><text y="0.32em" transform="translate(354.57939390572824,71)">271 MiB</text></g></g><g aria-label="rule"><g stroke="currentColor" stroke-width="1.5" transform="translate(0,2)"><line x1="110" x2="110" y1="20" y2="82"></line></g><g stroke="currentColor" stroke-width="1.5" transform="translate(0,71)"><line x1="110" x2="110" y1="20" y2="82"></line></g><g stroke="currentColor" stroke-width="1.5" transform="translate(0,140)"><line x1="110" x2="110" y1="20" y2="82"></line></g><g stroke="currentColor" stroke-width="1.5" transform="translate(0,209)"><line x1="110" x2="110" y1="20" y2="82"></line></g><g stroke="currentColor" stroke-width="1.5" transform="translate(0,278)"><line x1="110" x2="110" y1="20" y2="82"></line></g><g stroke="currentColor" stroke-width="1.5" transform="translate(0,347)"><line x1="110" x2="110" y1="20" y2="82"></line></g><g stroke="currentColor" stroke-width="1.5" transform="translate(0,416)"><line x1="110" x2="110" y1="20" y2="82"></line></g></g></svg>