<svg class="plot-d6a7b5" fill="currentColor" font-family="system-ui, sans-serif" font-size="10" text-anchor="middle" width="500" height="530" viewBox="0 0 500 530" style="background: white; font-family: Helvetica Neue, Helvetica, Arial, sans-serif;" xmlns="http://www.w3.org/2000/svg" xmlns:xlink="http://www.w3.org/1999/xlink" version="1.1"><style>:where(.plot-d6a7b5) {
  --plot-background: white;
  display: block;
  height: auto;
  height: intrinsic;
  max-width: 100%;
}
:where(.plot-d6a7b5 text),
:where(.plot-d6a7b5 tspan) {
  white-space: pre;
}</style><g aria-label="x-grid" aria-hidden="true"><g stroke="currentColor" stroke-opacity="0.1" transform="translate(0,2)"><line x1="122.60121364414388" x2="122.60121364414388" y1="20" y2="82"></line><line x1="182.16767803678653" x2="182.16767803678653" y1="20" y2="82"></line><line x1="241.73414242942926" x2="241.73414242942926" y1="20" y2="82"></line><line x1="301.3006068220719" x2="301.3006068220719" y1="20" y2="82"></line><line x1="360.86707121471454" x2="360.86707121471454" y1="20" y2="82"></line><line x1="420.4335356073573" x2="420.4335356073573" y1="20" y2="82"></line><line x1="480" x2="480" y1="20" y2="82"></line></g><g stroke="currentColor" stroke-opacity="0.1" transform="translate(0,71)"><line x1="122.60121364414388" x2="122.60121364414388" y1="20" y2="82"></line><line x1="182.16767803678653" x2="182.16767803678653" y1="20" y2="82"></line><line x1="241.73414242942926" x2="241.73414242942926" y1="20" y2="82"></line><line x1="301.3006068220719" x2="301.3006068220719" y1="20" y2="82"></line><line x1="360.86707121471454" x2="360.86707121471454" y1="20" y2="82"></line><line x1="420.4335356073573" x2="420.4335356073573" y1="20" y2="82"></line><line x1="480" x2="480" y1="20" y2="82"></line></g><g stroke="currentColor" stroke-opacity="0.1" transform="translate(0,140)"><line x1="122.60121364414388" x2="122.60121364414388" y1="20" y2="82"></line><line x1="182.16767803678653" x2="182.16767803678653" y1="20" y2="82"></line><line x1="241.73414242942926" x2="241.73414242942926" y1="20" y2="82"></line><line x1="301.3006068220719" x2="301.3006068220719" y1="20" y2="82"></line><line x1="360.86707121471454" x2="360.86707121471454" y1="20" y2="82"></line><line x1="420.4335356073573" x2="420.4335356073573" y1="20" y2="82"></line><line x1="480" x2="480" y1="20" y2="82"></line></g><g stroke="currentColor" stroke-opacity="0.1" transform="translate(0,209)"><line x1="122.60121364414388" x2="122.60121364414388" y1="20" y2="82"></line><line x1="182.16767803678653" x2="182.16767803678653" y1="20" y2="82"></line><line x1="241.73414242942926" x2="241.73414242942926" y1="20" y2="82"></line><line x1="301.3006068220719" x2="301.3006068220719" y1="20" y2="82"></line><line x1="360.86707121471454" x2="360.86707121471454" y1="20" y2="82"></line><line x1="420.4335356073573" x2="420.4335356073573" y1="20" y2="82"></line><line x1="480" x2="480" y1="20" y2="82"></line></g><g stroke="currentColor" stroke-opacity="0.1" transform="translate(0,278)"><line x1="122.60121364414388" x2="122.60121364414388" y1="20" y2="82"></line><line x1="182.16767803678653" x2="182.16767803678653" y1="20" y2="82"></line><line x1="241.73414242942926" x2="241.73414242942926" y1="20" y2="82"></line><line x1="301.3006068220719" x2="301.3006068220719" y1="20" y2="82"></line><line x1="360.86707121471454" x2="360.86707121471454" y1="20" y2="82"></line><line x1="420.4335356073573" x2="420.4335356073573" y1="20" y2="82"></line><line x1="480" x2="480" y1="20" y2="82"></line></g><g stroke="currentColor" stroke-opacity="0.1" transform="translate(0,347)"><line x1="122.60121364414388" x2="122.60121364414388" y1="20" y2="82"></line><line x1="182.16767803678653" x2="182.16767803678653" y1="20" y2="82"></line><line x1="241.73414242942926" x2="241.73414242942926" y1="20" y2="82"></line><line x1="301.3006068220719" x2="301.3006068220719" y1="20" y2="82"></line><line x1="360.86707121471454" x2="360.86707121471454" y1="20" y2="82"></line><line x1="420.4335356073573" x2="420.4335356073573" y1="20" y2="82"></line><line x1="480" x2="480" y1="20" y2="82"></line></g><g stroke="currentColor" stroke-opacity="0.1" transform="translate(0,416)"><line x1="122.60121364414388" x2="122.60121364414388" y1="20" y2="82"></line><line x1="182.16767803678653" x2="182.16767803678653" y1="20" y2="82"></line><line x1="241.73414242942926" x2="241.73414242942926" y1="20" y2="82"></line><line x1="301.3006068220719" x2="301.3006068220719" y1="20" y2="82"></line><line x1="360.86707121471454" x2="360.86707121471454" y1="20" y2="82"></line><line x1="420.4335356073573" x2="420.4335356073573" y1="20" y2="82"></line><line x1="480" x2="480" y1="20" y2="82"></line></g></g><g aria-label="x-axis tick" aria-hidden="true"><g fill="none" stroke="currentColor" transform="translate(0,416)"><path transform="translate(122.60121364414388,82)" d="M0,0L0,6"></path><path transform="translate(182.16767803678653,82)" d="M0,0L0,6"></path><path transform="translate(241.73414242942926,82)" d="M0,0L0,6"></path><path transform="translate(301.3006068220719,82)" d="M0,0L0,6"></path><path transform="translate(360.86707121471454,82)" d="M0,0L0,6"></path><path transform="translate(420.4335356073573,82)" d="M0,0L0,6"></path><path transform="translate(480,82)" d="M0,0L0,6"></path></g></g><g aria-label="x-axis tick label" transform="translate(0,9)"><g font-variant="tabular-nums" transform="translate(0,416)"><text y="0.71em" transform="translate(122.60121364414388,82)">100 KiB</text><text y="0.71em" transform="translate(182.16767803678653,82)">1 MiB</text><text y="0.71em" transform="translate(241.73414242942926,82)">10 MiB</text><text y="0.71em" transform="translate(301.3006068220719,82)">100 MiB</text><text y="0.71em" transform="translate(360.86707121471454,82)">1 GiB</text><text y="0.71em" transform="translate(420.4335356073573,82)">10 GiB</text><text y="0.71em" transform="translate(480,82)">100 GiB</text></g></g><g aria-label="x-axis label" text-anchor="end" transform="translate(17,27)"><text transform="translate(480,498)">RAM used, log scale. (Less is better) →</text></g><g aria-label="x-grid" aria-hidden="true"><g stroke="currentColor" stroke-width="0.5" stroke-opacity="0.15" transform="translate(0,2)"><line x1="113.37425156030251" x2="113.37425156030251" y1="20" y2="82"></line><line x1="116.82862680500894" x2="116.82862680500894" y1="20" y2="82"></line><line x1="119.87560171196473" x2="119.87560171196473" y1="20" y2="82"></line><line x1="122.60121364414388" x2="122.60121364414388" y1="20" y2="82"></line><line x1="140.5325061619798" x2="140.5325061619798" y1="20" y2="82"></line><line x1="151.02163987437564" x2="151.02163987437564" y1="20" y2="82"></line><line x1="158.46379867981574" x2="158.46379867981574" y1="20" y2="82"></line><line x1="164.2363855189506" x2="164.2363855189506" y1="20" y2="82"></line><line x1="168.95293239221155" x2="168.95293239221155" y1="20" y2="82"></line><line x1="172.94071595294523" x2="172.94071595294523" y1="20" y2="82"></line><line x1="176.39509119765165" x2="176.39509119765165" y1="20" y2="82"></line><line x1="179.44206610460742" x2="179.44206610460742" y1="20" y2="82"></line><line x1="182.16767803678653" x2="182.16767803678653" y1="20" y2="82"></line><line x1="200.09897055462247" x2="200.09897055462247" y1="20" y2="82"></line><line x1="210.58810426701837" x2="210.58810426701837" y1="20" y2="82"></line><line x1="218.03026307245838" x2="218.03026307245838" y1="20" y2="82"></line><line x1="223.80284991159334" x2="223.80284991159334" y1="20" y2="82"></line><line x1="228.51939678485425" x2="228.51939678485425" y1="20" y2="82"></line><line x1="232.5071803455879" x2="232.5071803455879" y1="20" y2="82"></line><line x1="235.96155559029432" x2="235.96155559029432" y1="20" y2="82"></line><line x1="239.00853049725006" x2="239.00853049725006" y1="20" y2="82"></line><line x1="241.73414242942926" x2="241.73414242942926" y1="20" y2="82"></line><line x1="259.6654349472651" x2="259.6654349472651" y1="20" y2="82"></line><line x1="270.154568659661" x2="270.154568659661" y1="20" y2="82"></line><line x1="277.5967274651011" x2="277.5967274651011" y1="20" y2="82"></line><line x1="283.369314304236" x2="283.369314304236" y1="20" y2="82"></line><line x1="288.08586117749695" x2="288.08586117749695" y1="20" y2="82"></line><line x1="292.07364473823054" x2="292.07364473823054" y1="20" y2="82"></line><line x1="295.52801998293694" x2="295.52801998293694" y1="20" y2="82"></line><line x1="298.57499488989276" x2="298.57499488989276" y1="20" y2="82"></line><line x1="301.3006068220719" x2="301.3006068220719" y1="20" y2="82"></line><line x1="319.23189933990784" x2="319.23189933990784" y1="20" y2="82"></line><line x1="329.7210330523037" x2="329.7210330523037" y1="20" y2="82"></line><line x1="337.1631918577437" x2="337.1631918577437" y1="20" y2="82"></line><line x1="342.9357786968787" x2="342.9357786968787" y1="20" y2="82"></line><line x1="347.6523255701397" x2="347.6523255701397" y1="20" y2="82"></line><line x1="351.64010913087327" x2="351.64010913087327" y1="20" y2="82"></line><line x1="355.09448437557967" x2="355.09448437557967" y1="20" y2="82"></line><line x1="358.14145928253544" x2="358.14145928253544" y1="20" y2="82"></line><line x1="360.86707121471454" x2="360.86707121471454" y1="20" y2="82"></line><line x1="378.7983637325505" x2="378.7983637325505" y1="20" y2="82"></line><line x1="389.2874974449464" x2="389.2874974449464" y1="20" y2="82"></line><line x1="396.7296562503864" x2="396.7296562503864" y1="20" y2="82"></line><line x1="402.50224308952136" x2="402.50224308952136" y1="20" y2="82"></line><line x1="407.21878996278224" x2="407.21878996278224" y1="20" y2="82"></line><line x1="411.20657352351594" x2="411.20657352351594" y1="20" y2="82"></line><line x1="414.6609487682224" x2="414.6609487682224" y1="20" y2="82"></line><line x1="417.70792367517817" x2="417.70792367517817" y1="20" y2="82"></line><line x1="420.4335356073573" x2="420.4335356073573" y1="20" y2="82"></line><line x1="438.3648281251931" x2="438.3648281251931" y1="20" y2="82"></line><line x1="448.85396183758905" x2="448.85396183758905" y1="20" y2="82"></line><line x1="456.29612064302916" x2="456.29612064302916" y1="20" y2="82"></line><line x1="462.06870748216403" x2="462.06870748216403" y1="20" y2="82"></line><line x1="466.78525435542497" x2="466.78525435542497" y1="20" y2="82"></line><line x1="470.7730379161586" x2="470.7730379161586" y1="20" y2="82"></line><line x1="474.22741316086496" x2="474.22741316086496" y1="20" y2="82"></line><line x1="477.2743880678208" x2="477.2743880678208" y1="20" y2="82"></line><line x1="480" x2="480" y1="20" y2="82"></line></g><g stroke="currentColor" stroke-width="0.5" stroke-opacity="0.15" transform="translate(0,71)"><line x1="113.37425156030251" x2="113.37425156030251" y1="20" y2="82"></line><line x1="116.82862680500894" x2="116.82862680500894" y1="20" y2="82"></line><line x1="119.87560171196473" x2="119.87560171196473" y1="20" y2="82"></line><line x1="122.60121364414388" x2="122.60121364414388" y1="20" y2="82"></line><line x1="140.5325061619798" x2="140.5325061619798" y1="20" y2="82"></line><line x1="151.02163987437564" x2="151.02163987437564" y1="20" y2="82"></line><line x1="158.46379867981574" x2="158.46379867981574" y1="20" y2="82"></line><line x1="164.2363855189506" x2="164.2363855189506" y1="20" y2="82"></line><line x1="168.95293239221155" x2="168.95293239221155" y1="20" y2="82"></line><line x1="172.94071595294523" x2="172.94071595294523" y1="20" y2="82"></line><line x1="176.39509119765165" x2="176.39509119765165" y1="20" y2="82"></line><line x1="179.44206610460742" x2="179.44206610460742" y1="20" y2="82"></line><line x1="182.16767803678653" x2="182.16767803678653" y1="20" y2="82"></line><line x1="200.09897055462247" x2="200.09897055462247" y1="20" y2="82"></line><line x1="210.58810426701837" x2="210.58810426701837" y1="20" y2="82"></line><line x1="218.03026307245838" x2="218.03026307245838" y1="20" y2="82"></line><line x1="223.80284991159334" x2="223.80284991159334" y1="20" y2="82"></line><line x1="228.51939678485425" x2="228.51939678485425" y1="20" y2="82"></line><line x1="232.5071803455879" x2="232.5071803455879" y1="20" y2="82"></line><line x1="235.96155559029432" x2="235.96155559029432" y1="20" y2="82"></line><line x1="239.00853049725006" x2="239.00853049725006" y1="20" y2="82"></line><line x1="241.73414242942926" x2="241.73414242942926" y1="20" y2="82"></line><line x1="259.6654349472651" x2="259.6654349472651" y1="20" y2="82"></line><line x1="270.154568659661" x2="270.154568659661" y1="20" y2="82"></line><line x1="277.5967274651011" x2="277.5967274651011" y1="20" y2="82"></line><line x1="283.369314304236" x2="283.369314304236" y1="20" y2="82"></line><line x1="288.08586117749695" x2="288.08586117749695" y1="20" y2="82"></line><line x1="292.07364473823054" x2="292.07364473823054" y1="20" y2="82"></line><line x1="295.52801998293694" x2="295.52801998293694" y1="20" y2="82"></line><line x1="298.57499488989276" x2="298.57499488989276" y1="20" y2="82"></line><line x1="301.3006068220719" x2="301.3006068220719" y1="20" y2="82"></line><line x1="319.23189933990784" x2="319.23189933990784" y1="20" y2="82"></line><line x1="329.7210330523037" x2="329.7210330523037" y1="20" y2="82"></line><line x1="337.1631918577437" x2="337.1631918577437" y1="20" y2="82"></line><line x1="342.9357786968787" x2="342.9357786968787" y1="20" y2="82"></line><line x1="347.6523255701397" x2="347.6523255701397" y1="20" y2="82"></line><line x1="351.64010913087327" x2="351.64010913087327" y1="20" y2="82"></line><line x1="355.09448437557967" x2="355.09448437557967" y1="20" y2="82"></line><line x1="358.14145928253544" x2="358.14145928253544" y1="20" y2="82"></line><line x1="360.86707121471454" x2="360.86707121471454" y1="20" y2="82"></line><line x1="378.7983637325505" x2="378.7983637325505" y1="20" y2="82"></line><line x1="389.2874974449464" x2="389.2874974449464" y1="20" y2="82"></line><line x1="396.7296562503864" x2="396.7296562503864" y1="20" y2="82"></line><line x1="402.50224308952136" x2="402.50224308952136" y1="20" y2="82"></line><line x1="407.21878996278224" x2="407.21878996278224" y1="20" y2="82"></line><line x1="411.20657352351594" x2="411.20657352351594" y1="20" y2="82"></line><line x1="414.6609487682224" x2="414.6609487682224" y1="20" y2="82"></line><line x1="417.70792367517817" x2="417.70792367517817" y1="20" y2="82"></line><line x1="420.4335356073573" x2="420.4335356073573" y1="20" y2="82"></line><line x1="438.3648281251931" x2="438.3648281251931" y1="20" y2="82"></line><line x1="448.85396183758905" x2="448.85396183758905" y1="20" y2="82"></line><line x1="456.29612064302916" x2="456.29612064302916" y1="20" y2="82"></line><line x1="462.06870748216403" x2="462.06870748216403" y1="20" y2="82"></line><line x1="466.78525435542497" x2="466.78525435542497" y1="20" y2="82"></line><line x1="470.7730379161586" x2="470.7730379161586" y1="20" y2="82"></line><line x1="474.22741316086496" x2="474.22741316086496" y1="20" y2="82"></line><line x1="477.2743880678208" x2="477.2743880678208" y1="20" y2="82"></line><line x1="480" x2="480" y1="20" y2="82"></line></g><g stroke="currentColor" stroke-width="0.5" stroke-opacity="0.15" transform="translate(0,140)"><line x1="113.37425156030251" x2="113.37425156030251" y1="20" y2="82"></line><line x1="116.82862680500894" x2="116.82862680500894" y1="20" y2="82"></line><line x1="119.87560171196473" x2="119.87560171196473" y1="20" y2="82"></line><line x1="122.60121364414388" x2="122.60121364414388" y1="20" y2="82"></line><line x1="140.5325061619798" x2="140.5325061619798" y1="20" y2="82"></line><line x1="151.02163987437564" x2="151.02163987437564" y1="20" y2="82"></line><line x1="158.46379867981574" x2="158.46379867981574" y1="20" y2="82"></line><line x1="164.2363855189506" x2="164.2363855189506" y1="20" y2="82"></line><line x1="168.95293239221155" x2="168.95293239221155" y1="20" y2="82"></line><line x1="172.94071595294523" x2="172.94071595294523" y1="20" y2="82"></line><line x1="176.39509119765165" x2="176.39509119765165" y1="20" y2="82"></line><line x1="179.44206610460742" x2="179.44206610460742" y1="20" y2="82"></line><line x1="182.16767803678653" x2="182.16767803678653" y1="20" y2="82"></line><line x1="200.09897055462247" x2="200.09897055462247" y1="20" y2="82"></line><line x1="210.58810426701837" x2="210.58810426701837" y1="20" y2="82"></line><line x1="218.03026307245838" x2="218.03026307245838" y1="20" y2="82"></line><line x1="223.80284991159334" x2="223.80284991159334" y1="20" y2="82"></line><line x1="228.51939678485425" x2="228.51939678485425" y1="20" y2="82"></line><line x1="232.5071803455879" x2="232.5071803455879" y1="20" y2="82"></line><line x1="235.96155559029432" x2="235.96155559029432" y1="20" y2="82"></line><line x1="239.00853049725006" x2="239.00853049725006" y1="20" y2="82"></line><line x1="241.73414242942926" x2="241.73414242942926" y1="20" y2="82"></line><line x1="259.6654349472651" x2="259.6654349472651" y1="20" y2="82"></line><line x1="270.154568659661" x2="270.154568659661" y1="20" y2="82"></line><line x1="277.5967274651011" x2="277.5967274651011" y1="20" y2="82"></line><line x1="283.369314304236" x2="283.369314304236" y1="20" y2="82"></line><line x1="288.08586117749695" x2="288.08586117749695" y1="20" y2="82"></line><line x1="292.07364473823054" x2="292.07364473823054" y1="20" y2="82"></line><line x1="295.52801998293694" x2="295.52801998293694" y1="20" y2="82"></line><line x1="298.57499488989276" x2="298.57499488989276" y1="20" y2="82"></line><line x1="301.3006068220719" x2="301.3006068220719" y1="20" y2="82"></line><line x1="319.23189933990784" x2="319.23189933990784" y1="20" y2="82"></line><line x1="329.7210330523037" x2="329.7210330523037" y1="20" y2="82"></line><line x1="337.1631918577437" x2="337.1631918577437" y1="20" y2="82"></line><line x1="342.9357786968787" x2="342.9357786968787" y1="20" y2="82"></line><line x1="347.6523255701397" x2="347.6523255701397" y1="20" y2="82"></line><line x1="351.64010913087327" x2="351.64010913087327" y1="20" y2="82"></line><line x1="355.09448437557967" x2="355.09448437557967" y1="20" y2="82"></line><line x1="358.14145928253544" x2="358.14145928253544" y1="20" y2="82"></line><line x1="360.86707121471454" x2="360.86707121471454" y1="20" y2="82"></line><line x1="378.7983637325505" x2="378.7983637325505" y1="20" y2="82"></line><line x1="389.2874974449464" x2="389.2874974449464" y1="20" y2="82"></line><line x1="396.7296562503864" x2="396.7296562503864" y1="20" y2="82"></line><line x1="402.50224308952136" x2="402.50224308952136" y1="20" y2="82"></line><line x1="407.21878996278224" x2="407.21878996278224" y1="20" y2="82"></line><line x1="411.20657352351594" x2="411.20657352351594" y1="20" y2="82"></line><line x1="414.6609487682224" x2="414.6609487682224" y1="20" y2="82"></line><line x1="417.70792367517817" x2="417.70792367517817" y1="20" y2="82"></line><line x1="420.4335356073573" x2="420.4335356073573" y1="20" y2="82"></line><line x1="438.3648281251931" x2="438.3648281251931" y1="20" y2="82"></line><line x1="448.85396183758905" x2="448.85396183758905" y1="20" y2="82"></line><line x1="456.29612064302916" x2="456.29612064302916" y1="20" y2="82"></line><line x1="462.06870748216403" x2="462.06870748216403" y1="20" y2="82"></line><line x1="466.78525435542497" x2="466.78525435542497" y1="20" y2="82"></line><line x1="470.7730379161586" x2="470.7730379161586" y1="20" y2="82"></line><line x1="474.22741316086496" x2="474.22741316086496" y1="20" y2="82"></line><line x1="477.2743880678208" x2="477.2743880678208" y1="20" y2="82"></line><line x1="480" x2="480" y1="20" y2="82"></line></g><g stroke="currentColor" stroke-width="0.5" stroke-opacity="0.15" transform="translate(0,209)"><line x1="113.37425156030251" x2="113.37425156030251" y1="20" y2="82"></line><line x1="116.82862680500894" x2="116.82862680500894" y1="20" y2="82"></line><line x1="119.87560171196473" x2="119.87560171196473" y1="20" y2="82"></line><line x1="122.60121364414388" x2="122.60121364414388" y1="20" y2="82"></line><line x1="140.5325061619798" x2="140.5325061619798" y1="20" y2="82"></line><line x1="151.02163987437564" x2="151.02163987437564" y1="20" y2="82"></line><line x1="158.46379867981574" x2="158.46379867981574" y1="20" y2="82"></line><line x1="164.2363855189506" x2="164.2363855189506" y1="20" y2="82"></line><line x1="168.95293239221155" x2="168.95293239221155" y1="20" y2="82"></line><line x1="172.94071595294523" x2="172.94071595294523" y1="20" y2="82"></line><line x1="176.39509119765165" x2="176.39509119765165" y1="20" y2="82"></line><line x1="179.44206610460742" x2="179.44206610460742" y1="20" y2="82"></line><line x1="182.16767803678653" x2="182.16767803678653" y1="20" y2="82"></line><line x1="200.09897055462247" x2="200.09897055462247" y1="20" y2="82"></line><line x1="210.58810426701837" x2="210.58810426701837" y1="20" y2="82"></line><line x1="218.03026307245838" x2="218.03026307245838" y1="20" y2="82"></line><line x1="223.80284991159334" x2="223.80284991159334" y1="20" y2="82"></line><line x1="228.51939678485425" x2="228.51939678485425" y1="20" y2="82"></line><line x1="232.5071803455879" x2="232.5071803455879" y1="20" y2="82"></line><line x1="235.96155559029432" x2="235.96155559029432" y1="20" y2="82"></line><line x1="239.00853049725006" x2="239.00853049725006" y1="20" y2="82"></line><line x1="241.73414242942926" x2="241.73414242942926" y1="20" y2="82"></line><line x1="259.6654349472651" x2="259.6654349472651" y1="20" y2="82"></line><line x1="270.154568659661" x2="270.154568659661" y1="20" y2="82"></line><line x1="277.5967274651011" x2="277.5967274651011" y1="20" y2="82"></line><line x1="283.369314304236" x2="283.369314304236" y1="20" y2="82"></line><line x1="288.08586117749695" x2="288.08586117749695" y1="20" y2="82"></line><line x1="292.07364473823054" x2="292.07364473823054" y1="20" y2="82"></line><line x1="295.52801998293694" x2="295.52801998293694" y1="20" y2="82"></line><line x1="298.57499488989276" x2="298.57499488989276" y1="20" y2="82"></line><line x1="301.3006068220719" x2="301.3006068220719" y1="20" y2="82"></line><line x1="319.23189933990784" x2="319.23189933990784" y1="20" y2="82"></line><line x1="329.7210330523037" x2="329.7210330523037" y1="20" y2="82"></line><line x1="337.1631918577437" x2="337.1631918577437" y1="20" y2="82"></line><line x1="342.9357786968787" x2="342.9357786968787" y1="20" y2="82"></line><line x1="347.6523255701397" x2="347.6523255701397" y1="20" y2="82"></line><line x1="351.64010913087327" x2="351.64010913087327" y1="20" y2="82"></line><line x1="355.09448437557967" x2="355.09448437557967" y1="20" y2="82"></line><line x1="358.14145928253544" x2="358.14145928253544" y1="20" y2="82"></line><line x1="360.86707121471454" x2="360.86707121471454" y1="20" y2="82"></line><line x1="378.7983637325505" x2="378.7983637325505" y1="20" y2="82"></line><line x1="389.2874974449464" x2="389.2874974449464" y1="20" y2="82"></line><line x1="396.7296562503864" x2="396.7296562503864" y1="20" y2="82"></line><line x1="402.50224308952136" x2="402.50224308952136" y1="20" y2="82"></line><line x1="407.21878996278224" x2="407.21878996278224" y1="20" y2="82"></line><line x1="411.20657352351594" x2="411.20657352351594" y1="20" y2="82"></line><line x1="414.6609487682224" x2="414.6609487682224" y1="20" y2="82"></line><line x1="417.70792367517817" x2="417.70792367517817" y1="20" y2="82"></line><line x1="420.4335356073573" x2="420.4335356073573" y1="20" y2="82"></line><line x1="438.3648281251931" x2="438.3648281251931" y1="20" y2="82"></line><line x1="448.85396183758905" x2="448.85396183758905" y1="20" y2="82"></line><line x1="456.29612064302916" x2="456.29612064302916" y1="20" y2="82"></line><line x1="462.06870748216403" x2="462.06870748216403" y1="20" y2="82"></line><line x1="466.78525435542497" x2="466.78525435542497" y1="20" y2="82"></line><line x1="470.7730379161586" x2="470.7730379161586" y1="20" y2="82"></line><line x1="474.22741316086496" x2="474.22741316086496" y1="20" y2="82"></line><line x1="477.2743880678208" x2="477.2743880678208" y1="20" y2="82"></line><line x1="480" x2="480" y1="20" y2="82"></line></g><g stroke="currentColor" stroke-width="0.5" stroke-opacity="0.15" transform="translate(0,278)"><line x1="113.37425156030251" x2="113.37425156030251" y1="20" y2="82"></line><line x1="116.82862680500894" x2="116.82862680500894" y1="20" y2="82"></line><line x1="119.87560171196473" x2="119.87560171196473" y1="20" y2="82"></line><line x1="122.60121364414388" x2="122.60121364414388" y1="20" y2="82"></line><line x1="140.5325061619798" x2="140.5325061619798" y1="20" y2="82"></line><line x1="151.02163987437564" x2="151.02163987437564" y1="20" y2="82"></line><line x1="158.46379867981574" x2="158.46379867981574" y1="20" y2="82"></line><line x1="164.2363855189506" x2="164.2363855189506" y1="20" y2="82"></line><line x1="168.95293239221155" x2="168.95293239221155" y1="20" y2="82"></line><line x1="172.94071595294523" x2="172.94071595294523" y1="20" y2="82"></line><line x1="176.39509119765165" x2="176.39509119765165" y1="20" y2="82"></line><line x1="179.44206610460742" x2="179.44206610460742" y1="20" y2="82"></line><line x1="182.16767803678653" x2="182.16767803678653" y1="20" y2="82"></line><line x1="200.09897055462247" x2="200.09897055462247" y1="20" y2="82"></line><line x1="210.58810426701837" x2="210.58810426701837" y1="20" y2="82"></line><line x1="218.03026307245838" x2="218.03026307245838" y1="20" y2="82"></line><line x1="223.80284991159334" x2="223.80284991159334" y1="20" y2="82"></line><line x1="228.51939678485425" x2="228.51939678485425" y1="20" y2="82"></line><line x1="232.5071803455879" x2="232.5071803455879" y1="20" y2="82"></line><line x1="235.96155559029432" x2="235.96155559029432" y1="20" y2="82"></line><line x1="239.00853049725006" x2="239.00853049725006" y1="20" y2="82"></line><line x1="241.73414242942926" x2="241.73414242942926" y1="20" y2="82"></line><line x1="259.6654349472651" x2="259.6654349472651" y1="20" y2="82"></line><line x1="270.154568659661" x2="270.154568659661" y1="20" y2="82"></line><line x1="277.5967274651011" x2="277.5967274651011" y1="20" y2="82"></line><line x1="283.369314304236" x2="283.369314304236" y1="20" y2="82"></line><line x1="288.08586117749695" x2="288.08586117749695" y1="20" y2="82"></line><line x1="292.07364473823054" x2="292.07364473823054" y1="20" y2="82"></line><line x1="295.52801998293694" x2="295.52801998293694" y1="20" y2="82"></line><line x1="298.57499488989276" x2="298.57499488989276" y1="20" y2="82"></line><line x1="301.3006068220719" x2="301.3006068220719" y1="20" y2="82"></line><line x1="319.23189933990784" x2="319.23189933990784" y1="20" y2="82"></line><line x1="329.7210330523037" x2="329.7210330523037" y1="20" y2="82"></line><line x1="337.1631918577437" x2="337.1631918577437" y1="20" y2="82"></line><line x1="342.9357786968787" x2="342.9357786968787" y1="20" y2="82"></line><line x1="347.6523255701397" x2="347.6523255701397" y1="20" y2="82"></line><line x1="351.64010913087327" x2="351.64010913087327" y1="20" y2="82"></line><line x1="355.09448437557967" x2="355.09448437557967" y1="20" y2="82"></line><line x1="358.14145928253544" x2="358.14145928253544" y1="20" y2="82"></line><line x1="360.86707121471454" x2="360.86707121471454" y1="20" y2="82"></line><line x1="378.7983637325505" x2="378.7983637325505" y1="20" y2="82"></line><line x1="389.2874974449464" x2="389.2874974449464" y1="20" y2="82"></line><line x1="396.7296562503864" x2="396.7296562503864" y1="20" y2="82"></line><line x1="402.50224308952136" x2="402.50224308952136" y1="20" y2="82"></line><line x1="407.21878996278224" x2="407.21878996278224" y1="20" y2="82"></line><line x1="411.20657352351594" x2="411.20657352351594" y1="20" y2="82"></line><line x1="414.6609487682224" x2="414.6609487682224" y1="20" y2="82"></line><line x1="417.70792367517817" x2="417.70792367517817" y1="20" y2="82"></line><line x1="420.4335356073573" x2="420.4335356073573" y1="20" y2="82"></line><line x1="438.3648281251931" x2="438.3648281251931" y1="20" y2="82"></line><line x1="448.85396183758905" x2="448.85396183758905" y1="20" y2="82"></line><line x1="456.29612064302916" x2="456.29612064302916" y1="20" y2="82"></line><line x1="462.06870748216403" x2="462.06870748216403" y1="20" y2="82"></line><line x1="466.78525435542497" x2="466.78525435542497" y1="20" y2="82"></line><line x1="470.7730379161586" x2="470.7730379161586" y1="20" y2="82"></line><line x1="474.22741316086496" x2="474.22741316086496" y1="20" y2="82"></line><line x1="477.2743880678208" x2="477.2743880678208" y1="20" y2="82"></line><line x1="480" x2="480" y1="20" y2="82"></line></g><g stroke="currentColor" stroke-width="0.5" stroke-opacity="0.15" transform="translate(0,347)"><line x1="113.37425156030251" x2="113.37425156030251" y1="20" y2="82"></line><line x1="116.82862680500894" x2="116.82862680500894" y1="20" y2="82"></line><line x1="119.87560171196473" x2="119.87560171196473" y1="20" y2="82"></line><line x1="122.60121364414388" x2="122.60121364414388" y1="20" y2="82"></line><line x1="140.5325061619798" x2="140.5325061619798" y1="20" y2="82"></line><line x1="151.02163987437564" x2="151.02163987437564" y1="20" y2="82"></line><line x1="158.46379867981574" x2="158.46379867981574" y1="20" y2="82"></line><line x1="164.2363855189506" x2="164.2363855189506" y1="20" y2="82"></line><line x1="168.95293239221155" x2="168.95293239221155" y1="20" y2="82"></line><line x1="172.94071595294523" x2="172.94071595294523" y1="20" y2="82"></line><line x1="176.39509119765165" x2="176.39509119765165" y1="20" y2="82"></line><line x1="179.44206610460742" x2="179.44206610460742" y1="20" y2="82"></line><line x1="182.16767803678653" x2="182.16767803678653" y1="20" y2="82"></line><line x1="200.09897055462247" x2="200.09897055462247" y1="20" y2="82"></line><line x1="210.58810426701837" x2="210.58810426701837" y1="20" y2="82"></line><line x1="218.03026307245838" x2="218.03026307245838" y1="20" y2="82"></line><line x1="223.80284991159334" x2="223.80284991159334" y1="20" y2="82"></line><line x1="228.51939678485425" x2="228.51939678485425" y1="20" y2="82"></line><line x1="232.5071803455879" x2="232.5071803455879" y1="20" y2="82"></line><line x1="235.96155559029432" x2="235.96155559029432" y1="20" y2="82"></line><line x1="239.00853049725006" x2="239.00853049725006" y1="20" y2="82"></line><line x1="241.73414242942926" x2="241.73414242942926" y1="20" y2="82"></line><line x1="259.6654349472651" x2="259.6654349472651" y1="20" y2="82"></line><line x1="270.154568659661" x2="270.154568659661" y1="20" y2="82"></line><line x1="277.5967274651011" x2="277.5967274651011" y1="20" y2="82"></line><line x1="283.369314304236" x2="283.369314304236" y1="20" y2="82"></line><line x1="288.08586117749695" x2="288.08586117749695" y1="20" y2="82"></line><line x1="292.07364473823054" x2="292.07364473823054" y1="20" y2="82"></line><line x1="295.52801998293694" x2="295.52801998293694" y1="20" y2="82"></line><line x1="298.57499488989276" x2="298.57499488989276" y1="20" y2="82"></line><line x1="301.3006068220719" x2="301.3006068220719" y1="20" y2="82"></line><line x1="319.23189933990784" x2="319.23189933990784" y1="20" y2="82"></line><line x1="329.7210330523037" x2="329.7210330523037" y1="20" y2="82"></line><line x1="337.1631918577437" x2="337.1631918577437" y1="20" y2="82"></line><line x1="342.9357786968787" x2="342.9357786968787" y1="20" y2="82"></line><line x1="347.6523255701397" x2="347.6523255701397" y1="20" y2="82"></line><line x1="351.64010913087327" x2="351.64010913087327" y1="20" y2="82"></line><line x1="355.09448437557967" x2="355.09448437557967" y1="20" y2="82"></line><line x1="358.14145928253544" x2="358.14145928253544" y1="20" y2="82"></line><line x1="360.86707121471454" x2="360.86707121471454" y1="20" y2="82"></line><line x1="378.7983637325505" x2="378.7983637325505" y1="20" y2="82"></line><line x1="389.2874974449464" x2="389.2874974449464" y1="20" y2="82"></line><line x1="396.7296562503864" x2="396.7296562503864" y1="20" y2="82"></line><line x1="402.50224308952136" x2="402.50224308952136" y1="20" y2="82"></line><line x1="407.21878996278224" x2="407.21878996278224" y1="20" y2="82"></line><line x1="411.20657352351594" x2="411.20657352351594" y1="20" y2="82"></line><line x1="414.6609487682224" x2="414.6609487682224" y1="20" y2="82"></line><line x1="417.70792367517817" x2="417.70792367517817" y1="20" y2="82"></line><line x1="420.4335356073573" x2="420.4335356073573" y1="20" y2="82"></line><line x1="438.3648281251931" x2="438.3648281251931" y1="20" y2="82"></line><line x1="448.85396183758905" x2="448.85396183758905" y1="20" y2="82"></line><line x1="456.29612064302916" x2="456.29612064302916" y1="20" y2="82"></line><line x1="462.06870748216403" x2="462.06870748216403" y1="20" y2="82"></line><line x1="466.78525435542497" x2="466.78525435542497" y1="20" y2="82"></line><line x1="470.7730379161586" x2="470.7730379161586" y1="20" y2="82"></line><line x1="474.22741316086496" x2="474.22741316086496" y1="20" y2="82"></line><line x1="477.2743880678208" x2="477.2743880678208" y1="20" y2="82"></line><line x1="480" x2="480" y1="20" y2="82"></line></g><g stroke="currentColor" stroke-width="0.5" stroke-opacity="0.15" transform="translate(0,416)"><line x1="113.37425156030251" x2="113.37425156030251" y1="20" y2="82"></line><line x1="116.82862680500894" x2="116.82862680500894" y1="20" y2="82"></line><line x1="119.87560171196473" x2="119.87560171196473" y1="20" y2="82"></line><line x1="122.60121364414388" x2="122.60121364414388" y1="20" y2="82"></line><line x1="140.5325061619798" x2="140.5325061619798" y1="20" y2="82"></line><line x1="151.02163987437564" x2="151.02163987437564" y1="20" y2="82"></line><line x1="158.46379867981574" x2="158.46379867981574" y1="20" y2="82"></line><line x1="164.2363855189506" x2="164.2363855189506" y1="20" y2="82"></line><line x1="168.95293239221155" x2="168.95293239221155" y1="20" y2="82"></line><line x1="172.94071595294523" x2="172.94071595294523" y1="20" y2="82"></line><line x1="176.39509119765165" x2="176.39509119765165" y1="20" y2="82"></line><line x1="179.44206610460742" x2="179.44206610460742" y1="20" y2="82"></line><line x1="182.16767803678653" x2="182.16767803678653" y1="20" y2="82"></line><line x1="200.09897055462247" x2="200.09897055462247" y1="20" y2="82"></line><line x1="210.58810426701837" x2="210.58810426701837" y1="20" y2="82"></line><line x1="218.03026307245838" x2="218.03026307245838" y1="20" y2="82"></line><line x1="223.80284991159334" x2="223.80284991159334" y1="20" y2="82"></line><line x1="228.51939678485425" x2="228.51939678485425" y1="20" y2="82"></line><line x1="232.5071803455879" x2="232.5071803455879" y1="20" y2="82"></line><line x1="235.96155559029432" x2="235.96155559029432" y1="20" y2="82"></line><line x1="239.00853049725006" x2="239.00853049725006" y1="20" y2="82"></line><line x1="241.73414242942926" x2="241.73414242942926" y1="20" y2="82"></line><line x1="259.6654349472651" x2="259.6654349472651" y1="20" y2="82"></line><line x1="270.154568659661" x2="270.154568659661" y1="20" y2="82"></line><line x1="277.5967274651011" x2="277.5967274651011" y1="20" y2="82"></line><line x1="283.369314304236" x2="283.369314304236" y1="20" y2="82"></line><line x1="288.08586117749695" x2="288.08586117749695" y1="20" y2="82"></line><line x1="292.07364473823054" x2="292.07364473823054" y1="20" y2="82"></line><line x1="295.52801998293694" x2="295.52801998293694" y1="20" y2="82"></line><line x1="298.57499488989276" x2="298.57499488989276" y1="20" y2="82"></line><line x1="301.3006068220719" x2="301.3006068220719" y1="20" y2="82"></line><line x1="319.23189933990784" x2="319.23189933990784" y1="20" y2="82"></line><line x1="329.7210330523037" x2="329.7210330523037" y1="20" y2="82"></line><line x1="337.1631918577437" x2="337.1631918577437" y1="20" y2="82"></line><line x1="342.9357786968787" x2="342.9357786968787" y1="20" y2="82"></line><line x1="347.6523255701397" x2="347.6523255701397" y1="20" y2="82"></line><line x1="351.64010913087327" x2="351.64010913087327" y1="20" y2="82"></line><line x1="355.09448437557967" x2="355.09448437557967" y1="20" y2="82"></line><line x1="358.14145928253544" x2="358.14145928253544" y1="20" y2="82"></line><line x1="360.86707121471454" x2="360.86707121471454" y1="20" y2="82"></line><line x1="378.7983637325505" x2="378.7983637325505" y1="20" y2="82"></line><line x1="389.2874974449464" x2="389.2874974449464" y1="20" y2="82"></line><line x1="396.7296562503864" x2="396.7296562503864" y1="20" y2="82"></line><line x1="402.50224308952136" x2="402.50224308952136" y1="20" y2="82"></line><line x1="407.21878996278224" x2="407.21878996278224" y1="20" y2="82"></line><line x1="411.20657352351594" x2="411.20657352351594" y1="20" y2="82"></line><line x1="414.6609487682224" x2="414.6609487682224" y1="20" y2="82"></line><line x1="417.70792367517817" x2="417.70792367517817" y1="20" y2="82"></line><line x1="420.4335356073573" x2="420.4335356073573" y1="20" y2="82"></line><line x1="438.3648281251931" x2="438.3648281251931" y1="20" y2="82"></line><line x1="448.85396183758905" x2="448.85396183758905" y1="20" y2="82"></line><line x1="456.29612064302916" x2="456.29612064302916" y1="20" y2="82"></line><line x1="462.06870748216403" x2="462.06870748216403" y1="20" y2="82"></line><line x1="466.78525435542497" x2="466.78525435542497" y1="20" y2="82"></line><line x1="470.7730379161586" x2="470.7730379161586" y1="20" y2="82"></line><line x1="474.22741316086496" x2="474.22741316086496" y1="20" y2="82"></line><line x1="477.2743880678208" x2="477.2743880678208" y1="20" y2="82"></line><line x1="480" x2="480" y1="20" y2="82"></line></g></g><g aria-label="y-axis tick" aria-hidden="true" transform="translate(0,3.5)"><g fill="none" stroke="currentColor" stroke-opacity="0.4" transform="translate(0,2)"><path transform="translate(110,23)" d="M0,0L-6,0"></path><path transform="translate(110,31)" d="M0,0L-6,0"></path><path transform="translate(110,39)" d="M0,0L-6,0"></path><path transform="translate(110,47)" d="M0,0L-6,0"></path><path transform="translate(110,55)" d="M0,0L-6,0"></path><path transform="translate(110,63)" d="M0,0L-6,0"></path><path transform="translate(110,71)" d="M0,0L-6,0"></path></g><g fill="none" stroke="currentColor" stroke-opacity="0.4" transform="translate(0,71)"><path transform="translate(110,23)" d="M0,0L-6,0"></path><path transform="translate(110,31)" d="M0,0L-6,0"></path><path transform="translate(110,39)" d="M0,0L-6,0"></path><path transform="translate(110,47)" d="M0,0L-6,0"></path><path transform="translate(110,55)" d="M0,0L-6,0"></path><path transform="translate(110,63)" d="M0,0L-6,0"></path><path transform="translate(110,71)" d="M0,0L-6,0"></path></g><g fill="none" stroke="currentColor" stroke-opacity="0.4" transform="translate(0,140)"><path transform="translate(110,23)" d="M0,0L-6,0"></path><path transform="translate(110,31)" d="M0,0L-6,0"></path><path transform="translate(110,39)" d="M0,0L-6,0"></path><path transform="translate(110,47)" d="M0,0L-6,0"></path><path transform="translate(110,55)" d="M0,0L-6,0"></path><path transform="translate(110,63)" d="M0,0L-6,0"></path><path transform="translate(110,71)" d="M0,0L-6,0"></path></g><g fill="none" stroke="currentColor" stroke-opacity="0.4" transform="translate(0,209)"><path transform="translate(110,23)" d="M0,0L-6,0"></path><path transform="translate(110,31)" d="M0,0L-6,0"></path><path transform="translate(110,39)" d="M0,0L-6,0"></path><path transform="translate(110,47)" d="M0,0L-6,0"></path><path transform="translate(110,55)" d="M0,0L-6,0"></path><path transform="translate(110,63)" d="M0,0L-6,0"></path><path transform="translate(110,71)" d="M0,0L-6,0"></path></g><g fill="none" stroke="currentColor" stroke-opacity="0.4" transform="translate(0,278)"><path transform="translate(110,23)" d="M0,0L-6,0"></path><path transform="translate(110,31)" d="M0,0L-6,0"></path><path transform="translate(110,39)" d="M0,0L-6,0"></path><path transform="translate(110,47)" d="M0,0L-6,0"></path><path transform="translate(110,55)" d="M0,0L-6,0"></path><path transform="translate(110,63)" d="M0,0L-6,0"></path><path transform="translate(110,71)" d="M0,0L-6,0"></path></g><g fill="none" stroke="currentColor" stroke-opacity="0.4" transform="translate(0,347)"><path transform="translate(110,23)" d="M0,0L-6,0"></path><path transform="translate(110,31)" d="M0,0L-6,0"></path><path transform="translate(110,39)" d="M0,0L-6,0"></path><path transform="translate(110,47)" d="M0,0L-6,0"></path><path transform="translate(110,55)" d="M0,0L-6,0"></path><path transform="translate(110,63)" d="M0,0L-6,0"></path><path transform="translate(110,71)" d="M0,0L-6,0"></path></g><g fill="none" stroke="currentColor" stroke-opacity="0.4" transform="translate(0,416)"><path transform="translate(110,23)" d="M0,0L-6,0"></path><path transform="translate(110,31)" d="M0,0L-6,0"></path><path transform="translate(110,39)" d="M0,0L-6,0"></path><path transform="translate(110,47)" d="M0,0L-6,0"></path><path transform="translate(110,55)" d="M0,0L-6,0"></path><path transform="translate(110,63)" d="M0,0L-6,0"></path><path transform="translate(110,71)" d="M0,0L-6,0"></path></g></g><g aria-label="y-axis tick label" transform="translate(-9,3.5)"><g fill-opacity="0.4" text-anchor="end" font-size="8" font-weight="700" transform="translate(0,2)"><text y="0.32em" transform="translate(110,23)">S1</text><text y="0.32em" transform="translate(110,31)">S2</text><text y="0.32em" transform="translate(110,39)">S3</text><text y="0.32em" transform="translate(110,47)">C1</text><text y="0.32em" transform="translate(110,55)">C2</text><text y="0.32em" transform="translate(110,63)">A1</text><text y="0.32em" transform="translate(110,71)">A2</text></g><g fill-opacity="0.4" text-anchor="end" font-size="8" font-weight="700" transform="translate(0,71)"><text y="0.32em" transform="translate(110,23)">S1</text><text y="0.32em" transform="translate(110,31)">S2</text><text y="0.32em" transform="translate(110,39)">S3</text><text y="0.32em" transform="translate(110,47)">C1</text><text y="0.32em" transform="translate(110,55)">C2</text><text y="0.32em" transform="translate(110,63)">A1</text><text y="0.32em" transform="translate(110,71)">A2</text></g><g fill-opacity="0.4" text-anchor="end" font-size="8" font-weight="700" transform="translate(0,140)"><text y="0.32em" transform="translate(110,23)">S1</text><text y="0.32em" transform="translate(110,31)">S2</text><text y="0.32em" transform="translate(110,39)">S3</text><text y="0.32em" transform="translate(110,47)">C1</text><text y="0.32em" transform="translate(110,55)">C2</text><text y="0.32em" transform="translate(110,63)">A1</text><text y="0.32em" transform="translate(110,71)">A2</text></g><g fill-opacity="0.4" text-anchor="end" font-size="8" font-weight="700" transform="translate(0,209)"><text y="0.32em" transform="translate(110,23)">S1</text><text y="0.32em" transform="translate(110,31)">S2</text><text y="0.32em" transform="translate(110,39)">S3</text><text y="0.32em" transform="translate(110,47)">C1</text><text y="0.32em" transform="translate(110,55)">C2</text><text y="0.32em" transform="translate(110,63)">A1</text><text y="0.32em" transform="translate(110,71)">A2</text></g><g fill-opacity="0.4" text-anchor="end" font-size="8" font-weight="700" transform="translate(0,278)"><text y="0.32em" transform="translate(110,23)">S1</text><text y="0.32em" transform="translate(110,31)">S2</text><text y="0.32em" transform="translate(110,39)">S3</text><text y="0.32em" transform="translate(110,47)">C1</text><text y="0.32em" transform="translate(110,55)">C2</text><text y="0.32em" transform="translate(110,63)">A1</text><text y="0.32em" transform="translate(110,71)">A2</text></g><g fill-opacity="0.4" text-anchor="end" font-size="8" font-weight="700" transform="translate(0,347)"><text y="0.32em" transform="translate(110,23)">S1</text><text y="0.32em" transform="translate(110,31)">S2</text><text y="0.32em" transform="translate(110,39)">S3</text><text y="0.32em" transform="translate(110,47)">C1</text><text y="0.32em" transform="translate(110,55)">C2</text><text y="0.32em" transform="translate(110,63)">A1</text><text y="0.32em" transform="translate(110,71)">A2</text></g><g fill-opacity="0.4" text-anchor="end" font-size="8" font-weight="700" transform="translate(0,416)"><text y="0.32em" transform="translate(110,23)">S1</text><text y="0.32em" transform="translate(110,31)">S2</text><text y="0.32em" transform="translate(110,39)">S3</text><text y="0.32em" transform="translate(110,47)">C1</text><text y="0.32em" transform="translate(110,55)">C2</text><text y="0.32em" transform="translate(110,63)">A1</text><text y="0.32em" transform="translate(110,71)">A2</text></g></g><g aria-label="bar"><g transform="translate(0,2)"><rect x="110" width="112.28598415447897" y="23" height="7" fill="#1b9e77"></rect><rect x="110" width="124.11662046174874" y="31" height="7" fill="#1b9e77"></rect><rect x="110" width="142.04343626551457" y="39" height="7" fill="#1b9e77"></rect><rect x="110" width="181.52488614861682" y="47" height="7" fill="#d95f02"></rect><rect x="110" width="185.36224407204827" y="55" height="7" fill="#d95f02"></rect><rect x="110" width="124.85344827836832" y="63" height="7" fill="#7570b3"></rect><rect x="110" width="126.00918898944548" y="71" height="7" fill="#7570b3"></rect></g><g transform="translate(0,71)"><rect x="110" width="58.841973795598705" y="23" height="7" fill="#1b9e77"></rect><rect x="110" width="42.983815071759125" y="31" height="7" fill="#1b9e77"></rect><rect x="110" width="34.469091619722064" y="39" height="7" fill="#1b9e77"></rect><rect x="110" width="72.52917448246262" y="47" height="7" fill="#d95f02"></rect><rect x="110" width="72.26208404567802" y="55" height="7" fill="#d95f02"></rect><rect x="110" width="4.42863583243907" y="63" height="7" fill="#7570b3"></rect><rect x="110" width="50.4259738771992" y="71" height="7" fill="#7570b3"></rect></g><g transform="translate(0,140)"><rect x="110" width="125.47435458501326" y="23" height="7" fill="#1b9e77"></rect><rect x="110" width="138.00240878028245" y="31" height="7" fill="#1b9e77"></rect><rect x="110" width="155.76174751835043" y="39" height="7" fill="#1b9e77"></rect><rect x="110" width="221.82179464094963" y="47" height="7" fill="#d95f02"></rect><rect x="110" width="222.52503572350713" y="55" height="7" fill="#d95f02"></rect><rect x="110" width="164.05695775956633" y="63" height="7" fill="#7570b3"></rect><rect x="110" width="300.3148870993973" y="71" height="7" fill="#7570b3"></rect></g><g transform="translate(0,209)"><rect x="110" width="58.841973795598705" y="23" height="7" fill="#1b9e77"></rect><rect x="110" width="42.983815071759125" y="31" height="7" fill="#1b9e77"></rect><rect x="110" width="34.469091619722064" y="39" height="7" fill="#1b9e77"></rect><rect x="110" width="72.52917448246262" y="47" height="7" fill="#d95f02"></rect><rect x="110" width="72.26208404567802" y="55" height="7" fill="#d95f02"></rect><rect x="110" width="4.42863583243907" y="63" height="7" fill="#7570b3"></rect><rect x="110" width="50.291819453167534" y="71" height="7" fill="#7570b3"></rect></g><g transform="translate(0,278)"><rect x="110" width="135.70992572478872" y="23" height="7" fill="#1b9e77"></rect><rect x="110" width="127.42402881349113" y="31" height="7" fill="#1b9e77"></rect><rect x="110" width="138.57647166128885" y="39" height="7" fill="#1b9e77"></rect><rect x="110" width="160.88551592693148" y="47" height="7" fill="#d95f02"></rect><rect x="110" width="163.4191017730754" y="55" height="7" fill="#d95f02"></rect><rect x="110" width="132.54118651603102" y="63" height="7" fill="#7570b3"></rect><rect x="110" width="120.49215289437049" y="71" height="7" fill="#7570b3"></rect></g><g transform="translate(0,347)"><rect x="110" width="149.46419755790464" y="23" height="7" fill="#1b9e77"></rect><rect x="110" width="155.91291106078233" y="31" height="7" fill="#1b9e77"></rect><rect x="110" width="160.3173841832069" y="39" height="7" fill="#1b9e77"></rect><rect x="110" width="157.36702607821132" y="47" height="7" fill="#d95f02"></rect><rect x="110" width="149.0190421192858" y="55" height="7" fill="#d95f02"></rect><rect x="110" width="160.2522393152413" y="63" height="7" fill="#7570b3"></rect><rect x="110" width="153.34837920401952" y="71" height="7" fill="#7570b3"></rect></g><g transform="translate(0,416)"><rect x="110" width="219.10499945641965" y="23" height="7" fill="#1b9e77"></rect><rect x="110" width="228.75029354426033" y="31" height="7" fill="#1b9e77"></rect><rect x="110" width="246.56040586998142" y="39" height="7" fill="#1b9e77"></rect><rect x="110" width="230.8689882929175" y="47" height="7" fill="#d95f02"></rect><rect x="110" width="233.46272187404008" y="55" height="7" fill="#d95f02"></rect><rect x="110" width="213.98767906342442" y="63" height="7" fill="#7570b3"></rect><rect x="110" width="217.0106974639101" y="71" height="7" fill="#7570b3"></rect></g></g><g aria-label="fy-axis tick label" transform="translate(-26,2)"><g text-anchor="end" font-size="15px" transform="translate(0,2)"><text transform="translate(110,51)">Eg-walker</text></g><g text-anchor="end" font-size="15px" transform="translate(0,71)"><text transform="translate(110,51)">Eg-walker</text></g><g text-anchor="end" font-size="15px" transform="translate(0,140)"><text transform="translate(110,51)">OT</text></g><g text-anchor="end" font-size="15px" transform="translate(0,209)"><text transform="translate(110,51)">OT</text></g><g text-anchor="end" font-size="15px" transform="translate(0,278)"><text transform="translate(110,51)">Ref CRDT</text></g><g text-anchor="end" font-size="15px" transform="translate(0,347)"><text transform="translate(110,51)">Yjs</text></g><g text-anchor="end" font-size="15px" transform="translate(0,416)"><text transform="translate(110,51)">Automerge</text></g></g><g aria-label="fy-axis tick label" transform="translate(-26,7)"><g fill-opacity="0.7" text-anchor="end" font-size="12" transform="translate(0,2)"><text y="0.781em" transform="translate(110,51)">(peak)</text></g><g fill-opacity="0.7" text-anchor="end" font-size="12" transform="translate(0,71)"><text y="0.781em" transform="translate(110,51)">(steady)</text></g><g fill-opacity="0.7" text-anchor="end" font-size="12" transform="translate(0,140)"><text y="0.781em" transform="translate(110,51)">(peak)</text></g><g fill-opacity="0.7" text-anchor="end" font-size="12" transform="translate(0,209)"><text y="0.781em" transform="translate(110,51)">(steady)</text></g><g fill-opacity="0.7" text-anchor="end" font-size="12" transform="translate(0,278)"><text y="0.781em" transform="translate(110,51)"></text></g><g fill-opacity="0.7" text-anchor="end" font-size="12" transform="translate(0,347)"><text y="0.781em" transform="translate(110,51)"></text></g><g fill-opacity="0.7" text-anchor="end" font-size="12" transform="translate(0,416)"><text y="0.781em" transform="translate(110,51)"></text></g></g><g aria-label="rule"><g stroke="#800000" stroke-opacity="0.5" transform="translate(0,2)"><line x1="-102.4498982818518" x2="-102.4498982818518" y1="20" y2="82"></line></g><g stroke="#800000" stroke-opacity="0.5" transform="translate(0,71)"><line x1="-102.4498982818518" x2="-102.4498982818518" y1="20" y2="82"></line></g><g stroke="#800000" stroke-opacity="0.5" transform="translate(0,140)"><line x1="-102.4498982818518" x2="-102.4498982818518" y1="20" y2="82"></line></g><g stroke="#800000" stroke-opacity="0.5" transform="translate(0,209)"><line x1="-102.4498982818518" x2="-102.4498982818518" y1="20" y2="82"></line></g><g stroke="#800000" stroke-opacity="0.5" transform="translate(0,278)"><line x1="-102.4498982818518" x2="-102.4498982818518" y1="20" y2="82"></line></g><g stroke="#800000" stroke-opacity="0.5" transform="translate(0,347)"><line x1="-102.4498982818518" x2="-102.4498982818518" y1="20" y2="82"></line></g><g stroke="#800000" stroke-opacity="0.5" transform="translate(0,416)"><line x1="-102.4498982818518" x2="-102.4498982818518" y1="20" y2="82"></line></g></g><g aria-label="tick"><g stroke="currentColor" transform="translate(0,2)"><line x1="222.28598415447897" x2="222.28598415447897" y1="23" y2="30"></line><line x1="234.11662046174874" x2="234.11662046174874" y1="31" y2="38"></line><line x1="252.04343626551457" x2="252.04343626551457" y1="39" y2="46"></line><line x1="291.5248861486168" x2="291.5248861486168" y1="47" y2="54"></line><line x1="295.36224407204827" x2="295.36224407204827" y1="55" y2="62"></line><line x1="234.85344827836832" x2="234.85344827836832" y1="63" y2="70"></line><line x1="236.00918898944548" x2="236.00918898944548" y1="71" y2="78"></line></g><g stroke="currentColor" transform="translate(0,71)"><line x1="168.8419737955987" x2="168.8419737955987" y1="23" y2="30"></line><line x1="152.98381507175912" x2="152.98381507175912" y1="31" y2="38"></line><line x1="144.46909161972206" x2="144.46909161972206" y1="39" y2="46"></line><line x1="182.52917448246262" x2="182.52917448246262" y1="47" y2="54"></line><line x1="182.26208404567802" x2="182.26208404567802" y1="55" y2="62"></line><line x1="114.42863583243907" x2="114.42863583243907" y1="63" y2="70"></line><line x1="160.4259738771992" x2="160.4259738771992" y1="71" y2="78"></line></g><g stroke="currentColor" transform="translate(0,140)"><line x1="235.47435458501326" x2="235.47435458501326" y1="23" y2="30"></line><line x1="248.00240878028245" x2="248.00240878028245" y1="31" y2="38"></line><line x1="265.76174751835043" x2="265.76174751835043" y1="39" y2="46"></line><line x1="331.82179464094963" x2="331.82179464094963" y1="47" y2="54"></line><line x1="332.52503572350713" x2="332.52503572350713" y1="55" y2="62"></line><line x1="274.05695775956633" x2="274.05695775956633" y1="63" y2="70"></line><line x1="410.3148870993973" x2="410.3148870993973" y1="71" y2="78"></line></g><g stroke="currentColor" transform="translate(0,209)"><line x1="168.8419737955987" x2="168.8419737955987" y1="23" y2="30"></line><line x1="152.98381507175912" x2="152.98381507175912" y1="31" y2="38"></line><line x1="144.46909161972206" x2="144.46909161972206" y1="39" y2="46"></line><line x1="182.52917448246262" x2="182.52917448246262" y1="47" y2="54"></line><line x1="182.26208404567802" x2="182.26208404567802" y1="55" y2="62"></line><line x1="114.42863583243907" x2="114.42863583243907" y1="63" y2="70"></line><line x1="160.29181945316753" x2="160.29181945316753" y1="71" y2="78"></line></g><g stroke="currentColor" transform="translate(0,278)"><line x1="245.70992572478872" x2="245.70992572478872" y1="23" y2="30"></line><line x1="237.42402881349113" x2="237.42402881349113" y1="31" y2="38"></line><line x1="248.57647166128885" x2="248.57647166128885" y1="39" y2="46"></line><line x1="270.8855159269315" x2="270.8855159269315" y1="47" y2="54"></line><line x1="273.4191017730754" x2="273.4191017730754" y1="55" y2="62"></line><line x1="242.54118651603102" x2="242.54118651603102" y1="63" y2="70"></line><line x1="230.4921528943705" x2="230.4921528943705" y1="71" y2="78"></line></g><g stroke="currentColor" transform="translate(0,347)"><line x1="259.46419755790464" x2="259.46419755790464" y1="23" y2="30"></line><line x1="265.91291106078233" x2="265.91291106078233" y1="31" y2="38"></line><line x1="270.3173841832069" x2="270.3173841832069" y1="39" y2="46"></line><line x1="267.3670260782113" x2="267.3670260782113" y1="47" y2="54"></line><line x1="259.0190421192858" x2="259.0190421192858" y1="55" y2="62"></line><line x1="270.2522393152413" x2="270.2522393152413" y1="63" y2="70"></line><line x1="263.3483792040195" x2="263.3483792040195" y1="71" y2="78"></line></g><g stroke="currentColor" transform="translate(0,416)"><line x1="329.10499945641965" x2="329.10499945641965" y1="23" y2="30"></line><line x1="338.75029354426033" x2="338.75029354426033" y1="31" y2="38"></line><line x1="356.5604058699814" x2="356.5604058699814" y1="39" y2="46"></line><line x1="340.8689882929175" x2="340.8689882929175" y1="47" y2="54"></line><line x1="343.4627218740401" x2="343.4627218740401" y1="55" y2="62"></line><line x1="323.9876790634244" x2="323.9876790634244" y1="63" y2="70"></line><line x1="327.0106974639101" x2="327.0106974639101" y1="71" y2="78"></line></g></g><g aria-label="text" transform="translate(6,3.5)"><g fill="black" text-anchor="start" font-size="8.5" transform="translate(0,2)"><text y="0.32em" transform="translate(222.28598415447897,23)">4.7 MiB</text><text y="0.32em" transform="translate(234.11662046174874,31)">7.4 MiB</text><text y="0.32em" transform="translate(252.04343626551457,39)">14.9 MiB</text><text y="0.32em" transform="translate(291.5248861486168,47)">68.5 MiB</text><text y="0.32em" transform="translate(295.36224407204827,55)">79.5 MiB</text><text y="0.32em" transform="translate(234.85344827836832,63)">7.7 MiB</text><text y="0.32em" transform="translate(236.00918898944548,71)">8 MiB</text></g><g fill="black" text-anchor="start" font-size="8.5" transform="translate(0,71)"><text y="0.32em" transform="translate(168.8419737955987,23)">597 KiB</text><text y="0.32em" transform="translate(152.98381507175912,31)">324 KiB</text><text y="0.32em" transform="translate(144.46909161972206,39)">233 KiB</text><text y="0.32em" transform="translate(182.52917448246262,47)">1 MiB</text><text y="0.32em" transform="translate(182.26208404567802,55)">1 MiB</text><text y="0.32em" transform="translate(114.42863583243907,63)">72.9 KiB</text><text y="0.32em" transform="translate(160.4259738771992,71)">432 KiB</text></g><g fill="black" text-anchor="start" font-size="8.5" transform="translate(0,140)"><text y="0.32em" transform="translate(235.47435458501326,23)">7.9 MiB</text><text y="0.32em" transform="translate(248.00240878028245,31)">12.7 MiB</text><text y="0.32em" transform="translate(265.76174751835043,39)">25.3 MiB</text><text y="0.32em" transform="translate(331.82179464094963,47)">325 MiB</text><text y="0.32em" transform="translate(332.52503572350713,55)">334 MiB</text><text y="0.32em" transform="translate(274.05695775956633,63)">34.9 MiB</text><text y="0.32em" transform="translate(410.3148870993973,71)">6.8 GiB</text></g><g fill="black" text-anchor="start" font-size="8.5" transform="translate(0,209)"><text y="0.32em" transform="translate(168.8419737955987,23)">597 KiB</text><text y="0.32em" transform="translate(152.98381507175912,31)">324 KiB</text><text y="0.32em" transform="translate(144.46909161972206,39)">233 KiB</text><text y="0.32em" transform="translate(182.52917448246262,47)">1 MiB</text><text y="0.32em" transform="translate(182.26208404567802,55)">1 MiB</text><text y="0.32em" transform="translate(114.42863583243907,63)">72.9 KiB</text><text y="0.32em" transform="translate(160.29181945316753,71)">429 KiB</text></g><g fill="black" text-anchor="start" font-size="8.5" transform="translate(0,278)"><text y="0.32em" transform="translate(245.70992572478872,23)">11.7 MiB</text><text y="0.32em" transform="translate(237.42402881349113,31)">8.5 MiB</text><text y="0.32em" transform="translate(248.57647166128885,39)">13 MiB</text><text y="0.32em" transform="translate(270.8855159269315,47)">30.9 MiB</text><text y="0.32em" transform="translate(273.4191017730754,55)">34 MiB</text><text y="0.32em" transform="translate(242.54118651603102,63)">10.3 MiB</text><text y="0.32em" transform="translate(230.4921528943705,71)">6.5 MiB</text></g><g fill="black" text-anchor="start" font-size="8.5" transform="translate(0,347)"><text y="0.32em" transform="translate(259.46419755790464,23)">19.8 MiB</text><text y="0.32em" transform="translate(265.91291106078233,31)">25.5 MiB</text><text y="0.32em" transform="translate(270.3173841832069,39)">30.2 MiB</text><text y="0.32em" transform="translate(267.3670260782113,47)">26.9 MiB</text><text y="0.32em" transform="translate(259.0190421192858,55)">19.5 MiB</text><text y="0.32em" transform="translate(270.2522393152413,63)">30.1 MiB</text><text y="0.32em" transform="translate(263.3483792040195,71)">23.1 MiB</text></g><g fill="black" text-anchor="start" font-size="8.5" transform="translate(0,416)"><text y="0.32em" transform="translate(329.10499945641965,23)">293 MiB</text><text y="0.32em" transform="translate(338.75029354426033,31)">425 MiB</text><text y="0.32em" transform="translate(356.5604058699814,39)">847 MiB</text><text y="0.32em" transform="translate(340.8689882929175,47)">462 MiB</text><text y="0.32em" transform="translate(343.4627218740401,55)">510 MiB</text><text y="0.32em" transform="translate(323.9876790634244,63)">240 MiB</text><text y="0.32em" transform="translate(327.0106974639101,71)">270 MiB</text></g></g><g aria-label="rule"><g stroke="currentColor" stroke-width="1.5" transform="translate(0,2)"><line x1="110" x2="110" y1="20" y2="82"></line></g><g stroke="currentColor" stroke-width="1.5" transform="translate(0,71)"><line x1="110" x2="110" y1="20" y2="82"></line></g><g stroke="currentColor" stroke-width="1.5" transform="translate(0,140)"><line x1="110" x2="110" y1="20" y2="82"></line></g><g stroke="currentColor" stroke-width="1.5" transform="translate(0,209)"><line x1="110" x2="110" y1="20" y2="82"></line></g><g stroke="currentColor" stroke-width="1.5" transform="translate(0,278)"><line x1="110" x2="110" y1="20" y2="82"></line></g><g stroke="currentColor" stroke-width="1.5" transform="translate(0,347)"><line x1="110" x2="110" y1="20" y2="82"></line></g><g stroke="currentColor" stroke-width="1.5" transform="translate(0,416)"><line x1="110" x2="110" y1="20" y2="82"></line></g></g></svg>