<svg class="plot-d6a7b5" fill="currentColor" font-family="system-ui, sans-serif" font-size="10" text-anchor="middle" width="500" height="500" viewBox="0 0 500 500" style="background: white; font-family: Helvetica Neue, Helvetica, Arial, sans-serif;" xmlns="http://www.w3.org/2000/svg" xmlns:xlink="http://www.w3.org/1999/xlink" version="1.1"><style>:where(.plot-d6a7b5) {
  --plot-background: white;
  display: block;
  height: auto;
  height: intrinsic;
  max-width: 100%;
}
:where(.plot-d6a7b5 text),
:where(.plot-d6a7b5 tspan) {
  white-space: pre;
}</style><g aria-label="x-grid" aria-hidden="true"><g stroke="currentColor" stroke-opacity="0.1" transform="translate(0,1)"><line x1="122.60121364414388" x2="122.60121364414388" y1="20" y2="79"></line><line x1="182.16767803678653" x2="182.16767803678653" y1="20" y2="79"></line><line x1="241.73414242942926" x2="241.73414242942926" y1="20" y2="79"></line><line x1="301.3006068220719" x2="301.3006068220719" y1="20" y2="79"></line><line x1="360.86707121471454" x2="360.86707121471454" y1="20" y2="79"></line><line x1="420.4335356073573" x2="420.4335356073573" y1="20" y2="79"></line><line x1="480" x2="480" y1="20" y2="79"></line></g><g stroke="currentColor" stroke-opacity="0.1" transform="translate(0,66)"><line x1="122.60121364414388" x2="122.60121364414388" y1="20" y2="79"></line><line x1="182.16767803678653" x2="182.16767803678653" y1="20" y2="79"></line><line x1="241.73414242942926" x2="241.73414242942926" y1="20" y2="79"></line><line x1="301.3006068220719" x2="301.3006068220719" y1="20" y2="79"></line><line x1="360.86707121471454" x2="360.86707121471454" y1="20" y2="79"></line><line x1="420.4335356073573" x2="420.4335356073573" y1="20" y2="79"></line><line x1="480" x2="480" y1="20" y2="79"></line></g><g stroke="currentColor" stroke-opacity="0.1" transform="translate(0,131)"><line x1="122.60121364414388" x2="122.60121364414388" y1="20" y2="79"></line><line x1="182.16767803678653" x2="182.16767803678653" y1="20" y2="79"></line><line x1="241.73414242942926" x2="241.73414242942926" y1="20" y2="79"></line><line x1="301.3006068220719" x2="301.3006068220719" y1="20" y2="79"></line><line x1="360.86707121471454" x2="360.86707121471454" y1="20" y2="79"></line><line x1="420.4335356073573" x2="420.4335356073573" y1="20" y2="79"></line><line x1="480" x2="480" y1="20" y2="79"></line></g><g stroke="currentColor" stroke-opacity="0.1" transform="translate(0,196)"><line x1="122.60121364414388" x2="122.60121364414388" y1="20" y2="79"></line><line x1="182.16767803678653" x2="182.16767803678653" y1="20" y2="79"></line><line x1="241.73414242942926" x2="241.73414242942926" y1="20" y2="79"></line><line x1="301.3006068220719" x2="301.3006068220719" y1="20" y2="79"></line><line x1="360.86707121471454" x2="360.86707121471454" y1="20" y2="79"></line><line x1="420.4335356073573" x2="420.4335356073573" y1="20" y2="79"></line><line x1="480" x2="480" y1="20" y2="79"></line></g><g stroke="currentColor" stroke-opacity="0.1" transform="translate(0,261)"><line x1="122.60121364414388" x2="122.60121364414388" y1="20" y2="79"></line><line x1="182.16767803678653" x2="182.16767803678653" y1="20" y2="79"></line><line x1="241.73414242942926" x2="241.73414242942926" y1="20" y2="79"></line><line x1="301.3006068220719" x2="301.3006068220719" y1="20" y2="79"></line><line x1="360.86707121471454" x2="360.86707121471454" y1="20" y2="79"></line><line x1="420.4335356073573" x2="420.4335356073573" y1="20" y2="79"></line><line x1="480" x2="480" y1="20" y2="79"></line></g><g stroke="currentColor" stroke-opacity="0.1" transform="translate(0,326)"><line x1="122.60121364414388" x2="122.60121364414388" y1="20" y2="79"></line><line x1="182.16767803678653" x2="182.16767803678653" y1="20" y2="79"></line><line x1="241.73414242942926" x2="241.73414242942926" y1="20" y2="79"></line><line x1="301.3006068220719" x2="301.3006068220719" y1="20" y2="79"></line><line x1="360.86707121471454" x2="360.86707121471454" y1="20" y2="79"></line><line x1="420.4335356073573" x2="420.4335356073573" y1="20" y2="79"></line><line x1="480" x2="480" y1="20" y2="79"></line></g><g stroke="currentColor" stroke-opacity="0.1" transform="translate(0,391)"><line x1="122.60121364414388" x2="122.60121364414388" y1="20" y2="79"></line><line x1="182.16767803678653" x2="182.16767803678653" y1="20" y2="79"></line><line x1="241.73414242942926" x2="241.73414242942926" y1="20" y2="79"></line><line x1="301.3006068220719" x2="301.3006068220719" y1="20" y2="79"></line><line x1="360.86707121471454" x2="360.86707121471454" y1="20" y2="79"></line><line x1="420.4335356073573" x2="420.4335356073573" y1="20" y2="79"></line><line x1="480" x2="480" y1="20" y2="79"></line></g></g><g aria-label="x-axis tick" aria-hidden="true"><g fill="none" stroke="currentColor" transform="translate(0,391)"><path transform="translate(122.60121364414388,79)" d="M0,0L0,6"></path><path transform="translate(182.16767803678653,79)" d="M0,0L0,6"></path><path transform="translate(241.73414242942926,79)" d="M0,0L0,6"></path><path transform="translate(301.3006068220719,79)" d="M0,0L0,6"></path><path transform="translate(360.86707121471454,79)" d="M0,0L0,6"></path><path transform="translate(420.4335356073573,79)" d="M0,0L0,6"></path><path transform="translate(480,79)" d="M0,0L0,6"></path></g></g><g aria-label="x-axis tick label" transform="translate(0,9)"><g font-variant="tabular-nums" transform="translate(0,391)"><text y="0.71em" transform="translate(122.60121364414388,79)">100 KiB</text><text y="0.71em" transform="translate(182.16767803678653,79)">1 MiB</text><text y="0.71em" transform="translate(241.73414242942926,79)">10 MiB</text><text y="0.71em" transform="translate(301.3006068220719,79)">100 MiB</text><text y="0.71em" transform="translate(360.86707121471454,79)">1 GiB</text><text y="0.71em" transform="translate(420.4335356073573,79)">10 GiB</text><text y="0.71em" transform="translate(480,79)">100 GiB</text></g></g><g aria-label="x-axis label" text-anchor="end" transform="translate(17,27)"><text transform="translate(480,470)">RAM used, log scale. (Less is better) →</text></g><g aria-label="x-grid" aria-hidden="true"><g stroke="currentColor" stroke-width="0.5" stroke-opacity="0.15" transform="translate(0,1)"><line x1="113.37425156030251" x2="113.37425156030251" y1="20" y2="79"></line><line x1="116.82862680500894" x2="116.82862680500894" y1="20" y2="79"></line><line x1="119.87560171196473" x2="119.87560171196473" y1="20" y2="79"></line><line x1="122.60121364414388" x2="122.60121364414388" y1="20" y2="79"></line><line x1="140.5325061619798" x2="140.5325061619798" y1="20" y2="79"></line><line x1="151.02163987437564" x2="151.02163987437564" y1="20" y2="79"></line><line x1="158.46379867981574" x2="158.46379867981574" y1="20" y2="79"></line><line x1="164.2363855189506" x2="164.2363855189506" y1="20" y2="79"></line><line x1="168.95293239221155" x2="168.95293239221155" y1="20" y2="79"></line><line x1="172.94071595294523" x2="172.94071595294523" y1="20" y2="79"></line><line x1="176.39509119765165" x2="176.39509119765165" y1="20" y2="79"></line><line x1="179.44206610460742" x2="179.44206610460742" y1="20" y2="79"></line><line x1="182.16767803678653" x2="182.16767803678653" y1="20" y2="79"></line><line x1="200.09897055462247" x2="200.09897055462247" y1="20" y2="79"></line><line x1="210.58810426701837" x2="210.58810426701837" y1="20" y2="79"></line><line x1="218.03026307245838" x2="218.03026307245838" y1="20" y2="79"></line><line x1="223.80284991159334" x2="223.80284991159334" y1="20" y2="79"></line><line x1="228.51939678485425" x2="228.51939678485425" y1="20" y2="79"></line><line x1="232.5071803455879" x2="232.5071803455879" y1="20" y2="79"></line><line x1="235.96155559029432" x2="235.96155559029432" y1="20" y2="79"></line><line x1="239.00853049725006" x2="239.00853049725006" y1="20" y2="79"></line><line x1="241.73414242942926" x2="241.73414242942926" y1="20" y2="79"></line><line x1="259.6654349472651" x2="259.6654349472651" y1="20" y2="79"></line><line x1="270.154568659661" x2="270.154568659661" y1="20" y2="79"></line><line x1="277.5967274651011" x2="277.5967274651011" y1="20" y2="79"></line><line x1="283.369314304236" x2="283.369314304236" y1="20" y2="79"></line><line x1="288.08586117749695" x2="288.08586117749695" y1="20" y2="79"></line><line x1="292.07364473823054" x2="292.07364473823054" y1="20" y2="79"></line><line x1="295.52801998293694" x2="295.52801998293694" y1="20" y2="79"></line><line x1="298.57499488989276" x2="298.57499488989276" y1="20" y2="79"></line><line x1="301.3006068220719" x2="301.3006068220719" y1="20" y2="79"></line><line x1="319.23189933990784" x2="319.23189933990784" y1="20" y2="79"></line><line x1="329.7210330523037" x2="329.7210330523037" y1="20" y2="79"></line><line x1="337.1631918577437" x2="337.1631918577437" y1="20" y2="79"></line><line x1="342.9357786968787" x2="342.9357786968787" y1="20" y2="79"></line><line x1="347.6523255701397" x2="347.6523255701397" y1="20" y2="79"></line><line x1="351.64010913087327" x2="351.64010913087327" y1="20" y2="79"></line><line x1="355.09448437557967" x2="355.09448437557967" y1="20" y2="79"></line><line x1="358.14145928253544" x2="358.14145928253544" y1="20" y2="79"></line><line x1="360.86707121471454" x2="360.86707121471454" y1="20" y2="79"></line><line x1="378.7983637325505" x2="378.7983637325505" y1="20" y2="79"></line><line x1="389.2874974449464" x2="389.2874974449464" y1="20" y2="79"></line><line x1="396.7296562503864" x2="396.7296562503864" y1="20" y2="79"></line><line x1="402.50224308952136" x2="402.50224308952136" y1="20" y2="79"></line><line x1="407.21878996278224" x2="407.21878996278224" y1="20" y2="79"></line><line x1="411.20657352351594" x2="411.20657352351594" y1="20" y2="79"></line><line x1="414.6609487682224" x2="414.6609487682224" y1="20" y2="79"></line><line x1="417.70792367517817" x2="417.70792367517817" y1="20" y2="79"></line><line x1="420.4335356073573" x2="420.4335356073573" y1="20" y2="79"></line><line x1="438.3648281251931" x2="438.3648281251931" y1="20" y2="79"></line><line x1="448.85396183758905" x2="448.85396183758905" y1="20" y2="79"></line><line x1="456.29612064302916" x2="456.29612064302916" y1="20" y2="79"></line><line x1="462.06870748216403" x2="462.06870748216403" y1="20" y2="79"></line><line x1="466.78525435542497" x2="466.78525435542497" y1="20" y2="79"></line><line x1="470.7730379161586" x2="470.7730379161586" y1="20" y2="79"></line><line x1="474.22741316086496" x2="474.22741316086496" y1="20" y2="79"></line><line x1="477.2743880678208" x2="477.2743880678208" y1="20" y2="79"></line><line x1="480" x2="480" y1="20" y2="79"></line></g><g stroke="currentColor" stroke-width="0.5" stroke-opacity="0.15" transform="translate(0,66)"><line x1="113.37425156030251" x2="113.37425156030251" y1="20" y2="79"></line><line x1="116.82862680500894" x2="116.82862680500894" y1="20" y2="79"></line><line x1="119.87560171196473" x2="119.87560171196473" y1="20" y2="79"></line><line x1="122.60121364414388" x2="122.60121364414388" y1="20" y2="79"></line><line x1="140.5325061619798" x2="140.5325061619798" y1="20" y2="79"></line><line x1="151.02163987437564" x2="151.02163987437564" y1="20" y2="79"></line><line x1="158.46379867981574" x2="158.46379867981574" y1="20" y2="79"></line><line x1="164.2363855189506" x2="164.2363855189506" y1="20" y2="79"></line><line x1="168.95293239221155" x2="168.95293239221155" y1="20" y2="79"></line><line x1="172.94071595294523" x2="172.94071595294523" y1="20" y2="79"></line><line x1="176.39509119765165" x2="176.39509119765165" y1="20" y2="79"></line><line x1="179.44206610460742" x2="179.44206610460742" y1="20" y2="79"></line><line x1="182.16767803678653" x2="182.16767803678653" y1="20" y2="79"></line><line x1="200.09897055462247" x2="200.09897055462247" y1="20" y2="79"></line><line x1="210.58810426701837" x2="210.58810426701837" y1="20" y2="79"></line><line x1="218.03026307245838" x2="218.03026307245838" y1="20" y2="79"></line><line x1="223.80284991159334" x2="223.80284991159334" y1="20" y2="79"></line><line x1="228.51939678485425" x2="228.51939678485425" y1="20" y2="79"></line><line x1="232.5071803455879" x2="232.5071803455879" y1="20" y2="79"></line><line x1="235.96155559029432" x2="235.96155559029432" y1="20" y2="79"></line><line x1="239.00853049725006" x2="239.00853049725006" y1="20" y2="79"></line><line x1="241.73414242942926" x2="241.73414242942926" y1="20" y2="79"></line><line x1="259.6654349472651" x2="259.6654349472651" y1="20" y2="79"></line><line x1="270.154568659661" x2="270.154568659661" y1="20" y2="79"></line><line x1="277.5967274651011" x2="277.5967274651011" y1="20" y2="79"></line><line x1="283.369314304236" x2="283.369314304236" y1="20" y2="79"></line><line x1="288.08586117749695" x2="288.08586117749695" y1="20" y2="79"></line><line x1="292.07364473823054" x2="292.07364473823054" y1="20" y2="79"></line><line x1="295.52801998293694" x2="295.52801998293694" y1="20" y2="79"></line><line x1="298.57499488989276" x2="298.57499488989276" y1="20" y2="79"></line><line x1="301.3006068220719" x2="301.3006068220719" y1="20" y2="79"></line><line x1="319.23189933990784" x2="319.23189933990784" y1="20" y2="79"></line><line x1="329.7210330523037" x2="329.7210330523037" y1="20" y2="79"></line><line x1="337.1631918577437" x2="337.1631918577437" y1="20" y2="79"></line><line x1="342.9357786968787" x2="342.9357786968787" y1="20" y2="79"></line><line x1="347.6523255701397" x2="347.6523255701397" y1="20" y2="79"></line><line x1="351.64010913087327" x2="351.64010913087327" y1="20" y2="79"></line><line x1="355.09448437557967" x2="355.09448437557967" y1="20" y2="79"></line><line x1="358.14145928253544" x2="358.14145928253544" y1="20" y2="79"></line><line x1="360.86707121471454" x2="360.86707121471454" y1="20" y2="79"></line><line x1="378.7983637325505" x2="378.7983637325505" y1="20" y2="79"></line><line x1="389.2874974449464" x2="389.2874974449464" y1="20" y2="79"></line><line x1="396.7296562503864" x2="396.7296562503864" y1="20" y2="79"></line><line x1="402.50224308952136" x2="402.50224308952136" y1="20" y2="79"></line><line x1="407.21878996278224" x2="407.21878996278224" y1="20" y2="79"></line><line x1="411.20657352351594" x2="411.20657352351594" y1="20" y2="79"></line><line x1="414.6609487682224" x2="414.6609487682224" y1="20" y2="79"></line><line x1="417.70792367517817" x2="417.70792367517817" y1="20" y2="79"></line><line x1="420.4335356073573" x2="420.4335356073573" y1="20" y2="79"></line><line x1="438.3648281251931" x2="438.3648281251931" y1="20" y2="79"></line><line x1="448.85396183758905" x2="448.85396183758905" y1="20" y2="79"></line><line x1="456.29612064302916" x2="456.29612064302916" y1="20" y2="79"></line><line x1="462.06870748216403" x2="462.06870748216403" y1="20" y2="79"></line><line x1="466.78525435542497" x2="466.78525435542497" y1="20" y2="79"></line><line x1="470.7730379161586" x2="470.7730379161586" y1="20" y2="79"></line><line x1="474.22741316086496" x2="474.22741316086496" y1="20" y2="79"></line><line x1="477.2743880678208" x2="477.2743880678208" y1="20" y2="79"></line><line x1="480" x2="480" y1="20" y2="79"></line></g><g stroke="currentColor" stroke-width="0.5" stroke-opacity="0.15" transform="translate(0,131)"><line x1="113.37425156030251" x2="113.37425156030251" y1="20" y2="79"></line><line x1="116.82862680500894" x2="116.82862680500894" y1="20" y2="79"></line><line x1="119.87560171196473" x2="119.87560171196473" y1="20" y2="79"></line><line x1="122.60121364414388" x2="122.60121364414388" y1="20" y2="79"></line><line x1="140.5325061619798" x2="140.5325061619798" y1="20" y2="79"></line><line x1="151.02163987437564" x2="151.02163987437564" y1="20" y2="79"></line><line x1="158.46379867981574" x2="158.46379867981574" y1="20" y2="79"></line><line x1="164.2363855189506" x2="164.2363855189506" y1="20" y2="79"></line><line x1="168.95293239221155" x2="168.95293239221155" y1="20" y2="79"></line><line x1="172.94071595294523" x2="172.94071595294523" y1="20" y2="79"></line><line x1="176.39509119765165" x2="176.39509119765165" y1="20" y2="79"></line><line x1="179.44206610460742" x2="179.44206610460742" y1="20" y2="79"></line><line x1="182.16767803678653" x2="182.16767803678653" y1="20" y2="79"></line><line x1="200.09897055462247" x2="200.09897055462247" y1="20" y2="79"></line><line x1="210.58810426701837" x2="210.58810426701837" y1="20" y2="79"></line><line x1="218.03026307245838" x2="218.03026307245838" y1="20" y2="79"></line><line x1="223.80284991159334" x2="223.80284991159334" y1="20" y2="79"></line><line x1="228.51939678485425" x2="228.51939678485425" y1="20" y2="79"></line><line x1="232.5071803455879" x2="232.5071803455879" y1="20" y2="79"></line><line x1="235.96155559029432" x2="235.96155559029432" y1="20" y2="79"></line><line x1="239.00853049725006" x2="239.00853049725006" y1="20" y2="79"></line><line x1="241.73414242942926" x2="241.73414242942926" y1="20" y2="79"></line><line x1="259.6654349472651" x2="259.6654349472651" y1="20" y2="79"></line><line x1="270.154568659661" x2="270.154568659661" y1="20" y2="79"></line><line x1="277.5967274651011" x2="277.5967274651011" y1="20" y2="79"></line><line x1="283.369314304236" x2="283.369314304236" y1="20" y2="79"></line><line x1="288.08586117749695" x2="288.08586117749695" y1="20" y2="79"></line><line x1="292.07364473823054" x2="292.07364473823054" y1="20" y2="79"></line><line x1="295.52801998293694" x2="295.52801998293694" y1="20" y2="79"></line><line x1="298.57499488989276" x2="298.57499488989276" y1="20" y2="79"></line><line x1="301.3006068220719" x2="301.3006068220719" y1="20" y2="79"></line><line x1="319.23189933990784" x2="319.23189933990784" y1="20" y2="79"></line><line x1="329.7210330523037" x2="329.7210330523037" y1="20" y2="79"></line><line x1="337.1631918577437" x2="337.1631918577437" y1="20" y2="79"></line><line x1="342.9357786968787" x2="342.9357786968787" y1="20" y2="79"></line><line x1="347.6523255701397" x2="347.6523255701397" y1="20" y2="79"></line><line x1="351.64010913087327" x2="351.64010913087327" y1="20" y2="79"></line><line x1="355.09448437557967" x2="355.09448437557967" y1="20" y2="79"></line><line x1="358.14145928253544" x2="358.14145928253544" y1="20" y2="79"></line><line x1="360.86707121471454" x2="360.86707121471454" y1="20" y2="79"></line><line x1="378.7983637325505" x2="378.7983637325505" y1="20" y2="79"></line><line x1="389.2874974449464" x2="389.2874974449464" y1="20" y2="79"></line><line x1="396.7296562503864" x2="396.7296562503864" y1="20" y2="79"></line><line x1="402.50224308952136" x2="402.50224308952136" y1="20" y2="79"></line><line x1="407.21878996278224" x2="407.21878996278224" y1="20" y2="79"></line><line x1="411.20657352351594" x2="411.20657352351594" y1="20" y2="79"></line><line x1="414.6609487682224" x2="414.6609487682224" y1="20" y2="79"></line><line x1="417.70792367517817" x2="417.70792367517817" y1="20" y2="79"></line><line x1="420.4335356073573" x2="420.4335356073573" y1="20" y2="79"></line><line x1="438.3648281251931" x2="438.3648281251931" y1="20" y2="79"></line><line x1="448.85396183758905" x2="448.85396183758905" y1="20" y2="79"></line><line x1="456.29612064302916" x2="456.29612064302916" y1="20" y2="79"></line><line x1="462.06870748216403" x2="462.06870748216403" y1="20" y2="79"></line><line x1="466.78525435542497" x2="466.78525435542497" y1="20" y2="79"></line><line x1="470.7730379161586" x2="470.7730379161586" y1="20" y2="79"></line><line x1="474.22741316086496" x2="474.22741316086496" y1="20" y2="79"></line><line x1="477.2743880678208" x2="477.2743880678208" y1="20" y2="79"></line><line x1="480" x2="480" y1="20" y2="79"></line></g><g stroke="currentColor" stroke-width="0.5" stroke-opacity="0.15" transform="translate(0,196)"><line x1="113.37425156030251" x2="113.37425156030251" y1="20" y2="79"></line><line x1="116.82862680500894" x2="116.82862680500894" y1="20" y2="79"></line><line x1="119.87560171196473" x2="119.87560171196473" y1="20" y2="79"></line><line x1="122.60121364414388" x2="122.60121364414388" y1="20" y2="79"></line><line x1="140.5325061619798" x2="140.5325061619798" y1="20" y2="79"></line><line x1="151.02163987437564" x2="151.02163987437564" y1="20" y2="79"></line><line x1="158.46379867981574" x2="158.46379867981574" y1="20" y2="79"></line><line x1="164.2363855189506" x2="164.2363855189506" y1="20" y2="79"></line><line x1="168.95293239221155" x2="168.95293239221155" y1="20" y2="79"></line><line x1="172.94071595294523" x2="172.94071595294523" y1="20" y2="79"></line><line x1="176.39509119765165" x2="176.39509119765165" y1="20" y2="79"></line><line x1="179.44206610460742" x2="179.44206610460742" y1="20" y2="79"></line><line x1="182.16767803678653" x2="182.16767803678653" y1="20" y2="79"></line><line x1="200.09897055462247" x2="200.09897055462247" y1="20" y2="79"></line><line x1="210.58810426701837" x2="210.58810426701837" y1="20" y2="79"></line><line x1="218.03026307245838" x2="218.03026307245838" y1="20" y2="79"></line><line x1="223.80284991159334" x2="223.80284991159334" y1="20" y2="79"></line><line x1="228.51939678485425" x2="228.51939678485425" y1="20" y2="79"></line><line x1="232.5071803455879" x2="232.5071803455879" y1="20" y2="79"></line><line x1="235.96155559029432" x2="235.96155559029432" y1="20" y2="79"></line><line x1="239.00853049725006" x2="239.00853049725006" y1="20" y2="79"></line><line x1="241.73414242942926" x2="241.73414242942926" y1="20" y2="79"></line><line x1="259.6654349472651" x2="259.6654349472651" y1="20" y2="79"></line><line x1="270.154568659661" x2="270.154568659661" y1="20" y2="79"></line><line x1="277.5967274651011" x2="277.5967274651011" y1="20" y2="79"></line><line x1="283.369314304236" x2="283.369314304236" y1="20" y2="79"></line><line x1="288.08586117749695" x2="288.08586117749695" y1="20" y2="79"></line><line x1="292.07364473823054" x2="292.07364473823054" y1="20" y2="79"></line><line x1="295.52801998293694" x2="295.52801998293694" y1="20" y2="79"></line><line x1="298.57499488989276" x2="298.57499488989276" y1="20" y2="79"></line><line x1="301.3006068220719" x2="301.3006068220719" y1="20" y2="79"></line><line x1="319.23189933990784" x2="319.23189933990784" y1="20" y2="79"></line><line x1="329.7210330523037" x2="329.7210330523037" y1="20" y2="79"></line><line x1="337.1631918577437" x2="337.1631918577437" y1="20" y2="79"></line><line x1="342.9357786968787" x2="342.9357786968787" y1="20" y2="79"></line><line x1="347.6523255701397" x2="347.6523255701397" y1="20" y2="79"></line><line x1="351.64010913087327" x2="351.64010913087327" y1="20" y2="79"></line><line x1="355.09448437557967" x2="355.09448437557967" y1="20" y2="79"></line><line x1="358.14145928253544" x2="358.14145928253544" y1="20" y2="79"></line><line x1="360.86707121471454" x2="360.86707121471454" y1="20" y2="79"></line><line x1="378.7983637325505" x2="378.7983637325505" y1="20" y2="79"></line><line x1="389.2874974449464" x2="389.2874974449464" y1="20" y2="79"></line><line x1="396.7296562503864" x2="396.7296562503864" y1="20" y2="79"></line><line x1="402.50224308952136" x2="402.50224308952136" y1="20" y2="79"></line><line x1="407.21878996278224" x2="407.21878996278224" y1="20" y2="79"></line><line x1="411.20657352351594" x2="411.20657352351594" y1="20" y2="79"></line><line x1="414.6609487682224" x2="414.6609487682224" y1="20" y2="79"></line><line x1="417.70792367517817" x2="417.70792367517817" y1="20" y2="79"></line><line x1="420.4335356073573" x2="420.4335356073573" y1="20" y2="79"></line><line x1="438.3648281251931" x2="438.3648281251931" y1="20" y2="79"></line><line x1="448.85396183758905" x2="448.85396183758905" y1="20" y2="79"></line><line x1="456.29612064302916" x2="456.29612064302916" y1="20" y2="79"></line><line x1="462.06870748216403" x2="462.06870748216403" y1="20" y2="79"></line><line x1="466.78525435542497" x2="466.78525435542497" y1="20" y2="79"></line><line x1="470.7730379161586" x2="470.7730379161586" y1="20" y2="79"></line><line x1="474.22741316086496" x2="474.22741316086496" y1="20" y2="79"></line><line x1="477.2743880678208" x2="477.2743880678208" y1="20" y2="79"></line><line x1="480" x2="480" y1="20" y2="79"></line></g><g stroke="currentColor" stroke-width="0.5" stroke-opacity="0.15" transform="translate(0,261)"><line x1="113.37425156030251" x2="113.37425156030251" y1="20" y2="79"></line><line x1="116.82862680500894" x2="116.82862680500894" y1="20" y2="79"></line><line x1="119.87560171196473" x2="119.87560171196473" y1="20" y2="79"></line><line x1="122.60121364414388" x2="122.60121364414388" y1="20" y2="79"></line><line x1="140.5325061619798" x2="140.5325061619798" y1="20" y2="79"></line><line x1="151.02163987437564" x2="151.02163987437564" y1="20" y2="79"></line><line x1="158.46379867981574" x2="158.46379867981574" y1="20" y2="79"></line><line x1="164.2363855189506" x2="164.2363855189506" y1="20" y2="79"></line><line x1="168.95293239221155" x2="168.95293239221155" y1="20" y2="79"></line><line x1="172.94071595294523" x2="172.94071595294523" y1="20" y2="79"></line><line x1="176.39509119765165" x2="176.39509119765165" y1="20" y2="79"></line><line x1="179.44206610460742" x2="179.44206610460742" y1="20" y2="79"></line><line x1="182.16767803678653" x2="182.16767803678653" y1="20" y2="79"></line><line x1="200.09897055462247" x2="200.09897055462247" y1="20" y2="79"></line><line x1="210.58810426701837" x2="210.58810426701837" y1="20" y2="79"></line><line x1="218.03026307245838" x2="218.03026307245838" y1="20" y2="79"></line><line x1="223.80284991159334" x2="223.80284991159334" y1="20" y2="79"></line><line x1="228.51939678485425" x2="228.51939678485425" y1="20" y2="79"></line><line x1="232.5071803455879" x2="232.5071803455879" y1="20" y2="79"></line><line x1="235.96155559029432" x2="235.96155559029432" y1="20" y2="79"></line><line x1="239.00853049725006" x2="239.00853049725006" y1="20" y2="79"></line><line x1="241.73414242942926" x2="241.73414242942926" y1="20" y2="79"></line><line x1="259.6654349472651" x2="259.6654349472651" y1="20" y2="79"></line><line x1="270.154568659661" x2="270.154568659661" y1="20" y2="79"></line><line x1="277.5967274651011" x2="277.5967274651011" y1="20" y2="79"></line><line x1="283.369314304236" x2="283.369314304236" y1="20" y2="79"></line><line x1="288.08586117749695" x2="288.08586117749695" y1="20" y2="79"></line><line x1="292.07364473823054" x2="292.07364473823054" y1="20" y2="79"></line><line x1="295.52801998293694" x2="295.52801998293694" y1="20" y2="79"></line><line x1="298.57499488989276" x2="298.57499488989276" y1="20" y2="79"></line><line x1="301.3006068220719" x2="301.3006068220719" y1="20" y2="79"></line><line x1="319.23189933990784" x2="319.23189933990784" y1="20" y2="79"></line><line x1="329.7210330523037" x2="329.7210330523037" y1="20" y2="79"></line><line x1="337.1631918577437" x2="337.1631918577437" y1="20" y2="79"></line><line x1="342.9357786968787" x2="342.9357786968787" y1="20" y2="79"></line><line x1="347.6523255701397" x2="347.6523255701397" y1="20" y2="79"></line><line x1="351.64010913087327" x2="351.64010913087327" y1="20" y2="79"></line><line x1="355.09448437557967" x2="355.09448437557967" y1="20" y2="79"></line><line x1="358.14145928253544" x2="358.14145928253544" y1="20" y2="79"></line><line x1="360.86707121471454" x2="360.86707121471454" y1="20" y2="79"></line><line x1="378.7983637325505" x2="378.7983637325505" y1="20" y2="79"></line><line x1="389.2874974449464" x2="389.2874974449464" y1="20" y2="79"></line><line x1="396.7296562503864" x2="396.7296562503864" y1="20" y2="79"></line><line x1="402.50224308952136" x2="402.50224308952136" y1="20" y2="79"></line><line x1="407.21878996278224" x2="407.21878996278224" y1="20" y2="79"></line><line x1="411.20657352351594" x2="411.20657352351594" y1="20" y2="79"></line><line x1="414.6609487682224" x2="414.6609487682224" y1="20" y2="79"></line><line x1="417.70792367517817" x2="417.70792367517817" y1="20" y2="79"></line><line x1="420.4335356073573" x2="420.4335356073573" y1="20" y2="79"></line><line x1="438.3648281251931" x2="438.3648281251931" y1="20" y2="79"></line><line x1="448.85396183758905" x2="448.85396183758905" y1="20" y2="79"></line><line x1="456.29612064302916" x2="456.29612064302916" y1="20" y2="79"></line><line x1="462.06870748216403" x2="462.06870748216403" y1="20" y2="79"></line><line x1="466.78525435542497" x2="466.78525435542497" y1="20" y2="79"></line><line x1="470.7730379161586" x2="470.7730379161586" y1="20" y2="79"></line><line x1="474.22741316086496" x2="474.22741316086496" y1="20" y2="79"></line><line x1="477.2743880678208" x2="477.2743880678208" y1="20" y2="79"></line><line x1="480" x2="480" y1="20" y2="79"></line></g><g stroke="currentColor" stroke-width="0.5" stroke-opacity="0.15" transform="translate(0,326)"><line x1="113.37425156030251" x2="113.37425156030251" y1="20" y2="79"></line><line x1="116.82862680500894" x2="116.82862680500894" y1="20" y2="79"></line><line x1="119.87560171196473" x2="119.87560171196473" y1="20" y2="79"></line><line x1="122.60121364414388" x2="122.60121364414388" y1="20" y2="79"></line><line x1="140.5325061619798" x2="140.5325061619798" y1="20" y2="79"></line><line x1="151.02163987437564" x2="151.02163987437564" y1="20" y2="79"></line><line x1="158.46379867981574" x2="158.46379867981574" y1="20" y2="79"></line><line x1="164.2363855189506" x2="164.2363855189506" y1="20" y2="79"></line><line x1="168.95293239221155" x2="168.95293239221155" y1="20" y2="79"></line><line x1="172.94071595294523" x2="172.94071595294523" y1="20" y2="79"></line><line x1="176.39509119765165" x2="176.39509119765165" y1="20" y2="79"></line><line x1="179.44206610460742" x2="179.44206610460742" y1="20" y2="79"></line><line x1="182.16767803678653" x2="182.16767803678653" y1="20" y2="79"></line><line x1="200.09897055462247" x2="200.09897055462247" y1="20" y2="79"></line><line x1="210.58810426701837" x2="210.58810426701837" y1="20" y2="79"></line><line x1="218.03026307245838" x2="218.03026307245838" y1="20" y2="79"></line><line x1="223.80284991159334" x2="223.80284991159334" y1="20" y2="79"></line><line x1="228.51939678485425" x2="228.51939678485425" y1="20" y2="79"></line><line x1="232.5071803455879" x2="232.5071803455879" y1="20" y2="79"></line><line x1="235.96155559029432" x2="235.96155559029432" y1="20" y2="79"></line><line x1="239.00853049725006" x2="239.00853049725006" y1="20" y2="79"></line><line x1="241.73414242942926" x2="241.73414242942926" y1="20" y2="79"></line><line x1="259.6654349472651" x2="259.6654349472651" y1="20" y2="79"></line><line x1="270.154568659661" x2="270.154568659661" y1="20" y2="79"></line><line x1="277.5967274651011" x2="277.5967274651011" y1="20" y2="79"></line><line x1="283.369314304236" x2="283.369314304236" y1="20" y2="79"></line><line x1="288.08586117749695" x2="288.08586117749695" y1="20" y2="79"></line><line x1="292.07364473823054" x2="292.07364473823054" y1="20" y2="79"></line><line x1="295.52801998293694" x2="295.52801998293694" y1="20" y2="79"></line><line x1="298.57499488989276" x2="298.57499488989276" y1="20" y2="79"></line><line x1="301.3006068220719" x2="301.3006068220719" y1="20" y2="79"></line><line x1="319.23189933990784" x2="319.23189933990784" y1="20" y2="79"></line><line x1="329.7210330523037" x2="329.7210330523037" y1="20" y2="79"></line><line x1="337.1631918577437" x2="337.1631918577437" y1="20" y2="79"></line><line x1="342.9357786968787" x2="342.9357786968787" y1="20" y2="79"></line><line x1="347.6523255701397" x2="347.6523255701397" y1="20" y2="79"></line><line x1="351.64010913087327" x2="351.64010913087327" y1="20" y2="79"></line><line x1="355.09448437557967" x2="355.09448437557967" y1="20" y2="79"></line><line x1="358.14145928253544" x2="358.14145928253544" y1="20" y2="79"></line><line x1="360.86707121471454" x2="360.86707121471454" y1="20" y2="79"></line><line x1="378.7983637325505" x2="378.7983637325505" y1="20" y2="79"></line><line x1="389.2874974449464" x2="389.2874974449464" y1="20" y2="79"></line><line x1="396.7296562503864" x2="396.7296562503864" y1="20" y2="79"></line><line x1="402.50224308952136" x2="402.50224308952136" y1="20" y2="79"></line><line x1="407.21878996278224" x2="407.21878996278224" y1="20" y2="79"></line><line x1="411.20657352351594" x2="411.20657352351594" y1="20" y2="79"></line><line x1="414.6609487682224" x2="414.6609487682224" y1="20" y2="79"></line><line x1="417.70792367517817" x2="417.70792367517817" y1="20" y2="79"></line><line x1="420.4335356073573" x2="420.4335356073573" y1="20" y2="79"></line><line x1="438.3648281251931" x2="438.3648281251931" y1="20" y2="79"></line><line x1="448.85396183758905" x2="448.85396183758905" y1="20" y2="79"></line><line x1="456.29612064302916" x2="456.29612064302916" y1="20" y2="79"></line><line x1="462.06870748216403" x2="462.06870748216403" y1="20" y2="79"></line><line x1="466.78525435542497" x2="466.78525435542497" y1="20" y2="79"></line><line x1="470.7730379161586" x2="470.7730379161586" y1="20" y2="79"></line><line x1="474.22741316086496" x2="474.22741316086496" y1="20" y2="79"></line><line x1="477.2743880678208" x2="477.2743880678208" y1="20" y2="79"></line><line x1="480" x2="480" y1="20" y2="79"></line></g><g stroke="currentColor" stroke-width="0.5" stroke-opacity="0.15" transform="translate(0,391)"><line x1="113.37425156030251" x2="113.37425156030251" y1="20" y2="79"></line><line x1="116.82862680500894" x2="116.82862680500894" y1="20" y2="79"></line><line x1="119.87560171196473" x2="119.87560171196473" y1="20" y2="79"></line><line x1="122.60121364414388" x2="122.60121364414388" y1="20" y2="79"></line><line x1="140.5325061619798" x2="140.5325061619798" y1="20" y2="79"></line><line x1="151.02163987437564" x2="151.02163987437564" y1="20" y2="79"></line><line x1="158.46379867981574" x2="158.46379867981574" y1="20" y2="79"></line><line x1="164.2363855189506" x2="164.2363855189506" y1="20" y2="79"></line><line x1="168.95293239221155" x2="168.95293239221155" y1="20" y2="79"></line><line x1="172.94071595294523" x2="172.94071595294523" y1="20" y2="79"></line><line x1="176.39509119765165" x2="176.39509119765165" y1="20" y2="79"></line><line x1="179.44206610460742" x2="179.44206610460742" y1="20" y2="79"></line><line x1="182.16767803678653" x2="182.16767803678653" y1="20" y2="79"></line><line x1="200.09897055462247" x2="200.09897055462247" y1="20" y2="79"></line><line x1="210.58810426701837" x2="210.58810426701837" y1="20" y2="79"></line><line x1="218.03026307245838" x2="218.03026307245838" y1="20" y2="79"></line><line x1="223.80284991159334" x2="223.80284991159334" y1="20" y2="79"></line><line x1="228.51939678485425" x2="228.51939678485425" y1="20" y2="79"></line><line x1="232.5071803455879" x2="232.5071803455879" y1="20" y2="79"></line><line x1="235.96155559029432" x2="235.96155559029432" y1="20" y2="79"></line><line x1="239.00853049725006" x2="239.00853049725006" y1="20" y2="79"></line><line x1="241.73414242942926" x2="241.73414242942926" y1="20" y2="79"></line><line x1="259.6654349472651" x2="259.6654349472651" y1="20" y2="79"></line><line x1="270.154568659661" x2="270.154568659661" y1="20" y2="79"></line><line x1="277.5967274651011" x2="277.5967274651011" y1="20" y2="79"></line><line x1="283.369314304236" x2="283.369314304236" y1="20" y2="79"></line><line x1="288.08586117749695" x2="288.08586117749695" y1="20" y2="79"></line><line x1="292.07364473823054" x2="292.07364473823054" y1="20" y2="79"></line><line x1="295.52801998293694" x2="295.52801998293694" y1="20" y2="79"></line><line x1="298.57499488989276" x2="298.57499488989276" y1="20" y2="79"></line><line x1="301.3006068220719" x2="301.3006068220719" y1="20" y2="79"></line><line x1="319.23189933990784" x2="319.23189933990784" y1="20" y2="79"></line><line x1="329.7210330523037" x2="329.7210330523037" y1="20" y2="79"></line><line x1="337.1631918577437" x2="337.1631918577437" y1="20" y2="79"></line><line x1="342.9357786968787" x2="342.9357786968787" y1="20" y2="79"></line><line x1="347.6523255701397" x2="347.6523255701397" y1="20" y2="79"></line><line x1="351.64010913087327" x2="351.64010913087327" y1="20" y2="79"></line><line x1="355.09448437557967" x2="355.09448437557967" y1="20" y2="79"></line><line x1="358.14145928253544" x2="358.14145928253544" y1="20" y2="79"></line><line x1="360.86707121471454" x2="360.86707121471454" y1="20" y2="79"></line><line x1="378.7983637325505" x2="378.7983637325505" y1="20" y2="79"></line><line x1="389.2874974449464" x2="389.2874974449464" y1="20" y2="79"></line><line x1="396.7296562503864" x2="396.7296562503864" y1="20" y2="79"></line><line x1="402.50224308952136" x2="402.50224308952136" y1="20" y2="79"></line><line x1="407.21878996278224" x2="407.21878996278224" y1="20" y2="79"></line><line x1="411.20657352351594" x2="411.20657352351594" y1="20" y2="79"></line><line x1="414.6609487682224" x2="414.6609487682224" y1="20" y2="79"></line><line x1="417.70792367517817" x2="417.70792367517817" y1="20" y2="79"></line><line x1="420.4335356073573" x2="420.4335356073573" y1="20" y2="79"></line><line x1="438.3648281251931" x2="438.3648281251931" y1="20" y2="79"></line><line x1="448.85396183758905" x2="448.85396183758905" y1="20" y2="79"></line><line x1="456.29612064302916" x2="456.29612064302916" y1="20" y2="79"></line><line x1="462.06870748216403" x2="462.06870748216403" y1="20" y2="79"></line><line x1="466.78525435542497" x2="466.78525435542497" y1="20" y2="79"></line><line x1="470.7730379161586" x2="470.7730379161586" y1="20" y2="79"></line><line x1="474.22741316086496" x2="474.22741316086496" y1="20" y2="79"></line><line x1="477.2743880678208" x2="477.2743880678208" y1="20" y2="79"></line><line x1="480" x2="480" y1="20" y2="79"></line></g></g><g aria-label="y-axis tick" aria-hidden="true" transform="translate(0,3.5)"><g fill="none" stroke="currentColor" transform="translate(0,1)"><path transform="translate(110,22)" d="M0,0L-6,0"></path><path transform="translate(110,30)" d="M0,0L-6,0"></path><path transform="translate(110,38)" d="M0,0L-6,0"></path><path transform="translate(110,46)" d="M0,0L-6,0"></path><path transform="translate(110,54)" d="M0,0L-6,0"></path><path transform="translate(110,62)" d="M0,0L-6,0"></path><path transform="translate(110,70)" d="M0,0L-6,0"></path></g><g fill="none" stroke="currentColor" transform="translate(0,66)"><path transform="translate(110,22)" d="M0,0L-6,0"></path><path transform="translate(110,30)" d="M0,0L-6,0"></path><path transform="translate(110,38)" d="M0,0L-6,0"></path><path transform="translate(110,46)" d="M0,0L-6,0"></path><path transform="translate(110,54)" d="M0,0L-6,0"></path><path transform="translate(110,62)" d="M0,0L-6,0"></path><path transform="translate(110,70)" d="M0,0L-6,0"></path></g><g fill="none" stroke="currentColor" transform="translate(0,131)"><path transform="translate(110,22)" d="M0,0L-6,0"></path><path transform="translate(110,30)" d="M0,0L-6,0"></path><path transform="translate(110,38)" d="M0,0L-6,0"></path><path transform="translate(110,46)" d="M0,0L-6,0"></path><path transform="translate(110,54)" d="M0,0L-6,0"></path><path transform="translate(110,62)" d="M0,0L-6,0"></path><path transform="translate(110,70)" d="M0,0L-6,0"></path></g><g fill="none" stroke="currentColor" transform="translate(0,196)"><path transform="translate(110,22)" d="M0,0L-6,0"></path><path transform="translate(110,30)" d="M0,0L-6,0"></path><path transform="translate(110,38)" d="M0,0L-6,0"></path><path transform="translate(110,46)" d="M0,0L-6,0"></path><path transform="translate(110,54)" d="M0,0L-6,0"></path><path transform="translate(110,62)" d="M0,0L-6,0"></path><path transform="translate(110,70)" d="M0,0L-6,0"></path></g><g fill="none" stroke="currentColor" transform="translate(0,261)"><path transform="translate(110,22)" d="M0,0L-6,0"></path><path transform="translate(110,30)" d="M0,0L-6,0"></path><path transform="translate(110,38)" d="M0,0L-6,0"></path><path transform="translate(110,46)" d="M0,0L-6,0"></path><path transform="translate(110,54)" d="M0,0L-6,0"></path><path transform="translate(110,62)" d="M0,0L-6,0"></path><path transform="translate(110,70)" d="M0,0L-6,0"></path></g><g fill="none" stroke="currentColor" transform="translate(0,326)"><path transform="translate(110,22)" d="M0,0L-6,0"></path><path transform="translate(110,30)" d="M0,0L-6,0"></path><path transform="translate(110,38)" d="M0,0L-6,0"></path><path transform="translate(110,46)" d="M0,0L-6,0"></path><path transform="translate(110,54)" d="M0,0L-6,0"></path><path transform="translate(110,62)" d="M0,0L-6,0"></path><path transform="translate(110,70)" d="M0,0L-6,0"></path></g><g fill="none" stroke="currentColor" transform="translate(0,391)"><path transform="translate(110,22)" d="M0,0L-6,0"></path><path transform="translate(110,30)" d="M0,0L-6,0"></path><path transform="translate(110,38)" d="M0,0L-6,0"></path><path transform="translate(110,46)" d="M0,0L-6,0"></path><path transform="translate(110,54)" d="M0,0L-6,0"></path><path transform="translate(110,62)" d="M0,0L-6,0"></path><path transform="translate(110,70)" d="M0,0L-6,0"></path></g></g><g aria-label="y-axis tick label" transform="translate(-9,3.5)"><g text-anchor="end" font-size="8" transform="translate(0,1)"><text y="0.32em" transform="translate(110,22)">S1</text><text y="0.32em" transform="translate(110,30)">S2</text><text y="0.32em" transform="translate(110,38)">S3</text><text y="0.32em" transform="translate(110,46)">C1</text><text y="0.32em" transform="translate(110,54)">C2</text><text y="0.32em" transform="translate(110,62)">A1</text><text y="0.32em" transform="translate(110,70)">A2</text></g><g text-anchor="end" font-size="8" transform="translate(0,66)"><text y="0.32em" transform="translate(110,22)">S1</text><text y="0.32em" transform="translate(110,30)">S2</text><text y="0.32em" transform="translate(110,38)">S3</text><text y="0.32em" transform="translate(110,46)">C1</text><text y="0.32em" transform="translate(110,54)">C2</text><text y="0.32em" transform="translate(110,62)">A1</text><text y="0.32em" transform="translate(110,70)">A2</text></g><g text-anchor="end" font-size="8" transform="translate(0,131)"><text y="0.32em" transform="translate(110,22)">S1</text><text y="0.32em" transform="translate(110,30)">S2</text><text y="0.32em" transform="translate(110,38)">S3</text><text y="0.32em" transform="translate(110,46)">C1</text><text y="0.32em" transform="translate(110,54)">C2</text><text y="0.32em" transform="translate(110,62)">A1</text><text y="0.32em" transform="translate(110,70)">A2</text></g><g text-anchor="end" font-size="8" transform="translate(0,196)"><text y="0.32em" transform="translate(110,22)">S1</text><text y="0.32em" transform="translate(110,30)">S2</text><text y="0.32em" transform="translate(110,38)">S3</text><text y="0.32em" transform="translate(110,46)">C1</text><text y="0.32em" transform="translate(110,54)">C2</text><text y="0.32em" transform="translate(110,62)">A1</text><text y="0.32em" transform="translate(110,70)">A2</text></g><g text-anchor="end" font-size="8" transform="translate(0,261)"><text y="0.32em" transform="translate(110,22)">S1</text><text y="0.32em" transform="translate(110,30)">S2</text><text y="0.32em" transform="translate(110,38)">S3</text><text y="0.32em" transform="translate(110,46)">C1</text><text y="0.32em" transform="translate(110,54)">C2</text><text y="0.32em" transform="translate(110,62)">A1</text><text y="0.32em" transform="translate(110,70)">A2</text></g><g text-anchor="end" font-size="8" transform="translate(0,326)"><text y="0.32em" transform="translate(110,22)">S1</text><text y="0.32em" transform="translate(110,30)">S2</text><text y="0.32em" transform="translate(110,38)">S3</text><text y="0.32em" transform="translate(110,46)">C1</text><text y="0.32em" transform="translate(110,54)">C2</text><text y="0.32em" transform="translate(110,62)">A1</text><text y="0.32em" transform="translate(110,70)">A2</text></g><g text-anchor="end" font-size="8" transform="translate(0,391)"><text y="0.32em" transform="translate(110,22)">S1</text><text y="0.32em" transform="translate(110,30)">S2</text><text y="0.32em" transform="translate(110,38)">S3</text><text y="0.32em" transform="translate(110,46)">C1</text><text y="0.32em" transform="translate(110,54)">C2</text><text y="0.32em" transform="translate(110,62)">A1</text><text y="0.32em" transform="translate(110,70)">A2</text></g></g><g aria-label="bar"><g transform="translate(0,1)"><rect x="110" width="112.28598415447897" y="22" height="7" fill="#1b9e77"></rect><rect x="110" width="124.11662046174874" y="30" height="7" fill="#1b9e77"></rect><rect x="110" width="123.81245281168464" y="38" height="7" fill="#1b9e77"></rect><rect x="110" width="181.52488614861682" y="46" height="7" fill="#d95f02"></rect><rect x="110" width="185.36224407204827" y="54" height="7" fill="#d95f02"></rect><rect x="110" width="124.85344827836832" y="62" height="7" fill="#7570b3"></rect><rect x="110" width="126.00939556299846" y="70" height="7" fill="#7570b3"></rect></g><g transform="translate(0,66)"><rect x="110" width="58.841973795598705" y="22" height="7" fill="#1b9e77"></rect><rect x="110" width="42.983815071759125" y="30" height="7" fill="#1b9e77"></rect><rect x="110" width="42.19891932677052" y="38" height="7" fill="#1b9e77"></rect><rect x="110" width="72.52917448246262" y="46" height="7" fill="#d95f02"></rect><rect x="110" width="72.26208404567802" y="54" height="7" fill="#d95f02"></rect><rect x="110" width="4.42863583243907" y="62" height="7" fill="#7570b3"></rect><rect x="110" width="50.4259738771992" y="70" height="7" fill="#7570b3"></rect></g><g transform="translate(0,131)"><rect x="110" width="125.47435458501326" y="22" height="7" fill="#1b9e77"></rect><rect x="110" width="138.00240878028245" y="30" height="7" fill="#1b9e77"></rect><rect x="110" width="137.79986964114062" y="38" height="7" fill="#1b9e77"></rect><rect x="110" width="221.82179464094963" y="46" height="7" fill="#d95f02"></rect><rect x="110" width="222.52503572350713" y="54" height="7" fill="#d95f02"></rect><rect x="110" width="164.05695775956633" y="62" height="7" fill="#7570b3"></rect><rect x="110" width="300.30925208834543" y="70" height="7" fill="#7570b3"></rect></g><g transform="translate(0,196)"><rect x="110" width="58.841973795598705" y="22" height="7" fill="#1b9e77"></rect><rect x="110" width="42.983815071759125" y="30" height="7" fill="#1b9e77"></rect><rect x="110" width="42.19891932677052" y="38" height="7" fill="#1b9e77"></rect><rect x="110" width="72.52917448246262" y="46" height="7" fill="#d95f02"></rect><rect x="110" width="72.26208404567802" y="54" height="7" fill="#d95f02"></rect><rect x="110" width="4.42863583243907" y="62" height="7" fill="#7570b3"></rect><rect x="110" width="50.291819453167534" y="70" height="7" fill="#7570b3"></rect></g><g transform="translate(0,261)"><rect x="110" width="141.1229472625231" y="22" height="7" fill="#1b9e77"></rect><rect x="110" width="128.28268804315417" y="30" height="7" fill="#1b9e77"></rect><rect x="110" width="126.88991252937325" y="38" height="7" fill="#1b9e77"></rect><rect x="110" width="165.61461899806062" y="46" height="7" fill="#d95f02"></rect><rect x="110" width="164.13072908109507" y="54" height="7" fill="#d95f02"></rect><rect x="110" width="135.81054740806755" y="62" height="7" fill="#7570b3"></rect><rect x="110" width="122.88190966173707" y="70" height="7" fill="#7570b3"></rect></g><g transform="translate(0,326)"><rect x="110" width="145.92674323735525" y="22" height="7" fill="#1b9e77"></rect><rect x="110" width="140.4802588090964" y="30" height="7" fill="#1b9e77"></rect><rect x="110" width="158.35265636458786" y="38" height="7" fill="#1b9e77"></rect><rect x="110" width="168.6232354731169" y="46" height="7" fill="#d95f02"></rect><rect x="110" width="190.68802368506823" y="54" height="7" fill="#d95f02"></rect><rect x="110" width="158.90020737199632" y="62" height="7" fill="#7570b3"></rect><rect x="110" width="155.29513518144438" y="70" height="7" fill="#7570b3"></rect></g><g transform="translate(0,391)"><rect x="110" width="221.1523869428123" y="22" height="7" fill="#1b9e77"></rect><rect x="110" width="236.16565745481546" y="30" height="7" fill="#1b9e77"></rect><rect x="110" width="218.9766381344969" y="38" height="7" fill="#1b9e77"></rect><rect x="110" width="318.04175856195894" y="46" height="7" fill="#d95f02"></rect><rect x="110" width="348.91417272967766" y="54" height="7" fill="#d95f02"></rect><rect x="110" width="217.499773147984" y="62" height="7" fill="#7570b3"></rect><rect x="110" width="220.52690611917455" y="70" height="7" fill="#7570b3"></rect></g></g><g aria-label="fy-axis tick label" transform="translate(-26,0)"><g text-anchor="end" font-size="15px" transform="translate(0,1)"><text transform="translate(110,49.5)"><tspan x="0" y="-0.216em">Feathertail</tspan><tspan x="0" dy="1.2em">(peak)</tspan></text></g><g text-anchor="end" font-size="15px" transform="translate(0,66)"><text transform="translate(110,49.5)"><tspan x="0" y="-0.216em">Feathertail</tspan><tspan x="0" dy="1.2em">(steady)</tspan></text></g><g text-anchor="end" font-size="15px" transform="translate(0,131)"><text transform="translate(110,49.5)"><tspan x="0" y="-0.216em">OT</tspan><tspan x="0" dy="1.2em">(peak)</tspan></text></g><g text-anchor="end" font-size="15px" transform="translate(0,196)"><text transform="translate(110,49.5)"><tspan x="0" y="-0.216em">OT</tspan><tspan x="0" dy="1.2em">(steady)</tspan></text></g><g text-anchor="end" font-size="15px" transform="translate(0,261)"><text y="0.384em" transform="translate(110,49.5)">Ref CRDT</text></g><g text-anchor="end" font-size="15px" transform="translate(0,326)"><text y="0.384em" transform="translate(110,49.5)">Yjs</text></g><g text-anchor="end" font-size="15px" transform="translate(0,391)"><text y="0.384em" transform="translate(110,49.5)">Automerge</text></g></g><g aria-label="rule"><g stroke="#800000" stroke-opacity="0.5" transform="translate(0,1)"><line x1="-102.4498982818518" x2="-102.4498982818518" y1="20" y2="79"></line></g><g stroke="#800000" stroke-opacity="0.5" transform="translate(0,66)"><line x1="-102.4498982818518" x2="-102.4498982818518" y1="20" y2="79"></line></g><g stroke="#800000" stroke-opacity="0.5" transform="translate(0,131)"><line x1="-102.4498982818518" x2="-102.4498982818518" y1="20" y2="79"></line></g><g stroke="#800000" stroke-opacity="0.5" transform="translate(0,196)"><line x1="-102.4498982818518" x2="-102.4498982818518" y1="20" y2="79"></line></g><g stroke="#800000" stroke-opacity="0.5" transform="translate(0,261)"><line x1="-102.4498982818518" x2="-102.4498982818518" y1="20" y2="79"></line></g><g stroke="#800000" stroke-opacity="0.5" transform="translate(0,326)"><line x1="-102.4498982818518" x2="-102.4498982818518" y1="20" y2="79"></line></g><g stroke="#800000" stroke-opacity="0.5" transform="translate(0,391)"><line x1="-102.4498982818518" x2="-102.4498982818518" y1="20" y2="79"></line></g></g><g aria-label="tick"><g stroke="currentColor" transform="translate(0,1)"><line x1="222.28598415447897" x2="222.28598415447897" y1="22" y2="29"></line><line x1="234.11662046174874" x2="234.11662046174874" y1="30" y2="37"></line><line x1="233.81245281168464" x2="233.81245281168464" y1="38" y2="45"></line><line x1="291.5248861486168" x2="291.5248861486168" y1="46" y2="53"></line><line x1="295.36224407204827" x2="295.36224407204827" y1="54" y2="61"></line><line x1="234.85344827836832" x2="234.85344827836832" y1="62" y2="69"></line><line x1="236.00939556299846" x2="236.00939556299846" y1="70" y2="77"></line></g><g stroke="currentColor" transform="translate(0,66)"><line x1="168.8419737955987" x2="168.8419737955987" y1="22" y2="29"></line><line x1="152.98381507175912" x2="152.98381507175912" y1="30" y2="37"></line><line x1="152.19891932677052" x2="152.19891932677052" y1="38" y2="45"></line><line x1="182.52917448246262" x2="182.52917448246262" y1="46" y2="53"></line><line x1="182.26208404567802" x2="182.26208404567802" y1="54" y2="61"></line><line x1="114.42863583243907" x2="114.42863583243907" y1="62" y2="69"></line><line x1="160.4259738771992" x2="160.4259738771992" y1="70" y2="77"></line></g><g stroke="currentColor" transform="translate(0,131)"><line x1="235.47435458501326" x2="235.47435458501326" y1="22" y2="29"></line><line x1="248.00240878028245" x2="248.00240878028245" y1="30" y2="37"></line><line x1="247.79986964114062" x2="247.79986964114062" y1="38" y2="45"></line><line x1="331.82179464094963" x2="331.82179464094963" y1="46" y2="53"></line><line x1="332.52503572350713" x2="332.52503572350713" y1="54" y2="61"></line><line x1="274.05695775956633" x2="274.05695775956633" y1="62" y2="69"></line><line x1="410.30925208834543" x2="410.30925208834543" y1="70" y2="77"></line></g><g stroke="currentColor" transform="translate(0,196)"><line x1="168.8419737955987" x2="168.8419737955987" y1="22" y2="29"></line><line x1="152.98381507175912" x2="152.98381507175912" y1="30" y2="37"></line><line x1="152.19891932677052" x2="152.19891932677052" y1="38" y2="45"></line><line x1="182.52917448246262" x2="182.52917448246262" y1="46" y2="53"></line><line x1="182.26208404567802" x2="182.26208404567802" y1="54" y2="61"></line><line x1="114.42863583243907" x2="114.42863583243907" y1="62" y2="69"></line><line x1="160.29181945316753" x2="160.29181945316753" y1="70" y2="77"></line></g><g stroke="currentColor" transform="translate(0,261)"><line x1="251.1229472625231" x2="251.1229472625231" y1="22" y2="29"></line><line x1="238.28268804315417" x2="238.28268804315417" y1="30" y2="37"></line><line x1="236.88991252937325" x2="236.88991252937325" y1="38" y2="45"></line><line x1="275.6146189980606" x2="275.6146189980606" y1="46" y2="53"></line><line x1="274.13072908109507" x2="274.13072908109507" y1="54" y2="61"></line><line x1="245.81054740806755" x2="245.81054740806755" y1="62" y2="69"></line><line x1="232.88190966173707" x2="232.88190966173707" y1="70" y2="77"></line></g><g stroke="currentColor" transform="translate(0,326)"><line x1="255.92674323735525" x2="255.92674323735525" y1="22" y2="29"></line><line x1="250.4802588090964" x2="250.4802588090964" y1="30" y2="37"></line><line x1="268.35265636458786" x2="268.35265636458786" y1="38" y2="45"></line><line x1="278.6232354731169" x2="278.6232354731169" y1="46" y2="53"></line><line x1="300.68802368506823" x2="300.68802368506823" y1="54" y2="61"></line><line x1="268.9002073719963" x2="268.9002073719963" y1="62" y2="69"></line><line x1="265.2951351814444" x2="265.2951351814444" y1="70" y2="77"></line></g><g stroke="currentColor" transform="translate(0,391)"><line x1="331.1523869428123" x2="331.1523869428123" y1="22" y2="29"></line><line x1="346.16565745481546" x2="346.16565745481546" y1="30" y2="37"></line><line x1="328.9766381344969" x2="328.9766381344969" y1="38" y2="45"></line><line x1="428.04175856195894" x2="428.04175856195894" y1="46" y2="53"></line><line x1="458.91417272967766" x2="458.91417272967766" y1="54" y2="61"></line><line x1="327.499773147984" x2="327.499773147984" y1="62" y2="69"></line><line x1="330.52690611917455" x2="330.52690611917455" y1="70" y2="77"></line></g></g><g aria-label="text" transform="translate(6,3.5)"><g fill="black" text-anchor="start" font-size="9" transform="translate(0,1)"><text y="0.32em" transform="translate(222.28598415447897,22)">4.7 MiB</text><text y="0.32em" transform="translate(234.11662046174874,30)">7.4 MiB</text><text y="0.32em" transform="translate(233.81245281168464,38)">7.4 MiB</text><text y="0.32em" transform="translate(291.5248861486168,46)">68.5 MiB</text><text y="0.32em" transform="translate(295.36224407204827,54)">79.5 MiB</text><text y="0.32em" transform="translate(234.85344827836832,62)">7.7 MiB</text><text y="0.32em" transform="translate(236.00939556299846,70)">8 MiB</text></g><g fill="black" text-anchor="start" font-size="9" transform="translate(0,66)"><text y="0.32em" transform="translate(168.8419737955987,22)">597 KiB</text><text y="0.32em" transform="translate(152.98381507175912,30)">324 KiB</text><text y="0.32em" transform="translate(152.19891932677052,38)">314 KiB</text><text y="0.32em" transform="translate(182.52917448246262,46)">1 MiB</text><text y="0.32em" transform="translate(182.26208404567802,54)">1 MiB</text><text y="0.32em" transform="translate(114.42863583243907,62)">72.9 KiB</text><text y="0.32em" transform="translate(160.4259738771992,70)">432 KiB</text></g><g fill="black" text-anchor="start" font-size="9" transform="translate(0,131)"><text y="0.32em" transform="translate(235.47435458501326,22)">7.9 MiB</text><text y="0.32em" transform="translate(248.00240878028245,30)">12.7 MiB</text><text y="0.32em" transform="translate(247.79986964114062,38)">12.6 MiB</text><text y="0.32em" transform="translate(331.82179464094963,46)">325 MiB</text><text y="0.32em" transform="translate(332.52503572350713,54)">334 MiB</text><text y="0.32em" transform="translate(274.05695775956633,62)">34.9 MiB</text><text y="0.32em" transform="translate(410.30925208834543,70)">6.8 GiB</text></g><g fill="black" text-anchor="start" font-size="9" transform="translate(0,196)"><text y="0.32em" transform="translate(168.8419737955987,22)">597 KiB</text><text y="0.32em" transform="translate(152.98381507175912,30)">324 KiB</text><text y="0.32em" transform="translate(152.19891932677052,38)">314 KiB</text><text y="0.32em" transform="translate(182.52917448246262,46)">1 MiB</text><text y="0.32em" transform="translate(182.26208404567802,54)">1 MiB</text><text y="0.32em" transform="translate(114.42863583243907,62)">72.9 KiB</text><text y="0.32em" transform="translate(160.29181945316753,70)">429 KiB</text></g><g fill="black" text-anchor="start" font-size="9" transform="translate(0,261)"><text y="0.32em" transform="translate(251.1229472625231,22)">14.4 MiB</text><text y="0.32em" transform="translate(238.28268804315417,30)">8.8 MiB</text><text y="0.32em" transform="translate(236.88991252937325,38)">8.3 MiB</text><text y="0.32em" transform="translate(275.6146189980606,46)">37 MiB</text><text y="0.32em" transform="translate(274.13072908109507,54)">35 MiB</text><text y="0.32em" transform="translate(245.81054740806755,62)">11.7 MiB</text><text y="0.32em" transform="translate(232.88190966173707,70)">7.1 MiB</text></g><g fill="black" text-anchor="start" font-size="9" transform="translate(0,326)"><text y="0.32em" transform="translate(255.92674323735525,22)">17.3 MiB</text><text y="0.32em" transform="translate(250.4802588090964,30)">14 MiB</text><text y="0.32em" transform="translate(268.35265636458786,38)">28 MiB</text><text y="0.32em" transform="translate(278.6232354731169,46)">41.6 MiB</text><text y="0.32em" transform="translate(300.68802368506823,54)">97.7 MiB</text><text y="0.32em" transform="translate(268.9002073719963,62)">28.6 MiB</text><text y="0.32em" transform="translate(265.2951351814444,70)">24.9 MiB</text></g><g fill="black" text-anchor="start" font-size="9" transform="translate(0,391)"><text y="0.32em" transform="translate(331.1523869428123,22)">317 MiB</text><text y="0.32em" transform="translate(346.16565745481546,30)">566 MiB</text><text y="0.32em" transform="translate(328.9766381344969,38)">291 MiB</text><text y="0.32em" transform="translate(428.04175856195894,46)">13.4 GiB</text><text y="0.32em" transform="translate(458.91417272967766,54)">44.3 GiB</text><text y="0.32em" transform="translate(327.499773147984,62)">275 MiB</text><text y="0.32em" transform="translate(330.52690611917455,70)">309 MiB</text></g></g><g aria-label="rule"><g stroke="currentColor" stroke-width="1.5" transform="translate(0,1)"><line x1="110" x2="110" y1="20" y2="79"></line></g><g stroke="currentColor" stroke-width="1.5" transform="translate(0,66)"><line x1="110" x2="110" y1="20" y2="79"></line></g><g stroke="currentColor" stroke-width="1.5" transform="translate(0,131)"><line x1="110" x2="110" y1="20" y2="79"></line></g><g stroke="currentColor" stroke-width="1.5" transform="translate(0,196)"><line x1="110" x2="110" y1="20" y2="79"></line></g><g stroke="currentColor" stroke-width="1.5" transform="translate(0,261)"><line x1="110" x2="110" y1="20" y2="79"></line></g><g stroke="currentColor" stroke-width="1.5" transform="translate(0,326)"><line x1="110" x2="110" y1="20" y2="79"></line></g><g stroke="currentColor" stroke-width="1.5" transform="translate(0,391)"><line x1="110" x2="110" y1="20" y2="79"></line></g></g></svg>