<svg class="plot-d6a7b5" fill="currentColor" font-family="system-ui, sans-serif" font-size="10" text-anchor="middle" width="500" height="580" viewBox="0 0 500 580" style="background: white; font-family: Helvetica Neue, Helvetica, Arial, sans-serif;" xmlns="http://www.w3.org/2000/svg" xmlns:xlink="http://www.w3.org/1999/xlink" version="1.1"><style>:where(.plot-d6a7b5) {
  --plot-background: white;
  display: block;
  height: auto;
  height: intrinsic;
  max-width: 100%;
}
:where(.plot-d6a7b5 text),
:where(.plot-d6a7b5 tspan) {
  white-space: pre;
}</style><g aria-label="x-grid" aria-hidden="true"><g stroke="currentColor" stroke-opacity="0.1" transform="translate(0,3)"><line x1="164.26410001091705" x2="164.26410001091705" y1="20" y2="88"></line><line x1="212.33447197165836" x2="212.33447197165836" y1="20" y2="88"></line><line x1="260.4048439323997" x2="260.4048439323997" y1="20" y2="88"></line><line x1="308.47521589314107" x2="308.47521589314107" y1="20" y2="88"></line><line x1="356.54558785388235" x2="356.54558785388235" y1="20" y2="88"></line><line x1="404.6159598146237" x2="404.6159598146237" y1="20" y2="88"></line><line x1="452.686331775365" x2="452.686331775365" y1="20" y2="88"></line></g><g stroke="currentColor" stroke-opacity="0.1" transform="translate(0,79)"><line x1="164.26410001091705" x2="164.26410001091705" y1="20" y2="88"></line><line x1="212.33447197165836" x2="212.33447197165836" y1="20" y2="88"></line><line x1="260.4048439323997" x2="260.4048439323997" y1="20" y2="88"></line><line x1="308.47521589314107" x2="308.47521589314107" y1="20" y2="88"></line><line x1="356.54558785388235" x2="356.54558785388235" y1="20" y2="88"></line><line x1="404.6159598146237" x2="404.6159598146237" y1="20" y2="88"></line><line x1="452.686331775365" x2="452.686331775365" y1="20" y2="88"></line></g><g stroke="currentColor" stroke-opacity="0.1" transform="translate(0,155)"><line x1="164.26410001091705" x2="164.26410001091705" y1="20" y2="88"></line><line x1="212.33447197165836" x2="212.33447197165836" y1="20" y2="88"></line><line x1="260.4048439323997" x2="260.4048439323997" y1="20" y2="88"></line><line x1="308.47521589314107" x2="308.47521589314107" y1="20" y2="88"></line><line x1="356.54558785388235" x2="356.54558785388235" y1="20" y2="88"></line><line x1="404.6159598146237" x2="404.6159598146237" y1="20" y2="88"></line><line x1="452.686331775365" x2="452.686331775365" y1="20" y2="88"></line></g><g stroke="currentColor" stroke-opacity="0.1" transform="translate(0,231)"><line x1="164.26410001091705" x2="164.26410001091705" y1="20" y2="88"></line><line x1="212.33447197165836" x2="212.33447197165836" y1="20" y2="88"></line><line x1="260.4048439323997" x2="260.4048439323997" y1="20" y2="88"></line><line x1="308.47521589314107" x2="308.47521589314107" y1="20" y2="88"></line><line x1="356.54558785388235" x2="356.54558785388235" y1="20" y2="88"></line><line x1="404.6159598146237" x2="404.6159598146237" y1="20" y2="88"></line><line x1="452.686331775365" x2="452.686331775365" y1="20" y2="88"></line></g><g stroke="currentColor" stroke-opacity="0.1" transform="translate(0,307)"><line x1="164.26410001091705" x2="164.26410001091705" y1="20" y2="88"></line><line x1="212.33447197165836" x2="212.33447197165836" y1="20" y2="88"></line><line x1="260.4048439323997" x2="260.4048439323997" y1="20" y2="88"></line><line x1="308.47521589314107" x2="308.47521589314107" y1="20" y2="88"></line><line x1="356.54558785388235" x2="356.54558785388235" y1="20" y2="88"></line><line x1="404.6159598146237" x2="404.6159598146237" y1="20" y2="88"></line><line x1="452.686331775365" x2="452.686331775365" y1="20" y2="88"></line></g><g stroke="currentColor" stroke-opacity="0.1" transform="translate(0,383)"><line x1="164.26410001091705" x2="164.26410001091705" y1="20" y2="88"></line><line x1="212.33447197165836" x2="212.33447197165836" y1="20" y2="88"></line><line x1="260.4048439323997" x2="260.4048439323997" y1="20" y2="88"></line><line x1="308.47521589314107" x2="308.47521589314107" y1="20" y2="88"></line><line x1="356.54558785388235" x2="356.54558785388235" y1="20" y2="88"></line><line x1="404.6159598146237" x2="404.6159598146237" y1="20" y2="88"></line><line x1="452.686331775365" x2="452.686331775365" y1="20" y2="88"></line></g><g stroke="currentColor" stroke-opacity="0.1" transform="translate(0,459)"><line x1="164.26410001091705" x2="164.26410001091705" y1="20" y2="88"></line><line x1="212.33447197165836" x2="212.33447197165836" y1="20" y2="88"></line><line x1="260.4048439323997" x2="260.4048439323997" y1="20" y2="88"></line><line x1="308.47521589314107" x2="308.47521589314107" y1="20" y2="88"></line><line x1="356.54558785388235" x2="356.54558785388235" y1="20" y2="88"></line><line x1="404.6159598146237" x2="404.6159598146237" y1="20" y2="88"></line><line x1="452.686331775365" x2="452.686331775365" y1="20" y2="88"></line></g></g><g aria-label="x-axis tick" aria-hidden="true"><g fill="none" stroke="currentColor" transform="translate(0,459)"><path transform="translate(164.26410001091705,88)" d="M0,0L0,6"></path><path transform="translate(212.33447197165836,88)" d="M0,0L0,6"></path><path transform="translate(260.4048439323997,88)" d="M0,0L0,6"></path><path transform="translate(308.47521589314107,88)" d="M0,0L0,6"></path><path transform="translate(356.54558785388235,88)" d="M0,0L0,6"></path><path transform="translate(404.6159598146237,88)" d="M0,0L0,6"></path><path transform="translate(452.686331775365,88)" d="M0,0L0,6"></path></g></g><g aria-label="x-axis tick label" transform="translate(0,9)"><g font-variant="tabular-nums" transform="translate(0,459)"><text y="0.71em" transform="translate(164.26410001091705,88)">10</text><text y="0.71em" transform="translate(212.33447197165836,88)">100</text><text y="0.71em" transform="translate(260.4048439323997,88)">1k</text><text y="0.71em" transform="translate(308.47521589314107,88)">10k</text><text y="0.71em" transform="translate(356.54558785388235,88)">100k</text><text y="0.71em" transform="translate(404.6159598146237,88)">1M</text><text y="0.71em" transform="translate(452.686331775365,88)">10M</text></g></g><g aria-label="x-axis label" text-anchor="end" transform="translate(17,27)"><text transform="translate(480,547)">Time taken (in milliseconds) to merge and reload changes. Log scale. (Less is better) →</text></g><g aria-label="x-grid" aria-hidden="true"><g stroke="currentColor" stroke-width="0.5" stroke-opacity="0.15" transform="translate(0,3)"><line x1="130.66435191308364" x2="130.66435191308364" y1="20" y2="88"></line><line x1="139.12912423492548" x2="139.12912423492548" y1="20" y2="88"></line><line x1="145.13497577599156" x2="145.13497577599156" y1="20" y2="88"></line><line x1="149.79347614800912" x2="149.79347614800912" y1="20" y2="88"></line><line x1="153.5997480978334" x2="153.5997480978334" y1="20" y2="88"></line><line x1="156.8179051769545" x2="156.8179051769545" y1="20" y2="88"></line><line x1="159.60559963889946" x2="159.60559963889946" y1="20" y2="88"></line><line x1="162.06452041967526" x2="162.06452041967526" y1="20" y2="88"></line><line x1="164.26410001091705" x2="164.26410001091705" y1="20" y2="88"></line><line x1="178.73472387382495" x2="178.73472387382495" y1="20" y2="88"></line><line x1="187.19949619566682" x2="187.19949619566682" y1="20" y2="88"></line><line x1="193.20534773673288" x2="193.20534773673288" y1="20" y2="88"></line><line x1="197.86384810875043" x2="197.86384810875043" y1="20" y2="88"></line><line x1="201.67012005857475" x2="201.67012005857475" y1="20" y2="88"></line><line x1="204.8882771376958" x2="204.8882771376958" y1="20" y2="88"></line><line x1="207.6759715996408" x2="207.6759715996408" y1="20" y2="88"></line><line x1="210.1348923804166" x2="210.1348923804166" y1="20" y2="88"></line><line x1="212.33447197165836" x2="212.33447197165836" y1="20" y2="88"></line><line x1="226.8050958345663" x2="226.8050958345663" y1="20" y2="88"></line><line x1="235.26986815640817" x2="235.26986815640817" y1="20" y2="88"></line><line x1="241.27571969747424" x2="241.27571969747424" y1="20" y2="88"></line><line x1="245.93422006949174" x2="245.93422006949174" y1="20" y2="88"></line><line x1="249.74049201931606" x2="249.74049201931606" y1="20" y2="88"></line><line x1="252.95864909843712" x2="252.95864909843712" y1="20" y2="88"></line><line x1="255.74634356038214" x2="255.74634356038214" y1="20" y2="88"></line><line x1="258.20526434115794" x2="258.20526434115794" y1="20" y2="88"></line><line x1="260.4048439323997" x2="260.4048439323997" y1="20" y2="88"></line><line x1="274.8754677953076" x2="274.8754677953076" y1="20" y2="88"></line><line x1="283.34024011714945" x2="283.34024011714945" y1="20" y2="88"></line><line x1="289.3460916582155" x2="289.3460916582155" y1="20" y2="88"></line><line x1="294.0045920302331" x2="294.0045920302331" y1="20" y2="88"></line><line x1="297.8108639800574" x2="297.8108639800574" y1="20" y2="88"></line><line x1="301.0290210591785" x2="301.0290210591785" y1="20" y2="88"></line><line x1="303.8167155211235" x2="303.8167155211235" y1="20" y2="88"></line><line x1="306.2756363018993" x2="306.2756363018993" y1="20" y2="88"></line><line x1="308.47521589314107" x2="308.47521589314107" y1="20" y2="88"></line><line x1="322.94583975604894" x2="322.94583975604894" y1="20" y2="88"></line><line x1="331.41061207789085" x2="331.41061207789085" y1="20" y2="88"></line><line x1="337.4164636189568" x2="337.4164636189568" y1="20" y2="88"></line><line x1="342.0749639909744" x2="342.0749639909744" y1="20" y2="88"></line><line x1="345.8812359407988" x2="345.8812359407988" y1="20" y2="88"></line><line x1="349.0993930199198" x2="349.0993930199198" y1="20" y2="88"></line><line x1="351.88708748186474" x2="351.88708748186474" y1="20" y2="88"></line><line x1="354.34600826264057" x2="354.34600826264057" y1="20" y2="88"></line><line x1="356.54558785388235" x2="356.54558785388235" y1="20" y2="88"></line><line x1="371.0162117167903" x2="371.0162117167903" y1="20" y2="88"></line><line x1="379.48098403863213" x2="379.48098403863213" y1="20" y2="88"></line><line x1="385.4868355796982" x2="385.4868355796982" y1="20" y2="88"></line><line x1="390.14533595171577" x2="390.14533595171577" y1="20" y2="88"></line><line x1="393.95160790154" x2="393.95160790154" y1="20" y2="88"></line><line x1="397.16976498066117" x2="397.16976498066117" y1="20" y2="88"></line><line x1="399.95745944260614" x2="399.95745944260614" y1="20" y2="88"></line><line x1="402.41638022338196" x2="402.41638022338196" y1="20" y2="88"></line><line x1="404.6159598146237" x2="404.6159598146237" y1="20" y2="88"></line><line x1="419.0865836775316" x2="419.0865836775316" y1="20" y2="88"></line><line x1="427.5513559993735" x2="427.5513559993735" y1="20" y2="88"></line><line x1="433.55720754043955" x2="433.55720754043955" y1="20" y2="88"></line><line x1="438.21570791245705" x2="438.21570791245705" y1="20" y2="88"></line><line x1="442.02197986228146" x2="442.02197986228146" y1="20" y2="88"></line><line x1="445.24013694140245" x2="445.24013694140245" y1="20" y2="88"></line><line x1="448.0278314033475" x2="448.0278314033475" y1="20" y2="88"></line><line x1="450.4867521841232" x2="450.4867521841232" y1="20" y2="88"></line><line x1="452.686331775365" x2="452.686331775365" y1="20" y2="88"></line><line x1="467.1569556382729" x2="467.1569556382729" y1="20" y2="88"></line><line x1="475.62172796011475" x2="475.62172796011475" y1="20" y2="88"></line></g><g stroke="currentColor" stroke-width="0.5" stroke-opacity="0.15" transform="translate(0,79)"><line x1="130.66435191308364" x2="130.66435191308364" y1="20" y2="88"></line><line x1="139.12912423492548" x2="139.12912423492548" y1="20" y2="88"></line><line x1="145.13497577599156" x2="145.13497577599156" y1="20" y2="88"></line><line x1="149.79347614800912" x2="149.79347614800912" y1="20" y2="88"></line><line x1="153.5997480978334" x2="153.5997480978334" y1="20" y2="88"></line><line x1="156.8179051769545" x2="156.8179051769545" y1="20" y2="88"></line><line x1="159.60559963889946" x2="159.60559963889946" y1="20" y2="88"></line><line x1="162.06452041967526" x2="162.06452041967526" y1="20" y2="88"></line><line x1="164.26410001091705" x2="164.26410001091705" y1="20" y2="88"></line><line x1="178.73472387382495" x2="178.73472387382495" y1="20" y2="88"></line><line x1="187.19949619566682" x2="187.19949619566682" y1="20" y2="88"></line><line x1="193.20534773673288" x2="193.20534773673288" y1="20" y2="88"></line><line x1="197.86384810875043" x2="197.86384810875043" y1="20" y2="88"></line><line x1="201.67012005857475" x2="201.67012005857475" y1="20" y2="88"></line><line x1="204.8882771376958" x2="204.8882771376958" y1="20" y2="88"></line><line x1="207.6759715996408" x2="207.6759715996408" y1="20" y2="88"></line><line x1="210.1348923804166" x2="210.1348923804166" y1="20" y2="88"></line><line x1="212.33447197165836" x2="212.33447197165836" y1="20" y2="88"></line><line x1="226.8050958345663" x2="226.8050958345663" y1="20" y2="88"></line><line x1="235.26986815640817" x2="235.26986815640817" y1="20" y2="88"></line><line x1="241.27571969747424" x2="241.27571969747424" y1="20" y2="88"></line><line x1="245.93422006949174" x2="245.93422006949174" y1="20" y2="88"></line><line x1="249.74049201931606" x2="249.74049201931606" y1="20" y2="88"></line><line x1="252.95864909843712" x2="252.95864909843712" y1="20" y2="88"></line><line x1="255.74634356038214" x2="255.74634356038214" y1="20" y2="88"></line><line x1="258.20526434115794" x2="258.20526434115794" y1="20" y2="88"></line><line x1="260.4048439323997" x2="260.4048439323997" y1="20" y2="88"></line><line x1="274.8754677953076" x2="274.8754677953076" y1="20" y2="88"></line><line x1="283.34024011714945" x2="283.34024011714945" y1="20" y2="88"></line><line x1="289.3460916582155" x2="289.3460916582155" y1="20" y2="88"></line><line x1="294.0045920302331" x2="294.0045920302331" y1="20" y2="88"></line><line x1="297.8108639800574" x2="297.8108639800574" y1="20" y2="88"></line><line x1="301.0290210591785" x2="301.0290210591785" y1="20" y2="88"></line><line x1="303.8167155211235" x2="303.8167155211235" y1="20" y2="88"></line><line x1="306.2756363018993" x2="306.2756363018993" y1="20" y2="88"></line><line x1="308.47521589314107" x2="308.47521589314107" y1="20" y2="88"></line><line x1="322.94583975604894" x2="322.94583975604894" y1="20" y2="88"></line><line x1="331.41061207789085" x2="331.41061207789085" y1="20" y2="88"></line><line x1="337.4164636189568" x2="337.4164636189568" y1="20" y2="88"></line><line x1="342.0749639909744" x2="342.0749639909744" y1="20" y2="88"></line><line x1="345.8812359407988" x2="345.8812359407988" y1="20" y2="88"></line><line x1="349.0993930199198" x2="349.0993930199198" y1="20" y2="88"></line><line x1="351.88708748186474" x2="351.88708748186474" y1="20" y2="88"></line><line x1="354.34600826264057" x2="354.34600826264057" y1="20" y2="88"></line><line x1="356.54558785388235" x2="356.54558785388235" y1="20" y2="88"></line><line x1="371.0162117167903" x2="371.0162117167903" y1="20" y2="88"></line><line x1="379.48098403863213" x2="379.48098403863213" y1="20" y2="88"></line><line x1="385.4868355796982" x2="385.4868355796982" y1="20" y2="88"></line><line x1="390.14533595171577" x2="390.14533595171577" y1="20" y2="88"></line><line x1="393.95160790154" x2="393.95160790154" y1="20" y2="88"></line><line x1="397.16976498066117" x2="397.16976498066117" y1="20" y2="88"></line><line x1="399.95745944260614" x2="399.95745944260614" y1="20" y2="88"></line><line x1="402.41638022338196" x2="402.41638022338196" y1="20" y2="88"></line><line x1="404.6159598146237" x2="404.6159598146237" y1="20" y2="88"></line><line x1="419.0865836775316" x2="419.0865836775316" y1="20" y2="88"></line><line x1="427.5513559993735" x2="427.5513559993735" y1="20" y2="88"></line><line x1="433.55720754043955" x2="433.55720754043955" y1="20" y2="88"></line><line x1="438.21570791245705" x2="438.21570791245705" y1="20" y2="88"></line><line x1="442.02197986228146" x2="442.02197986228146" y1="20" y2="88"></line><line x1="445.24013694140245" x2="445.24013694140245" y1="20" y2="88"></line><line x1="448.0278314033475" x2="448.0278314033475" y1="20" y2="88"></line><line x1="450.4867521841232" x2="450.4867521841232" y1="20" y2="88"></line><line x1="452.686331775365" x2="452.686331775365" y1="20" y2="88"></line><line x1="467.1569556382729" x2="467.1569556382729" y1="20" y2="88"></line><line x1="475.62172796011475" x2="475.62172796011475" y1="20" y2="88"></line></g><g stroke="currentColor" stroke-width="0.5" stroke-opacity="0.15" transform="translate(0,155)"><line x1="130.66435191308364" x2="130.66435191308364" y1="20" y2="88"></line><line x1="139.12912423492548" x2="139.12912423492548" y1="20" y2="88"></line><line x1="145.13497577599156" x2="145.13497577599156" y1="20" y2="88"></line><line x1="149.79347614800912" x2="149.79347614800912" y1="20" y2="88"></line><line x1="153.5997480978334" x2="153.5997480978334" y1="20" y2="88"></line><line x1="156.8179051769545" x2="156.8179051769545" y1="20" y2="88"></line><line x1="159.60559963889946" x2="159.60559963889946" y1="20" y2="88"></line><line x1="162.06452041967526" x2="162.06452041967526" y1="20" y2="88"></line><line x1="164.26410001091705" x2="164.26410001091705" y1="20" y2="88"></line><line x1="178.73472387382495" x2="178.73472387382495" y1="20" y2="88"></line><line x1="187.19949619566682" x2="187.19949619566682" y1="20" y2="88"></line><line x1="193.20534773673288" x2="193.20534773673288" y1="20" y2="88"></line><line x1="197.86384810875043" x2="197.86384810875043" y1="20" y2="88"></line><line x1="201.67012005857475" x2="201.67012005857475" y1="20" y2="88"></line><line x1="204.8882771376958" x2="204.8882771376958" y1="20" y2="88"></line><line x1="207.6759715996408" x2="207.6759715996408" y1="20" y2="88"></line><line x1="210.1348923804166" x2="210.1348923804166" y1="20" y2="88"></line><line x1="212.33447197165836" x2="212.33447197165836" y1="20" y2="88"></line><line x1="226.8050958345663" x2="226.8050958345663" y1="20" y2="88"></line><line x1="235.26986815640817" x2="235.26986815640817" y1="20" y2="88"></line><line x1="241.27571969747424" x2="241.27571969747424" y1="20" y2="88"></line><line x1="245.93422006949174" x2="245.93422006949174" y1="20" y2="88"></line><line x1="249.74049201931606" x2="249.74049201931606" y1="20" y2="88"></line><line x1="252.95864909843712" x2="252.95864909843712" y1="20" y2="88"></line><line x1="255.74634356038214" x2="255.74634356038214" y1="20" y2="88"></line><line x1="258.20526434115794" x2="258.20526434115794" y1="20" y2="88"></line><line x1="260.4048439323997" x2="260.4048439323997" y1="20" y2="88"></line><line x1="274.8754677953076" x2="274.8754677953076" y1="20" y2="88"></line><line x1="283.34024011714945" x2="283.34024011714945" y1="20" y2="88"></line><line x1="289.3460916582155" x2="289.3460916582155" y1="20" y2="88"></line><line x1="294.0045920302331" x2="294.0045920302331" y1="20" y2="88"></line><line x1="297.8108639800574" x2="297.8108639800574" y1="20" y2="88"></line><line x1="301.0290210591785" x2="301.0290210591785" y1="20" y2="88"></line><line x1="303.8167155211235" x2="303.8167155211235" y1="20" y2="88"></line><line x1="306.2756363018993" x2="306.2756363018993" y1="20" y2="88"></line><line x1="308.47521589314107" x2="308.47521589314107" y1="20" y2="88"></line><line x1="322.94583975604894" x2="322.94583975604894" y1="20" y2="88"></line><line x1="331.41061207789085" x2="331.41061207789085" y1="20" y2="88"></line><line x1="337.4164636189568" x2="337.4164636189568" y1="20" y2="88"></line><line x1="342.0749639909744" x2="342.0749639909744" y1="20" y2="88"></line><line x1="345.8812359407988" x2="345.8812359407988" y1="20" y2="88"></line><line x1="349.0993930199198" x2="349.0993930199198" y1="20" y2="88"></line><line x1="351.88708748186474" x2="351.88708748186474" y1="20" y2="88"></line><line x1="354.34600826264057" x2="354.34600826264057" y1="20" y2="88"></line><line x1="356.54558785388235" x2="356.54558785388235" y1="20" y2="88"></line><line x1="371.0162117167903" x2="371.0162117167903" y1="20" y2="88"></line><line x1="379.48098403863213" x2="379.48098403863213" y1="20" y2="88"></line><line x1="385.4868355796982" x2="385.4868355796982" y1="20" y2="88"></line><line x1="390.14533595171577" x2="390.14533595171577" y1="20" y2="88"></line><line x1="393.95160790154" x2="393.95160790154" y1="20" y2="88"></line><line x1="397.16976498066117" x2="397.16976498066117" y1="20" y2="88"></line><line x1="399.95745944260614" x2="399.95745944260614" y1="20" y2="88"></line><line x1="402.41638022338196" x2="402.41638022338196" y1="20" y2="88"></line><line x1="404.6159598146237" x2="404.6159598146237" y1="20" y2="88"></line><line x1="419.0865836775316" x2="419.0865836775316" y1="20" y2="88"></line><line x1="427.5513559993735" x2="427.5513559993735" y1="20" y2="88"></line><line x1="433.55720754043955" x2="433.55720754043955" y1="20" y2="88"></line><line x1="438.21570791245705" x2="438.21570791245705" y1="20" y2="88"></line><line x1="442.02197986228146" x2="442.02197986228146" y1="20" y2="88"></line><line x1="445.24013694140245" x2="445.24013694140245" y1="20" y2="88"></line><line x1="448.0278314033475" x2="448.0278314033475" y1="20" y2="88"></line><line x1="450.4867521841232" x2="450.4867521841232" y1="20" y2="88"></line><line x1="452.686331775365" x2="452.686331775365" y1="20" y2="88"></line><line x1="467.1569556382729" x2="467.1569556382729" y1="20" y2="88"></line><line x1="475.62172796011475" x2="475.62172796011475" y1="20" y2="88"></line></g><g stroke="currentColor" stroke-width="0.5" stroke-opacity="0.15" transform="translate(0,231)"><line x1="130.66435191308364" x2="130.66435191308364" y1="20" y2="88"></line><line x1="139.12912423492548" x2="139.12912423492548" y1="20" y2="88"></line><line x1="145.13497577599156" x2="145.13497577599156" y1="20" y2="88"></line><line x1="149.79347614800912" x2="149.79347614800912" y1="20" y2="88"></line><line x1="153.5997480978334" x2="153.5997480978334" y1="20" y2="88"></line><line x1="156.8179051769545" x2="156.8179051769545" y1="20" y2="88"></line><line x1="159.60559963889946" x2="159.60559963889946" y1="20" y2="88"></line><line x1="162.06452041967526" x2="162.06452041967526" y1="20" y2="88"></line><line x1="164.26410001091705" x2="164.26410001091705" y1="20" y2="88"></line><line x1="178.73472387382495" x2="178.73472387382495" y1="20" y2="88"></line><line x1="187.19949619566682" x2="187.19949619566682" y1="20" y2="88"></line><line x1="193.20534773673288" x2="193.20534773673288" y1="20" y2="88"></line><line x1="197.86384810875043" x2="197.86384810875043" y1="20" y2="88"></line><line x1="201.67012005857475" x2="201.67012005857475" y1="20" y2="88"></line><line x1="204.8882771376958" x2="204.8882771376958" y1="20" y2="88"></line><line x1="207.6759715996408" x2="207.6759715996408" y1="20" y2="88"></line><line x1="210.1348923804166" x2="210.1348923804166" y1="20" y2="88"></line><line x1="212.33447197165836" x2="212.33447197165836" y1="20" y2="88"></line><line x1="226.8050958345663" x2="226.8050958345663" y1="20" y2="88"></line><line x1="235.26986815640817" x2="235.26986815640817" y1="20" y2="88"></line><line x1="241.27571969747424" x2="241.27571969747424" y1="20" y2="88"></line><line x1="245.93422006949174" x2="245.93422006949174" y1="20" y2="88"></line><line x1="249.74049201931606" x2="249.74049201931606" y1="20" y2="88"></line><line x1="252.95864909843712" x2="252.95864909843712" y1="20" y2="88"></line><line x1="255.74634356038214" x2="255.74634356038214" y1="20" y2="88"></line><line x1="258.20526434115794" x2="258.20526434115794" y1="20" y2="88"></line><line x1="260.4048439323997" x2="260.4048439323997" y1="20" y2="88"></line><line x1="274.8754677953076" x2="274.8754677953076" y1="20" y2="88"></line><line x1="283.34024011714945" x2="283.34024011714945" y1="20" y2="88"></line><line x1="289.3460916582155" x2="289.3460916582155" y1="20" y2="88"></line><line x1="294.0045920302331" x2="294.0045920302331" y1="20" y2="88"></line><line x1="297.8108639800574" x2="297.8108639800574" y1="20" y2="88"></line><line x1="301.0290210591785" x2="301.0290210591785" y1="20" y2="88"></line><line x1="303.8167155211235" x2="303.8167155211235" y1="20" y2="88"></line><line x1="306.2756363018993" x2="306.2756363018993" y1="20" y2="88"></line><line x1="308.47521589314107" x2="308.47521589314107" y1="20" y2="88"></line><line x1="322.94583975604894" x2="322.94583975604894" y1="20" y2="88"></line><line x1="331.41061207789085" x2="331.41061207789085" y1="20" y2="88"></line><line x1="337.4164636189568" x2="337.4164636189568" y1="20" y2="88"></line><line x1="342.0749639909744" x2="342.0749639909744" y1="20" y2="88"></line><line x1="345.8812359407988" x2="345.8812359407988" y1="20" y2="88"></line><line x1="349.0993930199198" x2="349.0993930199198" y1="20" y2="88"></line><line x1="351.88708748186474" x2="351.88708748186474" y1="20" y2="88"></line><line x1="354.34600826264057" x2="354.34600826264057" y1="20" y2="88"></line><line x1="356.54558785388235" x2="356.54558785388235" y1="20" y2="88"></line><line x1="371.0162117167903" x2="371.0162117167903" y1="20" y2="88"></line><line x1="379.48098403863213" x2="379.48098403863213" y1="20" y2="88"></line><line x1="385.4868355796982" x2="385.4868355796982" y1="20" y2="88"></line><line x1="390.14533595171577" x2="390.14533595171577" y1="20" y2="88"></line><line x1="393.95160790154" x2="393.95160790154" y1="20" y2="88"></line><line x1="397.16976498066117" x2="397.16976498066117" y1="20" y2="88"></line><line x1="399.95745944260614" x2="399.95745944260614" y1="20" y2="88"></line><line x1="402.41638022338196" x2="402.41638022338196" y1="20" y2="88"></line><line x1="404.6159598146237" x2="404.6159598146237" y1="20" y2="88"></line><line x1="419.0865836775316" x2="419.0865836775316" y1="20" y2="88"></line><line x1="427.5513559993735" x2="427.5513559993735" y1="20" y2="88"></line><line x1="433.55720754043955" x2="433.55720754043955" y1="20" y2="88"></line><line x1="438.21570791245705" x2="438.21570791245705" y1="20" y2="88"></line><line x1="442.02197986228146" x2="442.02197986228146" y1="20" y2="88"></line><line x1="445.24013694140245" x2="445.24013694140245" y1="20" y2="88"></line><line x1="448.0278314033475" x2="448.0278314033475" y1="20" y2="88"></line><line x1="450.4867521841232" x2="450.4867521841232" y1="20" y2="88"></line><line x1="452.686331775365" x2="452.686331775365" y1="20" y2="88"></line><line x1="467.1569556382729" x2="467.1569556382729" y1="20" y2="88"></line><line x1="475.62172796011475" x2="475.62172796011475" y1="20" y2="88"></line></g><g stroke="currentColor" stroke-width="0.5" stroke-opacity="0.15" transform="translate(0,307)"><line x1="130.66435191308364" x2="130.66435191308364" y1="20" y2="88"></line><line x1="139.12912423492548" x2="139.12912423492548" y1="20" y2="88"></line><line x1="145.13497577599156" x2="145.13497577599156" y1="20" y2="88"></line><line x1="149.79347614800912" x2="149.79347614800912" y1="20" y2="88"></line><line x1="153.5997480978334" x2="153.5997480978334" y1="20" y2="88"></line><line x1="156.8179051769545" x2="156.8179051769545" y1="20" y2="88"></line><line x1="159.60559963889946" x2="159.60559963889946" y1="20" y2="88"></line><line x1="162.06452041967526" x2="162.06452041967526" y1="20" y2="88"></line><line x1="164.26410001091705" x2="164.26410001091705" y1="20" y2="88"></line><line x1="178.73472387382495" x2="178.73472387382495" y1="20" y2="88"></line><line x1="187.19949619566682" x2="187.19949619566682" y1="20" y2="88"></line><line x1="193.20534773673288" x2="193.20534773673288" y1="20" y2="88"></line><line x1="197.86384810875043" x2="197.86384810875043" y1="20" y2="88"></line><line x1="201.67012005857475" x2="201.67012005857475" y1="20" y2="88"></line><line x1="204.8882771376958" x2="204.8882771376958" y1="20" y2="88"></line><line x1="207.6759715996408" x2="207.6759715996408" y1="20" y2="88"></line><line x1="210.1348923804166" x2="210.1348923804166" y1="20" y2="88"></line><line x1="212.33447197165836" x2="212.33447197165836" y1="20" y2="88"></line><line x1="226.8050958345663" x2="226.8050958345663" y1="20" y2="88"></line><line x1="235.26986815640817" x2="235.26986815640817" y1="20" y2="88"></line><line x1="241.27571969747424" x2="241.27571969747424" y1="20" y2="88"></line><line x1="245.93422006949174" x2="245.93422006949174" y1="20" y2="88"></line><line x1="249.74049201931606" x2="249.74049201931606" y1="20" y2="88"></line><line x1="252.95864909843712" x2="252.95864909843712" y1="20" y2="88"></line><line x1="255.74634356038214" x2="255.74634356038214" y1="20" y2="88"></line><line x1="258.20526434115794" x2="258.20526434115794" y1="20" y2="88"></line><line x1="260.4048439323997" x2="260.4048439323997" y1="20" y2="88"></line><line x1="274.8754677953076" x2="274.8754677953076" y1="20" y2="88"></line><line x1="283.34024011714945" x2="283.34024011714945" y1="20" y2="88"></line><line x1="289.3460916582155" x2="289.3460916582155" y1="20" y2="88"></line><line x1="294.0045920302331" x2="294.0045920302331" y1="20" y2="88"></line><line x1="297.8108639800574" x2="297.8108639800574" y1="20" y2="88"></line><line x1="301.0290210591785" x2="301.0290210591785" y1="20" y2="88"></line><line x1="303.8167155211235" x2="303.8167155211235" y1="20" y2="88"></line><line x1="306.2756363018993" x2="306.2756363018993" y1="20" y2="88"></line><line x1="308.47521589314107" x2="308.47521589314107" y1="20" y2="88"></line><line x1="322.94583975604894" x2="322.94583975604894" y1="20" y2="88"></line><line x1="331.41061207789085" x2="331.41061207789085" y1="20" y2="88"></line><line x1="337.4164636189568" x2="337.4164636189568" y1="20" y2="88"></line><line x1="342.0749639909744" x2="342.0749639909744" y1="20" y2="88"></line><line x1="345.8812359407988" x2="345.8812359407988" y1="20" y2="88"></line><line x1="349.0993930199198" x2="349.0993930199198" y1="20" y2="88"></line><line x1="351.88708748186474" x2="351.88708748186474" y1="20" y2="88"></line><line x1="354.34600826264057" x2="354.34600826264057" y1="20" y2="88"></line><line x1="356.54558785388235" x2="356.54558785388235" y1="20" y2="88"></line><line x1="371.0162117167903" x2="371.0162117167903" y1="20" y2="88"></line><line x1="379.48098403863213" x2="379.48098403863213" y1="20" y2="88"></line><line x1="385.4868355796982" x2="385.4868355796982" y1="20" y2="88"></line><line x1="390.14533595171577" x2="390.14533595171577" y1="20" y2="88"></line><line x1="393.95160790154" x2="393.95160790154" y1="20" y2="88"></line><line x1="397.16976498066117" x2="397.16976498066117" y1="20" y2="88"></line><line x1="399.95745944260614" x2="399.95745944260614" y1="20" y2="88"></line><line x1="402.41638022338196" x2="402.41638022338196" y1="20" y2="88"></line><line x1="404.6159598146237" x2="404.6159598146237" y1="20" y2="88"></line><line x1="419.0865836775316" x2="419.0865836775316" y1="20" y2="88"></line><line x1="427.5513559993735" x2="427.5513559993735" y1="20" y2="88"></line><line x1="433.55720754043955" x2="433.55720754043955" y1="20" y2="88"></line><line x1="438.21570791245705" x2="438.21570791245705" y1="20" y2="88"></line><line x1="442.02197986228146" x2="442.02197986228146" y1="20" y2="88"></line><line x1="445.24013694140245" x2="445.24013694140245" y1="20" y2="88"></line><line x1="448.0278314033475" x2="448.0278314033475" y1="20" y2="88"></line><line x1="450.4867521841232" x2="450.4867521841232" y1="20" y2="88"></line><line x1="452.686331775365" x2="452.686331775365" y1="20" y2="88"></line><line x1="467.1569556382729" x2="467.1569556382729" y1="20" y2="88"></line><line x1="475.62172796011475" x2="475.62172796011475" y1="20" y2="88"></line></g><g stroke="currentColor" stroke-width="0.5" stroke-opacity="0.15" transform="translate(0,383)"><line x1="130.66435191308364" x2="130.66435191308364" y1="20" y2="88"></line><line x1="139.12912423492548" x2="139.12912423492548" y1="20" y2="88"></line><line x1="145.13497577599156" x2="145.13497577599156" y1="20" y2="88"></line><line x1="149.79347614800912" x2="149.79347614800912" y1="20" y2="88"></line><line x1="153.5997480978334" x2="153.5997480978334" y1="20" y2="88"></line><line x1="156.8179051769545" x2="156.8179051769545" y1="20" y2="88"></line><line x1="159.60559963889946" x2="159.60559963889946" y1="20" y2="88"></line><line x1="162.06452041967526" x2="162.06452041967526" y1="20" y2="88"></line><line x1="164.26410001091705" x2="164.26410001091705" y1="20" y2="88"></line><line x1="178.73472387382495" x2="178.73472387382495" y1="20" y2="88"></line><line x1="187.19949619566682" x2="187.19949619566682" y1="20" y2="88"></line><line x1="193.20534773673288" x2="193.20534773673288" y1="20" y2="88"></line><line x1="197.86384810875043" x2="197.86384810875043" y1="20" y2="88"></line><line x1="201.67012005857475" x2="201.67012005857475" y1="20" y2="88"></line><line x1="204.8882771376958" x2="204.8882771376958" y1="20" y2="88"></line><line x1="207.6759715996408" x2="207.6759715996408" y1="20" y2="88"></line><line x1="210.1348923804166" x2="210.1348923804166" y1="20" y2="88"></line><line x1="212.33447197165836" x2="212.33447197165836" y1="20" y2="88"></line><line x1="226.8050958345663" x2="226.8050958345663" y1="20" y2="88"></line><line x1="235.26986815640817" x2="235.26986815640817" y1="20" y2="88"></line><line x1="241.27571969747424" x2="241.27571969747424" y1="20" y2="88"></line><line x1="245.93422006949174" x2="245.93422006949174" y1="20" y2="88"></line><line x1="249.74049201931606" x2="249.74049201931606" y1="20" y2="88"></line><line x1="252.95864909843712" x2="252.95864909843712" y1="20" y2="88"></line><line x1="255.74634356038214" x2="255.74634356038214" y1="20" y2="88"></line><line x1="258.20526434115794" x2="258.20526434115794" y1="20" y2="88"></line><line x1="260.4048439323997" x2="260.4048439323997" y1="20" y2="88"></line><line x1="274.8754677953076" x2="274.8754677953076" y1="20" y2="88"></line><line x1="283.34024011714945" x2="283.34024011714945" y1="20" y2="88"></line><line x1="289.3460916582155" x2="289.3460916582155" y1="20" y2="88"></line><line x1="294.0045920302331" x2="294.0045920302331" y1="20" y2="88"></line><line x1="297.8108639800574" x2="297.8108639800574" y1="20" y2="88"></line><line x1="301.0290210591785" x2="301.0290210591785" y1="20" y2="88"></line><line x1="303.8167155211235" x2="303.8167155211235" y1="20" y2="88"></line><line x1="306.2756363018993" x2="306.2756363018993" y1="20" y2="88"></line><line x1="308.47521589314107" x2="308.47521589314107" y1="20" y2="88"></line><line x1="322.94583975604894" x2="322.94583975604894" y1="20" y2="88"></line><line x1="331.41061207789085" x2="331.41061207789085" y1="20" y2="88"></line><line x1="337.4164636189568" x2="337.4164636189568" y1="20" y2="88"></line><line x1="342.0749639909744" x2="342.0749639909744" y1="20" y2="88"></line><line x1="345.8812359407988" x2="345.8812359407988" y1="20" y2="88"></line><line x1="349.0993930199198" x2="349.0993930199198" y1="20" y2="88"></line><line x1="351.88708748186474" x2="351.88708748186474" y1="20" y2="88"></line><line x1="354.34600826264057" x2="354.34600826264057" y1="20" y2="88"></line><line x1="356.54558785388235" x2="356.54558785388235" y1="20" y2="88"></line><line x1="371.0162117167903" x2="371.0162117167903" y1="20" y2="88"></line><line x1="379.48098403863213" x2="379.48098403863213" y1="20" y2="88"></line><line x1="385.4868355796982" x2="385.4868355796982" y1="20" y2="88"></line><line x1="390.14533595171577" x2="390.14533595171577" y1="20" y2="88"></line><line x1="393.95160790154" x2="393.95160790154" y1="20" y2="88"></line><line x1="397.16976498066117" x2="397.16976498066117" y1="20" y2="88"></line><line x1="399.95745944260614" x2="399.95745944260614" y1="20" y2="88"></line><line x1="402.41638022338196" x2="402.41638022338196" y1="20" y2="88"></line><line x1="404.6159598146237" x2="404.6159598146237" y1="20" y2="88"></line><line x1="419.0865836775316" x2="419.0865836775316" y1="20" y2="88"></line><line x1="427.5513559993735" x2="427.5513559993735" y1="20" y2="88"></line><line x1="433.55720754043955" x2="433.55720754043955" y1="20" y2="88"></line><line x1="438.21570791245705" x2="438.21570791245705" y1="20" y2="88"></line><line x1="442.02197986228146" x2="442.02197986228146" y1="20" y2="88"></line><line x1="445.24013694140245" x2="445.24013694140245" y1="20" y2="88"></line><line x1="448.0278314033475" x2="448.0278314033475" y1="20" y2="88"></line><line x1="450.4867521841232" x2="450.4867521841232" y1="20" y2="88"></line><line x1="452.686331775365" x2="452.686331775365" y1="20" y2="88"></line><line x1="467.1569556382729" x2="467.1569556382729" y1="20" y2="88"></line><line x1="475.62172796011475" x2="475.62172796011475" y1="20" y2="88"></line></g><g stroke="currentColor" stroke-width="0.5" stroke-opacity="0.15" transform="translate(0,459)"><line x1="130.66435191308364" x2="130.66435191308364" y1="20" y2="88"></line><line x1="139.12912423492548" x2="139.12912423492548" y1="20" y2="88"></line><line x1="145.13497577599156" x2="145.13497577599156" y1="20" y2="88"></line><line x1="149.79347614800912" x2="149.79347614800912" y1="20" y2="88"></line><line x1="153.5997480978334" x2="153.5997480978334" y1="20" y2="88"></line><line x1="156.8179051769545" x2="156.8179051769545" y1="20" y2="88"></line><line x1="159.60559963889946" x2="159.60559963889946" y1="20" y2="88"></line><line x1="162.06452041967526" x2="162.06452041967526" y1="20" y2="88"></line><line x1="164.26410001091705" x2="164.26410001091705" y1="20" y2="88"></line><line x1="178.73472387382495" x2="178.73472387382495" y1="20" y2="88"></line><line x1="187.19949619566682" x2="187.19949619566682" y1="20" y2="88"></line><line x1="193.20534773673288" x2="193.20534773673288" y1="20" y2="88"></line><line x1="197.86384810875043" x2="197.86384810875043" y1="20" y2="88"></line><line x1="201.67012005857475" x2="201.67012005857475" y1="20" y2="88"></line><line x1="204.8882771376958" x2="204.8882771376958" y1="20" y2="88"></line><line x1="207.6759715996408" x2="207.6759715996408" y1="20" y2="88"></line><line x1="210.1348923804166" x2="210.1348923804166" y1="20" y2="88"></line><line x1="212.33447197165836" x2="212.33447197165836" y1="20" y2="88"></line><line x1="226.8050958345663" x2="226.8050958345663" y1="20" y2="88"></line><line x1="235.26986815640817" x2="235.26986815640817" y1="20" y2="88"></line><line x1="241.27571969747424" x2="241.27571969747424" y1="20" y2="88"></line><line x1="245.93422006949174" x2="245.93422006949174" y1="20" y2="88"></line><line x1="249.74049201931606" x2="249.74049201931606" y1="20" y2="88"></line><line x1="252.95864909843712" x2="252.95864909843712" y1="20" y2="88"></line><line x1="255.74634356038214" x2="255.74634356038214" y1="20" y2="88"></line><line x1="258.20526434115794" x2="258.20526434115794" y1="20" y2="88"></line><line x1="260.4048439323997" x2="260.4048439323997" y1="20" y2="88"></line><line x1="274.8754677953076" x2="274.8754677953076" y1="20" y2="88"></line><line x1="283.34024011714945" x2="283.34024011714945" y1="20" y2="88"></line><line x1="289.3460916582155" x2="289.3460916582155" y1="20" y2="88"></line><line x1="294.0045920302331" x2="294.0045920302331" y1="20" y2="88"></line><line x1="297.8108639800574" x2="297.8108639800574" y1="20" y2="88"></line><line x1="301.0290210591785" x2="301.0290210591785" y1="20" y2="88"></line><line x1="303.8167155211235" x2="303.8167155211235" y1="20" y2="88"></line><line x1="306.2756363018993" x2="306.2756363018993" y1="20" y2="88"></line><line x1="308.47521589314107" x2="308.47521589314107" y1="20" y2="88"></line><line x1="322.94583975604894" x2="322.94583975604894" y1="20" y2="88"></line><line x1="331.41061207789085" x2="331.41061207789085" y1="20" y2="88"></line><line x1="337.4164636189568" x2="337.4164636189568" y1="20" y2="88"></line><line x1="342.0749639909744" x2="342.0749639909744" y1="20" y2="88"></line><line x1="345.8812359407988" x2="345.8812359407988" y1="20" y2="88"></line><line x1="349.0993930199198" x2="349.0993930199198" y1="20" y2="88"></line><line x1="351.88708748186474" x2="351.88708748186474" y1="20" y2="88"></line><line x1="354.34600826264057" x2="354.34600826264057" y1="20" y2="88"></line><line x1="356.54558785388235" x2="356.54558785388235" y1="20" y2="88"></line><line x1="371.0162117167903" x2="371.0162117167903" y1="20" y2="88"></line><line x1="379.48098403863213" x2="379.48098403863213" y1="20" y2="88"></line><line x1="385.4868355796982" x2="385.4868355796982" y1="20" y2="88"></line><line x1="390.14533595171577" x2="390.14533595171577" y1="20" y2="88"></line><line x1="393.95160790154" x2="393.95160790154" y1="20" y2="88"></line><line x1="397.16976498066117" x2="397.16976498066117" y1="20" y2="88"></line><line x1="399.95745944260614" x2="399.95745944260614" y1="20" y2="88"></line><line x1="402.41638022338196" x2="402.41638022338196" y1="20" y2="88"></line><line x1="404.6159598146237" x2="404.6159598146237" y1="20" y2="88"></line><line x1="419.0865836775316" x2="419.0865836775316" y1="20" y2="88"></line><line x1="427.5513559993735" x2="427.5513559993735" y1="20" y2="88"></line><line x1="433.55720754043955" x2="433.55720754043955" y1="20" y2="88"></line><line x1="438.21570791245705" x2="438.21570791245705" y1="20" y2="88"></line><line x1="442.02197986228146" x2="442.02197986228146" y1="20" y2="88"></line><line x1="445.24013694140245" x2="445.24013694140245" y1="20" y2="88"></line><line x1="448.0278314033475" x2="448.0278314033475" y1="20" y2="88"></line><line x1="450.4867521841232" x2="450.4867521841232" y1="20" y2="88"></line><line x1="452.686331775365" x2="452.686331775365" y1="20" y2="88"></line><line x1="467.1569556382729" x2="467.1569556382729" y1="20" y2="88"></line><line x1="475.62172796011475" x2="475.62172796011475" y1="20" y2="88"></line></g></g><g aria-label="y-axis tick" aria-hidden="true" transform="translate(0,4)"><g fill="none" stroke="currentColor" stroke-opacity="0.4" transform="translate(0,3)"><path transform="translate(120,23)" d="M0,0L-6,0"></path><path transform="translate(120,32)" d="M0,0L-6,0"></path><path transform="translate(120,41)" d="M0,0L-6,0"></path><path transform="translate(120,50)" d="M0,0L-6,0"></path><path transform="translate(120,59)" d="M0,0L-6,0"></path><path transform="translate(120,68)" d="M0,0L-6,0"></path><path transform="translate(120,77)" d="M0,0L-6,0"></path></g><g fill="none" stroke="currentColor" stroke-opacity="0.4" transform="translate(0,79)"><path transform="translate(120,23)" d="M0,0L-6,0"></path><path transform="translate(120,32)" d="M0,0L-6,0"></path><path transform="translate(120,41)" d="M0,0L-6,0"></path><path transform="translate(120,50)" d="M0,0L-6,0"></path><path transform="translate(120,59)" d="M0,0L-6,0"></path><path transform="translate(120,68)" d="M0,0L-6,0"></path><path transform="translate(120,77)" d="M0,0L-6,0"></path></g><g fill="none" stroke="currentColor" stroke-opacity="0.4" transform="translate(0,155)"><path transform="translate(120,23)" d="M0,0L-6,0"></path><path transform="translate(120,32)" d="M0,0L-6,0"></path><path transform="translate(120,41)" d="M0,0L-6,0"></path><path transform="translate(120,50)" d="M0,0L-6,0"></path><path transform="translate(120,59)" d="M0,0L-6,0"></path><path transform="translate(120,68)" d="M0,0L-6,0"></path><path transform="translate(120,77)" d="M0,0L-6,0"></path></g><g fill="none" stroke="currentColor" stroke-opacity="0.4" transform="translate(0,231)"><path transform="translate(120,23)" d="M0,0L-6,0"></path><path transform="translate(120,32)" d="M0,0L-6,0"></path><path transform="translate(120,41)" d="M0,0L-6,0"></path><path transform="translate(120,50)" d="M0,0L-6,0"></path><path transform="translate(120,59)" d="M0,0L-6,0"></path><path transform="translate(120,68)" d="M0,0L-6,0"></path><path transform="translate(120,77)" d="M0,0L-6,0"></path></g><g fill="none" stroke="currentColor" stroke-opacity="0.4" transform="translate(0,307)"><path transform="translate(120,23)" d="M0,0L-6,0"></path><path transform="translate(120,32)" d="M0,0L-6,0"></path><path transform="translate(120,41)" d="M0,0L-6,0"></path><path transform="translate(120,50)" d="M0,0L-6,0"></path><path transform="translate(120,59)" d="M0,0L-6,0"></path><path transform="translate(120,68)" d="M0,0L-6,0"></path><path transform="translate(120,77)" d="M0,0L-6,0"></path></g><g fill="none" stroke="currentColor" stroke-opacity="0.4" transform="translate(0,383)"><path transform="translate(120,23)" d="M0,0L-6,0"></path><path transform="translate(120,32)" d="M0,0L-6,0"></path><path transform="translate(120,41)" d="M0,0L-6,0"></path><path transform="translate(120,50)" d="M0,0L-6,0"></path><path transform="translate(120,59)" d="M0,0L-6,0"></path><path transform="translate(120,68)" d="M0,0L-6,0"></path><path transform="translate(120,77)" d="M0,0L-6,0"></path></g><g fill="none" stroke="currentColor" stroke-opacity="0.4" transform="translate(0,459)"><path transform="translate(120,23)" d="M0,0L-6,0"></path><path transform="translate(120,32)" d="M0,0L-6,0"></path><path transform="translate(120,41)" d="M0,0L-6,0"></path><path transform="translate(120,50)" d="M0,0L-6,0"></path><path transform="translate(120,59)" d="M0,0L-6,0"></path><path transform="translate(120,68)" d="M0,0L-6,0"></path><path transform="translate(120,77)" d="M0,0L-6,0"></path></g></g><g aria-label="y-axis tick label" transform="translate(-9,4)"><g fill-opacity="0.4" text-anchor="end" font-size="8" font-weight="700" transform="translate(0,3)"><text y="0.32em" transform="translate(120,23)">S1</text><text y="0.32em" transform="translate(120,32)">S2</text><text y="0.32em" transform="translate(120,41)">S3</text><text y="0.32em" transform="translate(120,50)">C1</text><text y="0.32em" transform="translate(120,59)">C2</text><text y="0.32em" transform="translate(120,68)">A1</text><text y="0.32em" transform="translate(120,77)">A2</text></g><g fill-opacity="0.4" text-anchor="end" font-size="8" font-weight="700" transform="translate(0,79)"><text y="0.32em" transform="translate(120,23)">S1</text><text y="0.32em" transform="translate(120,32)">S2</text><text y="0.32em" transform="translate(120,41)">S3</text><text y="0.32em" transform="translate(120,50)">C1</text><text y="0.32em" transform="translate(120,59)">C2</text><text y="0.32em" transform="translate(120,68)">A1</text><text y="0.32em" transform="translate(120,77)">A2</text></g><g fill-opacity="0.4" text-anchor="end" font-size="8" font-weight="700" transform="translate(0,155)"><text y="0.32em" transform="translate(120,23)">S1</text><text y="0.32em" transform="translate(120,32)">S2</text><text y="0.32em" transform="translate(120,41)">S3</text><text y="0.32em" transform="translate(120,50)">C1</text><text y="0.32em" transform="translate(120,59)">C2</text><text y="0.32em" transform="translate(120,68)">A1</text><text y="0.32em" transform="translate(120,77)">A2</text></g><g fill-opacity="0.4" text-anchor="end" font-size="8" font-weight="700" transform="translate(0,231)"><text y="0.32em" transform="translate(120,23)">S1</text><text y="0.32em" transform="translate(120,32)">S2</text><text y="0.32em" transform="translate(120,41)">S3</text><text y="0.32em" transform="translate(120,50)">C1</text><text y="0.32em" transform="translate(120,59)">C2</text><text y="0.32em" transform="translate(120,68)">A1</text><text y="0.32em" transform="translate(120,77)">A2</text></g><g fill-opacity="0.4" text-anchor="end" font-size="8" font-weight="700" transform="translate(0,307)"><text y="0.32em" transform="translate(120,23)">S1</text><text y="0.32em" transform="translate(120,32)">S2</text><text y="0.32em" transform="translate(120,41)">S3</text><text y="0.32em" transform="translate(120,50)">C1</text><text y="0.32em" transform="translate(120,59)">C2</text><text y="0.32em" transform="translate(120,68)">A1</text><text y="0.32em" transform="translate(120,77)">A2</text></g><g fill-opacity="0.4" text-anchor="end" font-size="8" font-weight="700" transform="translate(0,383)"><text y="0.32em" transform="translate(120,23)">S1</text><text y="0.32em" transform="translate(120,32)">S2</text><text y="0.32em" transform="translate(120,41)">S3</text><text y="0.32em" transform="translate(120,50)">C1</text><text y="0.32em" transform="translate(120,59)">C2</text><text y="0.32em" transform="translate(120,68)">A1</text><text y="0.32em" transform="translate(120,77)">A2</text></g><g fill-opacity="0.4" text-anchor="end" font-size="8" font-weight="700" transform="translate(0,459)"><text y="0.32em" transform="translate(120,23)">S1</text><text y="0.32em" transform="translate(120,32)">S2</text><text y="0.32em" transform="translate(120,41)">S3</text><text y="0.32em" transform="translate(120,50)">C1</text><text y="0.32em" transform="translate(120,59)">C2</text><text y="0.32em" transform="translate(120,68)">A1</text><text y="0.32em" transform="translate(120,77)">A2</text></g></g><g aria-label="rule"><g stroke="#800000" stroke-opacity="0.5" transform="translate(0,3)"><line x1="174.92845192400065" x2="174.92845192400065" y1="16" y2="92"></line></g><g stroke="#800000" stroke-opacity="0.5" transform="translate(0,79)"><line x1="174.92845192400065" x2="174.92845192400065" y1="16" y2="92"></line></g><g stroke="#800000" stroke-opacity="0.5" transform="translate(0,155)"><line x1="174.92845192400065" x2="174.92845192400065" y1="16" y2="92"></line></g><g stroke="#800000" stroke-opacity="0.5" transform="translate(0,231)"><line x1="174.92845192400065" x2="174.92845192400065" y1="16" y2="92"></line></g><g stroke="#800000" stroke-opacity="0.5" transform="translate(0,307)"><line x1="174.92845192400065" x2="174.92845192400065" y1="16" y2="92"></line></g><g stroke="#800000" stroke-opacity="0.5" transform="translate(0,383)"><line x1="174.92845192400065" x2="174.92845192400065" y1="16" y2="92"></line></g><g stroke="#800000" stroke-opacity="0.5" transform="translate(0,459)"><line x1="174.92845192400065" x2="174.92845192400065" y1="16" y2="92"></line></g></g><g aria-label="bar"><g transform="translate(0,3)"><rect x="120" width="8.061576283886609" y="23" height="8" fill="#1b9e77"></rect><rect x="120" width="16.77249157048155" y="32" height="8" fill="#1b9e77"></rect><rect x="120" width="22.802478130143612" y="41" height="8" fill="#1b9e77"></rect><rect x="120" width="80.28335195608025" y="50" height="8" fill="#d95f02"></rect><rect x="120" width="88.35279669264156" y="59" height="8" fill="#d95f02"></rect><rect x="120" width="41.738317045902534" y="68" height="8" fill="#7570b3"></rect><rect x="120" width="62.0752880081331" y="77" height="8" fill="#7570b3"></rect></g><g transform="translate(0,79)"><rect x="120" width="0" y="23" height="8" fill="#1b9e77"></rect><rect x="120" width="0" y="32" height="8" fill="#1b9e77"></rect><rect x="120" width="0" y="41" height="8" fill="#1b9e77"></rect><rect x="120" width="0" y="50" height="8" fill="#d95f02"></rect><rect x="120" width="0" y="59" height="8" fill="#d95f02"></rect><rect x="120" width="0" y="68" height="8" fill="#7570b3"></rect><rect x="120" width="0" y="77" height="8" fill="#7570b3"></rect></g><g transform="translate(0,155)"><rect x="120" width="14.058378818052233" y="23" height="8" fill="#1b9e77"></rect><rect x="120" width="17.988432755364926" y="32" height="8" fill="#1b9e77"></rect><rect x="120" width="24.002836858020515" y="41" height="8" fill="#1b9e77"></rect><rect x="120" width="119.3924279448679" y="50" height="8" fill="#d95f02"></rect><rect x="120" width="120.11839699987888" y="59" height="8" fill="#d95f02"></rect><rect x="120" width="178.7179930556507" y="68" height="8" fill="#7570b3"></rect><rect x="120" width="311.72702600865364" y="77" height="8" fill="#7570b3"></rect></g><g transform="translate(0,231)"><rect x="120" width="0" y="23" height="8" fill="#1b9e77"></rect><rect x="120" width="0" y="32" height="8" fill="#1b9e77"></rect><rect x="120" width="0" y="41" height="8" fill="#1b9e77"></rect><rect x="120" width="0" y="50" height="8" fill="#d95f02"></rect><rect x="120" width="0" y="59" height="8" fill="#d95f02"></rect><rect x="120" width="0" y="68" height="8" fill="#7570b3"></rect><rect x="120" width="0" y="77" height="8" fill="#7570b3"></rect></g><g transform="translate(0,307)"><rect x="120" width="56.38685853816503" y="23" height="8" fill="#1b9e77"></rect><rect x="120" width="57.75699912176958" y="32" height="8" fill="#1b9e77"></rect><rect x="120" width="64.91428706431276" y="41" height="8" fill="#1b9e77"></rect><rect x="120" width="78.86401060856184" y="50" height="8" fill="#d95f02"></rect><rect x="120" width="83.07190663048365" y="59" height="8" fill="#d95f02"></rect><rect x="120" width="74.54498323797202" y="68" height="8" fill="#7570b3"></rect><rect x="120" width="64.35232283723425" y="77" height="8" fill="#7570b3"></rect></g><g transform="translate(0,383)"><rect x="120" width="130.43534540898344" y="23" height="8" fill="#1b9e77"></rect><rect x="120" width="134.3221174694487" y="32" height="8" fill="#1b9e77"></rect><rect x="120" width="148.07770193954684" y="41" height="8" fill="#1b9e77"></rect><rect x="120" width="192.0154060588781" y="50" height="8" fill="#d95f02"></rect><rect x="120" width="207.2983760342272" y="59" height="8" fill="#d95f02"></rect><rect x="120" width="125.27911475570971" y="68" height="8" fill="#7570b3"></rect><rect x="120" width="126.7450603890641" y="77" height="8" fill="#7570b3"></rect></g><g transform="translate(0,459)"><rect x="120" width="80.74994922969842" y="23" height="8" fill="#1b9e77"></rect><rect x="120" width="88.98615287088893" y="32" height="8" fill="#1b9e77"></rect><rect x="120" width="87.65788575178752" y="41" height="8" fill="#1b9e77"></rect><rect x="120" width="88.72073620987734" y="50" height="8" fill="#d95f02"></rect><rect x="120" width="79.94368857377103" y="59" height="8" fill="#d95f02"></rect><rect x="120" width="89.75622088775361" y="68" height="8" fill="#7570b3"></rect><rect x="120" width="86.10222128463951" y="77" height="8" fill="#7570b3"></rect></g></g><g aria-label="fy-axis tick label" transform="translate(-26,2)"><g text-anchor="end" font-size="15px" transform="translate(0,3)"><text transform="translate(120,54)">Eg-walker</text></g><g text-anchor="end" font-size="15px" transform="translate(0,79)"><text transform="translate(120,54)">Eg-walker</text></g><g text-anchor="end" font-size="15px" transform="translate(0,155)"><text transform="translate(120,54)">OT</text></g><g text-anchor="end" font-size="15px" transform="translate(0,231)"><text transform="translate(120,54)">OT</text></g><g text-anchor="end" font-size="15px" transform="translate(0,307)"><text transform="translate(120,54)">Ref CRDT</text></g><g text-anchor="end" font-size="15px" transform="translate(0,383)"><text transform="translate(120,54)">Automerge</text></g><g text-anchor="end" font-size="15px" transform="translate(0,459)"><text transform="translate(120,54)">Yjs</text></g></g><g aria-label="fy-axis tick label" transform="translate(-26,7)"><g fill-opacity="0.7" text-anchor="end" font-size="12" transform="translate(0,3)"><text y="0.781em" transform="translate(120,54)">(merge)</text></g><g fill-opacity="0.7" text-anchor="end" font-size="12" transform="translate(0,79)"><text y="0.781em" transform="translate(120,54)">(cached load)</text></g><g fill-opacity="0.7" text-anchor="end" font-size="12" transform="translate(0,155)"><text y="0.781em" transform="translate(120,54)">(merge)</text></g><g fill-opacity="0.7" text-anchor="end" font-size="12" transform="translate(0,231)"><text y="0.781em" transform="translate(120,54)">(cached load)</text></g></g><g aria-label="tick"><g stroke="currentColor" transform="translate(0,3)"><line x1="128.0615762838866" x2="128.0615762838866" y1="23" y2="31"></line><line x1="136.77249157048155" x2="136.77249157048155" y1="32" y2="40"></line><line x1="142.8024781301436" x2="142.8024781301436" y1="41" y2="49"></line><line x1="200.28335195608025" x2="200.28335195608025" y1="50" y2="58"></line><line x1="208.35279669264156" x2="208.35279669264156" y1="59" y2="67"></line><line x1="161.73831704590253" x2="161.73831704590253" y1="68" y2="76"></line><line x1="182.0752880081331" x2="182.0752880081331" y1="77" y2="85"></line></g><g stroke="currentColor" transform="translate(0,79)"><line x1="120" x2="120" y1="23" y2="31"></line><line x1="120" x2="120" y1="32" y2="40"></line><line x1="120" x2="120" y1="41" y2="49"></line><line x1="120" x2="120" y1="50" y2="58"></line><line x1="120" x2="120" y1="59" y2="67"></line><line x1="120" x2="120" y1="68" y2="76"></line><line x1="120" x2="120" y1="77" y2="85"></line></g><g stroke="currentColor" transform="translate(0,155)"><line x1="134.05837881805223" x2="134.05837881805223" y1="23" y2="31"></line><line x1="137.98843275536493" x2="137.98843275536493" y1="32" y2="40"></line><line x1="144.00283685802052" x2="144.00283685802052" y1="41" y2="49"></line><line x1="239.3924279448679" x2="239.3924279448679" y1="50" y2="58"></line><line x1="240.11839699987888" x2="240.11839699987888" y1="59" y2="67"></line><line x1="298.7179930556507" x2="298.7179930556507" y1="68" y2="76"></line><line x1="431.72702600865364" x2="431.72702600865364" y1="77" y2="85"></line></g><g stroke="currentColor" transform="translate(0,231)"><line x1="120" x2="120" y1="23" y2="31"></line><line x1="120" x2="120" y1="32" y2="40"></line><line x1="120" x2="120" y1="41" y2="49"></line><line x1="120" x2="120" y1="50" y2="58"></line><line x1="120" x2="120" y1="59" y2="67"></line><line x1="120" x2="120" y1="68" y2="76"></line><line x1="120" x2="120" y1="77" y2="85"></line></g><g stroke="currentColor" transform="translate(0,307)"><line x1="176.38685853816503" x2="176.38685853816503" y1="23" y2="31"></line><line x1="177.75699912176958" x2="177.75699912176958" y1="32" y2="40"></line><line x1="184.91428706431276" x2="184.91428706431276" y1="41" y2="49"></line><line x1="198.86401060856184" x2="198.86401060856184" y1="50" y2="58"></line><line x1="203.07190663048365" x2="203.07190663048365" y1="59" y2="67"></line><line x1="194.54498323797202" x2="194.54498323797202" y1="68" y2="76"></line><line x1="184.35232283723425" x2="184.35232283723425" y1="77" y2="85"></line></g><g stroke="currentColor" transform="translate(0,383)"><line x1="250.43534540898344" x2="250.43534540898344" y1="23" y2="31"></line><line x1="254.3221174694487" x2="254.3221174694487" y1="32" y2="40"></line><line x1="268.07770193954684" x2="268.07770193954684" y1="41" y2="49"></line><line x1="312.0154060588781" x2="312.0154060588781" y1="50" y2="58"></line><line x1="327.2983760342272" x2="327.2983760342272" y1="59" y2="67"></line><line x1="245.2791147557097" x2="245.2791147557097" y1="68" y2="76"></line><line x1="246.7450603890641" x2="246.7450603890641" y1="77" y2="85"></line></g><g stroke="currentColor" transform="translate(0,459)"><line x1="200.74994922969842" x2="200.74994922969842" y1="23" y2="31"></line><line x1="208.98615287088893" x2="208.98615287088893" y1="32" y2="40"></line><line x1="207.65788575178752" x2="207.65788575178752" y1="41" y2="49"></line><line x1="208.72073620987734" x2="208.72073620987734" y1="50" y2="58"></line><line x1="199.94368857377103" x2="199.94368857377103" y1="59" y2="67"></line><line x1="209.7562208877536" x2="209.7562208877536" y1="68" y2="76"></line><line x1="206.1022212846395" x2="206.1022212846395" y1="77" y2="85"></line></g></g><g aria-label="text" transform="translate(6,4)"><g fill="black" text-anchor="start" font-size="9" transform="translate(0,3)"><text y="0.32em" transform="translate(128.0615762838866,23)">1.8 ms</text><text y="0.32em" transform="translate(136.77249157048155,32)">2.7 ms</text><text y="0.32em" transform="translate(142.8024781301436,41)">3.6 ms</text><text y="0.32em" transform="translate(200.28335195608025,50)">56.1 ms</text><text y="0.32em" transform="translate(208.35279669264156,59)">82.6 ms</text><text y="0.32em" transform="translate(161.73831704590253,68)">8.9 ms</text><text y="0.32em" transform="translate(182.0752880081331,77)">23.5 ms</text></g><g fill="black" text-anchor="start" font-size="9" transform="translate(0,79)"><text y="0.32em" transform="translate(120,23)">0.07 ms</text><text y="0.32em" transform="translate(120,32)">0.04 ms</text><text y="0.32em" transform="translate(120,41)">0.03 ms</text><text y="0.32em" transform="translate(120,50)">0.12 ms</text><text y="0.32em" transform="translate(120,59)">0.11 ms</text><text y="0.32em" transform="translate(120,68)">0.01 ms</text><text y="0.32em" transform="translate(120,77)">0.05 ms</text></g><g fill="black" text-anchor="start" font-size="9" transform="translate(0,155)"><text y="0.32em" transform="translate(134.05837881805223,23)">2.4 ms</text><text y="0.32em" transform="translate(137.98843275536493,32)">2.8 ms</text><text y="0.32em" transform="translate(144.00283685802052,41)">3.8 ms</text><text y="0.32em" transform="translate(239.3924279448679,50)">365 ms</text><text y="0.32em" transform="translate(240.11839699987888,59)">378 ms</text><text y="0.32em" transform="translate(298.7179930556507,68)">6.3 sec</text><text y="0.32em" transform="translate(431.72702600865364,77)">61.1 min</text></g><g fill="black" text-anchor="start" font-size="9" transform="translate(0,231)"><text y="0.32em" transform="translate(120,23)">0.07 ms</text><text y="0.32em" transform="translate(120,32)">0.04 ms</text><text y="0.32em" transform="translate(120,41)">0.03 ms</text><text y="0.32em" transform="translate(120,50)">0.12 ms</text><text y="0.32em" transform="translate(120,59)">0.11 ms</text><text y="0.32em" transform="translate(120,68)">0.01 ms</text><text y="0.32em" transform="translate(120,77)">0.05 ms</text></g><g fill="black" text-anchor="start" font-size="9" transform="translate(0,307)"><text y="0.32em" transform="translate(176.38685853816503,23)">17.9 ms</text><text y="0.32em" transform="translate(177.75699912176958,32)">19.1 ms</text><text y="0.32em" transform="translate(184.91428706431276,41)">26.9 ms</text><text y="0.32em" transform="translate(198.86401060856184,50)">52.5 ms</text><text y="0.32em" transform="translate(203.07190663048365,59)">64.2 ms</text><text y="0.32em" transform="translate(194.54498323797202,68)">42.7 ms</text><text y="0.32em" transform="translate(184.35232283723425,77)">26.2 ms</text></g><g fill="black" text-anchor="start" font-size="9" transform="translate(0,383)"><text y="0.32em" transform="translate(250.43534540898344,23)">620 ms</text><text y="0.32em" transform="translate(254.3221174694487,32)">747 ms</text><text y="0.32em" transform="translate(268.07770193954684,41)">1.4 sec</text><text y="0.32em" transform="translate(312.0154060588781,50)">11.8 sec</text><text y="0.32em" transform="translate(327.2983760342272,59)">24.6 sec</text><text y="0.32em" transform="translate(245.2791147557097,68)">485 ms</text><text y="0.32em" transform="translate(246.7450603890641,77)">520 ms</text></g><g fill="black" text-anchor="start" font-size="9" transform="translate(0,459)"><text y="0.32em" transform="translate(200.74994922969842,23)">57.4 ms</text><text y="0.32em" transform="translate(208.98615287088893,32)">85.2 ms</text><text y="0.32em" transform="translate(207.65788575178752,41)">79.9 ms</text><text y="0.32em" transform="translate(208.72073620987734,50)">84.1 ms</text><text y="0.32em" transform="translate(199.94368857377103,59)">55.2 ms</text><text y="0.32em" transform="translate(209.7562208877536,68)">88.4 ms</text><text y="0.32em" transform="translate(206.1022212846395,77)">74.2 ms</text></g></g><g aria-label="rule"><g stroke="currentColor" stroke-width="1.5" transform="translate(0,3)"><line x1="120" x2="120" y1="20" y2="88"></line></g><g stroke="currentColor" stroke-width="1.5" transform="translate(0,79)"><line x1="120" x2="120" y1="20" y2="88"></line></g><g stroke="currentColor" stroke-width="1.5" transform="translate(0,155)"><line x1="120" x2="120" y1="20" y2="88"></line></g><g stroke="currentColor" stroke-width="1.5" transform="translate(0,231)"><line x1="120" x2="120" y1="20" y2="88"></line></g><g stroke="currentColor" stroke-width="1.5" transform="translate(0,307)"><line x1="120" x2="120" y1="20" y2="88"></line></g><g stroke="currentColor" stroke-width="1.5" transform="translate(0,383)"><line x1="120" x2="120" y1="20" y2="88"></line></g><g stroke="currentColor" stroke-width="1.5" transform="translate(0,459)"><line x1="120" x2="120" y1="20" y2="88"></line></g></g></svg>