<svg class="plot-d6a7b5" fill="currentColor" font-family="system-ui, sans-serif" font-size="10" text-anchor="middle" width="500" height="580" viewBox="0 0 500 580" style="background: white; font-family: Helvetica Neue, Helvetica, Arial, sans-serif;" xmlns="http://www.w3.org/2000/svg" xmlns:xlink="http://www.w3.org/1999/xlink" version="1.1"><style>:where(.plot-d6a7b5) {
  --plot-background: white;
  display: block;
  height: auto;
  height: intrinsic;
  max-width: 100%;
}
:where(.plot-d6a7b5 text),
:where(.plot-d6a7b5 tspan) {
  white-space: pre;
}</style><g aria-label="x-grid" aria-hidden="true"><g stroke="currentColor" stroke-opacity="0.1" transform="translate(0,2)"><line x1="164.26410001091705" x2="164.26410001091705" y1="20" y2="83"></line><line x1="212.33447197165836" x2="212.33447197165836" y1="20" y2="83"></line><line x1="260.4048439323997" x2="260.4048439323997" y1="20" y2="83"></line><line x1="308.47521589314107" x2="308.47521589314107" y1="20" y2="83"></line><line x1="356.54558785388235" x2="356.54558785388235" y1="20" y2="83"></line><line x1="404.6159598146237" x2="404.6159598146237" y1="20" y2="83"></line><line x1="452.686331775365" x2="452.686331775365" y1="20" y2="83"></line></g><g stroke="currentColor" stroke-opacity="0.1" transform="translate(0,79)"><line x1="164.26410001091705" x2="164.26410001091705" y1="20" y2="83"></line><line x1="212.33447197165836" x2="212.33447197165836" y1="20" y2="83"></line><line x1="260.4048439323997" x2="260.4048439323997" y1="20" y2="83"></line><line x1="308.47521589314107" x2="308.47521589314107" y1="20" y2="83"></line><line x1="356.54558785388235" x2="356.54558785388235" y1="20" y2="83"></line><line x1="404.6159598146237" x2="404.6159598146237" y1="20" y2="83"></line><line x1="452.686331775365" x2="452.686331775365" y1="20" y2="83"></line></g><g stroke="currentColor" stroke-opacity="0.1" transform="translate(0,156)"><line x1="164.26410001091705" x2="164.26410001091705" y1="20" y2="83"></line><line x1="212.33447197165836" x2="212.33447197165836" y1="20" y2="83"></line><line x1="260.4048439323997" x2="260.4048439323997" y1="20" y2="83"></line><line x1="308.47521589314107" x2="308.47521589314107" y1="20" y2="83"></line><line x1="356.54558785388235" x2="356.54558785388235" y1="20" y2="83"></line><line x1="404.6159598146237" x2="404.6159598146237" y1="20" y2="83"></line><line x1="452.686331775365" x2="452.686331775365" y1="20" y2="83"></line></g><g stroke="currentColor" stroke-opacity="0.1" transform="translate(0,233)"><line x1="164.26410001091705" x2="164.26410001091705" y1="20" y2="83"></line><line x1="212.33447197165836" x2="212.33447197165836" y1="20" y2="83"></line><line x1="260.4048439323997" x2="260.4048439323997" y1="20" y2="83"></line><line x1="308.47521589314107" x2="308.47521589314107" y1="20" y2="83"></line><line x1="356.54558785388235" x2="356.54558785388235" y1="20" y2="83"></line><line x1="404.6159598146237" x2="404.6159598146237" y1="20" y2="83"></line><line x1="452.686331775365" x2="452.686331775365" y1="20" y2="83"></line></g><g stroke="currentColor" stroke-opacity="0.1" transform="translate(0,310)"><line x1="164.26410001091705" x2="164.26410001091705" y1="20" y2="83"></line><line x1="212.33447197165836" x2="212.33447197165836" y1="20" y2="83"></line><line x1="260.4048439323997" x2="260.4048439323997" y1="20" y2="83"></line><line x1="308.47521589314107" x2="308.47521589314107" y1="20" y2="83"></line><line x1="356.54558785388235" x2="356.54558785388235" y1="20" y2="83"></line><line x1="404.6159598146237" x2="404.6159598146237" y1="20" y2="83"></line><line x1="452.686331775365" x2="452.686331775365" y1="20" y2="83"></line></g><g stroke="currentColor" stroke-opacity="0.1" transform="translate(0,387)"><line x1="164.26410001091705" x2="164.26410001091705" y1="20" y2="83"></line><line x1="212.33447197165836" x2="212.33447197165836" y1="20" y2="83"></line><line x1="260.4048439323997" x2="260.4048439323997" y1="20" y2="83"></line><line x1="308.47521589314107" x2="308.47521589314107" y1="20" y2="83"></line><line x1="356.54558785388235" x2="356.54558785388235" y1="20" y2="83"></line><line x1="404.6159598146237" x2="404.6159598146237" y1="20" y2="83"></line><line x1="452.686331775365" x2="452.686331775365" y1="20" y2="83"></line></g><g stroke="currentColor" stroke-opacity="0.1" transform="translate(0,464)"><line x1="164.26410001091705" x2="164.26410001091705" y1="20" y2="83"></line><line x1="212.33447197165836" x2="212.33447197165836" y1="20" y2="83"></line><line x1="260.4048439323997" x2="260.4048439323997" y1="20" y2="83"></line><line x1="308.47521589314107" x2="308.47521589314107" y1="20" y2="83"></line><line x1="356.54558785388235" x2="356.54558785388235" y1="20" y2="83"></line><line x1="404.6159598146237" x2="404.6159598146237" y1="20" y2="83"></line><line x1="452.686331775365" x2="452.686331775365" y1="20" y2="83"></line></g></g><g aria-label="x-axis tick" aria-hidden="true"><g fill="none" stroke="currentColor" transform="translate(0,464)"><path transform="translate(164.26410001091705,83)" d="M0,0L0,6"></path><path transform="translate(212.33447197165836,83)" d="M0,0L0,6"></path><path transform="translate(260.4048439323997,83)" d="M0,0L0,6"></path><path transform="translate(308.47521589314107,83)" d="M0,0L0,6"></path><path transform="translate(356.54558785388235,83)" d="M0,0L0,6"></path><path transform="translate(404.6159598146237,83)" d="M0,0L0,6"></path><path transform="translate(452.686331775365,83)" d="M0,0L0,6"></path></g></g><g aria-label="x-axis tick label" transform="translate(0,9)"><g font-variant="tabular-nums" transform="translate(0,464)"><text y="0.71em" transform="translate(164.26410001091705,83)">10</text><text y="0.71em" transform="translate(212.33447197165836,83)">100</text><text y="0.71em" transform="translate(260.4048439323997,83)">1k</text><text y="0.71em" transform="translate(308.47521589314107,83)">10k</text><text y="0.71em" transform="translate(356.54558785388235,83)">100k</text><text y="0.71em" transform="translate(404.6159598146237,83)">1M</text><text y="0.71em" transform="translate(452.686331775365,83)">10M</text></g></g><g aria-label="x-axis label" text-anchor="end" transform="translate(17,27)"><text transform="translate(480,547)">Time taken (in milliseconds) to merge and reload changes. Log scale. (Less is better) →</text></g><g aria-label="x-grid" aria-hidden="true"><g stroke="currentColor" stroke-width="0.5" stroke-opacity="0.15" transform="translate(0,2)"><line x1="130.66435191308364" x2="130.66435191308364" y1="20" y2="83"></line><line x1="139.12912423492548" x2="139.12912423492548" y1="20" y2="83"></line><line x1="145.13497577599156" x2="145.13497577599156" y1="20" y2="83"></line><line x1="149.79347614800912" x2="149.79347614800912" y1="20" y2="83"></line><line x1="153.5997480978334" x2="153.5997480978334" y1="20" y2="83"></line><line x1="156.8179051769545" x2="156.8179051769545" y1="20" y2="83"></line><line x1="159.60559963889946" x2="159.60559963889946" y1="20" y2="83"></line><line x1="162.06452041967526" x2="162.06452041967526" y1="20" y2="83"></line><line x1="164.26410001091705" x2="164.26410001091705" y1="20" y2="83"></line><line x1="178.73472387382495" x2="178.73472387382495" y1="20" y2="83"></line><line x1="187.19949619566682" x2="187.19949619566682" y1="20" y2="83"></line><line x1="193.20534773673288" x2="193.20534773673288" y1="20" y2="83"></line><line x1="197.86384810875043" x2="197.86384810875043" y1="20" y2="83"></line><line x1="201.67012005857475" x2="201.67012005857475" y1="20" y2="83"></line><line x1="204.8882771376958" x2="204.8882771376958" y1="20" y2="83"></line><line x1="207.6759715996408" x2="207.6759715996408" y1="20" y2="83"></line><line x1="210.1348923804166" x2="210.1348923804166" y1="20" y2="83"></line><line x1="212.33447197165836" x2="212.33447197165836" y1="20" y2="83"></line><line x1="226.8050958345663" x2="226.8050958345663" y1="20" y2="83"></line><line x1="235.26986815640817" x2="235.26986815640817" y1="20" y2="83"></line><line x1="241.27571969747424" x2="241.27571969747424" y1="20" y2="83"></line><line x1="245.93422006949174" x2="245.93422006949174" y1="20" y2="83"></line><line x1="249.74049201931606" x2="249.74049201931606" y1="20" y2="83"></line><line x1="252.95864909843712" x2="252.95864909843712" y1="20" y2="83"></line><line x1="255.74634356038214" x2="255.74634356038214" y1="20" y2="83"></line><line x1="258.20526434115794" x2="258.20526434115794" y1="20" y2="83"></line><line x1="260.4048439323997" x2="260.4048439323997" y1="20" y2="83"></line><line x1="274.8754677953076" x2="274.8754677953076" y1="20" y2="83"></line><line x1="283.34024011714945" x2="283.34024011714945" y1="20" y2="83"></line><line x1="289.3460916582155" x2="289.3460916582155" y1="20" y2="83"></line><line x1="294.0045920302331" x2="294.0045920302331" y1="20" y2="83"></line><line x1="297.8108639800574" x2="297.8108639800574" y1="20" y2="83"></line><line x1="301.0290210591785" x2="301.0290210591785" y1="20" y2="83"></line><line x1="303.8167155211235" x2="303.8167155211235" y1="20" y2="83"></line><line x1="306.2756363018993" x2="306.2756363018993" y1="20" y2="83"></line><line x1="308.47521589314107" x2="308.47521589314107" y1="20" y2="83"></line><line x1="322.94583975604894" x2="322.94583975604894" y1="20" y2="83"></line><line x1="331.41061207789085" x2="331.41061207789085" y1="20" y2="83"></line><line x1="337.4164636189568" x2="337.4164636189568" y1="20" y2="83"></line><line x1="342.0749639909744" x2="342.0749639909744" y1="20" y2="83"></line><line x1="345.8812359407988" x2="345.8812359407988" y1="20" y2="83"></line><line x1="349.0993930199198" x2="349.0993930199198" y1="20" y2="83"></line><line x1="351.88708748186474" x2="351.88708748186474" y1="20" y2="83"></line><line x1="354.34600826264057" x2="354.34600826264057" y1="20" y2="83"></line><line x1="356.54558785388235" x2="356.54558785388235" y1="20" y2="83"></line><line x1="371.0162117167903" x2="371.0162117167903" y1="20" y2="83"></line><line x1="379.48098403863213" x2="379.48098403863213" y1="20" y2="83"></line><line x1="385.4868355796982" x2="385.4868355796982" y1="20" y2="83"></line><line x1="390.14533595171577" x2="390.14533595171577" y1="20" y2="83"></line><line x1="393.95160790154" x2="393.95160790154" y1="20" y2="83"></line><line x1="397.16976498066117" x2="397.16976498066117" y1="20" y2="83"></line><line x1="399.95745944260614" x2="399.95745944260614" y1="20" y2="83"></line><line x1="402.41638022338196" x2="402.41638022338196" y1="20" y2="83"></line><line x1="404.6159598146237" x2="404.6159598146237" y1="20" y2="83"></line><line x1="419.0865836775316" x2="419.0865836775316" y1="20" y2="83"></line><line x1="427.5513559993735" x2="427.5513559993735" y1="20" y2="83"></line><line x1="433.55720754043955" x2="433.55720754043955" y1="20" y2="83"></line><line x1="438.21570791245705" x2="438.21570791245705" y1="20" y2="83"></line><line x1="442.02197986228146" x2="442.02197986228146" y1="20" y2="83"></line><line x1="445.24013694140245" x2="445.24013694140245" y1="20" y2="83"></line><line x1="448.0278314033475" x2="448.0278314033475" y1="20" y2="83"></line><line x1="450.4867521841232" x2="450.4867521841232" y1="20" y2="83"></line><line x1="452.686331775365" x2="452.686331775365" y1="20" y2="83"></line><line x1="467.1569556382729" x2="467.1569556382729" y1="20" y2="83"></line><line x1="475.62172796011475" x2="475.62172796011475" y1="20" y2="83"></line></g><g stroke="currentColor" stroke-width="0.5" stroke-opacity="0.15" transform="translate(0,79)"><line x1="130.66435191308364" x2="130.66435191308364" y1="20" y2="83"></line><line x1="139.12912423492548" x2="139.12912423492548" y1="20" y2="83"></line><line x1="145.13497577599156" x2="145.13497577599156" y1="20" y2="83"></line><line x1="149.79347614800912" x2="149.79347614800912" y1="20" y2="83"></line><line x1="153.5997480978334" x2="153.5997480978334" y1="20" y2="83"></line><line x1="156.8179051769545" x2="156.8179051769545" y1="20" y2="83"></line><line x1="159.60559963889946" x2="159.60559963889946" y1="20" y2="83"></line><line x1="162.06452041967526" x2="162.06452041967526" y1="20" y2="83"></line><line x1="164.26410001091705" x2="164.26410001091705" y1="20" y2="83"></line><line x1="178.73472387382495" x2="178.73472387382495" y1="20" y2="83"></line><line x1="187.19949619566682" x2="187.19949619566682" y1="20" y2="83"></line><line x1="193.20534773673288" x2="193.20534773673288" y1="20" y2="83"></line><line x1="197.86384810875043" x2="197.86384810875043" y1="20" y2="83"></line><line x1="201.67012005857475" x2="201.67012005857475" y1="20" y2="83"></line><line x1="204.8882771376958" x2="204.8882771376958" y1="20" y2="83"></line><line x1="207.6759715996408" x2="207.6759715996408" y1="20" y2="83"></line><line x1="210.1348923804166" x2="210.1348923804166" y1="20" y2="83"></line><line x1="212.33447197165836" x2="212.33447197165836" y1="20" y2="83"></line><line x1="226.8050958345663" x2="226.8050958345663" y1="20" y2="83"></line><line x1="235.26986815640817" x2="235.26986815640817" y1="20" y2="83"></line><line x1="241.27571969747424" x2="241.27571969747424" y1="20" y2="83"></line><line x1="245.93422006949174" x2="245.93422006949174" y1="20" y2="83"></line><line x1="249.74049201931606" x2="249.74049201931606" y1="20" y2="83"></line><line x1="252.95864909843712" x2="252.95864909843712" y1="20" y2="83"></line><line x1="255.74634356038214" x2="255.74634356038214" y1="20" y2="83"></line><line x1="258.20526434115794" x2="258.20526434115794" y1="20" y2="83"></line><line x1="260.4048439323997" x2="260.4048439323997" y1="20" y2="83"></line><line x1="274.8754677953076" x2="274.8754677953076" y1="20" y2="83"></line><line x1="283.34024011714945" x2="283.34024011714945" y1="20" y2="83"></line><line x1="289.3460916582155" x2="289.3460916582155" y1="20" y2="83"></line><line x1="294.0045920302331" x2="294.0045920302331" y1="20" y2="83"></line><line x1="297.8108639800574" x2="297.8108639800574" y1="20" y2="83"></line><line x1="301.0290210591785" x2="301.0290210591785" y1="20" y2="83"></line><line x1="303.8167155211235" x2="303.8167155211235" y1="20" y2="83"></line><line x1="306.2756363018993" x2="306.2756363018993" y1="20" y2="83"></line><line x1="308.47521589314107" x2="308.47521589314107" y1="20" y2="83"></line><line x1="322.94583975604894" x2="322.94583975604894" y1="20" y2="83"></line><line x1="331.41061207789085" x2="331.41061207789085" y1="20" y2="83"></line><line x1="337.4164636189568" x2="337.4164636189568" y1="20" y2="83"></line><line x1="342.0749639909744" x2="342.0749639909744" y1="20" y2="83"></line><line x1="345.8812359407988" x2="345.8812359407988" y1="20" y2="83"></line><line x1="349.0993930199198" x2="349.0993930199198" y1="20" y2="83"></line><line x1="351.88708748186474" x2="351.88708748186474" y1="20" y2="83"></line><line x1="354.34600826264057" x2="354.34600826264057" y1="20" y2="83"></line><line x1="356.54558785388235" x2="356.54558785388235" y1="20" y2="83"></line><line x1="371.0162117167903" x2="371.0162117167903" y1="20" y2="83"></line><line x1="379.48098403863213" x2="379.48098403863213" y1="20" y2="83"></line><line x1="385.4868355796982" x2="385.4868355796982" y1="20" y2="83"></line><line x1="390.14533595171577" x2="390.14533595171577" y1="20" y2="83"></line><line x1="393.95160790154" x2="393.95160790154" y1="20" y2="83"></line><line x1="397.16976498066117" x2="397.16976498066117" y1="20" y2="83"></line><line x1="399.95745944260614" x2="399.95745944260614" y1="20" y2="83"></line><line x1="402.41638022338196" x2="402.41638022338196" y1="20" y2="83"></line><line x1="404.6159598146237" x2="404.6159598146237" y1="20" y2="83"></line><line x1="419.0865836775316" x2="419.0865836775316" y1="20" y2="83"></line><line x1="427.5513559993735" x2="427.5513559993735" y1="20" y2="83"></line><line x1="433.55720754043955" x2="433.55720754043955" y1="20" y2="83"></line><line x1="438.21570791245705" x2="438.21570791245705" y1="20" y2="83"></line><line x1="442.02197986228146" x2="442.02197986228146" y1="20" y2="83"></line><line x1="445.24013694140245" x2="445.24013694140245" y1="20" y2="83"></line><line x1="448.0278314033475" x2="448.0278314033475" y1="20" y2="83"></line><line x1="450.4867521841232" x2="450.4867521841232" y1="20" y2="83"></line><line x1="452.686331775365" x2="452.686331775365" y1="20" y2="83"></line><line x1="467.1569556382729" x2="467.1569556382729" y1="20" y2="83"></line><line x1="475.62172796011475" x2="475.62172796011475" y1="20" y2="83"></line></g><g stroke="currentColor" stroke-width="0.5" stroke-opacity="0.15" transform="translate(0,156)"><line x1="130.66435191308364" x2="130.66435191308364" y1="20" y2="83"></line><line x1="139.12912423492548" x2="139.12912423492548" y1="20" y2="83"></line><line x1="145.13497577599156" x2="145.13497577599156" y1="20" y2="83"></line><line x1="149.79347614800912" x2="149.79347614800912" y1="20" y2="83"></line><line x1="153.5997480978334" x2="153.5997480978334" y1="20" y2="83"></line><line x1="156.8179051769545" x2="156.8179051769545" y1="20" y2="83"></line><line x1="159.60559963889946" x2="159.60559963889946" y1="20" y2="83"></line><line x1="162.06452041967526" x2="162.06452041967526" y1="20" y2="83"></line><line x1="164.26410001091705" x2="164.26410001091705" y1="20" y2="83"></line><line x1="178.73472387382495" x2="178.73472387382495" y1="20" y2="83"></line><line x1="187.19949619566682" x2="187.19949619566682" y1="20" y2="83"></line><line x1="193.20534773673288" x2="193.20534773673288" y1="20" y2="83"></line><line x1="197.86384810875043" x2="197.86384810875043" y1="20" y2="83"></line><line x1="201.67012005857475" x2="201.67012005857475" y1="20" y2="83"></line><line x1="204.8882771376958" x2="204.8882771376958" y1="20" y2="83"></line><line x1="207.6759715996408" x2="207.6759715996408" y1="20" y2="83"></line><line x1="210.1348923804166" x2="210.1348923804166" y1="20" y2="83"></line><line x1="212.33447197165836" x2="212.33447197165836" y1="20" y2="83"></line><line x1="226.8050958345663" x2="226.8050958345663" y1="20" y2="83"></line><line x1="235.26986815640817" x2="235.26986815640817" y1="20" y2="83"></line><line x1="241.27571969747424" x2="241.27571969747424" y1="20" y2="83"></line><line x1="245.93422006949174" x2="245.93422006949174" y1="20" y2="83"></line><line x1="249.74049201931606" x2="249.74049201931606" y1="20" y2="83"></line><line x1="252.95864909843712" x2="252.95864909843712" y1="20" y2="83"></line><line x1="255.74634356038214" x2="255.74634356038214" y1="20" y2="83"></line><line x1="258.20526434115794" x2="258.20526434115794" y1="20" y2="83"></line><line x1="260.4048439323997" x2="260.4048439323997" y1="20" y2="83"></line><line x1="274.8754677953076" x2="274.8754677953076" y1="20" y2="83"></line><line x1="283.34024011714945" x2="283.34024011714945" y1="20" y2="83"></line><line x1="289.3460916582155" x2="289.3460916582155" y1="20" y2="83"></line><line x1="294.0045920302331" x2="294.0045920302331" y1="20" y2="83"></line><line x1="297.8108639800574" x2="297.8108639800574" y1="20" y2="83"></line><line x1="301.0290210591785" x2="301.0290210591785" y1="20" y2="83"></line><line x1="303.8167155211235" x2="303.8167155211235" y1="20" y2="83"></line><line x1="306.2756363018993" x2="306.2756363018993" y1="20" y2="83"></line><line x1="308.47521589314107" x2="308.47521589314107" y1="20" y2="83"></line><line x1="322.94583975604894" x2="322.94583975604894" y1="20" y2="83"></line><line x1="331.41061207789085" x2="331.41061207789085" y1="20" y2="83"></line><line x1="337.4164636189568" x2="337.4164636189568" y1="20" y2="83"></line><line x1="342.0749639909744" x2="342.0749639909744" y1="20" y2="83"></line><line x1="345.8812359407988" x2="345.8812359407988" y1="20" y2="83"></line><line x1="349.0993930199198" x2="349.0993930199198" y1="20" y2="83"></line><line x1="351.88708748186474" x2="351.88708748186474" y1="20" y2="83"></line><line x1="354.34600826264057" x2="354.34600826264057" y1="20" y2="83"></line><line x1="356.54558785388235" x2="356.54558785388235" y1="20" y2="83"></line><line x1="371.0162117167903" x2="371.0162117167903" y1="20" y2="83"></line><line x1="379.48098403863213" x2="379.48098403863213" y1="20" y2="83"></line><line x1="385.4868355796982" x2="385.4868355796982" y1="20" y2="83"></line><line x1="390.14533595171577" x2="390.14533595171577" y1="20" y2="83"></line><line x1="393.95160790154" x2="393.95160790154" y1="20" y2="83"></line><line x1="397.16976498066117" x2="397.16976498066117" y1="20" y2="83"></line><line x1="399.95745944260614" x2="399.95745944260614" y1="20" y2="83"></line><line x1="402.41638022338196" x2="402.41638022338196" y1="20" y2="83"></line><line x1="404.6159598146237" x2="404.6159598146237" y1="20" y2="83"></line><line x1="419.0865836775316" x2="419.0865836775316" y1="20" y2="83"></line><line x1="427.5513559993735" x2="427.5513559993735" y1="20" y2="83"></line><line x1="433.55720754043955" x2="433.55720754043955" y1="20" y2="83"></line><line x1="438.21570791245705" x2="438.21570791245705" y1="20" y2="83"></line><line x1="442.02197986228146" x2="442.02197986228146" y1="20" y2="83"></line><line x1="445.24013694140245" x2="445.24013694140245" y1="20" y2="83"></line><line x1="448.0278314033475" x2="448.0278314033475" y1="20" y2="83"></line><line x1="450.4867521841232" x2="450.4867521841232" y1="20" y2="83"></line><line x1="452.686331775365" x2="452.686331775365" y1="20" y2="83"></line><line x1="467.1569556382729" x2="467.1569556382729" y1="20" y2="83"></line><line x1="475.62172796011475" x2="475.62172796011475" y1="20" y2="83"></line></g><g stroke="currentColor" stroke-width="0.5" stroke-opacity="0.15" transform="translate(0,233)"><line x1="130.66435191308364" x2="130.66435191308364" y1="20" y2="83"></line><line x1="139.12912423492548" x2="139.12912423492548" y1="20" y2="83"></line><line x1="145.13497577599156" x2="145.13497577599156" y1="20" y2="83"></line><line x1="149.79347614800912" x2="149.79347614800912" y1="20" y2="83"></line><line x1="153.5997480978334" x2="153.5997480978334" y1="20" y2="83"></line><line x1="156.8179051769545" x2="156.8179051769545" y1="20" y2="83"></line><line x1="159.60559963889946" x2="159.60559963889946" y1="20" y2="83"></line><line x1="162.06452041967526" x2="162.06452041967526" y1="20" y2="83"></line><line x1="164.26410001091705" x2="164.26410001091705" y1="20" y2="83"></line><line x1="178.73472387382495" x2="178.73472387382495" y1="20" y2="83"></line><line x1="187.19949619566682" x2="187.19949619566682" y1="20" y2="83"></line><line x1="193.20534773673288" x2="193.20534773673288" y1="20" y2="83"></line><line x1="197.86384810875043" x2="197.86384810875043" y1="20" y2="83"></line><line x1="201.67012005857475" x2="201.67012005857475" y1="20" y2="83"></line><line x1="204.8882771376958" x2="204.8882771376958" y1="20" y2="83"></line><line x1="207.6759715996408" x2="207.6759715996408" y1="20" y2="83"></line><line x1="210.1348923804166" x2="210.1348923804166" y1="20" y2="83"></line><line x1="212.33447197165836" x2="212.33447197165836" y1="20" y2="83"></line><line x1="226.8050958345663" x2="226.8050958345663" y1="20" y2="83"></line><line x1="235.26986815640817" x2="235.26986815640817" y1="20" y2="83"></line><line x1="241.27571969747424" x2="241.27571969747424" y1="20" y2="83"></line><line x1="245.93422006949174" x2="245.93422006949174" y1="20" y2="83"></line><line x1="249.74049201931606" x2="249.74049201931606" y1="20" y2="83"></line><line x1="252.95864909843712" x2="252.95864909843712" y1="20" y2="83"></line><line x1="255.74634356038214" x2="255.74634356038214" y1="20" y2="83"></line><line x1="258.20526434115794" x2="258.20526434115794" y1="20" y2="83"></line><line x1="260.4048439323997" x2="260.4048439323997" y1="20" y2="83"></line><line x1="274.8754677953076" x2="274.8754677953076" y1="20" y2="83"></line><line x1="283.34024011714945" x2="283.34024011714945" y1="20" y2="83"></line><line x1="289.3460916582155" x2="289.3460916582155" y1="20" y2="83"></line><line x1="294.0045920302331" x2="294.0045920302331" y1="20" y2="83"></line><line x1="297.8108639800574" x2="297.8108639800574" y1="20" y2="83"></line><line x1="301.0290210591785" x2="301.0290210591785" y1="20" y2="83"></line><line x1="303.8167155211235" x2="303.8167155211235" y1="20" y2="83"></line><line x1="306.2756363018993" x2="306.2756363018993" y1="20" y2="83"></line><line x1="308.47521589314107" x2="308.47521589314107" y1="20" y2="83"></line><line x1="322.94583975604894" x2="322.94583975604894" y1="20" y2="83"></line><line x1="331.41061207789085" x2="331.41061207789085" y1="20" y2="83"></line><line x1="337.4164636189568" x2="337.4164636189568" y1="20" y2="83"></line><line x1="342.0749639909744" x2="342.0749639909744" y1="20" y2="83"></line><line x1="345.8812359407988" x2="345.8812359407988" y1="20" y2="83"></line><line x1="349.0993930199198" x2="349.0993930199198" y1="20" y2="83"></line><line x1="351.88708748186474" x2="351.88708748186474" y1="20" y2="83"></line><line x1="354.34600826264057" x2="354.34600826264057" y1="20" y2="83"></line><line x1="356.54558785388235" x2="356.54558785388235" y1="20" y2="83"></line><line x1="371.0162117167903" x2="371.0162117167903" y1="20" y2="83"></line><line x1="379.48098403863213" x2="379.48098403863213" y1="20" y2="83"></line><line x1="385.4868355796982" x2="385.4868355796982" y1="20" y2="83"></line><line x1="390.14533595171577" x2="390.14533595171577" y1="20" y2="83"></line><line x1="393.95160790154" x2="393.95160790154" y1="20" y2="83"></line><line x1="397.16976498066117" x2="397.16976498066117" y1="20" y2="83"></line><line x1="399.95745944260614" x2="399.95745944260614" y1="20" y2="83"></line><line x1="402.41638022338196" x2="402.41638022338196" y1="20" y2="83"></line><line x1="404.6159598146237" x2="404.6159598146237" y1="20" y2="83"></line><line x1="419.0865836775316" x2="419.0865836775316" y1="20" y2="83"></line><line x1="427.5513559993735" x2="427.5513559993735" y1="20" y2="83"></line><line x1="433.55720754043955" x2="433.55720754043955" y1="20" y2="83"></line><line x1="438.21570791245705" x2="438.21570791245705" y1="20" y2="83"></line><line x1="442.02197986228146" x2="442.02197986228146" y1="20" y2="83"></line><line x1="445.24013694140245" x2="445.24013694140245" y1="20" y2="83"></line><line x1="448.0278314033475" x2="448.0278314033475" y1="20" y2="83"></line><line x1="450.4867521841232" x2="450.4867521841232" y1="20" y2="83"></line><line x1="452.686331775365" x2="452.686331775365" y1="20" y2="83"></line><line x1="467.1569556382729" x2="467.1569556382729" y1="20" y2="83"></line><line x1="475.62172796011475" x2="475.62172796011475" y1="20" y2="83"></line></g><g stroke="currentColor" stroke-width="0.5" stroke-opacity="0.15" transform="translate(0,310)"><line x1="130.66435191308364" x2="130.66435191308364" y1="20" y2="83"></line><line x1="139.12912423492548" x2="139.12912423492548" y1="20" y2="83"></line><line x1="145.13497577599156" x2="145.13497577599156" y1="20" y2="83"></line><line x1="149.79347614800912" x2="149.79347614800912" y1="20" y2="83"></line><line x1="153.5997480978334" x2="153.5997480978334" y1="20" y2="83"></line><line x1="156.8179051769545" x2="156.8179051769545" y1="20" y2="83"></line><line x1="159.60559963889946" x2="159.60559963889946" y1="20" y2="83"></line><line x1="162.06452041967526" x2="162.06452041967526" y1="20" y2="83"></line><line x1="164.26410001091705" x2="164.26410001091705" y1="20" y2="83"></line><line x1="178.73472387382495" x2="178.73472387382495" y1="20" y2="83"></line><line x1="187.19949619566682" x2="187.19949619566682" y1="20" y2="83"></line><line x1="193.20534773673288" x2="193.20534773673288" y1="20" y2="83"></line><line x1="197.86384810875043" x2="197.86384810875043" y1="20" y2="83"></line><line x1="201.67012005857475" x2="201.67012005857475" y1="20" y2="83"></line><line x1="204.8882771376958" x2="204.8882771376958" y1="20" y2="83"></line><line x1="207.6759715996408" x2="207.6759715996408" y1="20" y2="83"></line><line x1="210.1348923804166" x2="210.1348923804166" y1="20" y2="83"></line><line x1="212.33447197165836" x2="212.33447197165836" y1="20" y2="83"></line><line x1="226.8050958345663" x2="226.8050958345663" y1="20" y2="83"></line><line x1="235.26986815640817" x2="235.26986815640817" y1="20" y2="83"></line><line x1="241.27571969747424" x2="241.27571969747424" y1="20" y2="83"></line><line x1="245.93422006949174" x2="245.93422006949174" y1="20" y2="83"></line><line x1="249.74049201931606" x2="249.74049201931606" y1="20" y2="83"></line><line x1="252.95864909843712" x2="252.95864909843712" y1="20" y2="83"></line><line x1="255.74634356038214" x2="255.74634356038214" y1="20" y2="83"></line><line x1="258.20526434115794" x2="258.20526434115794" y1="20" y2="83"></line><line x1="260.4048439323997" x2="260.4048439323997" y1="20" y2="83"></line><line x1="274.8754677953076" x2="274.8754677953076" y1="20" y2="83"></line><line x1="283.34024011714945" x2="283.34024011714945" y1="20" y2="83"></line><line x1="289.3460916582155" x2="289.3460916582155" y1="20" y2="83"></line><line x1="294.0045920302331" x2="294.0045920302331" y1="20" y2="83"></line><line x1="297.8108639800574" x2="297.8108639800574" y1="20" y2="83"></line><line x1="301.0290210591785" x2="301.0290210591785" y1="20" y2="83"></line><line x1="303.8167155211235" x2="303.8167155211235" y1="20" y2="83"></line><line x1="306.2756363018993" x2="306.2756363018993" y1="20" y2="83"></line><line x1="308.47521589314107" x2="308.47521589314107" y1="20" y2="83"></line><line x1="322.94583975604894" x2="322.94583975604894" y1="20" y2="83"></line><line x1="331.41061207789085" x2="331.41061207789085" y1="20" y2="83"></line><line x1="337.4164636189568" x2="337.4164636189568" y1="20" y2="83"></line><line x1="342.0749639909744" x2="342.0749639909744" y1="20" y2="83"></line><line x1="345.8812359407988" x2="345.8812359407988" y1="20" y2="83"></line><line x1="349.0993930199198" x2="349.0993930199198" y1="20" y2="83"></line><line x1="351.88708748186474" x2="351.88708748186474" y1="20" y2="83"></line><line x1="354.34600826264057" x2="354.34600826264057" y1="20" y2="83"></line><line x1="356.54558785388235" x2="356.54558785388235" y1="20" y2="83"></line><line x1="371.0162117167903" x2="371.0162117167903" y1="20" y2="83"></line><line x1="379.48098403863213" x2="379.48098403863213" y1="20" y2="83"></line><line x1="385.4868355796982" x2="385.4868355796982" y1="20" y2="83"></line><line x1="390.14533595171577" x2="390.14533595171577" y1="20" y2="83"></line><line x1="393.95160790154" x2="393.95160790154" y1="20" y2="83"></line><line x1="397.16976498066117" x2="397.16976498066117" y1="20" y2="83"></line><line x1="399.95745944260614" x2="399.95745944260614" y1="20" y2="83"></line><line x1="402.41638022338196" x2="402.41638022338196" y1="20" y2="83"></line><line x1="404.6159598146237" x2="404.6159598146237" y1="20" y2="83"></line><line x1="419.0865836775316" x2="419.0865836775316" y1="20" y2="83"></line><line x1="427.5513559993735" x2="427.5513559993735" y1="20" y2="83"></line><line x1="433.55720754043955" x2="433.55720754043955" y1="20" y2="83"></line><line x1="438.21570791245705" x2="438.21570791245705" y1="20" y2="83"></line><line x1="442.02197986228146" x2="442.02197986228146" y1="20" y2="83"></line><line x1="445.24013694140245" x2="445.24013694140245" y1="20" y2="83"></line><line x1="448.0278314033475" x2="448.0278314033475" y1="20" y2="83"></line><line x1="450.4867521841232" x2="450.4867521841232" y1="20" y2="83"></line><line x1="452.686331775365" x2="452.686331775365" y1="20" y2="83"></line><line x1="467.1569556382729" x2="467.1569556382729" y1="20" y2="83"></line><line x1="475.62172796011475" x2="475.62172796011475" y1="20" y2="83"></line></g><g stroke="currentColor" stroke-width="0.5" stroke-opacity="0.15" transform="translate(0,387)"><line x1="130.66435191308364" x2="130.66435191308364" y1="20" y2="83"></line><line x1="139.12912423492548" x2="139.12912423492548" y1="20" y2="83"></line><line x1="145.13497577599156" x2="145.13497577599156" y1="20" y2="83"></line><line x1="149.79347614800912" x2="149.79347614800912" y1="20" y2="83"></line><line x1="153.5997480978334" x2="153.5997480978334" y1="20" y2="83"></line><line x1="156.8179051769545" x2="156.8179051769545" y1="20" y2="83"></line><line x1="159.60559963889946" x2="159.60559963889946" y1="20" y2="83"></line><line x1="162.06452041967526" x2="162.06452041967526" y1="20" y2="83"></line><line x1="164.26410001091705" x2="164.26410001091705" y1="20" y2="83"></line><line x1="178.73472387382495" x2="178.73472387382495" y1="20" y2="83"></line><line x1="187.19949619566682" x2="187.19949619566682" y1="20" y2="83"></line><line x1="193.20534773673288" x2="193.20534773673288" y1="20" y2="83"></line><line x1="197.86384810875043" x2="197.86384810875043" y1="20" y2="83"></line><line x1="201.67012005857475" x2="201.67012005857475" y1="20" y2="83"></line><line x1="204.8882771376958" x2="204.8882771376958" y1="20" y2="83"></line><line x1="207.6759715996408" x2="207.6759715996408" y1="20" y2="83"></line><line x1="210.1348923804166" x2="210.1348923804166" y1="20" y2="83"></line><line x1="212.33447197165836" x2="212.33447197165836" y1="20" y2="83"></line><line x1="226.8050958345663" x2="226.8050958345663" y1="20" y2="83"></line><line x1="235.26986815640817" x2="235.26986815640817" y1="20" y2="83"></line><line x1="241.27571969747424" x2="241.27571969747424" y1="20" y2="83"></line><line x1="245.93422006949174" x2="245.93422006949174" y1="20" y2="83"></line><line x1="249.74049201931606" x2="249.74049201931606" y1="20" y2="83"></line><line x1="252.95864909843712" x2="252.95864909843712" y1="20" y2="83"></line><line x1="255.74634356038214" x2="255.74634356038214" y1="20" y2="83"></line><line x1="258.20526434115794" x2="258.20526434115794" y1="20" y2="83"></line><line x1="260.4048439323997" x2="260.4048439323997" y1="20" y2="83"></line><line x1="274.8754677953076" x2="274.8754677953076" y1="20" y2="83"></line><line x1="283.34024011714945" x2="283.34024011714945" y1="20" y2="83"></line><line x1="289.3460916582155" x2="289.3460916582155" y1="20" y2="83"></line><line x1="294.0045920302331" x2="294.0045920302331" y1="20" y2="83"></line><line x1="297.8108639800574" x2="297.8108639800574" y1="20" y2="83"></line><line x1="301.0290210591785" x2="301.0290210591785" y1="20" y2="83"></line><line x1="303.8167155211235" x2="303.8167155211235" y1="20" y2="83"></line><line x1="306.2756363018993" x2="306.2756363018993" y1="20" y2="83"></line><line x1="308.47521589314107" x2="308.47521589314107" y1="20" y2="83"></line><line x1="322.94583975604894" x2="322.94583975604894" y1="20" y2="83"></line><line x1="331.41061207789085" x2="331.41061207789085" y1="20" y2="83"></line><line x1="337.4164636189568" x2="337.4164636189568" y1="20" y2="83"></line><line x1="342.0749639909744" x2="342.0749639909744" y1="20" y2="83"></line><line x1="345.8812359407988" x2="345.8812359407988" y1="20" y2="83"></line><line x1="349.0993930199198" x2="349.0993930199198" y1="20" y2="83"></line><line x1="351.88708748186474" x2="351.88708748186474" y1="20" y2="83"></line><line x1="354.34600826264057" x2="354.34600826264057" y1="20" y2="83"></line><line x1="356.54558785388235" x2="356.54558785388235" y1="20" y2="83"></line><line x1="371.0162117167903" x2="371.0162117167903" y1="20" y2="83"></line><line x1="379.48098403863213" x2="379.48098403863213" y1="20" y2="83"></line><line x1="385.4868355796982" x2="385.4868355796982" y1="20" y2="83"></line><line x1="390.14533595171577" x2="390.14533595171577" y1="20" y2="83"></line><line x1="393.95160790154" x2="393.95160790154" y1="20" y2="83"></line><line x1="397.16976498066117" x2="397.16976498066117" y1="20" y2="83"></line><line x1="399.95745944260614" x2="399.95745944260614" y1="20" y2="83"></line><line x1="402.41638022338196" x2="402.41638022338196" y1="20" y2="83"></line><line x1="404.6159598146237" x2="404.6159598146237" y1="20" y2="83"></line><line x1="419.0865836775316" x2="419.0865836775316" y1="20" y2="83"></line><line x1="427.5513559993735" x2="427.5513559993735" y1="20" y2="83"></line><line x1="433.55720754043955" x2="433.55720754043955" y1="20" y2="83"></line><line x1="438.21570791245705" x2="438.21570791245705" y1="20" y2="83"></line><line x1="442.02197986228146" x2="442.02197986228146" y1="20" y2="83"></line><line x1="445.24013694140245" x2="445.24013694140245" y1="20" y2="83"></line><line x1="448.0278314033475" x2="448.0278314033475" y1="20" y2="83"></line><line x1="450.4867521841232" x2="450.4867521841232" y1="20" y2="83"></line><line x1="452.686331775365" x2="452.686331775365" y1="20" y2="83"></line><line x1="467.1569556382729" x2="467.1569556382729" y1="20" y2="83"></line><line x1="475.62172796011475" x2="475.62172796011475" y1="20" y2="83"></line></g><g stroke="currentColor" stroke-width="0.5" stroke-opacity="0.15" transform="translate(0,464)"><line x1="130.66435191308364" x2="130.66435191308364" y1="20" y2="83"></line><line x1="139.12912423492548" x2="139.12912423492548" y1="20" y2="83"></line><line x1="145.13497577599156" x2="145.13497577599156" y1="20" y2="83"></line><line x1="149.79347614800912" x2="149.79347614800912" y1="20" y2="83"></line><line x1="153.5997480978334" x2="153.5997480978334" y1="20" y2="83"></line><line x1="156.8179051769545" x2="156.8179051769545" y1="20" y2="83"></line><line x1="159.60559963889946" x2="159.60559963889946" y1="20" y2="83"></line><line x1="162.06452041967526" x2="162.06452041967526" y1="20" y2="83"></line><line x1="164.26410001091705" x2="164.26410001091705" y1="20" y2="83"></line><line x1="178.73472387382495" x2="178.73472387382495" y1="20" y2="83"></line><line x1="187.19949619566682" x2="187.19949619566682" y1="20" y2="83"></line><line x1="193.20534773673288" x2="193.20534773673288" y1="20" y2="83"></line><line x1="197.86384810875043" x2="197.86384810875043" y1="20" y2="83"></line><line x1="201.67012005857475" x2="201.67012005857475" y1="20" y2="83"></line><line x1="204.8882771376958" x2="204.8882771376958" y1="20" y2="83"></line><line x1="207.6759715996408" x2="207.6759715996408" y1="20" y2="83"></line><line x1="210.1348923804166" x2="210.1348923804166" y1="20" y2="83"></line><line x1="212.33447197165836" x2="212.33447197165836" y1="20" y2="83"></line><line x1="226.8050958345663" x2="226.8050958345663" y1="20" y2="83"></line><line x1="235.26986815640817" x2="235.26986815640817" y1="20" y2="83"></line><line x1="241.27571969747424" x2="241.27571969747424" y1="20" y2="83"></line><line x1="245.93422006949174" x2="245.93422006949174" y1="20" y2="83"></line><line x1="249.74049201931606" x2="249.74049201931606" y1="20" y2="83"></line><line x1="252.95864909843712" x2="252.95864909843712" y1="20" y2="83"></line><line x1="255.74634356038214" x2="255.74634356038214" y1="20" y2="83"></line><line x1="258.20526434115794" x2="258.20526434115794" y1="20" y2="83"></line><line x1="260.4048439323997" x2="260.4048439323997" y1="20" y2="83"></line><line x1="274.8754677953076" x2="274.8754677953076" y1="20" y2="83"></line><line x1="283.34024011714945" x2="283.34024011714945" y1="20" y2="83"></line><line x1="289.3460916582155" x2="289.3460916582155" y1="20" y2="83"></line><line x1="294.0045920302331" x2="294.0045920302331" y1="20" y2="83"></line><line x1="297.8108639800574" x2="297.8108639800574" y1="20" y2="83"></line><line x1="301.0290210591785" x2="301.0290210591785" y1="20" y2="83"></line><line x1="303.8167155211235" x2="303.8167155211235" y1="20" y2="83"></line><line x1="306.2756363018993" x2="306.2756363018993" y1="20" y2="83"></line><line x1="308.47521589314107" x2="308.47521589314107" y1="20" y2="83"></line><line x1="322.94583975604894" x2="322.94583975604894" y1="20" y2="83"></line><line x1="331.41061207789085" x2="331.41061207789085" y1="20" y2="83"></line><line x1="337.4164636189568" x2="337.4164636189568" y1="20" y2="83"></line><line x1="342.0749639909744" x2="342.0749639909744" y1="20" y2="83"></line><line x1="345.8812359407988" x2="345.8812359407988" y1="20" y2="83"></line><line x1="349.0993930199198" x2="349.0993930199198" y1="20" y2="83"></line><line x1="351.88708748186474" x2="351.88708748186474" y1="20" y2="83"></line><line x1="354.34600826264057" x2="354.34600826264057" y1="20" y2="83"></line><line x1="356.54558785388235" x2="356.54558785388235" y1="20" y2="83"></line><line x1="371.0162117167903" x2="371.0162117167903" y1="20" y2="83"></line><line x1="379.48098403863213" x2="379.48098403863213" y1="20" y2="83"></line><line x1="385.4868355796982" x2="385.4868355796982" y1="20" y2="83"></line><line x1="390.14533595171577" x2="390.14533595171577" y1="20" y2="83"></line><line x1="393.95160790154" x2="393.95160790154" y1="20" y2="83"></line><line x1="397.16976498066117" x2="397.16976498066117" y1="20" y2="83"></line><line x1="399.95745944260614" x2="399.95745944260614" y1="20" y2="83"></line><line x1="402.41638022338196" x2="402.41638022338196" y1="20" y2="83"></line><line x1="404.6159598146237" x2="404.6159598146237" y1="20" y2="83"></line><line x1="419.0865836775316" x2="419.0865836775316" y1="20" y2="83"></line><line x1="427.5513559993735" x2="427.5513559993735" y1="20" y2="83"></line><line x1="433.55720754043955" x2="433.55720754043955" y1="20" y2="83"></line><line x1="438.21570791245705" x2="438.21570791245705" y1="20" y2="83"></line><line x1="442.02197986228146" x2="442.02197986228146" y1="20" y2="83"></line><line x1="445.24013694140245" x2="445.24013694140245" y1="20" y2="83"></line><line x1="448.0278314033475" x2="448.0278314033475" y1="20" y2="83"></line><line x1="450.4867521841232" x2="450.4867521841232" y1="20" y2="83"></line><line x1="452.686331775365" x2="452.686331775365" y1="20" y2="83"></line><line x1="467.1569556382729" x2="467.1569556382729" y1="20" y2="83"></line><line x1="475.62172796011475" x2="475.62172796011475" y1="20" y2="83"></line></g></g><g aria-label="y-axis tick" aria-hidden="true" transform="translate(0,3.5)"><g fill="none" stroke="currentColor" stroke-opacity="0.4" transform="translate(0,2)"><path transform="translate(120,24)" d="M0,0L-6,0"></path><path transform="translate(120,32)" d="M0,0L-6,0"></path><path transform="translate(120,40)" d="M0,0L-6,0"></path><path transform="translate(120,48)" d="M0,0L-6,0"></path><path transform="translate(120,56)" d="M0,0L-6,0"></path><path transform="translate(120,64)" d="M0,0L-6,0"></path><path transform="translate(120,72)" d="M0,0L-6,0"></path></g><g fill="none" stroke="currentColor" stroke-opacity="0.4" transform="translate(0,79)"><path transform="translate(120,24)" d="M0,0L-6,0"></path><path transform="translate(120,32)" d="M0,0L-6,0"></path><path transform="translate(120,40)" d="M0,0L-6,0"></path><path transform="translate(120,48)" d="M0,0L-6,0"></path><path transform="translate(120,56)" d="M0,0L-6,0"></path><path transform="translate(120,64)" d="M0,0L-6,0"></path><path transform="translate(120,72)" d="M0,0L-6,0"></path></g><g fill="none" stroke="currentColor" stroke-opacity="0.4" transform="translate(0,156)"><path transform="translate(120,24)" d="M0,0L-6,0"></path><path transform="translate(120,32)" d="M0,0L-6,0"></path><path transform="translate(120,40)" d="M0,0L-6,0"></path><path transform="translate(120,48)" d="M0,0L-6,0"></path><path transform="translate(120,56)" d="M0,0L-6,0"></path><path transform="translate(120,64)" d="M0,0L-6,0"></path><path transform="translate(120,72)" d="M0,0L-6,0"></path></g><g fill="none" stroke="currentColor" stroke-opacity="0.4" transform="translate(0,233)"><path transform="translate(120,24)" d="M0,0L-6,0"></path><path transform="translate(120,32)" d="M0,0L-6,0"></path><path transform="translate(120,40)" d="M0,0L-6,0"></path><path transform="translate(120,48)" d="M0,0L-6,0"></path><path transform="translate(120,56)" d="M0,0L-6,0"></path><path transform="translate(120,64)" d="M0,0L-6,0"></path><path transform="translate(120,72)" d="M0,0L-6,0"></path></g><g fill="none" stroke="currentColor" stroke-opacity="0.4" transform="translate(0,310)"><path transform="translate(120,24)" d="M0,0L-6,0"></path><path transform="translate(120,32)" d="M0,0L-6,0"></path><path transform="translate(120,40)" d="M0,0L-6,0"></path><path transform="translate(120,48)" d="M0,0L-6,0"></path><path transform="translate(120,56)" d="M0,0L-6,0"></path><path transform="translate(120,64)" d="M0,0L-6,0"></path><path transform="translate(120,72)" d="M0,0L-6,0"></path></g><g fill="none" stroke="currentColor" stroke-opacity="0.4" transform="translate(0,387)"><path transform="translate(120,24)" d="M0,0L-6,0"></path><path transform="translate(120,32)" d="M0,0L-6,0"></path><path transform="translate(120,40)" d="M0,0L-6,0"></path><path transform="translate(120,48)" d="M0,0L-6,0"></path><path transform="translate(120,56)" d="M0,0L-6,0"></path><path transform="translate(120,64)" d="M0,0L-6,0"></path><path transform="translate(120,72)" d="M0,0L-6,0"></path></g><g fill="none" stroke="currentColor" stroke-opacity="0.4" transform="translate(0,464)"><path transform="translate(120,24)" d="M0,0L-6,0"></path><path transform="translate(120,32)" d="M0,0L-6,0"></path><path transform="translate(120,40)" d="M0,0L-6,0"></path><path transform="translate(120,48)" d="M0,0L-6,0"></path><path transform="translate(120,56)" d="M0,0L-6,0"></path><path transform="translate(120,64)" d="M0,0L-6,0"></path><path transform="translate(120,72)" d="M0,0L-6,0"></path></g></g><g aria-label="y-axis tick label" transform="translate(-9,3.5)"><g fill-opacity="0.4" text-anchor="end" font-size="8" font-weight="700" transform="translate(0,2)"><text y="0.32em" transform="translate(120,24)">S1</text><text y="0.32em" transform="translate(120,32)">S2</text><text y="0.32em" transform="translate(120,40)">S3</text><text y="0.32em" transform="translate(120,48)">C1</text><text y="0.32em" transform="translate(120,56)">C2</text><text y="0.32em" transform="translate(120,64)">A1</text><text y="0.32em" transform="translate(120,72)">A2</text></g><g fill-opacity="0.4" text-anchor="end" font-size="8" font-weight="700" transform="translate(0,79)"><text y="0.32em" transform="translate(120,24)">S1</text><text y="0.32em" transform="translate(120,32)">S2</text><text y="0.32em" transform="translate(120,40)">S3</text><text y="0.32em" transform="translate(120,48)">C1</text><text y="0.32em" transform="translate(120,56)">C2</text><text y="0.32em" transform="translate(120,64)">A1</text><text y="0.32em" transform="translate(120,72)">A2</text></g><g fill-opacity="0.4" text-anchor="end" font-size="8" font-weight="700" transform="translate(0,156)"><text y="0.32em" transform="translate(120,24)">S1</text><text y="0.32em" transform="translate(120,32)">S2</text><text y="0.32em" transform="translate(120,40)">S3</text><text y="0.32em" transform="translate(120,48)">C1</text><text y="0.32em" transform="translate(120,56)">C2</text><text y="0.32em" transform="translate(120,64)">A1</text><text y="0.32em" transform="translate(120,72)">A2</text></g><g fill-opacity="0.4" text-anchor="end" font-size="8" font-weight="700" transform="translate(0,233)"><text y="0.32em" transform="translate(120,24)">S1</text><text y="0.32em" transform="translate(120,32)">S2</text><text y="0.32em" transform="translate(120,40)">S3</text><text y="0.32em" transform="translate(120,48)">C1</text><text y="0.32em" transform="translate(120,56)">C2</text><text y="0.32em" transform="translate(120,64)">A1</text><text y="0.32em" transform="translate(120,72)">A2</text></g><g fill-opacity="0.4" text-anchor="end" font-size="8" font-weight="700" transform="translate(0,310)"><text y="0.32em" transform="translate(120,24)">S1</text><text y="0.32em" transform="translate(120,32)">S2</text><text y="0.32em" transform="translate(120,40)">S3</text><text y="0.32em" transform="translate(120,48)">C1</text><text y="0.32em" transform="translate(120,56)">C2</text><text y="0.32em" transform="translate(120,64)">A1</text><text y="0.32em" transform="translate(120,72)">A2</text></g><g fill-opacity="0.4" text-anchor="end" font-size="8" font-weight="700" transform="translate(0,387)"><text y="0.32em" transform="translate(120,24)">S1</text><text y="0.32em" transform="translate(120,32)">S2</text><text y="0.32em" transform="translate(120,40)">S3</text><text y="0.32em" transform="translate(120,48)">C1</text><text y="0.32em" transform="translate(120,56)">C2</text><text y="0.32em" transform="translate(120,64)">A1</text><text y="0.32em" transform="translate(120,72)">A2</text></g><g fill-opacity="0.4" text-anchor="end" font-size="8" font-weight="700" transform="translate(0,464)"><text y="0.32em" transform="translate(120,24)">S1</text><text y="0.32em" transform="translate(120,32)">S2</text><text y="0.32em" transform="translate(120,40)">S3</text><text y="0.32em" transform="translate(120,48)">C1</text><text y="0.32em" transform="translate(120,56)">C2</text><text y="0.32em" transform="translate(120,64)">A1</text><text y="0.32em" transform="translate(120,72)">A2</text></g></g><g aria-label="rule"><g stroke="black" transform="translate(0,2)"><line opacity="0.4" x1="184.82705016249542" x2="184.82705016249542" y1="22" y2="81"></line></g><g stroke="black" transform="translate(0,156)"><line opacity="0.4" x1="390.9876188484298" x2="390.9876188484298" y1="22" y2="81"></line></g><g stroke="black" transform="translate(0,310)"><line opacity="0.4" x1="190.2276597830077" x2="190.2276597830077" y1="22" y2="81"></line></g><g stroke="black" transform="translate(0,387)"><line opacity="0.4" x1="350.45126104955744" x2="350.45126104955744" y1="22" y2="81"></line></g><g stroke="black" transform="translate(0,464)"><line opacity="0.4" x1="218.0288731010612" x2="218.0288731010612" y1="22" y2="81"></line></g></g><g aria-label="rule"><g stroke="#800000" stroke-opacity="0.5" transform="translate(0,2)"><line x1="174.92845192400065" x2="174.92845192400065" y1="13" y2="90"></line></g><g stroke="#800000" stroke-opacity="0.5" transform="translate(0,79)"><line x1="174.92845192400065" x2="174.92845192400065" y1="13" y2="90"></line></g><g stroke="#800000" stroke-opacity="0.5" transform="translate(0,156)"><line x1="174.92845192400065" x2="174.92845192400065" y1="13" y2="90"></line></g><g stroke="#800000" stroke-opacity="0.5" transform="translate(0,233)"><line x1="174.92845192400065" x2="174.92845192400065" y1="13" y2="90"></line></g><g stroke="#800000" stroke-opacity="0.5" transform="translate(0,310)"><line x1="174.92845192400065" x2="174.92845192400065" y1="13" y2="90"></line></g><g stroke="#800000" stroke-opacity="0.5" transform="translate(0,387)"><line x1="174.92845192400065" x2="174.92845192400065" y1="13" y2="90"></line></g><g stroke="#800000" stroke-opacity="0.5" transform="translate(0,464)"><line x1="174.92845192400065" x2="174.92845192400065" y1="13" y2="90"></line></g></g><g aria-label="bar"><g transform="translate(0,2)"><rect x="120" width="7.865431885302655" y="24" height="7" fill="#1b9e77"></rect><rect x="120" width="16.89427789695975" y="32" height="7" fill="#1b9e77"></rect><rect x="120" width="20.839362720290836" y="40" height="7" fill="#1b9e77"></rect><rect x="120" width="82.52982197924422" y="48" height="7" fill="#d95f02"></rect><rect x="120" width="89.17692242184955" y="56" height="7" fill="#d95f02"></rect><rect x="120" width="40.63587605721449" y="64" height="7" fill="#7570b3"></rect><rect x="120" width="61.51615840909008" y="72" height="7" fill="#7570b3"></rect></g><g transform="translate(0,79)"><rect x="120" width="0" y="24" height="7" fill="#1b9e77"></rect><rect x="120" width="0" y="32" height="7" fill="#1b9e77"></rect><rect x="120" width="0" y="40" height="7" fill="#1b9e77"></rect><rect x="120" width="0" y="48" height="7" fill="#d95f02"></rect><rect x="120" width="0" y="56" height="7" fill="#d95f02"></rect><rect x="120" width="0" y="64" height="7" fill="#7570b3"></rect><rect x="120" width="0" y="72" height="7" fill="#7570b3"></rect></g><g transform="translate(0,156)"><rect x="120" width="10.216493582572241" y="24" height="7" fill="#1b9e77"></rect><rect x="120" width="19.31093837819745" y="32" height="7" fill="#1b9e77"></rect><rect x="120" width="21.179134733162726" y="40" height="7" fill="#1b9e77"></rect><rect x="120" width="120.03242457656341" y="48" height="7" fill="#d95f02"></rect><rect x="120" width="121.63457946890878" y="56" height="7" fill="#d95f02"></rect><rect x="120" width="177.6173906446562" y="64" height="7" fill="#7570b3"></rect><rect x="120" width="311.57316600693207" y="72" height="7" fill="#7570b3"></rect></g><g transform="translate(0,233)"><rect x="120" width="0" y="24" height="7" fill="#1b9e77"></rect><rect x="120" width="0" y="32" height="7" fill="#1b9e77"></rect><rect x="120" width="0" y="40" height="7" fill="#1b9e77"></rect><rect x="120" width="0" y="48" height="7" fill="#d95f02"></rect><rect x="120" width="0" y="56" height="7" fill="#d95f02"></rect><rect x="120" width="0" y="64" height="7" fill="#7570b3"></rect><rect x="120" width="0" y="72" height="7" fill="#7570b3"></rect></g><g transform="translate(0,310)"><rect x="120" width="56.11927069736731" y="24" height="7" fill="#1b9e77"></rect><rect x="120" width="57.47061468999857" y="32" height="7" fill="#1b9e77"></rect><rect x="120" width="62.373310115528255" y="40" height="7" fill="#1b9e77"></rect><rect x="120" width="78.80778729656029" y="48" height="7" fill="#d95f02"></rect><rect x="120" width="83.2144990967204" y="56" height="7" fill="#d95f02"></rect><rect x="120" width="73.453305654774" y="64" height="7" fill="#7570b3"></rect><rect x="120" width="63.480814773683505" y="72" height="7" fill="#7570b3"></rect></g><g transform="translate(0,387)"><rect x="120" width="124.77866713844287" y="24" height="7" fill="#1b9e77"></rect><rect x="120" width="128.60689702747715" y="32" height="7" fill="#1b9e77"></rect><rect x="120" width="141.62161068523358" y="40" height="7" fill="#1b9e77"></rect><rect x="120" width="238.9434164575016" y="48" height="7" fill="#d95f02"></rect><rect x="120" width="265.87410430214175" y="56" height="7" fill="#d95f02"></rect><rect x="120" width="123.19629037002974" y="64" height="7" fill="#7570b3"></rect><rect x="120" width="129.00406727025828" y="72" height="7" fill="#7570b3"></rect></g><g transform="translate(0,464)"><rect x="120" width="75.38157090183671" y="24" height="7" fill="#1b9e77"></rect><rect x="120" width="84.16562687815986" y="32" height="7" fill="#1b9e77"></rect><rect x="120" width="86.20414385442703" y="40" height="7" fill="#1b9e77"></rect><rect x="120" width="111.1507922208574" y="48" height="7" fill="#d95f02"></rect><rect x="120" width="115.49508808451003" y="56" height="7" fill="#d95f02"></rect><rect x="120" width="87.62129517488535" y="64" height="7" fill="#7570b3"></rect><rect x="120" width="93.07657281037075" y="72" height="7" fill="#7570b3"></rect></g></g><g aria-label="fy-axis tick label" transform="translate(-26,2)"><g text-anchor="end" font-size="15px" transform="translate(0,2)"><text transform="translate(120,51.5)">Feathertail</text></g><g text-anchor="end" font-size="15px" transform="translate(0,79)"><text transform="translate(120,51.5)">Feathertail</text></g><g text-anchor="end" font-size="15px" transform="translate(0,156)"><text transform="translate(120,51.5)">OT</text></g><g text-anchor="end" font-size="15px" transform="translate(0,233)"><text transform="translate(120,51.5)">OT</text></g><g text-anchor="end" font-size="15px" transform="translate(0,310)"><text transform="translate(120,51.5)">Ref CRDT</text></g><g text-anchor="end" font-size="15px" transform="translate(0,387)"><text transform="translate(120,51.5)">Automerge</text></g><g text-anchor="end" font-size="15px" transform="translate(0,464)"><text transform="translate(120,51.5)">Yjs</text></g></g><g aria-label="fy-axis tick label" transform="translate(-26,7)"><g fill-opacity="0.7" text-anchor="end" font-size="12" transform="translate(0,2)"><text y="0.781em" transform="translate(120,51.5)">(merge)</text></g><g fill-opacity="0.7" text-anchor="end" font-size="12" transform="translate(0,79)"><text y="0.781em" transform="translate(120,51.5)">(cached load)</text></g><g fill-opacity="0.7" text-anchor="end" font-size="12" transform="translate(0,156)"><text y="0.781em" transform="translate(120,51.5)">(merge)</text></g><g fill-opacity="0.7" text-anchor="end" font-size="12" transform="translate(0,233)"><text y="0.781em" transform="translate(120,51.5)">(cached load)</text></g></g><g aria-label="tick"><g stroke="currentColor" transform="translate(0,2)"><line x1="127.86543188530266" x2="127.86543188530266" y1="24" y2="31"></line><line x1="136.89427789695975" x2="136.89427789695975" y1="32" y2="39"></line><line x1="140.83936272029084" x2="140.83936272029084" y1="40" y2="47"></line><line x1="202.52982197924422" x2="202.52982197924422" y1="48" y2="55"></line><line x1="209.17692242184955" x2="209.17692242184955" y1="56" y2="63"></line><line x1="160.6358760572145" x2="160.6358760572145" y1="64" y2="71"></line><line x1="181.51615840909008" x2="181.51615840909008" y1="72" y2="79"></line></g><g stroke="currentColor" transform="translate(0,79)"><line x1="120" x2="120" y1="24" y2="31"></line><line x1="120" x2="120" y1="32" y2="39"></line><line x1="120" x2="120" y1="40" y2="47"></line><line x1="120" x2="120" y1="48" y2="55"></line><line x1="120" x2="120" y1="56" y2="63"></line><line x1="120" x2="120" y1="64" y2="71"></line><line x1="120" x2="120" y1="72" y2="79"></line></g><g stroke="currentColor" transform="translate(0,156)"><line x1="130.21649358257224" x2="130.21649358257224" y1="24" y2="31"></line><line x1="139.31093837819745" x2="139.31093837819745" y1="32" y2="39"></line><line x1="141.17913473316273" x2="141.17913473316273" y1="40" y2="47"></line><line x1="240.03242457656341" x2="240.03242457656341" y1="48" y2="55"></line><line x1="241.63457946890878" x2="241.63457946890878" y1="56" y2="63"></line><line x1="297.6173906446562" x2="297.6173906446562" y1="64" y2="71"></line><line x1="431.57316600693207" x2="431.57316600693207" y1="72" y2="79"></line></g><g stroke="currentColor" transform="translate(0,233)"><line x1="120" x2="120" y1="24" y2="31"></line><line x1="120" x2="120" y1="32" y2="39"></line><line x1="120" x2="120" y1="40" y2="47"></line><line x1="120" x2="120" y1="48" y2="55"></line><line x1="120" x2="120" y1="56" y2="63"></line><line x1="120" x2="120" y1="64" y2="71"></line><line x1="120" x2="120" y1="72" y2="79"></line></g><g stroke="currentColor" transform="translate(0,310)"><line x1="176.1192706973673" x2="176.1192706973673" y1="24" y2="31"></line><line x1="177.47061468999857" x2="177.47061468999857" y1="32" y2="39"></line><line x1="182.37331011552826" x2="182.37331011552826" y1="40" y2="47"></line><line x1="198.8077872965603" x2="198.8077872965603" y1="48" y2="55"></line><line x1="203.2144990967204" x2="203.2144990967204" y1="56" y2="63"></line><line x1="193.453305654774" x2="193.453305654774" y1="64" y2="71"></line><line x1="183.4808147736835" x2="183.4808147736835" y1="72" y2="79"></line></g><g stroke="currentColor" transform="translate(0,387)"><line x1="244.77866713844287" x2="244.77866713844287" y1="24" y2="31"></line><line x1="248.60689702747715" x2="248.60689702747715" y1="32" y2="39"></line><line x1="261.6216106852336" x2="261.6216106852336" y1="40" y2="47"></line><line x1="358.9434164575016" x2="358.9434164575016" y1="48" y2="55"></line><line x1="385.87410430214175" x2="385.87410430214175" y1="56" y2="63"></line><line x1="243.19629037002974" x2="243.19629037002974" y1="64" y2="71"></line><line x1="249.00406727025828" x2="249.00406727025828" y1="72" y2="79"></line></g><g stroke="currentColor" transform="translate(0,464)"><line x1="195.3815709018367" x2="195.3815709018367" y1="24" y2="31"></line><line x1="204.16562687815986" x2="204.16562687815986" y1="32" y2="39"></line><line x1="206.20414385442703" x2="206.20414385442703" y1="40" y2="47"></line><line x1="231.1507922208574" x2="231.1507922208574" y1="48" y2="55"></line><line x1="235.49508808451003" x2="235.49508808451003" y1="56" y2="63"></line><line x1="207.62129517488535" x2="207.62129517488535" y1="64" y2="71"></line><line x1="213.07657281037075" x2="213.07657281037075" y1="72" y2="79"></line></g></g><g aria-label="text" transform="translate(6,3.5)"><g fill="black" text-anchor="start" font-size="9" transform="translate(0,2)"><text y="0.32em" transform="translate(127.86543188530266,24)">1.7 ms</text><text y="0.32em" transform="translate(136.89427789695975,32)">2.7 ms</text><text y="0.32em" transform="translate(140.83936272029084,40)">3.3 ms</text><text y="0.32em" transform="translate(202.52982197924422,48)">62.5 ms</text><text y="0.32em" transform="translate(209.17692242184955,56)">86 ms</text><text y="0.32em" transform="translate(160.6358760572145,64)">8.4 ms</text><text y="0.32em" transform="translate(181.51615840909008,72)">22.9 ms</text></g><g fill="black" text-anchor="start" font-size="9" transform="translate(0,79)"><text y="0.32em" transform="translate(120,24)">0.08 ms</text><text y="0.32em" transform="translate(120,32)">0.04 ms</text><text y="0.32em" transform="translate(120,40)">0.02 ms</text><text y="0.32em" transform="translate(120,48)">0.12 ms</text><text y="0.32em" transform="translate(120,56)">0.12 ms</text><text y="0.32em" transform="translate(120,64)">0.01 ms</text><text y="0.32em" transform="translate(120,72)">0.06 ms</text></g><g fill="black" text-anchor="start" font-size="9" transform="translate(0,156)"><text y="0.32em" transform="translate(130.21649358257224,24)">2 ms</text><text y="0.32em" transform="translate(139.31093837819745,32)">3 ms</text><text y="0.32em" transform="translate(141.17913473316273,40)">3.3 ms</text><text y="0.32em" transform="translate(240.03242457656341,48)">377 ms</text><text y="0.32em" transform="translate(241.63457946890878,56)">407 ms</text><text y="0.32em" transform="translate(297.6173906446562,64)">5.9 sec</text><text y="0.32em" transform="translate(431.57316600693207,72)">60.6 min</text></g><g fill="black" text-anchor="start" font-size="9" transform="translate(0,233)"><text y="0.32em" transform="translate(120,24)">0.08 ms</text><text y="0.32em" transform="translate(120,32)">0.04 ms</text><text y="0.32em" transform="translate(120,40)">0.02 ms</text><text y="0.32em" transform="translate(120,48)">0.12 ms</text><text y="0.32em" transform="translate(120,56)">0.12 ms</text><text y="0.32em" transform="translate(120,64)">0.01 ms</text><text y="0.32em" transform="translate(120,72)">0.06 ms</text></g><g fill="black" text-anchor="start" font-size="9" transform="translate(0,310)"><text y="0.32em" transform="translate(176.1192706973673,24)">17.6 ms</text><text y="0.32em" transform="translate(177.47061468999857,32)">18.8 ms</text><text y="0.32em" transform="translate(182.37331011552826,40)">23.8 ms</text><text y="0.32em" transform="translate(198.8077872965603,48)">52.3 ms</text><text y="0.32em" transform="translate(203.2144990967204,56)">64.6 ms</text><text y="0.32em" transform="translate(193.453305654774,64)">40.5 ms</text><text y="0.32em" transform="translate(183.4808147736835,72)">25.1 ms</text></g><g fill="black" text-anchor="start" font-size="9" transform="translate(0,387)"><text y="0.32em" transform="translate(244.77866713844287,24)">473 ms</text><text y="0.32em" transform="translate(248.60689702747715,32)">568 ms</text><text y="0.32em" transform="translate(261.6216106852336,40)">1.1 sec</text><text y="0.32em" transform="translate(358.9434164575016,48)">1.9 min</text><text y="0.32em" transform="translate(385.87410430214175,56)">6.8 min</text><text y="0.32em" transform="translate(243.19629037002974,64)">439 ms</text><text y="0.32em" transform="translate(249.00406727025828,72)">579 ms</text></g><g fill="black" text-anchor="start" font-size="9" transform="translate(0,464)"><text y="0.32em" transform="translate(195.3815709018367,24)">44.4 ms</text><text y="0.32em" transform="translate(204.16562687815986,32)">67.6 ms</text><text y="0.32em" transform="translate(206.20414385442703,40)">74.6 ms</text><text y="0.32em" transform="translate(231.1507922208574,48)">246 ms</text><text y="0.32em" transform="translate(235.49508808451003,56)">303 ms</text><text y="0.32em" transform="translate(207.62129517488535,64)">79.8 ms</text><text y="0.32em" transform="translate(213.07657281037075,72)">104 ms</text></g></g><g aria-label="text" transform="translate(0,-8)"><g font-size="9" font-weight="700" transform="translate(0,2)"><text opacity="0.6" y="0.71em" transform="translate(184.82705016249542,20)">x̄ = 26.8 ms</text></g><g font-size="9" font-weight="700" transform="translate(0,79)"><text opacity="0.6" y="0.71em" transform="translate(120,20)">x̄ = 0.06 ms</text></g><g font-size="9" font-weight="700" transform="translate(0,156)"><text opacity="0.6" y="0.71em" transform="translate(390.9876188484298,20)">x̄ = 8.7 min</text></g><g font-size="9" font-weight="700" transform="translate(0,233)"><text opacity="0.6" y="0.71em" transform="translate(120,20)">x̄ = 0.06 ms</text></g><g font-size="9" font-weight="700" transform="translate(0,310)"><text opacity="0.6" y="0.71em" transform="translate(190.2276597830077,20)">x̄ = 34.7 ms</text></g><g font-size="9" font-weight="700" transform="translate(0,387)"><text opacity="0.6" y="0.71em" transform="translate(350.45126104955744,20)">x̄ = 1.2 min</text></g><g font-size="9" font-weight="700" transform="translate(0,464)"><text opacity="0.6" y="0.71em" transform="translate(218.0288731010612,20)">x̄ = 131 ms</text></g></g><g aria-label="rule"><g stroke="currentColor" stroke-width="1.5" transform="translate(0,2)"><line x1="120" x2="120" y1="20" y2="83"></line></g><g stroke="currentColor" stroke-width="1.5" transform="translate(0,79)"><line x1="120" x2="120" y1="20" y2="83"></line></g><g stroke="currentColor" stroke-width="1.5" transform="translate(0,156)"><line x1="120" x2="120" y1="20" y2="83"></line></g><g stroke="currentColor" stroke-width="1.5" transform="translate(0,233)"><line x1="120" x2="120" y1="20" y2="83"></line></g><g stroke="currentColor" stroke-width="1.5" transform="translate(0,310)"><line x1="120" x2="120" y1="20" y2="83"></line></g><g stroke="currentColor" stroke-width="1.5" transform="translate(0,387)"><line x1="120" x2="120" y1="20" y2="83"></line></g><g stroke="currentColor" stroke-width="1.5" transform="translate(0,464)"><line x1="120" x2="120" y1="20" y2="83"></line></g></g></svg>