<svg class="plot-d6a7b5" fill="currentColor" font-family="system-ui, sans-serif" font-size="10" text-anchor="middle" width="500" height="580" viewBox="0 0 500 580" style="background: white; font-family: Helvetica Neue, Helvetica, Arial, sans-serif;" xmlns="http://www.w3.org/2000/svg" xmlns:xlink="http://www.w3.org/1999/xlink" version="1.1"><style>:where(.plot-d6a7b5) {
  --plot-background: white;
  display: block;
  height: auto;
  height: intrinsic;
  max-width: 100%;
}
:where(.plot-d6a7b5 text),
:where(.plot-d6a7b5 tspan) {
  white-space: pre;
}</style><g aria-label="x-grid" aria-hidden="true"><g stroke="currentColor" stroke-opacity="0.1" transform="translate(0,2)"><line x1="164.26410001091705" x2="164.26410001091705" y1="20" y2="83"></line><line x1="212.33447197165836" x2="212.33447197165836" y1="20" y2="83"></line><line x1="260.4048439323997" x2="260.4048439323997" y1="20" y2="83"></line><line x1="308.47521589314107" x2="308.47521589314107" y1="20" y2="83"></line><line x1="356.54558785388235" x2="356.54558785388235" y1="20" y2="83"></line><line x1="404.6159598146237" x2="404.6159598146237" y1="20" y2="83"></line><line x1="452.686331775365" x2="452.686331775365" y1="20" y2="83"></line></g><g stroke="currentColor" stroke-opacity="0.1" transform="translate(0,79)"><line x1="164.26410001091705" x2="164.26410001091705" y1="20" y2="83"></line><line x1="212.33447197165836" x2="212.33447197165836" y1="20" y2="83"></line><line x1="260.4048439323997" x2="260.4048439323997" y1="20" y2="83"></line><line x1="308.47521589314107" x2="308.47521589314107" y1="20" y2="83"></line><line x1="356.54558785388235" x2="356.54558785388235" y1="20" y2="83"></line><line x1="404.6159598146237" x2="404.6159598146237" y1="20" y2="83"></line><line x1="452.686331775365" x2="452.686331775365" y1="20" y2="83"></line></g><g stroke="currentColor" stroke-opacity="0.1" transform="translate(0,156)"><line x1="164.26410001091705" x2="164.26410001091705" y1="20" y2="83"></line><line x1="212.33447197165836" x2="212.33447197165836" y1="20" y2="83"></line><line x1="260.4048439323997" x2="260.4048439323997" y1="20" y2="83"></line><line x1="308.47521589314107" x2="308.47521589314107" y1="20" y2="83"></line><line x1="356.54558785388235" x2="356.54558785388235" y1="20" y2="83"></line><line x1="404.6159598146237" x2="404.6159598146237" y1="20" y2="83"></line><line x1="452.686331775365" x2="452.686331775365" y1="20" y2="83"></line></g><g stroke="currentColor" stroke-opacity="0.1" transform="translate(0,233)"><line x1="164.26410001091705" x2="164.26410001091705" y1="20" y2="83"></line><line x1="212.33447197165836" x2="212.33447197165836" y1="20" y2="83"></line><line x1="260.4048439323997" x2="260.4048439323997" y1="20" y2="83"></line><line x1="308.47521589314107" x2="308.47521589314107" y1="20" y2="83"></line><line x1="356.54558785388235" x2="356.54558785388235" y1="20" y2="83"></line><line x1="404.6159598146237" x2="404.6159598146237" y1="20" y2="83"></line><line x1="452.686331775365" x2="452.686331775365" y1="20" y2="83"></line></g><g stroke="currentColor" stroke-opacity="0.1" transform="translate(0,310)"><line x1="164.26410001091705" x2="164.26410001091705" y1="20" y2="83"></line><line x1="212.33447197165836" x2="212.33447197165836" y1="20" y2="83"></line><line x1="260.4048439323997" x2="260.4048439323997" y1="20" y2="83"></line><line x1="308.47521589314107" x2="308.47521589314107" y1="20" y2="83"></line><line x1="356.54558785388235" x2="356.54558785388235" y1="20" y2="83"></line><line x1="404.6159598146237" x2="404.6159598146237" y1="20" y2="83"></line><line x1="452.686331775365" x2="452.686331775365" y1="20" y2="83"></line></g><g stroke="currentColor" stroke-opacity="0.1" transform="translate(0,387)"><line x1="164.26410001091705" x2="164.26410001091705" y1="20" y2="83"></line><line x1="212.33447197165836" x2="212.33447197165836" y1="20" y2="83"></line><line x1="260.4048439323997" x2="260.4048439323997" y1="20" y2="83"></line><line x1="308.47521589314107" x2="308.47521589314107" y1="20" y2="83"></line><line x1="356.54558785388235" x2="356.54558785388235" y1="20" y2="83"></line><line x1="404.6159598146237" x2="404.6159598146237" y1="20" y2="83"></line><line x1="452.686331775365" x2="452.686331775365" y1="20" y2="83"></line></g><g stroke="currentColor" stroke-opacity="0.1" transform="translate(0,464)"><line x1="164.26410001091705" x2="164.26410001091705" y1="20" y2="83"></line><line x1="212.33447197165836" x2="212.33447197165836" y1="20" y2="83"></line><line x1="260.4048439323997" x2="260.4048439323997" y1="20" y2="83"></line><line x1="308.47521589314107" x2="308.47521589314107" y1="20" y2="83"></line><line x1="356.54558785388235" x2="356.54558785388235" y1="20" y2="83"></line><line x1="404.6159598146237" x2="404.6159598146237" y1="20" y2="83"></line><line x1="452.686331775365" x2="452.686331775365" y1="20" y2="83"></line></g></g><g aria-label="x-axis tick" aria-hidden="true"><g fill="none" stroke="currentColor" transform="translate(0,464)"><path transform="translate(164.26410001091705,83)" d="M0,0L0,6"></path><path transform="translate(212.33447197165836,83)" d="M0,0L0,6"></path><path transform="translate(260.4048439323997,83)" d="M0,0L0,6"></path><path transform="translate(308.47521589314107,83)" d="M0,0L0,6"></path><path transform="translate(356.54558785388235,83)" d="M0,0L0,6"></path><path transform="translate(404.6159598146237,83)" d="M0,0L0,6"></path><path transform="translate(452.686331775365,83)" d="M0,0L0,6"></path></g></g><g aria-label="x-axis tick label" transform="translate(0,9)"><g font-variant="tabular-nums" transform="translate(0,464)"><text y="0.71em" transform="translate(164.26410001091705,83)">10</text><text y="0.71em" transform="translate(212.33447197165836,83)">100</text><text y="0.71em" transform="translate(260.4048439323997,83)">1k</text><text y="0.71em" transform="translate(308.47521589314107,83)">10k</text><text y="0.71em" transform="translate(356.54558785388235,83)">100k</text><text y="0.71em" transform="translate(404.6159598146237,83)">1M</text><text y="0.71em" transform="translate(452.686331775365,83)">10M</text></g></g><g aria-label="x-axis label" text-anchor="end" transform="translate(17,27)"><text transform="translate(480,547)">Time taken (in milliseconds) to merge and reload changes. Log scale. (Less is better) →</text></g><g aria-label="x-grid" aria-hidden="true"><g stroke="currentColor" stroke-width="0.5" stroke-opacity="0.15" transform="translate(0,2)"><line x1="130.66435191308364" x2="130.66435191308364" y1="20" y2="83"></line><line x1="139.12912423492548" x2="139.12912423492548" y1="20" y2="83"></line><line x1="145.13497577599156" x2="145.13497577599156" y1="20" y2="83"></line><line x1="149.79347614800912" x2="149.79347614800912" y1="20" y2="83"></line><line x1="153.5997480978334" x2="153.5997480978334" y1="20" y2="83"></line><line x1="156.8179051769545" x2="156.8179051769545" y1="20" y2="83"></line><line x1="159.60559963889946" x2="159.60559963889946" y1="20" y2="83"></line><line x1="162.06452041967526" x2="162.06452041967526" y1="20" y2="83"></line><line x1="164.26410001091705" x2="164.26410001091705" y1="20" y2="83"></line><line x1="178.73472387382495" x2="178.73472387382495" y1="20" y2="83"></line><line x1="187.19949619566682" x2="187.19949619566682" y1="20" y2="83"></line><line x1="193.20534773673288" x2="193.20534773673288" y1="20" y2="83"></line><line x1="197.86384810875043" x2="197.86384810875043" y1="20" y2="83"></line><line x1="201.67012005857475" x2="201.67012005857475" y1="20" y2="83"></line><line x1="204.8882771376958" x2="204.8882771376958" y1="20" y2="83"></line><line x1="207.6759715996408" x2="207.6759715996408" y1="20" y2="83"></line><line x1="210.1348923804166" x2="210.1348923804166" y1="20" y2="83"></line><line x1="212.33447197165836" x2="212.33447197165836" y1="20" y2="83"></line><line x1="226.8050958345663" x2="226.8050958345663" y1="20" y2="83"></line><line x1="235.26986815640817" x2="235.26986815640817" y1="20" y2="83"></line><line x1="241.27571969747424" x2="241.27571969747424" y1="20" y2="83"></line><line x1="245.93422006949174" x2="245.93422006949174" y1="20" y2="83"></line><line x1="249.74049201931606" x2="249.74049201931606" y1="20" y2="83"></line><line x1="252.95864909843712" x2="252.95864909843712" y1="20" y2="83"></line><line x1="255.74634356038214" x2="255.74634356038214" y1="20" y2="83"></line><line x1="258.20526434115794" x2="258.20526434115794" y1="20" y2="83"></line><line x1="260.4048439323997" x2="260.4048439323997" y1="20" y2="83"></line><line x1="274.8754677953076" x2="274.8754677953076" y1="20" y2="83"></line><line x1="283.34024011714945" x2="283.34024011714945" y1="20" y2="83"></line><line x1="289.3460916582155" x2="289.3460916582155" y1="20" y2="83"></line><line x1="294.0045920302331" x2="294.0045920302331" y1="20" y2="83"></line><line x1="297.8108639800574" x2="297.8108639800574" y1="20" y2="83"></line><line x1="301.0290210591785" x2="301.0290210591785" y1="20" y2="83"></line><line x1="303.8167155211235" x2="303.8167155211235" y1="20" y2="83"></line><line x1="306.2756363018993" x2="306.2756363018993" y1="20" y2="83"></line><line x1="308.47521589314107" x2="308.47521589314107" y1="20" y2="83"></line><line x1="322.94583975604894" x2="322.94583975604894" y1="20" y2="83"></line><line x1="331.41061207789085" x2="331.41061207789085" y1="20" y2="83"></line><line x1="337.4164636189568" x2="337.4164636189568" y1="20" y2="83"></line><line x1="342.0749639909744" x2="342.0749639909744" y1="20" y2="83"></line><line x1="345.8812359407988" x2="345.8812359407988" y1="20" y2="83"></line><line x1="349.0993930199198" x2="349.0993930199198" y1="20" y2="83"></line><line x1="351.88708748186474" x2="351.88708748186474" y1="20" y2="83"></line><line x1="354.34600826264057" x2="354.34600826264057" y1="20" y2="83"></line><line x1="356.54558785388235" x2="356.54558785388235" y1="20" y2="83"></line><line x1="371.0162117167903" x2="371.0162117167903" y1="20" y2="83"></line><line x1="379.48098403863213" x2="379.48098403863213" y1="20" y2="83"></line><line x1="385.4868355796982" x2="385.4868355796982" y1="20" y2="83"></line><line x1="390.14533595171577" x2="390.14533595171577" y1="20" y2="83"></line><line x1="393.95160790154" x2="393.95160790154" y1="20" y2="83"></line><line x1="397.16976498066117" x2="397.16976498066117" y1="20" y2="83"></line><line x1="399.95745944260614" x2="399.95745944260614" y1="20" y2="83"></line><line x1="402.41638022338196" x2="402.41638022338196" y1="20" y2="83"></line><line x1="404.6159598146237" x2="404.6159598146237" y1="20" y2="83"></line><line x1="419.0865836775316" x2="419.0865836775316" y1="20" y2="83"></line><line x1="427.5513559993735" x2="427.5513559993735" y1="20" y2="83"></line><line x1="433.55720754043955" x2="433.55720754043955" y1="20" y2="83"></line><line x1="438.21570791245705" x2="438.21570791245705" y1="20" y2="83"></line><line x1="442.02197986228146" x2="442.02197986228146" y1="20" y2="83"></line><line x1="445.24013694140245" x2="445.24013694140245" y1="20" y2="83"></line><line x1="448.0278314033475" x2="448.0278314033475" y1="20" y2="83"></line><line x1="450.4867521841232" x2="450.4867521841232" y1="20" y2="83"></line><line x1="452.686331775365" x2="452.686331775365" y1="20" y2="83"></line><line x1="467.1569556382729" x2="467.1569556382729" y1="20" y2="83"></line><line x1="475.62172796011475" x2="475.62172796011475" y1="20" y2="83"></line></g><g stroke="currentColor" stroke-width="0.5" stroke-opacity="0.15" transform="translate(0,79)"><line x1="130.66435191308364" x2="130.66435191308364" y1="20" y2="83"></line><line x1="139.12912423492548" x2="139.12912423492548" y1="20" y2="83"></line><line x1="145.13497577599156" x2="145.13497577599156" y1="20" y2="83"></line><line x1="149.79347614800912" x2="149.79347614800912" y1="20" y2="83"></line><line x1="153.5997480978334" x2="153.5997480978334" y1="20" y2="83"></line><line x1="156.8179051769545" x2="156.8179051769545" y1="20" y2="83"></line><line x1="159.60559963889946" x2="159.60559963889946" y1="20" y2="83"></line><line x1="162.06452041967526" x2="162.06452041967526" y1="20" y2="83"></line><line x1="164.26410001091705" x2="164.26410001091705" y1="20" y2="83"></line><line x1="178.73472387382495" x2="178.73472387382495" y1="20" y2="83"></line><line x1="187.19949619566682" x2="187.19949619566682" y1="20" y2="83"></line><line x1="193.20534773673288" x2="193.20534773673288" y1="20" y2="83"></line><line x1="197.86384810875043" x2="197.86384810875043" y1="20" y2="83"></line><line x1="201.67012005857475" x2="201.67012005857475" y1="20" y2="83"></line><line x1="204.8882771376958" x2="204.8882771376958" y1="20" y2="83"></line><line x1="207.6759715996408" x2="207.6759715996408" y1="20" y2="83"></line><line x1="210.1348923804166" x2="210.1348923804166" y1="20" y2="83"></line><line x1="212.33447197165836" x2="212.33447197165836" y1="20" y2="83"></line><line x1="226.8050958345663" x2="226.8050958345663" y1="20" y2="83"></line><line x1="235.26986815640817" x2="235.26986815640817" y1="20" y2="83"></line><line x1="241.27571969747424" x2="241.27571969747424" y1="20" y2="83"></line><line x1="245.93422006949174" x2="245.93422006949174" y1="20" y2="83"></line><line x1="249.74049201931606" x2="249.74049201931606" y1="20" y2="83"></line><line x1="252.95864909843712" x2="252.95864909843712" y1="20" y2="83"></line><line x1="255.74634356038214" x2="255.74634356038214" y1="20" y2="83"></line><line x1="258.20526434115794" x2="258.20526434115794" y1="20" y2="83"></line><line x1="260.4048439323997" x2="260.4048439323997" y1="20" y2="83"></line><line x1="274.8754677953076" x2="274.8754677953076" y1="20" y2="83"></line><line x1="283.34024011714945" x2="283.34024011714945" y1="20" y2="83"></line><line x1="289.3460916582155" x2="289.3460916582155" y1="20" y2="83"></line><line x1="294.0045920302331" x2="294.0045920302331" y1="20" y2="83"></line><line x1="297.8108639800574" x2="297.8108639800574" y1="20" y2="83"></line><line x1="301.0290210591785" x2="301.0290210591785" y1="20" y2="83"></line><line x1="303.8167155211235" x2="303.8167155211235" y1="20" y2="83"></line><line x1="306.2756363018993" x2="306.2756363018993" y1="20" y2="83"></line><line x1="308.47521589314107" x2="308.47521589314107" y1="20" y2="83"></line><line x1="322.94583975604894" x2="322.94583975604894" y1="20" y2="83"></line><line x1="331.41061207789085" x2="331.41061207789085" y1="20" y2="83"></line><line x1="337.4164636189568" x2="337.4164636189568" y1="20" y2="83"></line><line x1="342.0749639909744" x2="342.0749639909744" y1="20" y2="83"></line><line x1="345.8812359407988" x2="345.8812359407988" y1="20" y2="83"></line><line x1="349.0993930199198" x2="349.0993930199198" y1="20" y2="83"></line><line x1="351.88708748186474" x2="351.88708748186474" y1="20" y2="83"></line><line x1="354.34600826264057" x2="354.34600826264057" y1="20" y2="83"></line><line x1="356.54558785388235" x2="356.54558785388235" y1="20" y2="83"></line><line x1="371.0162117167903" x2="371.0162117167903" y1="20" y2="83"></line><line x1="379.48098403863213" x2="379.48098403863213" y1="20" y2="83"></line><line x1="385.4868355796982" x2="385.4868355796982" y1="20" y2="83"></line><line x1="390.14533595171577" x2="390.14533595171577" y1="20" y2="83"></line><line x1="393.95160790154" x2="393.95160790154" y1="20" y2="83"></line><line x1="397.16976498066117" x2="397.16976498066117" y1="20" y2="83"></line><line x1="399.95745944260614" x2="399.95745944260614" y1="20" y2="83"></line><line x1="402.41638022338196" x2="402.41638022338196" y1="20" y2="83"></line><line x1="404.6159598146237" x2="404.6159598146237" y1="20" y2="83"></line><line x1="419.0865836775316" x2="419.0865836775316" y1="20" y2="83"></line><line x1="427.5513559993735" x2="427.5513559993735" y1="20" y2="83"></line><line x1="433.55720754043955" x2="433.55720754043955" y1="20" y2="83"></line><line x1="438.21570791245705" x2="438.21570791245705" y1="20" y2="83"></line><line x1="442.02197986228146" x2="442.02197986228146" y1="20" y2="83"></line><line x1="445.24013694140245" x2="445.24013694140245" y1="20" y2="83"></line><line x1="448.0278314033475" x2="448.0278314033475" y1="20" y2="83"></line><line x1="450.4867521841232" x2="450.4867521841232" y1="20" y2="83"></line><line x1="452.686331775365" x2="452.686331775365" y1="20" y2="83"></line><line x1="467.1569556382729" x2="467.1569556382729" y1="20" y2="83"></line><line x1="475.62172796011475" x2="475.62172796011475" y1="20" y2="83"></line></g><g stroke="currentColor" stroke-width="0.5" stroke-opacity="0.15" transform="translate(0,156)"><line x1="130.66435191308364" x2="130.66435191308364" y1="20" y2="83"></line><line x1="139.12912423492548" x2="139.12912423492548" y1="20" y2="83"></line><line x1="145.13497577599156" x2="145.13497577599156" y1="20" y2="83"></line><line x1="149.79347614800912" x2="149.79347614800912" y1="20" y2="83"></line><line x1="153.5997480978334" x2="153.5997480978334" y1="20" y2="83"></line><line x1="156.8179051769545" x2="156.8179051769545" y1="20" y2="83"></line><line x1="159.60559963889946" x2="159.60559963889946" y1="20" y2="83"></line><line x1="162.06452041967526" x2="162.06452041967526" y1="20" y2="83"></line><line x1="164.26410001091705" x2="164.26410001091705" y1="20" y2="83"></line><line x1="178.73472387382495" x2="178.73472387382495" y1="20" y2="83"></line><line x1="187.19949619566682" x2="187.19949619566682" y1="20" y2="83"></line><line x1="193.20534773673288" x2="193.20534773673288" y1="20" y2="83"></line><line x1="197.86384810875043" x2="197.86384810875043" y1="20" y2="83"></line><line x1="201.67012005857475" x2="201.67012005857475" y1="20" y2="83"></line><line x1="204.8882771376958" x2="204.8882771376958" y1="20" y2="83"></line><line x1="207.6759715996408" x2="207.6759715996408" y1="20" y2="83"></line><line x1="210.1348923804166" x2="210.1348923804166" y1="20" y2="83"></line><line x1="212.33447197165836" x2="212.33447197165836" y1="20" y2="83"></line><line x1="226.8050958345663" x2="226.8050958345663" y1="20" y2="83"></line><line x1="235.26986815640817" x2="235.26986815640817" y1="20" y2="83"></line><line x1="241.27571969747424" x2="241.27571969747424" y1="20" y2="83"></line><line x1="245.93422006949174" x2="245.93422006949174" y1="20" y2="83"></line><line x1="249.74049201931606" x2="249.74049201931606" y1="20" y2="83"></line><line x1="252.95864909843712" x2="252.95864909843712" y1="20" y2="83"></line><line x1="255.74634356038214" x2="255.74634356038214" y1="20" y2="83"></line><line x1="258.20526434115794" x2="258.20526434115794" y1="20" y2="83"></line><line x1="260.4048439323997" x2="260.4048439323997" y1="20" y2="83"></line><line x1="274.8754677953076" x2="274.8754677953076" y1="20" y2="83"></line><line x1="283.34024011714945" x2="283.34024011714945" y1="20" y2="83"></line><line x1="289.3460916582155" x2="289.3460916582155" y1="20" y2="83"></line><line x1="294.0045920302331" x2="294.0045920302331" y1="20" y2="83"></line><line x1="297.8108639800574" x2="297.8108639800574" y1="20" y2="83"></line><line x1="301.0290210591785" x2="301.0290210591785" y1="20" y2="83"></line><line x1="303.8167155211235" x2="303.8167155211235" y1="20" y2="83"></line><line x1="306.2756363018993" x2="306.2756363018993" y1="20" y2="83"></line><line x1="308.47521589314107" x2="308.47521589314107" y1="20" y2="83"></line><line x1="322.94583975604894" x2="322.94583975604894" y1="20" y2="83"></line><line x1="331.41061207789085" x2="331.41061207789085" y1="20" y2="83"></line><line x1="337.4164636189568" x2="337.4164636189568" y1="20" y2="83"></line><line x1="342.0749639909744" x2="342.0749639909744" y1="20" y2="83"></line><line x1="345.8812359407988" x2="345.8812359407988" y1="20" y2="83"></line><line x1="349.0993930199198" x2="349.0993930199198" y1="20" y2="83"></line><line x1="351.88708748186474" x2="351.88708748186474" y1="20" y2="83"></line><line x1="354.34600826264057" x2="354.34600826264057" y1="20" y2="83"></line><line x1="356.54558785388235" x2="356.54558785388235" y1="20" y2="83"></line><line x1="371.0162117167903" x2="371.0162117167903" y1="20" y2="83"></line><line x1="379.48098403863213" x2="379.48098403863213" y1="20" y2="83"></line><line x1="385.4868355796982" x2="385.4868355796982" y1="20" y2="83"></line><line x1="390.14533595171577" x2="390.14533595171577" y1="20" y2="83"></line><line x1="393.95160790154" x2="393.95160790154" y1="20" y2="83"></line><line x1="397.16976498066117" x2="397.16976498066117" y1="20" y2="83"></line><line x1="399.95745944260614" x2="399.95745944260614" y1="20" y2="83"></line><line x1="402.41638022338196" x2="402.41638022338196" y1="20" y2="83"></line><line x1="404.6159598146237" x2="404.6159598146237" y1="20" y2="83"></line><line x1="419.0865836775316" x2="419.0865836775316" y1="20" y2="83"></line><line x1="427.5513559993735" x2="427.5513559993735" y1="20" y2="83"></line><line x1="433.55720754043955" x2="433.55720754043955" y1="20" y2="83"></line><line x1="438.21570791245705" x2="438.21570791245705" y1="20" y2="83"></line><line x1="442.02197986228146" x2="442.02197986228146" y1="20" y2="83"></line><line x1="445.24013694140245" x2="445.24013694140245" y1="20" y2="83"></line><line x1="448.0278314033475" x2="448.0278314033475" y1="20" y2="83"></line><line x1="450.4867521841232" x2="450.4867521841232" y1="20" y2="83"></line><line x1="452.686331775365" x2="452.686331775365" y1="20" y2="83"></line><line x1="467.1569556382729" x2="467.1569556382729" y1="20" y2="83"></line><line x1="475.62172796011475" x2="475.62172796011475" y1="20" y2="83"></line></g><g stroke="currentColor" stroke-width="0.5" stroke-opacity="0.15" transform="translate(0,233)"><line x1="130.66435191308364" x2="130.66435191308364" y1="20" y2="83"></line><line x1="139.12912423492548" x2="139.12912423492548" y1="20" y2="83"></line><line x1="145.13497577599156" x2="145.13497577599156" y1="20" y2="83"></line><line x1="149.79347614800912" x2="149.79347614800912" y1="20" y2="83"></line><line x1="153.5997480978334" x2="153.5997480978334" y1="20" y2="83"></line><line x1="156.8179051769545" x2="156.8179051769545" y1="20" y2="83"></line><line x1="159.60559963889946" x2="159.60559963889946" y1="20" y2="83"></line><line x1="162.06452041967526" x2="162.06452041967526" y1="20" y2="83"></line><line x1="164.26410001091705" x2="164.26410001091705" y1="20" y2="83"></line><line x1="178.73472387382495" x2="178.73472387382495" y1="20" y2="83"></line><line x1="187.19949619566682" x2="187.19949619566682" y1="20" y2="83"></line><line x1="193.20534773673288" x2="193.20534773673288" y1="20" y2="83"></line><line x1="197.86384810875043" x2="197.86384810875043" y1="20" y2="83"></line><line x1="201.67012005857475" x2="201.67012005857475" y1="20" y2="83"></line><line x1="204.8882771376958" x2="204.8882771376958" y1="20" y2="83"></line><line x1="207.6759715996408" x2="207.6759715996408" y1="20" y2="83"></line><line x1="210.1348923804166" x2="210.1348923804166" y1="20" y2="83"></line><line x1="212.33447197165836" x2="212.33447197165836" y1="20" y2="83"></line><line x1="226.8050958345663" x2="226.8050958345663" y1="20" y2="83"></line><line x1="235.26986815640817" x2="235.26986815640817" y1="20" y2="83"></line><line x1="241.27571969747424" x2="241.27571969747424" y1="20" y2="83"></line><line x1="245.93422006949174" x2="245.93422006949174" y1="20" y2="83"></line><line x1="249.74049201931606" x2="249.74049201931606" y1="20" y2="83"></line><line x1="252.95864909843712" x2="252.95864909843712" y1="20" y2="83"></line><line x1="255.74634356038214" x2="255.74634356038214" y1="20" y2="83"></line><line x1="258.20526434115794" x2="258.20526434115794" y1="20" y2="83"></line><line x1="260.4048439323997" x2="260.4048439323997" y1="20" y2="83"></line><line x1="274.8754677953076" x2="274.8754677953076" y1="20" y2="83"></line><line x1="283.34024011714945" x2="283.34024011714945" y1="20" y2="83"></line><line x1="289.3460916582155" x2="289.3460916582155" y1="20" y2="83"></line><line x1="294.0045920302331" x2="294.0045920302331" y1="20" y2="83"></line><line x1="297.8108639800574" x2="297.8108639800574" y1="20" y2="83"></line><line x1="301.0290210591785" x2="301.0290210591785" y1="20" y2="83"></line><line x1="303.8167155211235" x2="303.8167155211235" y1="20" y2="83"></line><line x1="306.2756363018993" x2="306.2756363018993" y1="20" y2="83"></line><line x1="308.47521589314107" x2="308.47521589314107" y1="20" y2="83"></line><line x1="322.94583975604894" x2="322.94583975604894" y1="20" y2="83"></line><line x1="331.41061207789085" x2="331.41061207789085" y1="20" y2="83"></line><line x1="337.4164636189568" x2="337.4164636189568" y1="20" y2="83"></line><line x1="342.0749639909744" x2="342.0749639909744" y1="20" y2="83"></line><line x1="345.8812359407988" x2="345.8812359407988" y1="20" y2="83"></line><line x1="349.0993930199198" x2="349.0993930199198" y1="20" y2="83"></line><line x1="351.88708748186474" x2="351.88708748186474" y1="20" y2="83"></line><line x1="354.34600826264057" x2="354.34600826264057" y1="20" y2="83"></line><line x1="356.54558785388235" x2="356.54558785388235" y1="20" y2="83"></line><line x1="371.0162117167903" x2="371.0162117167903" y1="20" y2="83"></line><line x1="379.48098403863213" x2="379.48098403863213" y1="20" y2="83"></line><line x1="385.4868355796982" x2="385.4868355796982" y1="20" y2="83"></line><line x1="390.14533595171577" x2="390.14533595171577" y1="20" y2="83"></line><line x1="393.95160790154" x2="393.95160790154" y1="20" y2="83"></line><line x1="397.16976498066117" x2="397.16976498066117" y1="20" y2="83"></line><line x1="399.95745944260614" x2="399.95745944260614" y1="20" y2="83"></line><line x1="402.41638022338196" x2="402.41638022338196" y1="20" y2="83"></line><line x1="404.6159598146237" x2="404.6159598146237" y1="20" y2="83"></line><line x1="419.0865836775316" x2="419.0865836775316" y1="20" y2="83"></line><line x1="427.5513559993735" x2="427.5513559993735" y1="20" y2="83"></line><line x1="433.55720754043955" x2="433.55720754043955" y1="20" y2="83"></line><line x1="438.21570791245705" x2="438.21570791245705" y1="20" y2="83"></line><line x1="442.02197986228146" x2="442.02197986228146" y1="20" y2="83"></line><line x1="445.24013694140245" x2="445.24013694140245" y1="20" y2="83"></line><line x1="448.0278314033475" x2="448.0278314033475" y1="20" y2="83"></line><line x1="450.4867521841232" x2="450.4867521841232" y1="20" y2="83"></line><line x1="452.686331775365" x2="452.686331775365" y1="20" y2="83"></line><line x1="467.1569556382729" x2="467.1569556382729" y1="20" y2="83"></line><line x1="475.62172796011475" x2="475.62172796011475" y1="20" y2="83"></line></g><g stroke="currentColor" stroke-width="0.5" stroke-opacity="0.15" transform="translate(0,310)"><line x1="130.66435191308364" x2="130.66435191308364" y1="20" y2="83"></line><line x1="139.12912423492548" x2="139.12912423492548" y1="20" y2="83"></line><line x1="145.13497577599156" x2="145.13497577599156" y1="20" y2="83"></line><line x1="149.79347614800912" x2="149.79347614800912" y1="20" y2="83"></line><line x1="153.5997480978334" x2="153.5997480978334" y1="20" y2="83"></line><line x1="156.8179051769545" x2="156.8179051769545" y1="20" y2="83"></line><line x1="159.60559963889946" x2="159.60559963889946" y1="20" y2="83"></line><line x1="162.06452041967526" x2="162.06452041967526" y1="20" y2="83"></line><line x1="164.26410001091705" x2="164.26410001091705" y1="20" y2="83"></line><line x1="178.73472387382495" x2="178.73472387382495" y1="20" y2="83"></line><line x1="187.19949619566682" x2="187.19949619566682" y1="20" y2="83"></line><line x1="193.20534773673288" x2="193.20534773673288" y1="20" y2="83"></line><line x1="197.86384810875043" x2="197.86384810875043" y1="20" y2="83"></line><line x1="201.67012005857475" x2="201.67012005857475" y1="20" y2="83"></line><line x1="204.8882771376958" x2="204.8882771376958" y1="20" y2="83"></line><line x1="207.6759715996408" x2="207.6759715996408" y1="20" y2="83"></line><line x1="210.1348923804166" x2="210.1348923804166" y1="20" y2="83"></line><line x1="212.33447197165836" x2="212.33447197165836" y1="20" y2="83"></line><line x1="226.8050958345663" x2="226.8050958345663" y1="20" y2="83"></line><line x1="235.26986815640817" x2="235.26986815640817" y1="20" y2="83"></line><line x1="241.27571969747424" x2="241.27571969747424" y1="20" y2="83"></line><line x1="245.93422006949174" x2="245.93422006949174" y1="20" y2="83"></line><line x1="249.74049201931606" x2="249.74049201931606" y1="20" y2="83"></line><line x1="252.95864909843712" x2="252.95864909843712" y1="20" y2="83"></line><line x1="255.74634356038214" x2="255.74634356038214" y1="20" y2="83"></line><line x1="258.20526434115794" x2="258.20526434115794" y1="20" y2="83"></line><line x1="260.4048439323997" x2="260.4048439323997" y1="20" y2="83"></line><line x1="274.8754677953076" x2="274.8754677953076" y1="20" y2="83"></line><line x1="283.34024011714945" x2="283.34024011714945" y1="20" y2="83"></line><line x1="289.3460916582155" x2="289.3460916582155" y1="20" y2="83"></line><line x1="294.0045920302331" x2="294.0045920302331" y1="20" y2="83"></line><line x1="297.8108639800574" x2="297.8108639800574" y1="20" y2="83"></line><line x1="301.0290210591785" x2="301.0290210591785" y1="20" y2="83"></line><line x1="303.8167155211235" x2="303.8167155211235" y1="20" y2="83"></line><line x1="306.2756363018993" x2="306.2756363018993" y1="20" y2="83"></line><line x1="308.47521589314107" x2="308.47521589314107" y1="20" y2="83"></line><line x1="322.94583975604894" x2="322.94583975604894" y1="20" y2="83"></line><line x1="331.41061207789085" x2="331.41061207789085" y1="20" y2="83"></line><line x1="337.4164636189568" x2="337.4164636189568" y1="20" y2="83"></line><line x1="342.0749639909744" x2="342.0749639909744" y1="20" y2="83"></line><line x1="345.8812359407988" x2="345.8812359407988" y1="20" y2="83"></line><line x1="349.0993930199198" x2="349.0993930199198" y1="20" y2="83"></line><line x1="351.88708748186474" x2="351.88708748186474" y1="20" y2="83"></line><line x1="354.34600826264057" x2="354.34600826264057" y1="20" y2="83"></line><line x1="356.54558785388235" x2="356.54558785388235" y1="20" y2="83"></line><line x1="371.0162117167903" x2="371.0162117167903" y1="20" y2="83"></line><line x1="379.48098403863213" x2="379.48098403863213" y1="20" y2="83"></line><line x1="385.4868355796982" x2="385.4868355796982" y1="20" y2="83"></line><line x1="390.14533595171577" x2="390.14533595171577" y1="20" y2="83"></line><line x1="393.95160790154" x2="393.95160790154" y1="20" y2="83"></line><line x1="397.16976498066117" x2="397.16976498066117" y1="20" y2="83"></line><line x1="399.95745944260614" x2="399.95745944260614" y1="20" y2="83"></line><line x1="402.41638022338196" x2="402.41638022338196" y1="20" y2="83"></line><line x1="404.6159598146237" x2="404.6159598146237" y1="20" y2="83"></line><line x1="419.0865836775316" x2="419.0865836775316" y1="20" y2="83"></line><line x1="427.5513559993735" x2="427.5513559993735" y1="20" y2="83"></line><line x1="433.55720754043955" x2="433.55720754043955" y1="20" y2="83"></line><line x1="438.21570791245705" x2="438.21570791245705" y1="20" y2="83"></line><line x1="442.02197986228146" x2="442.02197986228146" y1="20" y2="83"></line><line x1="445.24013694140245" x2="445.24013694140245" y1="20" y2="83"></line><line x1="448.0278314033475" x2="448.0278314033475" y1="20" y2="83"></line><line x1="450.4867521841232" x2="450.4867521841232" y1="20" y2="83"></line><line x1="452.686331775365" x2="452.686331775365" y1="20" y2="83"></line><line x1="467.1569556382729" x2="467.1569556382729" y1="20" y2="83"></line><line x1="475.62172796011475" x2="475.62172796011475" y1="20" y2="83"></line></g><g stroke="currentColor" stroke-width="0.5" stroke-opacity="0.15" transform="translate(0,387)"><line x1="130.66435191308364" x2="130.66435191308364" y1="20" y2="83"></line><line x1="139.12912423492548" x2="139.12912423492548" y1="20" y2="83"></line><line x1="145.13497577599156" x2="145.13497577599156" y1="20" y2="83"></line><line x1="149.79347614800912" x2="149.79347614800912" y1="20" y2="83"></line><line x1="153.5997480978334" x2="153.5997480978334" y1="20" y2="83"></line><line x1="156.8179051769545" x2="156.8179051769545" y1="20" y2="83"></line><line x1="159.60559963889946" x2="159.60559963889946" y1="20" y2="83"></line><line x1="162.06452041967526" x2="162.06452041967526" y1="20" y2="83"></line><line x1="164.26410001091705" x2="164.26410001091705" y1="20" y2="83"></line><line x1="178.73472387382495" x2="178.73472387382495" y1="20" y2="83"></line><line x1="187.19949619566682" x2="187.19949619566682" y1="20" y2="83"></line><line x1="193.20534773673288" x2="193.20534773673288" y1="20" y2="83"></line><line x1="197.86384810875043" x2="197.86384810875043" y1="20" y2="83"></line><line x1="201.67012005857475" x2="201.67012005857475" y1="20" y2="83"></line><line x1="204.8882771376958" x2="204.8882771376958" y1="20" y2="83"></line><line x1="207.6759715996408" x2="207.6759715996408" y1="20" y2="83"></line><line x1="210.1348923804166" x2="210.1348923804166" y1="20" y2="83"></line><line x1="212.33447197165836" x2="212.33447197165836" y1="20" y2="83"></line><line x1="226.8050958345663" x2="226.8050958345663" y1="20" y2="83"></line><line x1="235.26986815640817" x2="235.26986815640817" y1="20" y2="83"></line><line x1="241.27571969747424" x2="241.27571969747424" y1="20" y2="83"></line><line x1="245.93422006949174" x2="245.93422006949174" y1="20" y2="83"></line><line x1="249.74049201931606" x2="249.74049201931606" y1="20" y2="83"></line><line x1="252.95864909843712" x2="252.95864909843712" y1="20" y2="83"></line><line x1="255.74634356038214" x2="255.74634356038214" y1="20" y2="83"></line><line x1="258.20526434115794" x2="258.20526434115794" y1="20" y2="83"></line><line x1="260.4048439323997" x2="260.4048439323997" y1="20" y2="83"></line><line x1="274.8754677953076" x2="274.8754677953076" y1="20" y2="83"></line><line x1="283.34024011714945" x2="283.34024011714945" y1="20" y2="83"></line><line x1="289.3460916582155" x2="289.3460916582155" y1="20" y2="83"></line><line x1="294.0045920302331" x2="294.0045920302331" y1="20" y2="83"></line><line x1="297.8108639800574" x2="297.8108639800574" y1="20" y2="83"></line><line x1="301.0290210591785" x2="301.0290210591785" y1="20" y2="83"></line><line x1="303.8167155211235" x2="303.8167155211235" y1="20" y2="83"></line><line x1="306.2756363018993" x2="306.2756363018993" y1="20" y2="83"></line><line x1="308.47521589314107" x2="308.47521589314107" y1="20" y2="83"></line><line x1="322.94583975604894" x2="322.94583975604894" y1="20" y2="83"></line><line x1="331.41061207789085" x2="331.41061207789085" y1="20" y2="83"></line><line x1="337.4164636189568" x2="337.4164636189568" y1="20" y2="83"></line><line x1="342.0749639909744" x2="342.0749639909744" y1="20" y2="83"></line><line x1="345.8812359407988" x2="345.8812359407988" y1="20" y2="83"></line><line x1="349.0993930199198" x2="349.0993930199198" y1="20" y2="83"></line><line x1="351.88708748186474" x2="351.88708748186474" y1="20" y2="83"></line><line x1="354.34600826264057" x2="354.34600826264057" y1="20" y2="83"></line><line x1="356.54558785388235" x2="356.54558785388235" y1="20" y2="83"></line><line x1="371.0162117167903" x2="371.0162117167903" y1="20" y2="83"></line><line x1="379.48098403863213" x2="379.48098403863213" y1="20" y2="83"></line><line x1="385.4868355796982" x2="385.4868355796982" y1="20" y2="83"></line><line x1="390.14533595171577" x2="390.14533595171577" y1="20" y2="83"></line><line x1="393.95160790154" x2="393.95160790154" y1="20" y2="83"></line><line x1="397.16976498066117" x2="397.16976498066117" y1="20" y2="83"></line><line x1="399.95745944260614" x2="399.95745944260614" y1="20" y2="83"></line><line x1="402.41638022338196" x2="402.41638022338196" y1="20" y2="83"></line><line x1="404.6159598146237" x2="404.6159598146237" y1="20" y2="83"></line><line x1="419.0865836775316" x2="419.0865836775316" y1="20" y2="83"></line><line x1="427.5513559993735" x2="427.5513559993735" y1="20" y2="83"></line><line x1="433.55720754043955" x2="433.55720754043955" y1="20" y2="83"></line><line x1="438.21570791245705" x2="438.21570791245705" y1="20" y2="83"></line><line x1="442.02197986228146" x2="442.02197986228146" y1="20" y2="83"></line><line x1="445.24013694140245" x2="445.24013694140245" y1="20" y2="83"></line><line x1="448.0278314033475" x2="448.0278314033475" y1="20" y2="83"></line><line x1="450.4867521841232" x2="450.4867521841232" y1="20" y2="83"></line><line x1="452.686331775365" x2="452.686331775365" y1="20" y2="83"></line><line x1="467.1569556382729" x2="467.1569556382729" y1="20" y2="83"></line><line x1="475.62172796011475" x2="475.62172796011475" y1="20" y2="83"></line></g><g stroke="currentColor" stroke-width="0.5" stroke-opacity="0.15" transform="translate(0,464)"><line x1="130.66435191308364" x2="130.66435191308364" y1="20" y2="83"></line><line x1="139.12912423492548" x2="139.12912423492548" y1="20" y2="83"></line><line x1="145.13497577599156" x2="145.13497577599156" y1="20" y2="83"></line><line x1="149.79347614800912" x2="149.79347614800912" y1="20" y2="83"></line><line x1="153.5997480978334" x2="153.5997480978334" y1="20" y2="83"></line><line x1="156.8179051769545" x2="156.8179051769545" y1="20" y2="83"></line><line x1="159.60559963889946" x2="159.60559963889946" y1="20" y2="83"></line><line x1="162.06452041967526" x2="162.06452041967526" y1="20" y2="83"></line><line x1="164.26410001091705" x2="164.26410001091705" y1="20" y2="83"></line><line x1="178.73472387382495" x2="178.73472387382495" y1="20" y2="83"></line><line x1="187.19949619566682" x2="187.19949619566682" y1="20" y2="83"></line><line x1="193.20534773673288" x2="193.20534773673288" y1="20" y2="83"></line><line x1="197.86384810875043" x2="197.86384810875043" y1="20" y2="83"></line><line x1="201.67012005857475" x2="201.67012005857475" y1="20" y2="83"></line><line x1="204.8882771376958" x2="204.8882771376958" y1="20" y2="83"></line><line x1="207.6759715996408" x2="207.6759715996408" y1="20" y2="83"></line><line x1="210.1348923804166" x2="210.1348923804166" y1="20" y2="83"></line><line x1="212.33447197165836" x2="212.33447197165836" y1="20" y2="83"></line><line x1="226.8050958345663" x2="226.8050958345663" y1="20" y2="83"></line><line x1="235.26986815640817" x2="235.26986815640817" y1="20" y2="83"></line><line x1="241.27571969747424" x2="241.27571969747424" y1="20" y2="83"></line><line x1="245.93422006949174" x2="245.93422006949174" y1="20" y2="83"></line><line x1="249.74049201931606" x2="249.74049201931606" y1="20" y2="83"></line><line x1="252.95864909843712" x2="252.95864909843712" y1="20" y2="83"></line><line x1="255.74634356038214" x2="255.74634356038214" y1="20" y2="83"></line><line x1="258.20526434115794" x2="258.20526434115794" y1="20" y2="83"></line><line x1="260.4048439323997" x2="260.4048439323997" y1="20" y2="83"></line><line x1="274.8754677953076" x2="274.8754677953076" y1="20" y2="83"></line><line x1="283.34024011714945" x2="283.34024011714945" y1="20" y2="83"></line><line x1="289.3460916582155" x2="289.3460916582155" y1="20" y2="83"></line><line x1="294.0045920302331" x2="294.0045920302331" y1="20" y2="83"></line><line x1="297.8108639800574" x2="297.8108639800574" y1="20" y2="83"></line><line x1="301.0290210591785" x2="301.0290210591785" y1="20" y2="83"></line><line x1="303.8167155211235" x2="303.8167155211235" y1="20" y2="83"></line><line x1="306.2756363018993" x2="306.2756363018993" y1="20" y2="83"></line><line x1="308.47521589314107" x2="308.47521589314107" y1="20" y2="83"></line><line x1="322.94583975604894" x2="322.94583975604894" y1="20" y2="83"></line><line x1="331.41061207789085" x2="331.41061207789085" y1="20" y2="83"></line><line x1="337.4164636189568" x2="337.4164636189568" y1="20" y2="83"></line><line x1="342.0749639909744" x2="342.0749639909744" y1="20" y2="83"></line><line x1="345.8812359407988" x2="345.8812359407988" y1="20" y2="83"></line><line x1="349.0993930199198" x2="349.0993930199198" y1="20" y2="83"></line><line x1="351.88708748186474" x2="351.88708748186474" y1="20" y2="83"></line><line x1="354.34600826264057" x2="354.34600826264057" y1="20" y2="83"></line><line x1="356.54558785388235" x2="356.54558785388235" y1="20" y2="83"></line><line x1="371.0162117167903" x2="371.0162117167903" y1="20" y2="83"></line><line x1="379.48098403863213" x2="379.48098403863213" y1="20" y2="83"></line><line x1="385.4868355796982" x2="385.4868355796982" y1="20" y2="83"></line><line x1="390.14533595171577" x2="390.14533595171577" y1="20" y2="83"></line><line x1="393.95160790154" x2="393.95160790154" y1="20" y2="83"></line><line x1="397.16976498066117" x2="397.16976498066117" y1="20" y2="83"></line><line x1="399.95745944260614" x2="399.95745944260614" y1="20" y2="83"></line><line x1="402.41638022338196" x2="402.41638022338196" y1="20" y2="83"></line><line x1="404.6159598146237" x2="404.6159598146237" y1="20" y2="83"></line><line x1="419.0865836775316" x2="419.0865836775316" y1="20" y2="83"></line><line x1="427.5513559993735" x2="427.5513559993735" y1="20" y2="83"></line><line x1="433.55720754043955" x2="433.55720754043955" y1="20" y2="83"></line><line x1="438.21570791245705" x2="438.21570791245705" y1="20" y2="83"></line><line x1="442.02197986228146" x2="442.02197986228146" y1="20" y2="83"></line><line x1="445.24013694140245" x2="445.24013694140245" y1="20" y2="83"></line><line x1="448.0278314033475" x2="448.0278314033475" y1="20" y2="83"></line><line x1="450.4867521841232" x2="450.4867521841232" y1="20" y2="83"></line><line x1="452.686331775365" x2="452.686331775365" y1="20" y2="83"></line><line x1="467.1569556382729" x2="467.1569556382729" y1="20" y2="83"></line><line x1="475.62172796011475" x2="475.62172796011475" y1="20" y2="83"></line></g></g><g aria-label="y-axis tick" aria-hidden="true" transform="translate(0,3.5)"><g fill="none" stroke="currentColor" stroke-opacity="0.4" transform="translate(0,2)"><path transform="translate(120,24)" d="M0,0L-6,0"></path><path transform="translate(120,32)" d="M0,0L-6,0"></path><path transform="translate(120,40)" d="M0,0L-6,0"></path><path transform="translate(120,48)" d="M0,0L-6,0"></path><path transform="translate(120,56)" d="M0,0L-6,0"></path><path transform="translate(120,64)" d="M0,0L-6,0"></path><path transform="translate(120,72)" d="M0,0L-6,0"></path></g><g fill="none" stroke="currentColor" stroke-opacity="0.4" transform="translate(0,79)"><path transform="translate(120,24)" d="M0,0L-6,0"></path><path transform="translate(120,32)" d="M0,0L-6,0"></path><path transform="translate(120,40)" d="M0,0L-6,0"></path><path transform="translate(120,48)" d="M0,0L-6,0"></path><path transform="translate(120,56)" d="M0,0L-6,0"></path><path transform="translate(120,64)" d="M0,0L-6,0"></path><path transform="translate(120,72)" d="M0,0L-6,0"></path></g><g fill="none" stroke="currentColor" stroke-opacity="0.4" transform="translate(0,156)"><path transform="translate(120,24)" d="M0,0L-6,0"></path><path transform="translate(120,32)" d="M0,0L-6,0"></path><path transform="translate(120,40)" d="M0,0L-6,0"></path><path transform="translate(120,48)" d="M0,0L-6,0"></path><path transform="translate(120,56)" d="M0,0L-6,0"></path><path transform="translate(120,64)" d="M0,0L-6,0"></path><path transform="translate(120,72)" d="M0,0L-6,0"></path></g><g fill="none" stroke="currentColor" stroke-opacity="0.4" transform="translate(0,233)"><path transform="translate(120,24)" d="M0,0L-6,0"></path><path transform="translate(120,32)" d="M0,0L-6,0"></path><path transform="translate(120,40)" d="M0,0L-6,0"></path><path transform="translate(120,48)" d="M0,0L-6,0"></path><path transform="translate(120,56)" d="M0,0L-6,0"></path><path transform="translate(120,64)" d="M0,0L-6,0"></path><path transform="translate(120,72)" d="M0,0L-6,0"></path></g><g fill="none" stroke="currentColor" stroke-opacity="0.4" transform="translate(0,310)"><path transform="translate(120,24)" d="M0,0L-6,0"></path><path transform="translate(120,32)" d="M0,0L-6,0"></path><path transform="translate(120,40)" d="M0,0L-6,0"></path><path transform="translate(120,48)" d="M0,0L-6,0"></path><path transform="translate(120,56)" d="M0,0L-6,0"></path><path transform="translate(120,64)" d="M0,0L-6,0"></path><path transform="translate(120,72)" d="M0,0L-6,0"></path></g><g fill="none" stroke="currentColor" stroke-opacity="0.4" transform="translate(0,387)"><path transform="translate(120,24)" d="M0,0L-6,0"></path><path transform="translate(120,32)" d="M0,0L-6,0"></path><path transform="translate(120,40)" d="M0,0L-6,0"></path><path transform="translate(120,48)" d="M0,0L-6,0"></path><path transform="translate(120,56)" d="M0,0L-6,0"></path><path transform="translate(120,64)" d="M0,0L-6,0"></path><path transform="translate(120,72)" d="M0,0L-6,0"></path></g><g fill="none" stroke="currentColor" stroke-opacity="0.4" transform="translate(0,464)"><path transform="translate(120,24)" d="M0,0L-6,0"></path><path transform="translate(120,32)" d="M0,0L-6,0"></path><path transform="translate(120,40)" d="M0,0L-6,0"></path><path transform="translate(120,48)" d="M0,0L-6,0"></path><path transform="translate(120,56)" d="M0,0L-6,0"></path><path transform="translate(120,64)" d="M0,0L-6,0"></path><path transform="translate(120,72)" d="M0,0L-6,0"></path></g></g><g aria-label="y-axis tick label" transform="translate(-9,3.5)"><g fill-opacity="0.4" text-anchor="end" font-size="8" font-weight="700" transform="translate(0,2)"><text y="0.32em" transform="translate(120,24)">S1</text><text y="0.32em" transform="translate(120,32)">S2</text><text y="0.32em" transform="translate(120,40)">S3</text><text y="0.32em" transform="translate(120,48)">C1</text><text y="0.32em" transform="translate(120,56)">C2</text><text y="0.32em" transform="translate(120,64)">A1</text><text y="0.32em" transform="translate(120,72)">A2</text></g><g fill-opacity="0.4" text-anchor="end" font-size="8" font-weight="700" transform="translate(0,79)"><text y="0.32em" transform="translate(120,24)">S1</text><text y="0.32em" transform="translate(120,32)">S2</text><text y="0.32em" transform="translate(120,40)">S3</text><text y="0.32em" transform="translate(120,48)">C1</text><text y="0.32em" transform="translate(120,56)">C2</text><text y="0.32em" transform="translate(120,64)">A1</text><text y="0.32em" transform="translate(120,72)">A2</text></g><g fill-opacity="0.4" text-anchor="end" font-size="8" font-weight="700" transform="translate(0,156)"><text y="0.32em" transform="translate(120,24)">S1</text><text y="0.32em" transform="translate(120,32)">S2</text><text y="0.32em" transform="translate(120,40)">S3</text><text y="0.32em" transform="translate(120,48)">C1</text><text y="0.32em" transform="translate(120,56)">C2</text><text y="0.32em" transform="translate(120,64)">A1</text><text y="0.32em" transform="translate(120,72)">A2</text></g><g fill-opacity="0.4" text-anchor="end" font-size="8" font-weight="700" transform="translate(0,233)"><text y="0.32em" transform="translate(120,24)">S1</text><text y="0.32em" transform="translate(120,32)">S2</text><text y="0.32em" transform="translate(120,40)">S3</text><text y="0.32em" transform="translate(120,48)">C1</text><text y="0.32em" transform="translate(120,56)">C2</text><text y="0.32em" transform="translate(120,64)">A1</text><text y="0.32em" transform="translate(120,72)">A2</text></g><g fill-opacity="0.4" text-anchor="end" font-size="8" font-weight="700" transform="translate(0,310)"><text y="0.32em" transform="translate(120,24)">S1</text><text y="0.32em" transform="translate(120,32)">S2</text><text y="0.32em" transform="translate(120,40)">S3</text><text y="0.32em" transform="translate(120,48)">C1</text><text y="0.32em" transform="translate(120,56)">C2</text><text y="0.32em" transform="translate(120,64)">A1</text><text y="0.32em" transform="translate(120,72)">A2</text></g><g fill-opacity="0.4" text-anchor="end" font-size="8" font-weight="700" transform="translate(0,387)"><text y="0.32em" transform="translate(120,24)">S1</text><text y="0.32em" transform="translate(120,32)">S2</text><text y="0.32em" transform="translate(120,40)">S3</text><text y="0.32em" transform="translate(120,48)">C1</text><text y="0.32em" transform="translate(120,56)">C2</text><text y="0.32em" transform="translate(120,64)">A1</text><text y="0.32em" transform="translate(120,72)">A2</text></g><g fill-opacity="0.4" text-anchor="end" font-size="8" font-weight="700" transform="translate(0,464)"><text y="0.32em" transform="translate(120,24)">S1</text><text y="0.32em" transform="translate(120,32)">S2</text><text y="0.32em" transform="translate(120,40)">S3</text><text y="0.32em" transform="translate(120,48)">C1</text><text y="0.32em" transform="translate(120,56)">C2</text><text y="0.32em" transform="translate(120,64)">A1</text><text y="0.32em" transform="translate(120,72)">A2</text></g></g><g aria-label="rule"><g stroke="black" transform="translate(0,2)"><line opacity="0.4" x1="183.77049522589235" x2="183.77049522589235" y1="22" y2="81"></line></g><g stroke="black" transform="translate(0,156)"><line opacity="0.4" x1="391.14280566162137" x2="391.14280566162137" y1="22" y2="81"></line></g><g stroke="black" transform="translate(0,310)"><line opacity="0.4" x1="190.8045320262977" x2="190.8045320262977" y1="22" y2="81"></line></g><g stroke="black" transform="translate(0,387)"><line opacity="0.4" x1="350.4090348276213" x2="350.4090348276213" y1="22" y2="81"></line></g><g stroke="black" transform="translate(0,464)"><line opacity="0.4" x1="218.9313768499199" x2="218.9313768499199" y1="22" y2="81"></line></g></g><g aria-label="rule"><g stroke="#800000" stroke-opacity="0.5" transform="translate(0,2)"><line x1="174.92845192400065" x2="174.92845192400065" y1="13" y2="90"></line></g><g stroke="#800000" stroke-opacity="0.5" transform="translate(0,79)"><line x1="174.92845192400065" x2="174.92845192400065" y1="13" y2="90"></line></g><g stroke="#800000" stroke-opacity="0.5" transform="translate(0,156)"><line x1="174.92845192400065" x2="174.92845192400065" y1="13" y2="90"></line></g><g stroke="#800000" stroke-opacity="0.5" transform="translate(0,233)"><line x1="174.92845192400065" x2="174.92845192400065" y1="13" y2="90"></line></g><g stroke="#800000" stroke-opacity="0.5" transform="translate(0,310)"><line x1="174.92845192400065" x2="174.92845192400065" y1="13" y2="90"></line></g><g stroke="#800000" stroke-opacity="0.5" transform="translate(0,387)"><line x1="174.92845192400065" x2="174.92845192400065" y1="13" y2="90"></line></g><g stroke="#800000" stroke-opacity="0.5" transform="translate(0,464)"><line x1="174.92845192400065" x2="174.92845192400065" y1="13" y2="90"></line></g></g><g aria-label="bar"><g transform="translate(0,2)"><rect x="120" width="8.72583055491188" y="24" height="7" fill="#1b9e77"></rect><rect x="120" width="16.63129296609992" y="32" height="7" fill="#1b9e77"></rect><rect x="120" width="21.37078875697094" y="40" height="7" fill="#1b9e77"></rect><rect x="120" width="80.05893448360112" y="48" height="7" fill="#d95f02"></rect><rect x="120" width="88.37565153553788" y="56" height="7" fill="#d95f02"></rect><rect x="120" width="41.549763120858046" y="64" height="7" fill="#7570b3"></rect><rect x="120" width="61.937192054832025" y="72" height="7" fill="#7570b3"></rect></g><g transform="translate(0,79)"><rect x="120" width="0" y="24" height="7" fill="#1b9e77"></rect><rect x="120" width="0" y="32" height="7" fill="#1b9e77"></rect><rect x="120" width="0" y="40" height="7" fill="#1b9e77"></rect><rect x="120" width="0" y="48" height="7" fill="#d95f02"></rect><rect x="120" width="0" y="56" height="7" fill="#d95f02"></rect><rect x="120" width="0" y="64" height="7" fill="#7570b3"></rect><rect x="120" width="0" y="72" height="7" fill="#7570b3"></rect></g><g transform="translate(0,156)"><rect x="120" width="8.959585242702673" y="24" height="7" fill="#1b9e77"></rect><rect x="120" width="17.942790312210462" y="32" height="7" fill="#1b9e77"></rect><rect x="120" width="21.80239166544004" y="40" height="7" fill="#1b9e77"></rect><rect x="120" width="119.11089565111828" y="48" height="7" fill="#d95f02"></rect><rect x="120" width="120.46491713033487" y="56" height="7" fill="#d95f02"></rect><rect x="120" width="178.7179930556507" y="64" height="7" fill="#7570b3"></rect><rect x="120" width="311.72702600865364" y="72" height="7" fill="#7570b3"></rect></g><g transform="translate(0,233)"><rect x="120" width="0" y="24" height="7" fill="#1b9e77"></rect><rect x="120" width="0" y="32" height="7" fill="#1b9e77"></rect><rect x="120" width="0" y="40" height="7" fill="#1b9e77"></rect><rect x="120" width="0" y="48" height="7" fill="#d95f02"></rect><rect x="120" width="0" y="56" height="7" fill="#d95f02"></rect><rect x="120" width="0" y="64" height="7" fill="#7570b3"></rect><rect x="120" width="0" y="72" height="7" fill="#7570b3"></rect></g><g transform="translate(0,310)"><rect x="120" width="57.005538092402844" y="24" height="7" fill="#1b9e77"></rect><rect x="120" width="58.51565333604276" y="32" height="7" fill="#1b9e77"></rect><rect x="120" width="64.03836297196762" y="40" height="7" fill="#1b9e77"></rect><rect x="120" width="78.95049902511909" y="48" height="7" fill="#d95f02"></rect><rect x="120" width="83.1088066015032" y="56" height="7" fill="#d95f02"></rect><rect x="120" width="74.42314516906112" y="64" height="7" fill="#7570b3"></rect><rect x="120" width="64.40524405700654" y="72" height="7" fill="#7570b3"></rect></g><g transform="translate(0,387)"><rect x="120" width="123.99936354993264" y="24" height="7" fill="#1b9e77"></rect><rect x="120" width="128.1484181168804" y="32" height="7" fill="#1b9e77"></rect><rect x="120" width="140.32927855120795" y="40" height="7" fill="#1b9e77"></rect><rect x="120" width="237.69178824033145" y="48" height="7" fill="#d95f02"></rect><rect x="120" width="266.1573002867738" y="56" height="7" fill="#d95f02"></rect><rect x="120" width="122.48939344710493" y="64" height="7" fill="#7570b3"></rect><rect x="120" width="129.49108139865632" y="72" height="7" fill="#7570b3"></rect></g><g transform="translate(0,464)"><rect x="120" width="81.59453098874815" y="24" height="7" fill="#1b9e77"></rect><rect x="120" width="90.32642939633547" y="32" height="7" fill="#1b9e77"></rect><rect x="120" width="85.39564658365231" y="40" height="7" fill="#1b9e77"></rect><rect x="120" width="111.17408207353151" y="48" height="7" fill="#d95f02"></rect><rect x="120" width="115.9408520414841" y="56" height="7" fill="#d95f02"></rect><rect x="120" width="90.00957684596321" y="64" height="7" fill="#7570b3"></rect><rect x="120" width="90.58995521760787" y="72" height="7" fill="#7570b3"></rect></g></g><g aria-label="fy-axis tick label" transform="translate(-26,2)"><g text-anchor="end" font-size="15px" transform="translate(0,2)"><text transform="translate(120,51.5)">Feathertail</text></g><g text-anchor="end" font-size="15px" transform="translate(0,79)"><text transform="translate(120,51.5)">Feathertail</text></g><g text-anchor="end" font-size="15px" transform="translate(0,156)"><text transform="translate(120,51.5)">OT</text></g><g text-anchor="end" font-size="15px" transform="translate(0,233)"><text transform="translate(120,51.5)">OT</text></g><g text-anchor="end" font-size="15px" transform="translate(0,310)"><text transform="translate(120,51.5)">Ref CRDT</text></g><g text-anchor="end" font-size="15px" transform="translate(0,387)"><text transform="translate(120,51.5)">Automerge</text></g><g text-anchor="end" font-size="15px" transform="translate(0,464)"><text transform="translate(120,51.5)">Yjs</text></g></g><g aria-label="fy-axis tick label" transform="translate(-26,7)"><g fill-opacity="0.7" text-anchor="end" font-size="12" transform="translate(0,2)"><text y="0.781em" transform="translate(120,51.5)">(merge)</text></g><g fill-opacity="0.7" text-anchor="end" font-size="12" transform="translate(0,79)"><text y="0.781em" transform="translate(120,51.5)">(cached load)</text></g><g fill-opacity="0.7" text-anchor="end" font-size="12" transform="translate(0,156)"><text y="0.781em" transform="translate(120,51.5)">(merge)</text></g><g fill-opacity="0.7" text-anchor="end" font-size="12" transform="translate(0,233)"><text y="0.781em" transform="translate(120,51.5)">(cached load)</text></g></g><g aria-label="tick"><g stroke="currentColor" transform="translate(0,2)"><line x1="128.72583055491188" x2="128.72583055491188" y1="24" y2="31"></line><line x1="136.63129296609992" x2="136.63129296609992" y1="32" y2="39"></line><line x1="141.37078875697094" x2="141.37078875697094" y1="40" y2="47"></line><line x1="200.05893448360112" x2="200.05893448360112" y1="48" y2="55"></line><line x1="208.37565153553788" x2="208.37565153553788" y1="56" y2="63"></line><line x1="161.54976312085805" x2="161.54976312085805" y1="64" y2="71"></line><line x1="181.93719205483202" x2="181.93719205483202" y1="72" y2="79"></line></g><g stroke="currentColor" transform="translate(0,79)"><line x1="120" x2="120" y1="24" y2="31"></line><line x1="120" x2="120" y1="32" y2="39"></line><line x1="120" x2="120" y1="40" y2="47"></line><line x1="120" x2="120" y1="48" y2="55"></line><line x1="120" x2="120" y1="56" y2="63"></line><line x1="120" x2="120" y1="64" y2="71"></line><line x1="120" x2="120" y1="72" y2="79"></line></g><g stroke="currentColor" transform="translate(0,156)"><line x1="128.95958524270267" x2="128.95958524270267" y1="24" y2="31"></line><line x1="137.94279031221046" x2="137.94279031221046" y1="32" y2="39"></line><line x1="141.80239166544004" x2="141.80239166544004" y1="40" y2="47"></line><line x1="239.11089565111828" x2="239.11089565111828" y1="48" y2="55"></line><line x1="240.46491713033487" x2="240.46491713033487" y1="56" y2="63"></line><line x1="298.7179930556507" x2="298.7179930556507" y1="64" y2="71"></line><line x1="431.72702600865364" x2="431.72702600865364" y1="72" y2="79"></line></g><g stroke="currentColor" transform="translate(0,233)"><line x1="120" x2="120" y1="24" y2="31"></line><line x1="120" x2="120" y1="32" y2="39"></line><line x1="120" x2="120" y1="40" y2="47"></line><line x1="120" x2="120" y1="48" y2="55"></line><line x1="120" x2="120" y1="56" y2="63"></line><line x1="120" x2="120" y1="64" y2="71"></line><line x1="120" x2="120" y1="72" y2="79"></line></g><g stroke="currentColor" transform="translate(0,310)"><line x1="177.00553809240284" x2="177.00553809240284" y1="24" y2="31"></line><line x1="178.51565333604276" x2="178.51565333604276" y1="32" y2="39"></line><line x1="184.03836297196762" x2="184.03836297196762" y1="40" y2="47"></line><line x1="198.9504990251191" x2="198.9504990251191" y1="48" y2="55"></line><line x1="203.1088066015032" x2="203.1088066015032" y1="56" y2="63"></line><line x1="194.42314516906112" x2="194.42314516906112" y1="64" y2="71"></line><line x1="184.40524405700654" x2="184.40524405700654" y1="72" y2="79"></line></g><g stroke="currentColor" transform="translate(0,387)"><line x1="243.99936354993264" x2="243.99936354993264" y1="24" y2="31"></line><line x1="248.1484181168804" x2="248.1484181168804" y1="32" y2="39"></line><line x1="260.32927855120795" x2="260.32927855120795" y1="40" y2="47"></line><line x1="357.69178824033145" x2="357.69178824033145" y1="48" y2="55"></line><line x1="386.1573002867738" x2="386.1573002867738" y1="56" y2="63"></line><line x1="242.48939344710493" x2="242.48939344710493" y1="64" y2="71"></line><line x1="249.49108139865632" x2="249.49108139865632" y1="72" y2="79"></line></g><g stroke="currentColor" transform="translate(0,464)"><line x1="201.59453098874815" x2="201.59453098874815" y1="24" y2="31"></line><line x1="210.32642939633547" x2="210.32642939633547" y1="32" y2="39"></line><line x1="205.3956465836523" x2="205.3956465836523" y1="40" y2="47"></line><line x1="231.1740820735315" x2="231.1740820735315" y1="48" y2="55"></line><line x1="235.9408520414841" x2="235.9408520414841" y1="56" y2="63"></line><line x1="210.0095768459632" x2="210.0095768459632" y1="64" y2="71"></line><line x1="210.58995521760787" x2="210.58995521760787" y1="72" y2="79"></line></g></g><g aria-label="text" transform="translate(6,3.5)"><g fill="black" text-anchor="start" font-size="9" transform="translate(0,2)"><text y="0.32em" transform="translate(128.72583055491188,24)">1.8 ms</text><text y="0.32em" transform="translate(136.63129296609992,32)">2.7 ms</text><text y="0.32em" transform="translate(141.37078875697094,40)">3.3 ms</text><text y="0.32em" transform="translate(200.05893448360112,48)">55.5 ms</text><text y="0.32em" transform="translate(208.37565153553788,56)">82.7 ms</text><text y="0.32em" transform="translate(161.54976312085805,64)">8.8 ms</text><text y="0.32em" transform="translate(181.93719205483202,72)">23.3 ms</text></g><g fill="black" text-anchor="start" font-size="9" transform="translate(0,79)"><text y="0.32em" transform="translate(120,24)">0.07 ms</text><text y="0.32em" transform="translate(120,32)">0.04 ms</text><text y="0.32em" transform="translate(120,40)">0.02 ms</text><text y="0.32em" transform="translate(120,48)">0.11 ms</text><text y="0.32em" transform="translate(120,56)">0.11 ms</text><text y="0.32em" transform="translate(120,64)">0.01 ms</text><text y="0.32em" transform="translate(120,72)">0.05 ms</text></g><g fill="black" text-anchor="start" font-size="9" transform="translate(0,156)"><text y="0.32em" transform="translate(128.95958524270267,24)">1.8 ms</text><text y="0.32em" transform="translate(137.94279031221046,32)">2.8 ms</text><text y="0.32em" transform="translate(141.80239166544004,40)">3.4 ms</text><text y="0.32em" transform="translate(239.11089565111828,48)">361 ms</text><text y="0.32em" transform="translate(240.46491713033487,56)">385 ms</text><text y="0.32em" transform="translate(298.7179930556507,64)">6.3 sec</text><text y="0.32em" transform="translate(431.72702600865364,72)">61.1 min</text></g><g fill="black" text-anchor="start" font-size="9" transform="translate(0,233)"><text y="0.32em" transform="translate(120,24)">0.07 ms</text><text y="0.32em" transform="translate(120,32)">0.04 ms</text><text y="0.32em" transform="translate(120,40)">0.02 ms</text><text y="0.32em" transform="translate(120,48)">0.11 ms</text><text y="0.32em" transform="translate(120,56)">0.11 ms</text><text y="0.32em" transform="translate(120,64)">0.01 ms</text><text y="0.32em" transform="translate(120,72)">0.05 ms</text></g><g fill="black" text-anchor="start" font-size="9" transform="translate(0,310)"><text y="0.32em" transform="translate(177.00553809240284,24)">18.4 ms</text><text y="0.32em" transform="translate(178.51565333604276,32)">19.8 ms</text><text y="0.32em" transform="translate(184.03836297196762,40)">25.8 ms</text><text y="0.32em" transform="translate(198.9504990251191,48)">52.7 ms</text><text y="0.32em" transform="translate(203.1088066015032,56)">64.3 ms</text><text y="0.32em" transform="translate(194.42314516906112,64)">42.4 ms</text><text y="0.32em" transform="translate(184.40524405700654,72)">26.2 ms</text></g><g fill="black" text-anchor="start" font-size="9" transform="translate(0,387)"><text y="0.32em" transform="translate(243.99936354993264,24)">456 ms</text><text y="0.32em" transform="translate(248.1484181168804,32)">556 ms</text><text y="0.32em" transform="translate(260.32927855120795,40)">996 ms</text><text y="0.32em" transform="translate(357.69178824033145,48)">1.8 min</text><text y="0.32em" transform="translate(386.1573002867738,56)">6.9 min</text><text y="0.32em" transform="translate(242.48939344710493,64)">424 ms</text><text y="0.32em" transform="translate(249.49108139865632,72)">593 ms</text></g><g fill="black" text-anchor="start" font-size="9" transform="translate(0,464)"><text y="0.32em" transform="translate(201.59453098874815,24)">59.8 ms</text><text y="0.32em" transform="translate(210.32642939633547,32)">90.8 ms</text><text y="0.32em" transform="translate(205.3956465836523,40)">71.7 ms</text><text y="0.32em" transform="translate(231.1740820735315,48)">247 ms</text><text y="0.32em" transform="translate(235.9408520414841,56)">310 ms</text><text y="0.32em" transform="translate(210.0095768459632,64)">89.5 ms</text><text y="0.32em" transform="translate(210.58995521760787,72)">92 ms</text></g></g><g aria-label="text" transform="translate(0,-8)"><g font-size="9" font-weight="700" transform="translate(0,2)"><text opacity="0.6" y="0.71em" transform="translate(183.77049522589235,20)">x̄ = 25.5 ms</text></g><g font-size="9" font-weight="700" transform="translate(0,79)"><text opacity="0.6" y="0.71em" transform="translate(120,20)">x̄ = 0.06 ms</text></g><g font-size="9" font-weight="700" transform="translate(0,156)"><text opacity="0.6" y="0.71em" transform="translate(391.14280566162137,20)">x̄ = 8.7 min</text></g><g font-size="9" font-weight="700" transform="translate(0,233)"><text opacity="0.6" y="0.71em" transform="translate(120,20)">x̄ = 0.06 ms</text></g><g font-size="9" font-weight="700" transform="translate(0,310)"><text opacity="0.6" y="0.71em" transform="translate(190.8045320262977,20)">x̄ = 35.7 ms</text></g><g font-size="9" font-weight="700" transform="translate(0,387)"><text opacity="0.6" y="0.71em" transform="translate(350.4090348276213,20)">x̄ = 1.2 min</text></g><g font-size="9" font-weight="700" transform="translate(0,464)"><text opacity="0.6" y="0.71em" transform="translate(218.9313768499199,20)">x̄ = 137 ms</text></g></g><g aria-label="rule"><g stroke="currentColor" stroke-width="1.5" transform="translate(0,2)"><line x1="120" x2="120" y1="20" y2="83"></line></g><g stroke="currentColor" stroke-width="1.5" transform="translate(0,79)"><line x1="120" x2="120" y1="20" y2="83"></line></g><g stroke="currentColor" stroke-width="1.5" transform="translate(0,156)"><line x1="120" x2="120" y1="20" y2="83"></line></g><g stroke="currentColor" stroke-width="1.5" transform="translate(0,233)"><line x1="120" x2="120" y1="20" y2="83"></line></g><g stroke="currentColor" stroke-width="1.5" transform="translate(0,310)"><line x1="120" x2="120" y1="20" y2="83"></line></g><g stroke="currentColor" stroke-width="1.5" transform="translate(0,387)"><line x1="120" x2="120" y1="20" y2="83"></line></g><g stroke="currentColor" stroke-width="1.5" transform="translate(0,464)"><line x1="120" x2="120" y1="20" y2="83"></line></g></g></svg>