<svg class="plot-d6a7b5" fill="currentColor" font-family="system-ui, sans-serif" font-size="10" text-anchor="middle" width="500" height="500" viewBox="0 0 500 500" style="background: white; font-family: Helvetica Neue, Helvetica, Arial, sans-serif;" xmlns="http://www.w3.org/2000/svg" xmlns:xlink="http://www.w3.org/1999/xlink" version="1.1"><style>:where(.plot-d6a7b5) {
  --plot-background: white;
  display: block;
  height: auto;
  height: intrinsic;
  max-width: 100%;
}
:where(.plot-d6a7b5 text),
:where(.plot-d6a7b5 tspan) {
  white-space: pre;
}</style><g aria-label="x-grid" aria-hidden="true"><g stroke="currentColor" stroke-opacity="0.1" transform="translate(0,1)"><line x1="155.49365834455364" x2="155.49365834455364" y1="20" y2="79"></line><line x1="204.89931841531555" x2="204.89931841531555" y1="20" y2="79"></line><line x1="254.30497848607746" x2="254.30497848607746" y1="20" y2="79"></line><line x1="303.7106385568394" x2="303.7106385568394" y1="20" y2="79"></line><line x1="353.1162986276013" x2="353.1162986276013" y1="20" y2="79"></line><line x1="402.5219586983632" x2="402.5219586983632" y1="20" y2="79"></line><line x1="451.92761876912516" x2="451.92761876912516" y1="20" y2="79"></line></g><g stroke="currentColor" stroke-opacity="0.1" transform="translate(0,66)"><line x1="155.49365834455364" x2="155.49365834455364" y1="20" y2="79"></line><line x1="204.89931841531555" x2="204.89931841531555" y1="20" y2="79"></line><line x1="254.30497848607746" x2="254.30497848607746" y1="20" y2="79"></line><line x1="303.7106385568394" x2="303.7106385568394" y1="20" y2="79"></line><line x1="353.1162986276013" x2="353.1162986276013" y1="20" y2="79"></line><line x1="402.5219586983632" x2="402.5219586983632" y1="20" y2="79"></line><line x1="451.92761876912516" x2="451.92761876912516" y1="20" y2="79"></line></g><g stroke="currentColor" stroke-opacity="0.1" transform="translate(0,131)"><line x1="155.49365834455364" x2="155.49365834455364" y1="20" y2="79"></line><line x1="204.89931841531555" x2="204.89931841531555" y1="20" y2="79"></line><line x1="254.30497848607746" x2="254.30497848607746" y1="20" y2="79"></line><line x1="303.7106385568394" x2="303.7106385568394" y1="20" y2="79"></line><line x1="353.1162986276013" x2="353.1162986276013" y1="20" y2="79"></line><line x1="402.5219586983632" x2="402.5219586983632" y1="20" y2="79"></line><line x1="451.92761876912516" x2="451.92761876912516" y1="20" y2="79"></line></g><g stroke="currentColor" stroke-opacity="0.1" transform="translate(0,196)"><line x1="155.49365834455364" x2="155.49365834455364" y1="20" y2="79"></line><line x1="204.89931841531555" x2="204.89931841531555" y1="20" y2="79"></line><line x1="254.30497848607746" x2="254.30497848607746" y1="20" y2="79"></line><line x1="303.7106385568394" x2="303.7106385568394" y1="20" y2="79"></line><line x1="353.1162986276013" x2="353.1162986276013" y1="20" y2="79"></line><line x1="402.5219586983632" x2="402.5219586983632" y1="20" y2="79"></line><line x1="451.92761876912516" x2="451.92761876912516" y1="20" y2="79"></line></g><g stroke="currentColor" stroke-opacity="0.1" transform="translate(0,261)"><line x1="155.49365834455364" x2="155.49365834455364" y1="20" y2="79"></line><line x1="204.89931841531555" x2="204.89931841531555" y1="20" y2="79"></line><line x1="254.30497848607746" x2="254.30497848607746" y1="20" y2="79"></line><line x1="303.7106385568394" x2="303.7106385568394" y1="20" y2="79"></line><line x1="353.1162986276013" x2="353.1162986276013" y1="20" y2="79"></line><line x1="402.5219586983632" x2="402.5219586983632" y1="20" y2="79"></line><line x1="451.92761876912516" x2="451.92761876912516" y1="20" y2="79"></line></g><g stroke="currentColor" stroke-opacity="0.1" transform="translate(0,326)"><line x1="155.49365834455364" x2="155.49365834455364" y1="20" y2="79"></line><line x1="204.89931841531555" x2="204.89931841531555" y1="20" y2="79"></line><line x1="254.30497848607746" x2="254.30497848607746" y1="20" y2="79"></line><line x1="303.7106385568394" x2="303.7106385568394" y1="20" y2="79"></line><line x1="353.1162986276013" x2="353.1162986276013" y1="20" y2="79"></line><line x1="402.5219586983632" x2="402.5219586983632" y1="20" y2="79"></line><line x1="451.92761876912516" x2="451.92761876912516" y1="20" y2="79"></line></g><g stroke="currentColor" stroke-opacity="0.1" transform="translate(0,391)"><line x1="155.49365834455364" x2="155.49365834455364" y1="20" y2="79"></line><line x1="204.89931841531555" x2="204.89931841531555" y1="20" y2="79"></line><line x1="254.30497848607746" x2="254.30497848607746" y1="20" y2="79"></line><line x1="303.7106385568394" x2="303.7106385568394" y1="20" y2="79"></line><line x1="353.1162986276013" x2="353.1162986276013" y1="20" y2="79"></line><line x1="402.5219586983632" x2="402.5219586983632" y1="20" y2="79"></line><line x1="451.92761876912516" x2="451.92761876912516" y1="20" y2="79"></line></g></g><g aria-label="x-axis tick" aria-hidden="true"><g fill="none" stroke="currentColor" transform="translate(0,391)"><path transform="translate(155.49365834455364,79)" d="M0,0L0,6"></path><path transform="translate(204.89931841531555,79)" d="M0,0L0,6"></path><path transform="translate(254.30497848607746,79)" d="M0,0L0,6"></path><path transform="translate(303.7106385568394,79)" d="M0,0L0,6"></path><path transform="translate(353.1162986276013,79)" d="M0,0L0,6"></path><path transform="translate(402.5219586983632,79)" d="M0,0L0,6"></path><path transform="translate(451.92761876912516,79)" d="M0,0L0,6"></path></g></g><g aria-label="x-axis tick label" transform="translate(0,9)"><g font-variant="tabular-nums" transform="translate(0,391)"><text y="0.71em" transform="translate(155.49365834455364,79)">10</text><text y="0.71em" transform="translate(204.89931841531555,79)">100</text><text y="0.71em" transform="translate(254.30497848607746,79)">1k</text><text y="0.71em" transform="translate(303.7106385568394,79)">10k</text><text y="0.71em" transform="translate(353.1162986276013,79)">100k</text><text y="0.71em" transform="translate(402.5219586983632,79)">1M</text><text y="0.71em" transform="translate(451.92761876912516,79)">10M</text></g></g><g aria-label="x-axis label" text-anchor="end" transform="translate(17,27)"><text transform="translate(480,470)">Time taken (in milliseconds) to merge and reload changes. Log scale. (Less is better) →</text></g><g aria-label="x-grid" aria-hidden="true"><g stroke="currentColor" stroke-width="0.5" stroke-opacity="0.15" transform="translate(0,1)"><line x1="120.96058391066927" x2="120.96058391066927" y1="20" y2="79"></line><line x1="129.66048879700674" x2="129.66048879700674" y1="20" y2="79"></line><line x1="135.83316954754687" x2="135.83316954754687" y1="20" y2="79"></line><line x1="140.62107270767603" x2="140.62107270767603" y1="20" y2="79"></line><line x1="144.53307443388434" x2="144.53307443388434" y1="20" y2="79"></line><line x1="147.84062476520322" x2="147.84062476520322" y1="20" y2="79"></line><line x1="150.70575518442445" x2="150.70575518442445" y1="20" y2="79"></line><line x1="153.23297932022183" x2="153.23297932022183" y1="20" y2="79"></line><line x1="155.49365834455364" x2="155.49365834455364" y1="20" y2="79"></line><line x1="170.36624398143118" x2="170.36624398143118" y1="20" y2="79"></line><line x1="179.06614886776867" x2="179.06614886776867" y1="20" y2="79"></line><line x1="185.23882961830878" x2="185.23882961830878" y1="20" y2="79"></line><line x1="190.02673277843792" x2="190.02673277843792" y1="20" y2="79"></line><line x1="193.93873450464628" x2="193.93873450464628" y1="20" y2="79"></line><line x1="197.24628483596513" x2="197.24628483596513" y1="20" y2="79"></line><line x1="200.1114152551864" x2="200.1114152551864" y1="20" y2="79"></line><line x1="202.6386393909837" x2="202.6386393909837" y1="20" y2="79"></line><line x1="204.89931841531555" x2="204.89931841531555" y1="20" y2="79"></line><line x1="219.77190405219312" x2="219.77190405219312" y1="20" y2="79"></line><line x1="228.47180893853061" x2="228.47180893853061" y1="20" y2="79"></line><line x1="234.64448968907072" x2="234.64448968907072" y1="20" y2="79"></line><line x1="239.43239284919986" x2="239.43239284919986" y1="20" y2="79"></line><line x1="243.3443945754082" x2="243.3443945754082" y1="20" y2="79"></line><line x1="246.65194490672704" x2="246.65194490672704" y1="20" y2="79"></line><line x1="249.51707532594833" x2="249.51707532594833" y1="20" y2="79"></line><line x1="252.04429946174565" x2="252.04429946174565" y1="20" y2="79"></line><line x1="254.30497848607746" x2="254.30497848607746" y1="20" y2="79"></line><line x1="269.17756412295506" x2="269.17756412295506" y1="20" y2="79"></line><line x1="277.8774690092925" x2="277.8774690092925" y1="20" y2="79"></line><line x1="284.05014975983266" x2="284.05014975983266" y1="20" y2="79"></line><line x1="288.8380529199618" x2="288.8380529199618" y1="20" y2="79"></line><line x1="292.7500546461701" x2="292.7500546461701" y1="20" y2="79"></line><line x1="296.057604977489" x2="296.057604977489" y1="20" y2="79"></line><line x1="298.92273539671027" x2="298.92273539671027" y1="20" y2="79"></line><line x1="301.4499595325076" x2="301.4499595325076" y1="20" y2="79"></line><line x1="303.7106385568394" x2="303.7106385568394" y1="20" y2="79"></line><line x1="318.583224193717" x2="318.583224193717" y1="20" y2="79"></line><line x1="327.28312908005444" x2="327.28312908005444" y1="20" y2="79"></line><line x1="333.45580983059455" x2="333.45580983059455" y1="20" y2="79"></line><line x1="338.2437129907237" x2="338.2437129907237" y1="20" y2="79"></line><line x1="342.15571471693204" x2="342.15571471693204" y1="20" y2="79"></line><line x1="345.4632650482509" x2="345.4632650482509" y1="20" y2="79"></line><line x1="348.3283954674721" x2="348.3283954674721" y1="20" y2="79"></line><line x1="350.8556196032695" x2="350.8556196032695" y1="20" y2="79"></line><line x1="353.1162986276013" x2="353.1162986276013" y1="20" y2="79"></line><line x1="367.9888842644789" x2="367.9888842644789" y1="20" y2="79"></line><line x1="376.6887891508164" x2="376.6887891508164" y1="20" y2="79"></line><line x1="382.86146990135654" x2="382.86146990135654" y1="20" y2="79"></line><line x1="387.6493730614857" x2="387.6493730614857" y1="20" y2="79"></line><line x1="391.5613747876939" x2="391.5613747876939" y1="20" y2="79"></line><line x1="394.86892511901283" x2="394.86892511901283" y1="20" y2="79"></line><line x1="397.7340555382341" x2="397.7340555382341" y1="20" y2="79"></line><line x1="400.26127967403147" x2="400.26127967403147" y1="20" y2="79"></line><line x1="402.5219586983632" x2="402.5219586983632" y1="20" y2="79"></line><line x1="417.3945443352408" x2="417.3945443352408" y1="20" y2="79"></line><line x1="426.0944492215783" x2="426.0944492215783" y1="20" y2="79"></line><line x1="432.2671299721184" x2="432.2671299721184" y1="20" y2="79"></line><line x1="437.05503313224756" x2="437.05503313224756" y1="20" y2="79"></line><line x1="440.9670348584559" x2="440.9670348584559" y1="20" y2="79"></line><line x1="444.2745851897747" x2="444.2745851897747" y1="20" y2="79"></line><line x1="447.139715608996" x2="447.139715608996" y1="20" y2="79"></line><line x1="449.6669397447933" x2="449.6669397447933" y1="20" y2="79"></line><line x1="451.92761876912516" x2="451.92761876912516" y1="20" y2="79"></line><line x1="466.8002044060027" x2="466.8002044060027" y1="20" y2="79"></line><line x1="475.5001092923402" x2="475.5001092923402" y1="20" y2="79"></line></g><g stroke="currentColor" stroke-width="0.5" stroke-opacity="0.15" transform="translate(0,66)"><line x1="120.96058391066927" x2="120.96058391066927" y1="20" y2="79"></line><line x1="129.66048879700674" x2="129.66048879700674" y1="20" y2="79"></line><line x1="135.83316954754687" x2="135.83316954754687" y1="20" y2="79"></line><line x1="140.62107270767603" x2="140.62107270767603" y1="20" y2="79"></line><line x1="144.53307443388434" x2="144.53307443388434" y1="20" y2="79"></line><line x1="147.84062476520322" x2="147.84062476520322" y1="20" y2="79"></line><line x1="150.70575518442445" x2="150.70575518442445" y1="20" y2="79"></line><line x1="153.23297932022183" x2="153.23297932022183" y1="20" y2="79"></line><line x1="155.49365834455364" x2="155.49365834455364" y1="20" y2="79"></line><line x1="170.36624398143118" x2="170.36624398143118" y1="20" y2="79"></line><line x1="179.06614886776867" x2="179.06614886776867" y1="20" y2="79"></line><line x1="185.23882961830878" x2="185.23882961830878" y1="20" y2="79"></line><line x1="190.02673277843792" x2="190.02673277843792" y1="20" y2="79"></line><line x1="193.93873450464628" x2="193.93873450464628" y1="20" y2="79"></line><line x1="197.24628483596513" x2="197.24628483596513" y1="20" y2="79"></line><line x1="200.1114152551864" x2="200.1114152551864" y1="20" y2="79"></line><line x1="202.6386393909837" x2="202.6386393909837" y1="20" y2="79"></line><line x1="204.89931841531555" x2="204.89931841531555" y1="20" y2="79"></line><line x1="219.77190405219312" x2="219.77190405219312" y1="20" y2="79"></line><line x1="228.47180893853061" x2="228.47180893853061" y1="20" y2="79"></line><line x1="234.64448968907072" x2="234.64448968907072" y1="20" y2="79"></line><line x1="239.43239284919986" x2="239.43239284919986" y1="20" y2="79"></line><line x1="243.3443945754082" x2="243.3443945754082" y1="20" y2="79"></line><line x1="246.65194490672704" x2="246.65194490672704" y1="20" y2="79"></line><line x1="249.51707532594833" x2="249.51707532594833" y1="20" y2="79"></line><line x1="252.04429946174565" x2="252.04429946174565" y1="20" y2="79"></line><line x1="254.30497848607746" x2="254.30497848607746" y1="20" y2="79"></line><line x1="269.17756412295506" x2="269.17756412295506" y1="20" y2="79"></line><line x1="277.8774690092925" x2="277.8774690092925" y1="20" y2="79"></line><line x1="284.05014975983266" x2="284.05014975983266" y1="20" y2="79"></line><line x1="288.8380529199618" x2="288.8380529199618" y1="20" y2="79"></line><line x1="292.7500546461701" x2="292.7500546461701" y1="20" y2="79"></line><line x1="296.057604977489" x2="296.057604977489" y1="20" y2="79"></line><line x1="298.92273539671027" x2="298.92273539671027" y1="20" y2="79"></line><line x1="301.4499595325076" x2="301.4499595325076" y1="20" y2="79"></line><line x1="303.7106385568394" x2="303.7106385568394" y1="20" y2="79"></line><line x1="318.583224193717" x2="318.583224193717" y1="20" y2="79"></line><line x1="327.28312908005444" x2="327.28312908005444" y1="20" y2="79"></line><line x1="333.45580983059455" x2="333.45580983059455" y1="20" y2="79"></line><line x1="338.2437129907237" x2="338.2437129907237" y1="20" y2="79"></line><line x1="342.15571471693204" x2="342.15571471693204" y1="20" y2="79"></line><line x1="345.4632650482509" x2="345.4632650482509" y1="20" y2="79"></line><line x1="348.3283954674721" x2="348.3283954674721" y1="20" y2="79"></line><line x1="350.8556196032695" x2="350.8556196032695" y1="20" y2="79"></line><line x1="353.1162986276013" x2="353.1162986276013" y1="20" y2="79"></line><line x1="367.9888842644789" x2="367.9888842644789" y1="20" y2="79"></line><line x1="376.6887891508164" x2="376.6887891508164" y1="20" y2="79"></line><line x1="382.86146990135654" x2="382.86146990135654" y1="20" y2="79"></line><line x1="387.6493730614857" x2="387.6493730614857" y1="20" y2="79"></line><line x1="391.5613747876939" x2="391.5613747876939" y1="20" y2="79"></line><line x1="394.86892511901283" x2="394.86892511901283" y1="20" y2="79"></line><line x1="397.7340555382341" x2="397.7340555382341" y1="20" y2="79"></line><line x1="400.26127967403147" x2="400.26127967403147" y1="20" y2="79"></line><line x1="402.5219586983632" x2="402.5219586983632" y1="20" y2="79"></line><line x1="417.3945443352408" x2="417.3945443352408" y1="20" y2="79"></line><line x1="426.0944492215783" x2="426.0944492215783" y1="20" y2="79"></line><line x1="432.2671299721184" x2="432.2671299721184" y1="20" y2="79"></line><line x1="437.05503313224756" x2="437.05503313224756" y1="20" y2="79"></line><line x1="440.9670348584559" x2="440.9670348584559" y1="20" y2="79"></line><line x1="444.2745851897747" x2="444.2745851897747" y1="20" y2="79"></line><line x1="447.139715608996" x2="447.139715608996" y1="20" y2="79"></line><line x1="449.6669397447933" x2="449.6669397447933" y1="20" y2="79"></line><line x1="451.92761876912516" x2="451.92761876912516" y1="20" y2="79"></line><line x1="466.8002044060027" x2="466.8002044060027" y1="20" y2="79"></line><line x1="475.5001092923402" x2="475.5001092923402" y1="20" y2="79"></line></g><g stroke="currentColor" stroke-width="0.5" stroke-opacity="0.15" transform="translate(0,131)"><line x1="120.96058391066927" x2="120.96058391066927" y1="20" y2="79"></line><line x1="129.66048879700674" x2="129.66048879700674" y1="20" y2="79"></line><line x1="135.83316954754687" x2="135.83316954754687" y1="20" y2="79"></line><line x1="140.62107270767603" x2="140.62107270767603" y1="20" y2="79"></line><line x1="144.53307443388434" x2="144.53307443388434" y1="20" y2="79"></line><line x1="147.84062476520322" x2="147.84062476520322" y1="20" y2="79"></line><line x1="150.70575518442445" x2="150.70575518442445" y1="20" y2="79"></line><line x1="153.23297932022183" x2="153.23297932022183" y1="20" y2="79"></line><line x1="155.49365834455364" x2="155.49365834455364" y1="20" y2="79"></line><line x1="170.36624398143118" x2="170.36624398143118" y1="20" y2="79"></line><line x1="179.06614886776867" x2="179.06614886776867" y1="20" y2="79"></line><line x1="185.23882961830878" x2="185.23882961830878" y1="20" y2="79"></line><line x1="190.02673277843792" x2="190.02673277843792" y1="20" y2="79"></line><line x1="193.93873450464628" x2="193.93873450464628" y1="20" y2="79"></line><line x1="197.24628483596513" x2="197.24628483596513" y1="20" y2="79"></line><line x1="200.1114152551864" x2="200.1114152551864" y1="20" y2="79"></line><line x1="202.6386393909837" x2="202.6386393909837" y1="20" y2="79"></line><line x1="204.89931841531555" x2="204.89931841531555" y1="20" y2="79"></line><line x1="219.77190405219312" x2="219.77190405219312" y1="20" y2="79"></line><line x1="228.47180893853061" x2="228.47180893853061" y1="20" y2="79"></line><line x1="234.64448968907072" x2="234.64448968907072" y1="20" y2="79"></line><line x1="239.43239284919986" x2="239.43239284919986" y1="20" y2="79"></line><line x1="243.3443945754082" x2="243.3443945754082" y1="20" y2="79"></line><line x1="246.65194490672704" x2="246.65194490672704" y1="20" y2="79"></line><line x1="249.51707532594833" x2="249.51707532594833" y1="20" y2="79"></line><line x1="252.04429946174565" x2="252.04429946174565" y1="20" y2="79"></line><line x1="254.30497848607746" x2="254.30497848607746" y1="20" y2="79"></line><line x1="269.17756412295506" x2="269.17756412295506" y1="20" y2="79"></line><line x1="277.8774690092925" x2="277.8774690092925" y1="20" y2="79"></line><line x1="284.05014975983266" x2="284.05014975983266" y1="20" y2="79"></line><line x1="288.8380529199618" x2="288.8380529199618" y1="20" y2="79"></line><line x1="292.7500546461701" x2="292.7500546461701" y1="20" y2="79"></line><line x1="296.057604977489" x2="296.057604977489" y1="20" y2="79"></line><line x1="298.92273539671027" x2="298.92273539671027" y1="20" y2="79"></line><line x1="301.4499595325076" x2="301.4499595325076" y1="20" y2="79"></line><line x1="303.7106385568394" x2="303.7106385568394" y1="20" y2="79"></line><line x1="318.583224193717" x2="318.583224193717" y1="20" y2="79"></line><line x1="327.28312908005444" x2="327.28312908005444" y1="20" y2="79"></line><line x1="333.45580983059455" x2="333.45580983059455" y1="20" y2="79"></line><line x1="338.2437129907237" x2="338.2437129907237" y1="20" y2="79"></line><line x1="342.15571471693204" x2="342.15571471693204" y1="20" y2="79"></line><line x1="345.4632650482509" x2="345.4632650482509" y1="20" y2="79"></line><line x1="348.3283954674721" x2="348.3283954674721" y1="20" y2="79"></line><line x1="350.8556196032695" x2="350.8556196032695" y1="20" y2="79"></line><line x1="353.1162986276013" x2="353.1162986276013" y1="20" y2="79"></line><line x1="367.9888842644789" x2="367.9888842644789" y1="20" y2="79"></line><line x1="376.6887891508164" x2="376.6887891508164" y1="20" y2="79"></line><line x1="382.86146990135654" x2="382.86146990135654" y1="20" y2="79"></line><line x1="387.6493730614857" x2="387.6493730614857" y1="20" y2="79"></line><line x1="391.5613747876939" x2="391.5613747876939" y1="20" y2="79"></line><line x1="394.86892511901283" x2="394.86892511901283" y1="20" y2="79"></line><line x1="397.7340555382341" x2="397.7340555382341" y1="20" y2="79"></line><line x1="400.26127967403147" x2="400.26127967403147" y1="20" y2="79"></line><line x1="402.5219586983632" x2="402.5219586983632" y1="20" y2="79"></line><line x1="417.3945443352408" x2="417.3945443352408" y1="20" y2="79"></line><line x1="426.0944492215783" x2="426.0944492215783" y1="20" y2="79"></line><line x1="432.2671299721184" x2="432.2671299721184" y1="20" y2="79"></line><line x1="437.05503313224756" x2="437.05503313224756" y1="20" y2="79"></line><line x1="440.9670348584559" x2="440.9670348584559" y1="20" y2="79"></line><line x1="444.2745851897747" x2="444.2745851897747" y1="20" y2="79"></line><line x1="447.139715608996" x2="447.139715608996" y1="20" y2="79"></line><line x1="449.6669397447933" x2="449.6669397447933" y1="20" y2="79"></line><line x1="451.92761876912516" x2="451.92761876912516" y1="20" y2="79"></line><line x1="466.8002044060027" x2="466.8002044060027" y1="20" y2="79"></line><line x1="475.5001092923402" x2="475.5001092923402" y1="20" y2="79"></line></g><g stroke="currentColor" stroke-width="0.5" stroke-opacity="0.15" transform="translate(0,196)"><line x1="120.96058391066927" x2="120.96058391066927" y1="20" y2="79"></line><line x1="129.66048879700674" x2="129.66048879700674" y1="20" y2="79"></line><line x1="135.83316954754687" x2="135.83316954754687" y1="20" y2="79"></line><line x1="140.62107270767603" x2="140.62107270767603" y1="20" y2="79"></line><line x1="144.53307443388434" x2="144.53307443388434" y1="20" y2="79"></line><line x1="147.84062476520322" x2="147.84062476520322" y1="20" y2="79"></line><line x1="150.70575518442445" x2="150.70575518442445" y1="20" y2="79"></line><line x1="153.23297932022183" x2="153.23297932022183" y1="20" y2="79"></line><line x1="155.49365834455364" x2="155.49365834455364" y1="20" y2="79"></line><line x1="170.36624398143118" x2="170.36624398143118" y1="20" y2="79"></line><line x1="179.06614886776867" x2="179.06614886776867" y1="20" y2="79"></line><line x1="185.23882961830878" x2="185.23882961830878" y1="20" y2="79"></line><line x1="190.02673277843792" x2="190.02673277843792" y1="20" y2="79"></line><line x1="193.93873450464628" x2="193.93873450464628" y1="20" y2="79"></line><line x1="197.24628483596513" x2="197.24628483596513" y1="20" y2="79"></line><line x1="200.1114152551864" x2="200.1114152551864" y1="20" y2="79"></line><line x1="202.6386393909837" x2="202.6386393909837" y1="20" y2="79"></line><line x1="204.89931841531555" x2="204.89931841531555" y1="20" y2="79"></line><line x1="219.77190405219312" x2="219.77190405219312" y1="20" y2="79"></line><line x1="228.47180893853061" x2="228.47180893853061" y1="20" y2="79"></line><line x1="234.64448968907072" x2="234.64448968907072" y1="20" y2="79"></line><line x1="239.43239284919986" x2="239.43239284919986" y1="20" y2="79"></line><line x1="243.3443945754082" x2="243.3443945754082" y1="20" y2="79"></line><line x1="246.65194490672704" x2="246.65194490672704" y1="20" y2="79"></line><line x1="249.51707532594833" x2="249.51707532594833" y1="20" y2="79"></line><line x1="252.04429946174565" x2="252.04429946174565" y1="20" y2="79"></line><line x1="254.30497848607746" x2="254.30497848607746" y1="20" y2="79"></line><line x1="269.17756412295506" x2="269.17756412295506" y1="20" y2="79"></line><line x1="277.8774690092925" x2="277.8774690092925" y1="20" y2="79"></line><line x1="284.05014975983266" x2="284.05014975983266" y1="20" y2="79"></line><line x1="288.8380529199618" x2="288.8380529199618" y1="20" y2="79"></line><line x1="292.7500546461701" x2="292.7500546461701" y1="20" y2="79"></line><line x1="296.057604977489" x2="296.057604977489" y1="20" y2="79"></line><line x1="298.92273539671027" x2="298.92273539671027" y1="20" y2="79"></line><line x1="301.4499595325076" x2="301.4499595325076" y1="20" y2="79"></line><line x1="303.7106385568394" x2="303.7106385568394" y1="20" y2="79"></line><line x1="318.583224193717" x2="318.583224193717" y1="20" y2="79"></line><line x1="327.28312908005444" x2="327.28312908005444" y1="20" y2="79"></line><line x1="333.45580983059455" x2="333.45580983059455" y1="20" y2="79"></line><line x1="338.2437129907237" x2="338.2437129907237" y1="20" y2="79"></line><line x1="342.15571471693204" x2="342.15571471693204" y1="20" y2="79"></line><line x1="345.4632650482509" x2="345.4632650482509" y1="20" y2="79"></line><line x1="348.3283954674721" x2="348.3283954674721" y1="20" y2="79"></line><line x1="350.8556196032695" x2="350.8556196032695" y1="20" y2="79"></line><line x1="353.1162986276013" x2="353.1162986276013" y1="20" y2="79"></line><line x1="367.9888842644789" x2="367.9888842644789" y1="20" y2="79"></line><line x1="376.6887891508164" x2="376.6887891508164" y1="20" y2="79"></line><line x1="382.86146990135654" x2="382.86146990135654" y1="20" y2="79"></line><line x1="387.6493730614857" x2="387.6493730614857" y1="20" y2="79"></line><line x1="391.5613747876939" x2="391.5613747876939" y1="20" y2="79"></line><line x1="394.86892511901283" x2="394.86892511901283" y1="20" y2="79"></line><line x1="397.7340555382341" x2="397.7340555382341" y1="20" y2="79"></line><line x1="400.26127967403147" x2="400.26127967403147" y1="20" y2="79"></line><line x1="402.5219586983632" x2="402.5219586983632" y1="20" y2="79"></line><line x1="417.3945443352408" x2="417.3945443352408" y1="20" y2="79"></line><line x1="426.0944492215783" x2="426.0944492215783" y1="20" y2="79"></line><line x1="432.2671299721184" x2="432.2671299721184" y1="20" y2="79"></line><line x1="437.05503313224756" x2="437.05503313224756" y1="20" y2="79"></line><line x1="440.9670348584559" x2="440.9670348584559" y1="20" y2="79"></line><line x1="444.2745851897747" x2="444.2745851897747" y1="20" y2="79"></line><line x1="447.139715608996" x2="447.139715608996" y1="20" y2="79"></line><line x1="449.6669397447933" x2="449.6669397447933" y1="20" y2="79"></line><line x1="451.92761876912516" x2="451.92761876912516" y1="20" y2="79"></line><line x1="466.8002044060027" x2="466.8002044060027" y1="20" y2="79"></line><line x1="475.5001092923402" x2="475.5001092923402" y1="20" y2="79"></line></g><g stroke="currentColor" stroke-width="0.5" stroke-opacity="0.15" transform="translate(0,261)"><line x1="120.96058391066927" x2="120.96058391066927" y1="20" y2="79"></line><line x1="129.66048879700674" x2="129.66048879700674" y1="20" y2="79"></line><line x1="135.83316954754687" x2="135.83316954754687" y1="20" y2="79"></line><line x1="140.62107270767603" x2="140.62107270767603" y1="20" y2="79"></line><line x1="144.53307443388434" x2="144.53307443388434" y1="20" y2="79"></line><line x1="147.84062476520322" x2="147.84062476520322" y1="20" y2="79"></line><line x1="150.70575518442445" x2="150.70575518442445" y1="20" y2="79"></line><line x1="153.23297932022183" x2="153.23297932022183" y1="20" y2="79"></line><line x1="155.49365834455364" x2="155.49365834455364" y1="20" y2="79"></line><line x1="170.36624398143118" x2="170.36624398143118" y1="20" y2="79"></line><line x1="179.06614886776867" x2="179.06614886776867" y1="20" y2="79"></line><line x1="185.23882961830878" x2="185.23882961830878" y1="20" y2="79"></line><line x1="190.02673277843792" x2="190.02673277843792" y1="20" y2="79"></line><line x1="193.93873450464628" x2="193.93873450464628" y1="20" y2="79"></line><line x1="197.24628483596513" x2="197.24628483596513" y1="20" y2="79"></line><line x1="200.1114152551864" x2="200.1114152551864" y1="20" y2="79"></line><line x1="202.6386393909837" x2="202.6386393909837" y1="20" y2="79"></line><line x1="204.89931841531555" x2="204.89931841531555" y1="20" y2="79"></line><line x1="219.77190405219312" x2="219.77190405219312" y1="20" y2="79"></line><line x1="228.47180893853061" x2="228.47180893853061" y1="20" y2="79"></line><line x1="234.64448968907072" x2="234.64448968907072" y1="20" y2="79"></line><line x1="239.43239284919986" x2="239.43239284919986" y1="20" y2="79"></line><line x1="243.3443945754082" x2="243.3443945754082" y1="20" y2="79"></line><line x1="246.65194490672704" x2="246.65194490672704" y1="20" y2="79"></line><line x1="249.51707532594833" x2="249.51707532594833" y1="20" y2="79"></line><line x1="252.04429946174565" x2="252.04429946174565" y1="20" y2="79"></line><line x1="254.30497848607746" x2="254.30497848607746" y1="20" y2="79"></line><line x1="269.17756412295506" x2="269.17756412295506" y1="20" y2="79"></line><line x1="277.8774690092925" x2="277.8774690092925" y1="20" y2="79"></line><line x1="284.05014975983266" x2="284.05014975983266" y1="20" y2="79"></line><line x1="288.8380529199618" x2="288.8380529199618" y1="20" y2="79"></line><line x1="292.7500546461701" x2="292.7500546461701" y1="20" y2="79"></line><line x1="296.057604977489" x2="296.057604977489" y1="20" y2="79"></line><line x1="298.92273539671027" x2="298.92273539671027" y1="20" y2="79"></line><line x1="301.4499595325076" x2="301.4499595325076" y1="20" y2="79"></line><line x1="303.7106385568394" x2="303.7106385568394" y1="20" y2="79"></line><line x1="318.583224193717" x2="318.583224193717" y1="20" y2="79"></line><line x1="327.28312908005444" x2="327.28312908005444" y1="20" y2="79"></line><line x1="333.45580983059455" x2="333.45580983059455" y1="20" y2="79"></line><line x1="338.2437129907237" x2="338.2437129907237" y1="20" y2="79"></line><line x1="342.15571471693204" x2="342.15571471693204" y1="20" y2="79"></line><line x1="345.4632650482509" x2="345.4632650482509" y1="20" y2="79"></line><line x1="348.3283954674721" x2="348.3283954674721" y1="20" y2="79"></line><line x1="350.8556196032695" x2="350.8556196032695" y1="20" y2="79"></line><line x1="353.1162986276013" x2="353.1162986276013" y1="20" y2="79"></line><line x1="367.9888842644789" x2="367.9888842644789" y1="20" y2="79"></line><line x1="376.6887891508164" x2="376.6887891508164" y1="20" y2="79"></line><line x1="382.86146990135654" x2="382.86146990135654" y1="20" y2="79"></line><line x1="387.6493730614857" x2="387.6493730614857" y1="20" y2="79"></line><line x1="391.5613747876939" x2="391.5613747876939" y1="20" y2="79"></line><line x1="394.86892511901283" x2="394.86892511901283" y1="20" y2="79"></line><line x1="397.7340555382341" x2="397.7340555382341" y1="20" y2="79"></line><line x1="400.26127967403147" x2="400.26127967403147" y1="20" y2="79"></line><line x1="402.5219586983632" x2="402.5219586983632" y1="20" y2="79"></line><line x1="417.3945443352408" x2="417.3945443352408" y1="20" y2="79"></line><line x1="426.0944492215783" x2="426.0944492215783" y1="20" y2="79"></line><line x1="432.2671299721184" x2="432.2671299721184" y1="20" y2="79"></line><line x1="437.05503313224756" x2="437.05503313224756" y1="20" y2="79"></line><line x1="440.9670348584559" x2="440.9670348584559" y1="20" y2="79"></line><line x1="444.2745851897747" x2="444.2745851897747" y1="20" y2="79"></line><line x1="447.139715608996" x2="447.139715608996" y1="20" y2="79"></line><line x1="449.6669397447933" x2="449.6669397447933" y1="20" y2="79"></line><line x1="451.92761876912516" x2="451.92761876912516" y1="20" y2="79"></line><line x1="466.8002044060027" x2="466.8002044060027" y1="20" y2="79"></line><line x1="475.5001092923402" x2="475.5001092923402" y1="20" y2="79"></line></g><g stroke="currentColor" stroke-width="0.5" stroke-opacity="0.15" transform="translate(0,326)"><line x1="120.96058391066927" x2="120.96058391066927" y1="20" y2="79"></line><line x1="129.66048879700674" x2="129.66048879700674" y1="20" y2="79"></line><line x1="135.83316954754687" x2="135.83316954754687" y1="20" y2="79"></line><line x1="140.62107270767603" x2="140.62107270767603" y1="20" y2="79"></line><line x1="144.53307443388434" x2="144.53307443388434" y1="20" y2="79"></line><line x1="147.84062476520322" x2="147.84062476520322" y1="20" y2="79"></line><line x1="150.70575518442445" x2="150.70575518442445" y1="20" y2="79"></line><line x1="153.23297932022183" x2="153.23297932022183" y1="20" y2="79"></line><line x1="155.49365834455364" x2="155.49365834455364" y1="20" y2="79"></line><line x1="170.36624398143118" x2="170.36624398143118" y1="20" y2="79"></line><line x1="179.06614886776867" x2="179.06614886776867" y1="20" y2="79"></line><line x1="185.23882961830878" x2="185.23882961830878" y1="20" y2="79"></line><line x1="190.02673277843792" x2="190.02673277843792" y1="20" y2="79"></line><line x1="193.93873450464628" x2="193.93873450464628" y1="20" y2="79"></line><line x1="197.24628483596513" x2="197.24628483596513" y1="20" y2="79"></line><line x1="200.1114152551864" x2="200.1114152551864" y1="20" y2="79"></line><line x1="202.6386393909837" x2="202.6386393909837" y1="20" y2="79"></line><line x1="204.89931841531555" x2="204.89931841531555" y1="20" y2="79"></line><line x1="219.77190405219312" x2="219.77190405219312" y1="20" y2="79"></line><line x1="228.47180893853061" x2="228.47180893853061" y1="20" y2="79"></line><line x1="234.64448968907072" x2="234.64448968907072" y1="20" y2="79"></line><line x1="239.43239284919986" x2="239.43239284919986" y1="20" y2="79"></line><line x1="243.3443945754082" x2="243.3443945754082" y1="20" y2="79"></line><line x1="246.65194490672704" x2="246.65194490672704" y1="20" y2="79"></line><line x1="249.51707532594833" x2="249.51707532594833" y1="20" y2="79"></line><line x1="252.04429946174565" x2="252.04429946174565" y1="20" y2="79"></line><line x1="254.30497848607746" x2="254.30497848607746" y1="20" y2="79"></line><line x1="269.17756412295506" x2="269.17756412295506" y1="20" y2="79"></line><line x1="277.8774690092925" x2="277.8774690092925" y1="20" y2="79"></line><line x1="284.05014975983266" x2="284.05014975983266" y1="20" y2="79"></line><line x1="288.8380529199618" x2="288.8380529199618" y1="20" y2="79"></line><line x1="292.7500546461701" x2="292.7500546461701" y1="20" y2="79"></line><line x1="296.057604977489" x2="296.057604977489" y1="20" y2="79"></line><line x1="298.92273539671027" x2="298.92273539671027" y1="20" y2="79"></line><line x1="301.4499595325076" x2="301.4499595325076" y1="20" y2="79"></line><line x1="303.7106385568394" x2="303.7106385568394" y1="20" y2="79"></line><line x1="318.583224193717" x2="318.583224193717" y1="20" y2="79"></line><line x1="327.28312908005444" x2="327.28312908005444" y1="20" y2="79"></line><line x1="333.45580983059455" x2="333.45580983059455" y1="20" y2="79"></line><line x1="338.2437129907237" x2="338.2437129907237" y1="20" y2="79"></line><line x1="342.15571471693204" x2="342.15571471693204" y1="20" y2="79"></line><line x1="345.4632650482509" x2="345.4632650482509" y1="20" y2="79"></line><line x1="348.3283954674721" x2="348.3283954674721" y1="20" y2="79"></line><line x1="350.8556196032695" x2="350.8556196032695" y1="20" y2="79"></line><line x1="353.1162986276013" x2="353.1162986276013" y1="20" y2="79"></line><line x1="367.9888842644789" x2="367.9888842644789" y1="20" y2="79"></line><line x1="376.6887891508164" x2="376.6887891508164" y1="20" y2="79"></line><line x1="382.86146990135654" x2="382.86146990135654" y1="20" y2="79"></line><line x1="387.6493730614857" x2="387.6493730614857" y1="20" y2="79"></line><line x1="391.5613747876939" x2="391.5613747876939" y1="20" y2="79"></line><line x1="394.86892511901283" x2="394.86892511901283" y1="20" y2="79"></line><line x1="397.7340555382341" x2="397.7340555382341" y1="20" y2="79"></line><line x1="400.26127967403147" x2="400.26127967403147" y1="20" y2="79"></line><line x1="402.5219586983632" x2="402.5219586983632" y1="20" y2="79"></line><line x1="417.3945443352408" x2="417.3945443352408" y1="20" y2="79"></line><line x1="426.0944492215783" x2="426.0944492215783" y1="20" y2="79"></line><line x1="432.2671299721184" x2="432.2671299721184" y1="20" y2="79"></line><line x1="437.05503313224756" x2="437.05503313224756" y1="20" y2="79"></line><line x1="440.9670348584559" x2="440.9670348584559" y1="20" y2="79"></line><line x1="444.2745851897747" x2="444.2745851897747" y1="20" y2="79"></line><line x1="447.139715608996" x2="447.139715608996" y1="20" y2="79"></line><line x1="449.6669397447933" x2="449.6669397447933" y1="20" y2="79"></line><line x1="451.92761876912516" x2="451.92761876912516" y1="20" y2="79"></line><line x1="466.8002044060027" x2="466.8002044060027" y1="20" y2="79"></line><line x1="475.5001092923402" x2="475.5001092923402" y1="20" y2="79"></line></g><g stroke="currentColor" stroke-width="0.5" stroke-opacity="0.15" transform="translate(0,391)"><line x1="120.96058391066927" x2="120.96058391066927" y1="20" y2="79"></line><line x1="129.66048879700674" x2="129.66048879700674" y1="20" y2="79"></line><line x1="135.83316954754687" x2="135.83316954754687" y1="20" y2="79"></line><line x1="140.62107270767603" x2="140.62107270767603" y1="20" y2="79"></line><line x1="144.53307443388434" x2="144.53307443388434" y1="20" y2="79"></line><line x1="147.84062476520322" x2="147.84062476520322" y1="20" y2="79"></line><line x1="150.70575518442445" x2="150.70575518442445" y1="20" y2="79"></line><line x1="153.23297932022183" x2="153.23297932022183" y1="20" y2="79"></line><line x1="155.49365834455364" x2="155.49365834455364" y1="20" y2="79"></line><line x1="170.36624398143118" x2="170.36624398143118" y1="20" y2="79"></line><line x1="179.06614886776867" x2="179.06614886776867" y1="20" y2="79"></line><line x1="185.23882961830878" x2="185.23882961830878" y1="20" y2="79"></line><line x1="190.02673277843792" x2="190.02673277843792" y1="20" y2="79"></line><line x1="193.93873450464628" x2="193.93873450464628" y1="20" y2="79"></line><line x1="197.24628483596513" x2="197.24628483596513" y1="20" y2="79"></line><line x1="200.1114152551864" x2="200.1114152551864" y1="20" y2="79"></line><line x1="202.6386393909837" x2="202.6386393909837" y1="20" y2="79"></line><line x1="204.89931841531555" x2="204.89931841531555" y1="20" y2="79"></line><line x1="219.77190405219312" x2="219.77190405219312" y1="20" y2="79"></line><line x1="228.47180893853061" x2="228.47180893853061" y1="20" y2="79"></line><line x1="234.64448968907072" x2="234.64448968907072" y1="20" y2="79"></line><line x1="239.43239284919986" x2="239.43239284919986" y1="20" y2="79"></line><line x1="243.3443945754082" x2="243.3443945754082" y1="20" y2="79"></line><line x1="246.65194490672704" x2="246.65194490672704" y1="20" y2="79"></line><line x1="249.51707532594833" x2="249.51707532594833" y1="20" y2="79"></line><line x1="252.04429946174565" x2="252.04429946174565" y1="20" y2="79"></line><line x1="254.30497848607746" x2="254.30497848607746" y1="20" y2="79"></line><line x1="269.17756412295506" x2="269.17756412295506" y1="20" y2="79"></line><line x1="277.8774690092925" x2="277.8774690092925" y1="20" y2="79"></line><line x1="284.05014975983266" x2="284.05014975983266" y1="20" y2="79"></line><line x1="288.8380529199618" x2="288.8380529199618" y1="20" y2="79"></line><line x1="292.7500546461701" x2="292.7500546461701" y1="20" y2="79"></line><line x1="296.057604977489" x2="296.057604977489" y1="20" y2="79"></line><line x1="298.92273539671027" x2="298.92273539671027" y1="20" y2="79"></line><line x1="301.4499595325076" x2="301.4499595325076" y1="20" y2="79"></line><line x1="303.7106385568394" x2="303.7106385568394" y1="20" y2="79"></line><line x1="318.583224193717" x2="318.583224193717" y1="20" y2="79"></line><line x1="327.28312908005444" x2="327.28312908005444" y1="20" y2="79"></line><line x1="333.45580983059455" x2="333.45580983059455" y1="20" y2="79"></line><line x1="338.2437129907237" x2="338.2437129907237" y1="20" y2="79"></line><line x1="342.15571471693204" x2="342.15571471693204" y1="20" y2="79"></line><line x1="345.4632650482509" x2="345.4632650482509" y1="20" y2="79"></line><line x1="348.3283954674721" x2="348.3283954674721" y1="20" y2="79"></line><line x1="350.8556196032695" x2="350.8556196032695" y1="20" y2="79"></line><line x1="353.1162986276013" x2="353.1162986276013" y1="20" y2="79"></line><line x1="367.9888842644789" x2="367.9888842644789" y1="20" y2="79"></line><line x1="376.6887891508164" x2="376.6887891508164" y1="20" y2="79"></line><line x1="382.86146990135654" x2="382.86146990135654" y1="20" y2="79"></line><line x1="387.6493730614857" x2="387.6493730614857" y1="20" y2="79"></line><line x1="391.5613747876939" x2="391.5613747876939" y1="20" y2="79"></line><line x1="394.86892511901283" x2="394.86892511901283" y1="20" y2="79"></line><line x1="397.7340555382341" x2="397.7340555382341" y1="20" y2="79"></line><line x1="400.26127967403147" x2="400.26127967403147" y1="20" y2="79"></line><line x1="402.5219586983632" x2="402.5219586983632" y1="20" y2="79"></line><line x1="417.3945443352408" x2="417.3945443352408" y1="20" y2="79"></line><line x1="426.0944492215783" x2="426.0944492215783" y1="20" y2="79"></line><line x1="432.2671299721184" x2="432.2671299721184" y1="20" y2="79"></line><line x1="437.05503313224756" x2="437.05503313224756" y1="20" y2="79"></line><line x1="440.9670348584559" x2="440.9670348584559" y1="20" y2="79"></line><line x1="444.2745851897747" x2="444.2745851897747" y1="20" y2="79"></line><line x1="447.139715608996" x2="447.139715608996" y1="20" y2="79"></line><line x1="449.6669397447933" x2="449.6669397447933" y1="20" y2="79"></line><line x1="451.92761876912516" x2="451.92761876912516" y1="20" y2="79"></line><line x1="466.8002044060027" x2="466.8002044060027" y1="20" y2="79"></line><line x1="475.5001092923402" x2="475.5001092923402" y1="20" y2="79"></line></g></g><g aria-label="y-axis tick" aria-hidden="true" transform="translate(0,3.5)"><g fill="none" stroke="currentColor" transform="translate(0,1)"><path transform="translate(110,22)" d="M0,0L-6,0"></path><path transform="translate(110,30)" d="M0,0L-6,0"></path><path transform="translate(110,38)" d="M0,0L-6,0"></path><path transform="translate(110,46)" d="M0,0L-6,0"></path><path transform="translate(110,54)" d="M0,0L-6,0"></path><path transform="translate(110,62)" d="M0,0L-6,0"></path><path transform="translate(110,70)" d="M0,0L-6,0"></path></g><g fill="none" stroke="currentColor" transform="translate(0,66)"><path transform="translate(110,22)" d="M0,0L-6,0"></path><path transform="translate(110,30)" d="M0,0L-6,0"></path><path transform="translate(110,38)" d="M0,0L-6,0"></path><path transform="translate(110,46)" d="M0,0L-6,0"></path><path transform="translate(110,54)" d="M0,0L-6,0"></path><path transform="translate(110,62)" d="M0,0L-6,0"></path><path transform="translate(110,70)" d="M0,0L-6,0"></path></g><g fill="none" stroke="currentColor" transform="translate(0,131)"><path transform="translate(110,22)" d="M0,0L-6,0"></path><path transform="translate(110,30)" d="M0,0L-6,0"></path><path transform="translate(110,38)" d="M0,0L-6,0"></path><path transform="translate(110,46)" d="M0,0L-6,0"></path><path transform="translate(110,54)" d="M0,0L-6,0"></path><path transform="translate(110,62)" d="M0,0L-6,0"></path><path transform="translate(110,70)" d="M0,0L-6,0"></path></g><g fill="none" stroke="currentColor" transform="translate(0,196)"><path transform="translate(110,22)" d="M0,0L-6,0"></path><path transform="translate(110,30)" d="M0,0L-6,0"></path><path transform="translate(110,38)" d="M0,0L-6,0"></path><path transform="translate(110,46)" d="M0,0L-6,0"></path><path transform="translate(110,54)" d="M0,0L-6,0"></path><path transform="translate(110,62)" d="M0,0L-6,0"></path><path transform="translate(110,70)" d="M0,0L-6,0"></path></g><g fill="none" stroke="currentColor" transform="translate(0,261)"><path transform="translate(110,22)" d="M0,0L-6,0"></path><path transform="translate(110,30)" d="M0,0L-6,0"></path><path transform="translate(110,38)" d="M0,0L-6,0"></path><path transform="translate(110,46)" d="M0,0L-6,0"></path><path transform="translate(110,54)" d="M0,0L-6,0"></path><path transform="translate(110,62)" d="M0,0L-6,0"></path><path transform="translate(110,70)" d="M0,0L-6,0"></path></g><g fill="none" stroke="currentColor" transform="translate(0,326)"><path transform="translate(110,22)" d="M0,0L-6,0"></path><path transform="translate(110,30)" d="M0,0L-6,0"></path><path transform="translate(110,38)" d="M0,0L-6,0"></path><path transform="translate(110,46)" d="M0,0L-6,0"></path><path transform="translate(110,54)" d="M0,0L-6,0"></path><path transform="translate(110,62)" d="M0,0L-6,0"></path><path transform="translate(110,70)" d="M0,0L-6,0"></path></g><g fill="none" stroke="currentColor" transform="translate(0,391)"><path transform="translate(110,22)" d="M0,0L-6,0"></path><path transform="translate(110,30)" d="M0,0L-6,0"></path><path transform="translate(110,38)" d="M0,0L-6,0"></path><path transform="translate(110,46)" d="M0,0L-6,0"></path><path transform="translate(110,54)" d="M0,0L-6,0"></path><path transform="translate(110,62)" d="M0,0L-6,0"></path><path transform="translate(110,70)" d="M0,0L-6,0"></path></g></g><g aria-label="y-axis tick label" transform="translate(-9,3.5)"><g text-anchor="end" font-size="8" transform="translate(0,1)"><text y="0.32em" transform="translate(110,22)">S1</text><text y="0.32em" transform="translate(110,30)">S2</text><text y="0.32em" transform="translate(110,38)">S3</text><text y="0.32em" transform="translate(110,46)">C1</text><text y="0.32em" transform="translate(110,54)">C2</text><text y="0.32em" transform="translate(110,62)">A1</text><text y="0.32em" transform="translate(110,70)">A2</text></g><g text-anchor="end" font-size="8" transform="translate(0,66)"><text y="0.32em" transform="translate(110,22)">S1</text><text y="0.32em" transform="translate(110,30)">S2</text><text y="0.32em" transform="translate(110,38)">S3</text><text y="0.32em" transform="translate(110,46)">C1</text><text y="0.32em" transform="translate(110,54)">C2</text><text y="0.32em" transform="translate(110,62)">A1</text><text y="0.32em" transform="translate(110,70)">A2</text></g><g text-anchor="end" font-size="8" transform="translate(0,131)"><text y="0.32em" transform="translate(110,22)">S1</text><text y="0.32em" transform="translate(110,30)">S2</text><text y="0.32em" transform="translate(110,38)">S3</text><text y="0.32em" transform="translate(110,46)">C1</text><text y="0.32em" transform="translate(110,54)">C2</text><text y="0.32em" transform="translate(110,62)">A1</text><text y="0.32em" transform="translate(110,70)">A2</text></g><g text-anchor="end" font-size="8" transform="translate(0,196)"><text y="0.32em" transform="translate(110,22)">S1</text><text y="0.32em" transform="translate(110,30)">S2</text><text y="0.32em" transform="translate(110,38)">S3</text><text y="0.32em" transform="translate(110,46)">C1</text><text y="0.32em" transform="translate(110,54)">C2</text><text y="0.32em" transform="translate(110,62)">A1</text><text y="0.32em" transform="translate(110,70)">A2</text></g><g text-anchor="end" font-size="8" transform="translate(0,261)"><text y="0.32em" transform="translate(110,22)">S1</text><text y="0.32em" transform="translate(110,30)">S2</text><text y="0.32em" transform="translate(110,38)">S3</text><text y="0.32em" transform="translate(110,46)">C1</text><text y="0.32em" transform="translate(110,54)">C2</text><text y="0.32em" transform="translate(110,62)">A1</text><text y="0.32em" transform="translate(110,70)">A2</text></g><g text-anchor="end" font-size="8" transform="translate(0,326)"><text y="0.32em" transform="translate(110,22)">S1</text><text y="0.32em" transform="translate(110,30)">S2</text><text y="0.32em" transform="translate(110,38)">S3</text><text y="0.32em" transform="translate(110,46)">C1</text><text y="0.32em" transform="translate(110,54)">C2</text><text y="0.32em" transform="translate(110,62)">A1</text><text y="0.32em" transform="translate(110,70)">A2</text></g><g text-anchor="end" font-size="8" transform="translate(0,391)"><text y="0.32em" transform="translate(110,22)">S1</text><text y="0.32em" transform="translate(110,30)">S2</text><text y="0.32em" transform="translate(110,38)">S3</text><text y="0.32em" transform="translate(110,46)">C1</text><text y="0.32em" transform="translate(110,54)">C2</text><text y="0.32em" transform="translate(110,62)">A1</text><text y="0.32em" transform="translate(110,70)">A2</text></g></g><g aria-label="bar"><g transform="translate(0,1)"><rect x="110" width="8.08391610433884" y="22" height="7" fill="#1b9e77"></rect><rect x="110" width="17.36356339409751" y="30" height="7" fill="#1b9e77"></rect><rect x="110" width="21.418233906965582" y="38" height="7" fill="#1b9e77"></rect><rect x="110" width="84.82231703422323" y="46" height="7" fill="#d95f02"></rect><rect x="110" width="91.65405915578981" y="54" height="7" fill="#d95f02"></rect><rect x="110" width="41.76465039213713" y="62" height="7" fill="#7570b3"></rect><rect x="110" width="63.224940587120386" y="70" height="7" fill="#7570b3"></rect></g><g transform="translate(0,66)"><rect x="110" width="0" y="22" height="7" fill="#1b9e77"></rect><rect x="110" width="0" y="30" height="7" fill="#1b9e77"></rect><rect x="110" width="0" y="38" height="7" fill="#1b9e77"></rect><rect x="110" width="0" y="46" height="7" fill="#d95f02"></rect><rect x="110" width="0" y="54" height="7" fill="#d95f02"></rect><rect x="110" width="0" y="62" height="7" fill="#7570b3"></rect><rect x="110" width="0" y="70" height="7" fill="#7570b3"></rect></g><g transform="translate(0,131)"><rect x="110" width="10.500285070977043" y="22" height="7" fill="#1b9e77"></rect><rect x="110" width="19.847353333147367" y="30" height="7" fill="#1b9e77"></rect><rect x="110" width="17.584572988227563" y="38" height="7" fill="#1b9e77"></rect><rect x="110" width="123.36665859257906" y="46" height="7" fill="#d95f02"></rect><rect x="110" width="125.0133177874896" y="54" height="7" fill="#d95f02"></rect><rect x="110" width="182.5512070514522" y="62" height="7" fill="#7570b3"></rect><rect x="110" width="320.2279761737913" y="70" height="7" fill="#7570b3"></rect></g><g transform="translate(0,196)"><rect x="110" width="0" y="22" height="7" fill="#1b9e77"></rect><rect x="110" width="0" y="30" height="7" fill="#1b9e77"></rect><rect x="110" width="0" y="38" height="7" fill="#1b9e77"></rect><rect x="110" width="0" y="46" height="7" fill="#d95f02"></rect><rect x="110" width="0" y="54" height="7" fill="#d95f02"></rect><rect x="110" width="0" y="62" height="7" fill="#7570b3"></rect><rect x="110" width="0" y="70" height="7" fill="#7570b3"></rect></g><g transform="translate(0,261)"><rect x="110" width="57.67813932784972" y="22" height="7" fill="#1b9e77"></rect><rect x="110" width="59.06702065360963" y="30" height="7" fill="#1b9e77"></rect><rect x="110" width="64.10590206318182" y="38" height="7" fill="#1b9e77"></rect><rect x="110" width="80.99689249924253" y="46" height="7" fill="#d95f02"></rect><rect x="110" width="85.52601296051819" y="54" height="7" fill="#d95f02"></rect><rect x="110" width="75.49367525629552" y="62" height="7" fill="#7570b3"></rect><rect x="110" width="65.24417073961916" y="70" height="7" fill="#7570b3"></rect></g><g transform="translate(0,326)"><rect x="110" width="128.24474122562185" y="22" height="7" fill="#1b9e77"></rect><rect x="110" width="132.17931083379597" y="30" height="7" fill="#1b9e77"></rect><rect x="110" width="145.55554431537894" y="38" height="7" fill="#1b9e77"></rect><rect x="110" width="245.58073358132106" y="46" height="7" fill="#d95f02"></rect><rect x="110" width="273.25949608831235" y="54" height="7" fill="#d95f02"></rect><rect x="110" width="126.61840954697502" y="62" height="7" fill="#7570b3"></rect><rect x="110" width="132.587513583321" y="70" height="7" fill="#7570b3"></rect></g><g transform="translate(0,391)"><rect x="110" width="77.47550342688771" y="22" height="7" fill="#1b9e77"></rect><rect x="110" width="86.50356095810875" y="30" height="7" fill="#1b9e77"></rect><rect x="110" width="88.59870340593889" y="38" height="7" fill="#1b9e77"></rect><rect x="110" width="114.23831422699232" y="46" height="7" fill="#d95f02"></rect><rect x="110" width="118.70328497574644" y="54" height="7" fill="#d95f02"></rect><rect x="110" width="90.05522004085438" y="62" height="7" fill="#7570b3"></rect><rect x="110" width="95.66203316621437" y="70" height="7" fill="#7570b3"></rect></g></g><g aria-label="fy-axis tick label" transform="translate(-26,0)"><g text-anchor="end" font-size="15px" transform="translate(0,1)"><text transform="translate(110,49.5)"><tspan x="0" y="-0.216em">Feathertail</tspan><tspan x="0" dy="1.2em">(merge)</tspan></text></g><g text-anchor="end" font-size="15px" transform="translate(0,66)"><text transform="translate(110,49.5)"><tspan x="0" y="-0.216em">Feathertail</tspan><tspan x="0" dy="1.2em">(load)</tspan></text></g><g text-anchor="end" font-size="15px" transform="translate(0,131)"><text transform="translate(110,49.5)"><tspan x="0" y="-0.216em">OT</tspan><tspan x="0" dy="1.2em">(merge)</tspan></text></g><g text-anchor="end" font-size="15px" transform="translate(0,196)"><text transform="translate(110,49.5)"><tspan x="0" y="-0.216em">OT</tspan><tspan x="0" dy="1.2em">(load)</tspan></text></g><g text-anchor="end" font-size="15px" transform="translate(0,261)"><text y="0.384em" transform="translate(110,49.5)">Ref CRDT</text></g><g text-anchor="end" font-size="15px" transform="translate(0,326)"><text y="0.384em" transform="translate(110,49.5)">Automerge</text></g><g text-anchor="end" font-size="15px" transform="translate(0,391)"><text y="0.384em" transform="translate(110,49.5)">Yjs</text></g></g><g aria-label="rule"><g stroke="#800000" stroke-opacity="0.5" transform="translate(0,1)"><line x1="166.45424225522288" x2="166.45424225522288" y1="20" y2="79"></line></g><g stroke="#800000" stroke-opacity="0.5" transform="translate(0,66)"><line x1="166.45424225522288" x2="166.45424225522288" y1="20" y2="79"></line></g><g stroke="#800000" stroke-opacity="0.5" transform="translate(0,131)"><line x1="166.45424225522288" x2="166.45424225522288" y1="20" y2="79"></line></g><g stroke="#800000" stroke-opacity="0.5" transform="translate(0,196)"><line x1="166.45424225522288" x2="166.45424225522288" y1="20" y2="79"></line></g><g stroke="#800000" stroke-opacity="0.5" transform="translate(0,261)"><line x1="166.45424225522288" x2="166.45424225522288" y1="20" y2="79"></line></g><g stroke="#800000" stroke-opacity="0.5" transform="translate(0,326)"><line x1="166.45424225522288" x2="166.45424225522288" y1="20" y2="79"></line></g><g stroke="#800000" stroke-opacity="0.5" transform="translate(0,391)"><line x1="166.45424225522288" x2="166.45424225522288" y1="20" y2="79"></line></g></g><g aria-label="tick"><g stroke="currentColor" transform="translate(0,1)"><line x1="118.08391610433884" x2="118.08391610433884" y1="22" y2="29"></line><line x1="127.36356339409751" x2="127.36356339409751" y1="30" y2="37"></line><line x1="131.41823390696558" x2="131.41823390696558" y1="38" y2="45"></line><line x1="194.82231703422323" x2="194.82231703422323" y1="46" y2="53"></line><line x1="201.6540591557898" x2="201.6540591557898" y1="54" y2="61"></line><line x1="151.76465039213713" x2="151.76465039213713" y1="62" y2="69"></line><line x1="173.2249405871204" x2="173.2249405871204" y1="70" y2="77"></line></g><g stroke="currentColor" transform="translate(0,66)"><line x1="110" x2="110" y1="22" y2="29"></line><line x1="110" x2="110" y1="30" y2="37"></line><line x1="110" x2="110" y1="38" y2="45"></line><line x1="110" x2="110" y1="46" y2="53"></line><line x1="110" x2="110" y1="54" y2="61"></line><line x1="110" x2="110" y1="62" y2="69"></line><line x1="110" x2="110" y1="70" y2="77"></line></g><g stroke="currentColor" transform="translate(0,131)"><line x1="120.50028507097704" x2="120.50028507097704" y1="22" y2="29"></line><line x1="129.84735333314737" x2="129.84735333314737" y1="30" y2="37"></line><line x1="127.58457298822756" x2="127.58457298822756" y1="38" y2="45"></line><line x1="233.36665859257906" x2="233.36665859257906" y1="46" y2="53"></line><line x1="235.0133177874896" x2="235.0133177874896" y1="54" y2="61"></line><line x1="292.5512070514522" x2="292.5512070514522" y1="62" y2="69"></line><line x1="430.2279761737913" x2="430.2279761737913" y1="70" y2="77"></line></g><g stroke="currentColor" transform="translate(0,196)"><line x1="110" x2="110" y1="22" y2="29"></line><line x1="110" x2="110" y1="30" y2="37"></line><line x1="110" x2="110" y1="38" y2="45"></line><line x1="110" x2="110" y1="46" y2="53"></line><line x1="110" x2="110" y1="54" y2="61"></line><line x1="110" x2="110" y1="62" y2="69"></line><line x1="110" x2="110" y1="70" y2="77"></line></g><g stroke="currentColor" transform="translate(0,261)"><line x1="167.67813932784972" x2="167.67813932784972" y1="22" y2="29"></line><line x1="169.06702065360963" x2="169.06702065360963" y1="30" y2="37"></line><line x1="174.10590206318182" x2="174.10590206318182" y1="38" y2="45"></line><line x1="190.99689249924253" x2="190.99689249924253" y1="46" y2="53"></line><line x1="195.5260129605182" x2="195.5260129605182" y1="54" y2="61"></line><line x1="185.49367525629552" x2="185.49367525629552" y1="62" y2="69"></line><line x1="175.24417073961916" x2="175.24417073961916" y1="70" y2="77"></line></g><g stroke="currentColor" transform="translate(0,326)"><line x1="238.24474122562185" x2="238.24474122562185" y1="22" y2="29"></line><line x1="242.17931083379597" x2="242.17931083379597" y1="30" y2="37"></line><line x1="255.55554431537894" x2="255.55554431537894" y1="38" y2="45"></line><line x1="355.58073358132106" x2="355.58073358132106" y1="46" y2="53"></line><line x1="383.25949608831235" x2="383.25949608831235" y1="54" y2="61"></line><line x1="236.61840954697502" x2="236.61840954697502" y1="62" y2="69"></line><line x1="242.587513583321" x2="242.587513583321" y1="70" y2="77"></line></g><g stroke="currentColor" transform="translate(0,391)"><line x1="187.4755034268877" x2="187.4755034268877" y1="22" y2="29"></line><line x1="196.50356095810875" x2="196.50356095810875" y1="30" y2="37"></line><line x1="198.5987034059389" x2="198.5987034059389" y1="38" y2="45"></line><line x1="224.23831422699232" x2="224.23831422699232" y1="46" y2="53"></line><line x1="228.70328497574644" x2="228.70328497574644" y1="54" y2="61"></line><line x1="200.05522004085438" x2="200.05522004085438" y1="62" y2="69"></line><line x1="205.66203316621437" x2="205.66203316621437" y1="70" y2="77"></line></g></g><g aria-label="text" transform="translate(6,3.5)"><g fill="black" text-anchor="start" font-size="9" transform="translate(0,1)"><text y="0.32em" transform="translate(118.08391610433884,22)">1.7 ms</text><text y="0.32em" transform="translate(127.36356339409751,30)">2.7 ms</text><text y="0.32em" transform="translate(131.41823390696558,38)">3.3 ms</text><text y="0.32em" transform="translate(194.82231703422323,46)">62.5 ms</text><text y="0.32em" transform="translate(201.6540591557898,54)">86 ms</text><text y="0.32em" transform="translate(151.76465039213713,62)">8.4 ms</text><text y="0.32em" transform="translate(173.2249405871204,70)">22.9 ms</text></g><g fill="black" text-anchor="start" font-size="9" transform="translate(0,66)"><text y="0.32em" transform="translate(110,22)">0.08 ms</text><text y="0.32em" transform="translate(110,30)">0.04 ms</text><text y="0.32em" transform="translate(110,38)">0.02 ms</text><text y="0.32em" transform="translate(110,46)">0.12 ms</text><text y="0.32em" transform="translate(110,54)">0.12 ms</text><text y="0.32em" transform="translate(110,62)">0.01 ms</text><text y="0.32em" transform="translate(110,70)">0.06 ms</text></g><g fill="black" text-anchor="start" font-size="9" transform="translate(0,131)"><text y="0.32em" transform="translate(120.50028507097704,22)">2 ms</text><text y="0.32em" transform="translate(129.84735333314737,30)">3 ms</text><text y="0.32em" transform="translate(127.58457298822756,38)">2.7 ms</text><text y="0.32em" transform="translate(233.36665859257906,46)">377 ms</text><text y="0.32em" transform="translate(235.0133177874896,54)">407 ms</text><text y="0.32em" transform="translate(292.5512070514522,62)">5.9 sec</text><text y="0.32em" transform="translate(430.2279761737913,70)">60.6 min</text></g><g fill="black" text-anchor="start" font-size="9" transform="translate(0,196)"><text y="0.32em" transform="translate(110,22)">0.08 ms</text><text y="0.32em" transform="translate(110,30)">0.04 ms</text><text y="0.32em" transform="translate(110,38)">0.02 ms</text><text y="0.32em" transform="translate(110,46)">0.12 ms</text><text y="0.32em" transform="translate(110,54)">0.12 ms</text><text y="0.32em" transform="translate(110,62)">0.01 ms</text><text y="0.32em" transform="translate(110,70)">0.06 ms</text></g><g fill="black" text-anchor="start" font-size="9" transform="translate(0,261)"><text y="0.32em" transform="translate(167.67813932784972,22)">17.6 ms</text><text y="0.32em" transform="translate(169.06702065360963,30)">18.8 ms</text><text y="0.32em" transform="translate(174.10590206318182,38)">23.8 ms</text><text y="0.32em" transform="translate(190.99689249924253,46)">52.3 ms</text><text y="0.32em" transform="translate(195.5260129605182,54)">64.6 ms</text><text y="0.32em" transform="translate(185.49367525629552,62)">40.5 ms</text><text y="0.32em" transform="translate(175.24417073961916,70)">25.1 ms</text></g><g fill="black" text-anchor="start" font-size="9" transform="translate(0,326)"><text y="0.32em" transform="translate(238.24474122562185,22)">473 ms</text><text y="0.32em" transform="translate(242.17931083379597,30)">568 ms</text><text y="0.32em" transform="translate(255.55554431537894,38)">1.1 sec</text><text y="0.32em" transform="translate(355.58073358132106,46)">1.9 min</text><text y="0.32em" transform="translate(383.25949608831235,54)">6.8 min</text><text y="0.32em" transform="translate(236.61840954697502,62)">439 ms</text><text y="0.32em" transform="translate(242.587513583321,70)">579 ms</text></g><g fill="black" text-anchor="start" font-size="9" transform="translate(0,391)"><text y="0.32em" transform="translate(187.4755034268877,22)">44.4 ms</text><text y="0.32em" transform="translate(196.50356095810875,30)">67.6 ms</text><text y="0.32em" transform="translate(198.5987034059389,38)">74.6 ms</text><text y="0.32em" transform="translate(224.23831422699232,46)">246 ms</text><text y="0.32em" transform="translate(228.70328497574644,54)">303 ms</text><text y="0.32em" transform="translate(200.05522004085438,62)">79.8 ms</text><text y="0.32em" transform="translate(205.66203316621437,70)">104 ms</text></g></g><g aria-label="rule"><g stroke="currentColor" stroke-width="1.5" transform="translate(0,1)"><line x1="110" x2="110" y1="20" y2="79"></line></g><g stroke="currentColor" stroke-width="1.5" transform="translate(0,66)"><line x1="110" x2="110" y1="20" y2="79"></line></g><g stroke="currentColor" stroke-width="1.5" transform="translate(0,131)"><line x1="110" x2="110" y1="20" y2="79"></line></g><g stroke="currentColor" stroke-width="1.5" transform="translate(0,196)"><line x1="110" x2="110" y1="20" y2="79"></line></g><g stroke="currentColor" stroke-width="1.5" transform="translate(0,261)"><line x1="110" x2="110" y1="20" y2="79"></line></g><g stroke="currentColor" stroke-width="1.5" transform="translate(0,326)"><line x1="110" x2="110" y1="20" y2="79"></line></g><g stroke="currentColor" stroke-width="1.5" transform="translate(0,391)"><line x1="110" x2="110" y1="20" y2="79"></line></g></g></svg>